<svg width="41" height="31" viewBox="0 0 41 31" fill="none" xmlns="http://www.w3.org/2000/svg">
<mask id="mask0_9311_671" style="mask-type:luminance" maskUnits="userSpaceOnUse" x="0" y="0" width="41" height="31">
<rect x="0.5" y="0.906006" width="40" height="30" fill="white"/>
</mask>
<g mask="url(#mask0_9311_671)">
<path fill-rule="evenodd" clip-rule="evenodd" d="M0.5 0.906006V30.906H40.5V0.906006H0.5Z" fill="#2E42A5"/>
<mask id="mask1_9311_671" style="mask-type:luminance" maskUnits="userSpaceOnUse" x="0" y="0" width="41" height="31">
<path fill-rule="evenodd" clip-rule="evenodd" d="M0.5 0.906006V30.906H40.5V0.906006H0.5Z" fill="white"/>
</mask>
<g mask="url(#mask1_9311_671)">
<rect x="0.5" y="0.906006" width="22.5" height="17.5" fill="#2B409A"/>
<mask id="mask2_9311_671" style="mask-type:luminance" maskUnits="userSpaceOnUse" x="0" y="0" width="23" height="19">
<rect x="0.5" y="0.906006" width="22.5" height="17.5" fill="white"/>
</mask>
<g mask="url(#mask2_9311_671)">
<path d="M-2.00513 17.1558L2.94606 19.3273L23.1126 3.26698L25.7242 0.0400696L20.4296 -0.685711L12.2042 6.23515L5.58355 10.8982L-2.00513 17.1558Z" fill="#F7FCFF"/>
<path d="M-1.32764 18.6772L1.19477 19.9374L24.786 -0.259766H21.2443L-1.32764 18.6772Z" fill="#F50100"/>
<path d="M25.5061 17.1558L20.5549 19.3273L0.38842 3.26698L-2.22322 0.0400696L3.07137 -0.685711L11.2968 6.23515L17.9174 10.8982L25.5061 17.1558Z" fill="#F7FCFF"/>
<path d="M25.3376 18.2475L22.8152 19.5077L12.7698 10.8602L9.79159 9.89408L-2.47403 0.0509205H1.06771L13.3264 9.66045L16.5826 10.819L25.3376 18.2475Z" fill="#F50100"/>
<mask id="path-10-outside-1_9311_671" maskUnits="userSpaceOnUse" x="-1.50024" y="-1.09399" width="26" height="21" fill="black">
<rect fill="white" x="-1.50024" y="-1.09399" width="26" height="21"/>
<path fill-rule="evenodd" clip-rule="evenodd" d="M12.9802 0.906006H10.4802V8.40601H0.499756V10.906H10.4802V18.406H12.9802V10.906H22.9998V8.40601H12.9802V0.906006Z"/>
</mask>
<path fill-rule="evenodd" clip-rule="evenodd" d="M12.9802 0.906006H10.4802V8.40601H0.499756V10.906H10.4802V18.406H12.9802V10.906H22.9998V8.40601H12.9802V0.906006Z" fill="#F50100"/>
<path d="M10.4802 0.906006V-0.593994H8.98022V0.906006H10.4802ZM12.9802 0.906006H14.4802V-0.593994H12.9802V0.906006ZM10.4802 8.40601V9.90601H11.9802V8.40601H10.4802ZM0.499756 8.40601V6.90601H-1.00024V8.40601H0.499756ZM0.499756 10.906H-1.00024V12.406H0.499756V10.906ZM10.4802 10.906H11.9802V9.40601H10.4802V10.906ZM10.4802 18.406H8.98022V19.906H10.4802V18.406ZM12.9802 18.406V19.906H14.4802V18.406H12.9802ZM12.9802 10.906V9.40601H11.4802V10.906H12.9802ZM22.9998 10.906V12.406H24.4998V10.906H22.9998ZM22.9998 8.40601H24.4998V6.90601H22.9998V8.40601ZM12.9802 8.40601H11.4802V9.90601H12.9802V8.40601ZM10.4802 2.40601H12.9802V-0.593994H10.4802V2.40601ZM11.9802 8.40601V0.906006H8.98022V8.40601H11.9802ZM0.499756 9.90601H10.4802V6.90601H0.499756V9.90601ZM1.99976 10.906V8.40601H-1.00024V10.906H1.99976ZM10.4802 9.40601H0.499756V12.406H10.4802V9.40601ZM11.9802 18.406V10.906H8.98022V18.406H11.9802ZM12.9802 16.906H10.4802V19.906H12.9802V16.906ZM11.4802 10.906V18.406H14.4802V10.906H11.4802ZM22.9998 9.40601H12.9802V12.406H22.9998V9.40601ZM21.4998 8.40601V10.906H24.4998V8.40601H21.4998ZM12.9802 9.90601H22.9998V6.90601H12.9802V9.90601ZM11.4802 0.906006V8.40601H14.4802V0.906006H11.4802Z" fill="#F7FCFF" mask="url(#path-10-outside-1_9311_671)"/>
</g>
</g>
<path d="M14 23.906L12.6983 25.1089L12.8273 23.3412L11.0752 23.0736L12.5376 22.0722L11.6545 20.5355L13.3492 21.0546L14 19.406L14.6508 21.0546L16.3455 20.5355L15.4624 22.0722L16.9248 23.0736L15.1727 23.3412L15.3017 25.1089L14 23.906Z" fill="#F7FCFF"/>
<path d="M27 16.406L26.1322 17.2079L26.2182 16.0295L25.0501 15.851L26.0251 15.1835L25.4363 14.159L26.5661 14.505L27 13.406L27.4339 14.505L28.5637 14.159L27.9749 15.1835L28.9499 15.851L27.7818 16.0295L27.8678 17.2079L27 16.406Z" fill="#F7FCFF"/>
<path d="M29 8.40601L28.1322 9.20794L28.2182 8.0295L27.0501 7.85105L28.0251 7.18348L27.4363 6.15903L28.5661 6.50504L29 5.40601L29.4339 6.50504L30.5637 6.15903L29.9749 7.18348L30.9499 7.85105L29.7818 8.0295L29.8678 9.20794L29 8.40601Z" fill="#F7FCFF"/>
<path d="M34 12.406L33.1322 13.2079L33.2182 12.0295L32.0501 11.851L33.0251 11.1835L32.4363 10.159L33.5661 10.505L34 9.40601L34.4339 10.505L35.5637 10.159L34.9749 11.1835L35.9499 11.851L34.7818 12.0295L34.8678 13.2079L34 12.406Z" fill="#F7FCFF"/>
<path d="M30 25.406L29.1322 26.2079L29.2182 25.0295L28.0501 24.851L29.0251 24.1835L28.4363 23.159L29.5661 23.505L30 22.406L30.4339 23.505L31.5637 23.159L30.9749 24.1835L31.9499 24.851L30.7818 25.0295L30.8678 26.2079L30 25.406Z" fill="#F7FCFF"/>
<path d="M33.5 17.656L32.6183 18.1195L32.7867 17.1378L32.0734 16.4425L33.0592 16.2992L33.5 15.406L33.9408 16.2992L34.9266 16.4425L34.2133 17.1378L34.3817 18.1195L33.5 17.656Z" fill="#F7FCFF"/>
</g>
</svg>
