<svg width="50" height="51" viewBox="0 0 50 51" fill="none" xmlns="http://www.w3.org/2000/svg">
<rect y="0.5" width="50" height="50" rx="25" fill="#FDFAE9"/>
<g clip-path="url(#clip0_11012_2027)">
<path d="M16.7178 17.8555C16.2751 18.2852 15.917 18.6465 15.6436 18.9395C15.3701 19.2324 15.2074 19.4115 15.1553 19.4766C14.7126 20.1667 14.5303 20.9707 14.6084 21.8887C14.6865 22.8066 15.0186 23.8581 15.6045 25.043C15.904 25.6419 16.249 26.2474 16.6396 26.8594C17.0433 27.4714 17.4827 28.0801 17.958 28.6855C18.4333 29.291 18.9443 29.8867 19.4912 30.4727C20.0381 31.0586 20.6175 31.625 21.2295 32.1719C21.8545 32.7448 22.486 33.2656 23.124 33.7344C23.749 34.2031 24.3675 34.6133 24.9795 34.9648C25.5915 35.3164 26.1839 35.6029 26.7568 35.8242C27.3428 36.0586 27.9027 36.2279 28.4365 36.332C28.5537 36.3451 28.6937 36.3581 28.8564 36.3711C29.0192 36.3841 29.2048 36.3906 29.4131 36.3906C29.6865 36.3906 29.8818 36.3841 29.999 36.3711C30.1162 36.3581 30.2594 36.332 30.4287 36.293C30.6501 36.2279 30.8617 36.1497 31.0635 36.0586C31.2653 35.9674 31.4443 35.8633 31.6006 35.7461C31.6657 35.694 31.8545 35.5182 32.167 35.2188C32.4795 34.9193 32.8311 34.5807 33.2217 34.2031L34.5889 32.8555L29.4131 27.6797L28.0654 29.0078C27.6878 29.3724 27.3558 29.6914 27.0693 29.9648C26.7829 30.2383 26.6266 30.3815 26.6006 30.3945C26.5485 30.4206 26.4671 30.4336 26.3564 30.4336C26.2458 30.4336 26.1579 30.4206 26.0928 30.3945C26.0146 30.3555 25.7868 30.1927 25.4092 29.9062C25.0316 29.6198 24.7256 29.3724 24.4912 29.1641C24.2308 28.9557 23.9378 28.6888 23.6123 28.3633C23.2738 28.0378 22.9385 27.696 22.6064 27.3379C22.2744 26.9798 21.9456 26.612 21.6201 26.2344C21.2946 25.8568 21.0146 25.5052 20.7803 25.1797C20.6631 25.0365 20.5947 24.9388 20.5752 24.8867C20.5557 24.8346 20.5459 24.75 20.5459 24.6328V24.3789L23.3193 21.6055L20.7412 19.0273C20.0381 18.3242 19.4294 17.7188 18.915 17.2109C18.4007 16.7031 18.1436 16.4492 18.1436 16.4492C18.1436 16.4492 18.0036 16.5859 17.7236 16.8594C17.4437 17.1328 17.1084 17.4648 16.7178 17.8555ZM26.3857 18.168V18.7539L26.7373 18.7734C27.0107 18.7995 27.2679 18.8353 27.5088 18.8809C27.7497 18.9264 27.9873 18.9883 28.2217 19.0664C28.6774 19.2227 29.0843 19.4115 29.4424 19.6328C29.8005 19.8542 30.1553 20.1406 30.5068 20.4922C31.0277 21.013 31.4313 21.5859 31.7178 22.2109C32.0042 22.8359 32.1735 23.513 32.2256 24.2422L32.2646 24.6133H33.417V24.4375C33.417 24.3984 33.4137 24.3236 33.4072 24.2129C33.4007 24.1022 33.391 23.9948 33.3779 23.8906C33.3128 23.2786 33.1696 22.6927 32.9482 22.1328C32.7269 21.5729 32.4469 21.0488 32.1084 20.5605C31.7699 20.0723 31.3662 19.6328 30.8975 19.2422C30.4417 18.8646 29.9404 18.5456 29.3936 18.2852C28.9769 18.0898 28.5537 17.9368 28.124 17.8262C27.6943 17.7155 27.2516 17.6406 26.7959 17.6016L26.3857 17.582V18.168ZM26.3857 20.5117V21.0977L26.6787 21.1172C27.5381 21.2083 28.2673 21.5534 28.8662 22.1523C29.4652 22.7513 29.8037 23.474 29.8818 24.3203L29.9209 24.6133H31.0928L31.0537 24.2812C31.0016 23.5521 30.7933 22.8783 30.4287 22.2598C30.0641 21.6413 29.5824 21.1302 28.9834 20.7266C28.6318 20.5052 28.2705 20.3294 27.8994 20.1992C27.5283 20.069 27.1344 19.9844 26.7178 19.9453L26.3857 19.9258V20.5117ZM26.3857 22.8555V23.4414L26.6201 23.4805C26.8415 23.5326 27.0368 23.64 27.2061 23.8027C27.3753 23.9655 27.4795 24.1641 27.5186 24.3984L27.5771 24.6133H28.7295V24.5156C28.7295 24.3984 28.7035 24.2454 28.6514 24.0566C28.5993 23.8678 28.5407 23.7018 28.4756 23.5586C28.3714 23.3503 28.2217 23.1517 28.0264 22.9629C27.8311 22.7741 27.6357 22.6341 27.4404 22.543C27.2972 22.4648 27.1312 22.3997 26.9424 22.3477C26.7536 22.2956 26.6071 22.2695 26.5029 22.2695H26.3857V22.8555Z" fill="#EED124"/>
</g>
<defs>
<clipPath id="clip0_11012_2027">
<rect width="20" height="20" fill="white" transform="matrix(1 0 0 -1 14.5889 36)"/>
</clipPath>
</defs>
</svg>
