<svg width="361" height="110" viewBox="0 0 361 110" fill="none" xmlns="http://www.w3.org/2000/svg">
<g filter="url(#filter0_d_11012_2001)">
<rect x="12" y="11" width="331" height="80" rx="40" fill="white" shape-rendering="crispEdges"/>
<path d="M173.475 50.025C173.135 50.025 172.86 49.92 172.65 49.71C172.45 49.5 172.35 49.225 172.35 48.885C172.35 48.555 172.45 48.29 172.65 48.09C172.86 47.89 173.135 47.79 173.475 47.79C173.805 47.79 174.07 47.89 174.27 48.09C174.47 48.29 174.57 48.555 174.57 48.885C174.57 49.235 174.47 49.515 174.27 49.725C174.07 49.925 173.805 50.025 173.475 50.025ZM175.98 50.025C175.64 50.025 175.365 49.92 175.155 49.71C174.955 49.5 174.855 49.225 174.855 48.885C174.855 48.555 174.955 48.29 175.155 48.09C175.365 47.89 175.64 47.79 175.98 47.79C176.31 47.79 176.575 47.89 176.775 48.09C176.975 48.29 177.075 48.555 177.075 48.885C177.075 49.235 176.975 49.515 176.775 49.725C176.575 49.925 176.31 50.025 175.98 50.025ZM181.125 54.9H182.34V57H180.915C180.215 57 179.635 56.83 179.175 56.49C178.695 56.83 178.11 57 177.42 57H172.065C171.195 57 170.51 56.705 170.01 56.115C169.57 55.605 169.35 54.945 169.35 54.135V52.755L171.525 51.6V54.015C171.525 54.345 171.585 54.575 171.705 54.705C171.835 54.835 172.06 54.9 172.38 54.9H177.225C177.545 54.9 177.765 54.835 177.885 54.705C178.015 54.575 178.08 54.345 178.08 54.015V51.405L180.255 50.25V54.03C180.255 54.35 180.32 54.575 180.45 54.705C180.58 54.835 180.805 54.9 181.125 54.9ZM186.867 54.9H188.322V57H186.657C185.957 57 185.377 56.83 184.917 56.49C184.437 56.83 183.852 57 183.162 57H181.482V54.9H182.952C183.272 54.9 183.497 54.835 183.627 54.705C183.757 54.575 183.822 54.35 183.822 54.03V51.405L185.997 50.25V54.03C185.997 54.35 186.057 54.575 186.177 54.705C186.307 54.835 186.537 54.9 186.867 54.9ZM182.802 58.29C183.132 58.29 183.397 58.39 183.597 58.59C183.807 58.8 183.912 59.07 183.912 59.4C183.912 59.74 183.807 60.01 183.597 60.21C183.397 60.42 183.132 60.525 182.802 60.525C182.462 60.525 182.187 60.42 181.977 60.21C181.777 60 181.677 59.73 181.677 59.4C181.677 59.07 181.777 58.8 181.977 58.59C182.187 58.39 182.462 58.29 182.802 58.29ZM185.307 58.29C185.637 58.29 185.902 58.39 186.102 58.59C186.302 58.79 186.402 59.06 186.402 59.4C186.402 59.74 186.302 60.01 186.102 60.21C185.902 60.42 185.637 60.525 185.307 60.525C184.967 60.525 184.692 60.42 184.482 60.21C184.282 60 184.182 59.73 184.182 59.4C184.182 59.07 184.282 58.8 184.482 58.59C184.692 58.39 184.967 58.29 185.307 58.29ZM192.917 54.9H194.372V57H192.707C192.007 57 191.427 56.83 190.967 56.49C190.487 56.83 189.902 57 189.212 57H187.532V54.9H189.002C189.322 54.9 189.547 54.835 189.677 54.705C189.807 54.575 189.872 54.35 189.872 54.03V51.405L192.047 50.25V54.03C192.047 54.35 192.107 54.575 192.227 54.705C192.357 54.835 192.587 54.9 192.917 54.9ZM191.147 58.29C191.477 58.29 191.742 58.39 191.942 58.59C192.142 58.79 192.242 59.06 192.242 59.4C192.242 59.74 192.142 60.01 191.942 60.21C191.742 60.42 191.477 60.525 191.147 60.525C190.807 60.525 190.532 60.42 190.322 60.21C190.122 60.01 190.022 59.74 190.022 59.4C190.022 59.06 190.122 58.79 190.322 58.59C190.532 58.39 190.807 58.29 191.147 58.29ZM198.726 54.9H200.181V57H198.516C197.746 57 197.126 56.8 196.656 56.4C196.106 56.8 195.441 57 194.661 57H193.581V54.9H194.556C194.976 54.9 195.266 54.815 195.426 54.645C195.596 54.465 195.681 54.155 195.681 53.715V48.48L197.856 47.325V54.03C197.856 54.35 197.916 54.575 198.036 54.705C198.166 54.835 198.396 54.9 198.726 54.9ZM199.382 57V54.9H200.357C200.777 54.9 201.067 54.815 201.227 54.645C201.397 54.465 201.482 54.155 201.482 53.715V48.48L203.657 47.325V53.73C203.657 54.75 203.347 55.56 202.727 56.16C202.157 56.72 201.402 57 200.462 57H199.382ZM219.343 54.9H221.053V57H219.373C219.013 57 218.658 56.945 218.308 56.835C218.048 57.815 217.503 58.58 216.673 59.13C215.933 59.62 215.068 59.865 214.078 59.865C212.608 59.865 211.473 59.39 210.673 58.44C210.063 57.7 209.758 56.83 209.758 55.83C209.758 55.07 209.928 54.395 210.268 53.805L212.413 53.325C212.033 53.965 211.843 54.695 211.843 55.515C211.843 56.215 212.038 56.765 212.428 57.165C212.828 57.565 213.378 57.765 214.078 57.765C214.758 57.765 215.293 57.57 215.683 57.18C216.083 56.8 216.283 56.28 216.283 55.62V48.48L218.473 47.325V54.03C218.473 54.35 218.538 54.575 218.668 54.705C218.798 54.835 219.023 54.9 219.343 54.9ZM225.626 54.9H227.081V57H225.416C224.716 57 224.136 56.83 223.676 56.49C223.196 56.83 222.611 57 221.921 57H220.241V54.9H221.711C222.031 54.9 222.256 54.835 222.386 54.705C222.516 54.575 222.581 54.35 222.581 54.03V51.405L224.756 50.25V54.03C224.756 54.35 224.816 54.575 224.936 54.705C225.066 54.835 225.296 54.9 225.626 54.9ZM221.561 58.29C221.891 58.29 222.156 58.39 222.356 58.59C222.566 58.8 222.671 59.07 222.671 59.4C222.671 59.74 222.566 60.01 222.356 60.21C222.156 60.42 221.891 60.525 221.561 60.525C221.221 60.525 220.946 60.42 220.736 60.21C220.536 60 220.436 59.73 220.436 59.4C220.436 59.07 220.536 58.8 220.736 58.59C220.946 58.39 221.221 58.29 221.561 58.29ZM224.066 58.29C224.396 58.29 224.661 58.39 224.861 58.59C225.061 58.79 225.161 59.06 225.161 59.4C225.161 59.74 225.061 60.01 224.861 60.21C224.661 60.42 224.396 60.525 224.066 60.525C223.726 60.525 223.451 60.42 223.241 60.21C223.041 60 222.941 59.73 222.941 59.4C222.941 59.07 223.041 58.8 223.241 58.59C223.451 58.39 223.726 58.29 224.066 58.29ZM231.481 54.9C231.971 53.48 232.676 52.325 233.596 51.435C234.616 50.465 235.776 49.98 237.076 49.98C238.286 49.98 239.251 50.4 239.971 51.24C240.581 51.94 240.886 52.805 240.886 53.835V54.135C240.886 55.065 240.596 55.79 240.016 56.31C239.506 56.77 238.851 57 238.051 57H231.466C230.766 57 230.186 56.83 229.726 56.49C229.246 56.83 228.661 57 227.971 57H226.291V54.9H227.761C228.081 54.9 228.306 54.835 228.436 54.705C228.566 54.575 228.631 54.35 228.631 54.03V52.11L230.806 50.955V54.03C230.806 54.57 231.031 54.86 231.481 54.9ZM238.711 54.015V53.835C238.711 53.295 238.561 52.86 238.261 52.53C237.961 52.19 237.571 52.02 237.091 52.02C236.401 52.02 235.746 52.28 235.126 52.8C234.516 53.31 234.026 54.01 233.656 54.9H237.976C238.276 54.9 238.471 54.845 238.561 54.735C238.661 54.625 238.711 54.385 238.711 54.015ZM250.528 57H248.743C248.673 57.9 248.273 58.62 247.543 59.16C246.943 59.61 246.238 59.835 245.428 59.835C244.778 59.835 244.123 59.65 243.463 59.28V57.375C244.063 57.715 244.633 57.885 245.173 57.885C245.513 57.885 245.823 57.79 246.103 57.6C246.383 57.41 246.543 57.19 246.583 56.94C246.363 56.93 246.098 56.905 245.788 56.865C244.788 56.735 244.003 56.315 243.433 55.605C242.963 55.005 242.728 54.3 242.728 53.49C242.728 52.37 243.038 51.49 243.658 50.85C244.208 50.27 244.938 49.98 245.848 49.98C246.808 49.98 247.553 50.27 248.083 50.85C248.533 51.35 248.758 52.005 248.758 52.815V54.9H250.528V57ZM246.583 52.83C246.583 52.29 246.338 52.02 245.848 52.02C245.198 52.02 244.873 52.485 244.873 53.415C244.873 54.385 245.443 54.87 246.583 54.87V52.83ZM250.959 49.155C250.619 49.155 250.344 49.05 250.134 48.84C249.934 48.63 249.834 48.355 249.834 48.015C249.834 47.685 249.934 47.42 250.134 47.22C250.344 47.01 250.619 46.905 250.959 46.905C251.289 46.905 251.554 47.005 251.754 47.205C251.954 47.405 252.054 47.675 252.054 48.015C252.054 48.365 251.954 48.645 251.754 48.855C251.554 49.055 251.289 49.155 250.959 49.155ZM253.464 49.155C253.124 49.155 252.849 49.05 252.639 48.84C252.439 48.63 252.339 48.355 252.339 48.015C252.339 47.685 252.439 47.42 252.639 47.22C252.849 47.01 253.124 46.905 253.464 46.905C253.794 46.905 254.059 47.005 254.259 47.205C254.459 47.405 254.559 47.675 254.559 48.015C254.559 48.365 254.459 48.645 254.259 48.855C254.059 49.055 253.794 49.155 253.464 49.155ZM255.099 54.9H256.554V57H254.889C254.189 57 253.609 56.83 253.149 56.49C252.669 56.83 252.084 57 251.394 57H249.714V54.9H251.184C251.504 54.9 251.729 54.835 251.859 54.705C251.989 54.575 252.054 54.35 252.054 54.03V51.405L254.229 50.25V54.03C254.229 54.35 254.289 54.575 254.409 54.705C254.539 54.835 254.769 54.9 255.099 54.9ZM255.764 57V54.9H256.739C257.159 54.9 257.449 54.815 257.609 54.645C257.779 54.465 257.864 54.155 257.864 53.715V48.48L260.039 47.325V53.73C260.039 54.75 259.729 55.56 259.109 56.16C258.539 56.72 257.784 57 256.844 57H255.764ZM262.734 57V48.48L264.909 47.325V57H262.734Z" fill="#222222"/>
<rect width="48" height="48" transform="translate(271 27)" fill="white"/>
<mask id="mask0_11012_2001" style="mask-type:luminance" maskUnits="userSpaceOnUse" x="277" y="39" width="35" height="36">
<path d="M277.857 39.2542H311.913V75H277.857V39.2542Z" fill="white"/>
</mask>
<g mask="url(#mask0_11012_2001)">
<path d="M279.41 73.4519H310.361V40.9351H279.41V73.4519ZM311.135 74.9998H278.636C278.209 74.9998 277.862 74.6523 277.862 74.2254V40.1616C277.862 39.7348 278.209 39.3872 278.636 39.3872H311.135C311.561 39.3872 311.908 39.7348 311.908 40.1616V74.2254C311.908 74.6523 311.561 74.9998 311.135 74.9998Z" fill="#E11F25"/>
</g>
<path d="M289.796 68.8068C289.097 68.8068 288.42 68.5194 287.937 68.0177C287.45 67.5185 287.184 66.8321 287.209 66.1335L287.532 55.7722C287.402 55.5362 287.033 55.0013 286.782 54.6355C286.438 54.1364 286.084 53.6224 285.891 53.2688C285.7 52.9299 285.601 52.5397 285.601 52.1469V45.5808C285.601 45.1548 285.948 44.8064 286.374 44.8064C286.8 44.8064 287.148 45.1548 287.148 45.5808V52.1469C287.148 52.2766 287.181 52.4064 287.242 52.5188C287.402 52.8054 287.734 53.2897 288.058 53.7583C288.901 54.9865 289.082 55.2827 289.082 55.6451L288.753 66.1815C288.743 66.4628 288.852 66.7415 289.046 66.941C289.457 67.367 290.215 67.3313 290.627 66.9044C290.844 66.6806 290.965 66.3722 290.953 66.0604L290.63 55.6694C290.63 55.2827 290.811 54.9865 291.654 53.7583C291.978 53.2897 292.31 52.8054 292.467 52.5214C292.531 52.4064 292.564 52.2766 292.564 52.1469V45.5808C292.564 45.1548 292.911 44.8064 293.338 44.8064C293.764 44.8064 294.112 45.1548 294.112 45.5808V52.1469C294.112 52.5397 294.012 52.9299 293.822 53.2714C293.628 53.6224 293.275 54.1364 292.93 54.6355C292.679 55.004 292.31 55.5362 292.181 55.7722L292.5 66.0125C292.525 66.7415 292.247 67.461 291.739 67.9837C291.231 68.5072 290.524 68.8068 289.796 68.8068Z" fill="#E11F25"/>
<path d="M291.016 51.774C290.59 51.774 290.242 51.4265 290.242 51.0005V45.5808C290.242 45.1548 290.59 44.8064 291.016 44.8064C291.442 44.8064 291.79 45.1548 291.79 45.5808V51.0005C291.79 51.4265 291.442 51.774 291.016 51.774Z" fill="#E11F25"/>
<path d="M288.695 51.774C288.269 51.774 287.921 51.4265 287.921 51.0005V45.5808C287.921 45.1548 288.269 44.8064 288.695 44.8064C289.121 44.8064 289.469 45.1548 289.469 45.5808V51.0005C289.469 51.4265 289.121 51.774 288.695 51.774Z" fill="#E11F25"/>
<path d="M299.528 66.1664C299.525 66.4443 299.64 66.7047 299.851 66.9103C300.075 67.122 300.387 67.2492 300.71 67.2579C300.991 67.2492 301.302 67.122 301.526 66.9103C301.744 66.7013 301.859 66.4295 301.849 66.1481V46.706C300.519 47.9307 298.754 50.1867 298.754 53.522C298.754 55.2276 300.099 56.8182 300.114 56.8338C300.25 56.9906 300.317 57.1997 300.299 57.4079L299.528 66.1664ZM300.71 68.8066C299.954 68.7857 299.283 68.5105 298.781 68.0296C298.249 67.5183 297.959 66.8136 297.983 66.1002C297.983 66.0819 297.983 66.0697 297.983 66.0541L298.73 57.5777C298.265 56.9575 297.206 55.3461 297.206 53.522C297.206 49.1249 299.799 46.3514 301.347 45.0875C301.719 44.7887 302.239 44.7217 302.674 44.9246C303.113 45.1267 303.397 45.5718 303.397 46.0527V66.1237C303.418 66.8136 303.128 67.5183 302.596 68.0296C302.094 68.5105 301.423 68.7857 300.71 68.8066Z" fill="#E11F25"/>
<path d="M303.397 40.9354C302.97 40.9354 302.622 40.5878 302.622 40.1619V31.966L300.301 29.6438V40.1619C300.301 40.5878 299.953 40.9354 299.527 40.9354C299.102 40.9354 298.754 40.5878 298.754 40.1619V27.7745C298.754 27.46 298.941 27.1787 299.231 27.0611C299.521 26.94 299.854 27.0062 300.075 27.2274L303.944 31.0985C304.088 31.243 304.17 31.4399 304.17 31.6455V40.1619C304.17 40.5878 303.823 40.9354 303.397 40.9354Z" fill="#E11F25"/>
<path d="M290.242 40.9354C289.816 40.9354 289.469 40.5878 289.469 40.1619V29.6438L287.148 31.966V40.1619C287.148 40.5878 286.8 40.9354 286.374 40.9354C285.948 40.9354 285.601 40.5878 285.601 40.1619V31.6455C285.601 31.4399 285.682 31.243 285.827 31.0985L289.695 27.2274C289.917 27.0062 290.249 26.94 290.539 27.0611C290.83 27.1787 291.017 27.46 291.017 27.7745V40.1619C291.017 40.5878 290.669 40.9354 290.242 40.9354Z" fill="#E11F25"/>
<path d="M299.528 28.5488H290.242C289.816 28.5488 289.469 28.2012 289.469 27.7744C289.469 27.3476 289.816 27 290.242 27H299.528C299.954 27 300.301 27.3476 300.301 27.7744C300.301 28.2012 299.954 28.5488 299.528 28.5488Z" fill="#E11F25"/>
<path d="M299.528 32.4196H290.242C289.816 32.4196 289.469 32.0712 289.469 31.6452C289.469 31.2184 289.816 30.8708 290.242 30.8708H299.528C299.954 30.8708 300.301 31.2184 300.301 31.6452C300.301 32.0712 299.954 32.4196 299.528 32.4196Z" fill="#E11F25"/>
</g>
<defs>
<filter id="filter0_d_11012_2001" x="0" y="0" width="361" height="110" filterUnits="userSpaceOnUse" color-interpolation-filters="sRGB">
<feFlood flood-opacity="0" result="BackgroundImageFix"/>
<feColorMatrix in="SourceAlpha" type="matrix" values="0 0 0 0 0 0 0 0 0 0 0 0 0 0 0 0 0 0 127 0" result="hardAlpha"/>
<feOffset dx="3" dy="4"/>
<feGaussianBlur stdDeviation="7.5"/>
<feComposite in2="hardAlpha" operator="out"/>
<feColorMatrix type="matrix" values="0 0 0 0 0 0 0 0 0 0 0 0 0 0 0 0 0 0 0.1 0"/>
<feBlend mode="normal" in2="BackgroundImageFix" result="effect1_dropShadow_11012_2001"/>
<feBlend mode="normal" in="SourceGraphic" in2="effect1_dropShadow_11012_2001" result="shape"/>
</filter>
</defs>
</svg>
