<svg width="92" height="91" viewBox="0 0 92 91" fill="none" xmlns="http://www.w3.org/2000/svg">
<path d="M0.743164 45.5242C0.743164 20.5412 20.9958 0.288574 45.9788 0.288574C70.9617 0.288574 91.2144 20.5412 91.2144 45.5242C91.2144 70.5071 70.9617 90.7598 45.9788 90.7598C20.9958 90.7598 0.743164 70.5071 0.743164 45.5242Z" fill="white"/>
<g clip-path="url(#clip0_9149_1588)">
<path opacity="0.2" d="M34.428 57.0747C32.9823 55.629 33.9412 52.5939 33.2054 50.8155C32.4426 48.972 29.6436 47.4882 29.6436 45.524C29.6436 43.5598 32.4426 42.0761 33.2054 40.2325C33.9412 38.4541 32.9823 35.4191 34.428 33.9734C35.8736 32.5277 38.9087 33.4866 40.6872 32.7508C42.5307 31.988 44.0145 29.189 45.9787 29.189C47.9428 29.189 49.4266 31.988 51.2701 32.7508C53.0485 33.4866 56.0836 32.5277 57.5293 33.9734C58.9749 35.4191 58.0161 38.4542 58.7519 40.2326C59.5147 42.0761 62.3137 43.5599 62.3137 45.5241C62.3137 47.4883 59.5147 48.972 58.7519 50.8155C58.0161 52.594 58.9749 55.629 57.5293 57.0747C56.0836 58.5203 53.0485 57.5615 51.2701 58.2973C49.4265 59.0601 47.9428 61.8591 45.9786 61.8591C44.0144 61.8591 42.5307 59.0601 40.6871 58.2973C38.9087 57.5615 35.8736 58.5203 34.428 57.0747Z" fill="url(#paint0_linear_9149_1588)"/>
<path d="M34.428 57.0747C32.9823 55.629 33.9412 52.5939 33.2054 50.8155C32.4426 48.972 29.6436 47.4882 29.6436 45.524C29.6436 43.5598 32.4426 42.0761 33.2054 40.2325C33.9412 38.4541 32.9823 35.4191 34.428 33.9734C35.8736 32.5277 38.9087 33.4866 40.6872 32.7508C42.5307 31.988 44.0145 29.189 45.9787 29.189C47.9428 29.189 49.4266 31.988 51.2701 32.7508C53.0485 33.4866 56.0836 32.5277 57.5293 33.9734C58.9749 35.4191 58.0161 38.4542 58.7519 40.2326C59.5147 42.0761 62.3137 43.5599 62.3137 45.5241C62.3137 47.4883 59.5147 48.972 58.7519 50.8155C58.0161 52.594 58.9749 55.629 57.5293 57.0747C56.0836 58.5203 53.0485 57.5615 51.2701 58.2973C49.4265 59.0601 47.9428 61.8591 45.9786 61.8591C44.0144 61.8591 42.5307 59.0601 40.6871 58.2973C38.9087 57.5615 35.8736 58.5203 34.428 57.0747Z" stroke="url(#paint1_linear_9149_1588)" stroke-width="2.51309" stroke-linecap="round" stroke-linejoin="round"/>
<path d="M52.8899 41.7554L43.6751 50.5512L39.0679 46.1533" stroke="url(#paint2_linear_9149_1588)" stroke-width="2.51309" stroke-linecap="round" stroke-linejoin="round"/>
</g>
<defs>
<linearGradient id="paint0_linear_9149_1588" x1="62.3137" y1="45.524" x2="29.6436" y2="45.524" gradientUnits="userSpaceOnUse">
<stop stop-color="#ED1C24"/>
<stop offset="1" stop-color="#871015"/>
</linearGradient>
<linearGradient id="paint1_linear_9149_1588" x1="62.3137" y1="45.524" x2="29.6436" y2="45.524" gradientUnits="userSpaceOnUse">
<stop stop-color="#ED1C24"/>
<stop offset="1" stop-color="#871015"/>
</linearGradient>
<linearGradient id="paint2_linear_9149_1588" x1="52.8899" y1="46.1533" x2="39.0679" y2="46.1533" gradientUnits="userSpaceOnUse">
<stop stop-color="#ED1C24"/>
<stop offset="1" stop-color="#871015"/>
</linearGradient>
<clipPath id="clip0_9149_1588">
<rect width="40.2094" height="40.2094" fill="white" transform="translate(25.874 25.4194)"/>
</clipPath>
</defs>
</svg>
