<svg width="72" height="73" viewBox="0 0 72 73" fill="none" xmlns="http://www.w3.org/2000/svg">
<rect y="0.5271" width="72" height="72" rx="10.6667" fill="white"/>
<path d="M39.3787 53.9666H35.6087C30.1498 53.9666 25.517 52.0642 21.7104 48.2593C17.9038 44.4544 16.0005 39.8243 16.0005 34.3688C16.0005 28.9134 17.9029 24.2797 21.7078 20.4679C25.5127 16.656 30.1446 14.7501 35.6035 14.7501C38.333 14.7501 40.8864 15.2608 43.2638 16.2822C45.6412 17.3018 47.7179 18.6997 49.494 20.4757C51.27 22.2518 52.6679 24.325 53.6875 26.6955C54.7071 29.0659 55.217 31.6202 55.217 34.3584C55.217 39.3606 53.9324 43.9481 51.3633 48.1207C48.7942 52.2934 45.5235 55.7618 41.5513 58.5262C41.3178 58.6604 41.0825 58.7345 40.8454 58.7484C40.6119 58.7606 40.3879 58.7083 40.1735 58.5915C39.9591 58.4747 39.7883 58.3257 39.6611 58.1445C39.5339 57.9632 39.465 57.734 39.4546 57.4569L39.3787 53.9666ZM42.1448 54.8816C45.2385 52.2672 47.7554 49.2066 49.6953 45.6998C51.6352 42.1929 52.6043 38.4125 52.6025 34.3584C52.6025 29.6088 50.9572 25.5896 47.6665 22.3006C44.3758 19.0116 40.3565 17.3663 35.6087 17.3646C30.8609 17.3628 26.8417 19.0082 23.551 22.3006C20.2603 25.593 18.6149 29.6123 18.6149 34.3584C18.6149 39.1044 20.2603 43.1245 23.551 46.4187C26.8417 49.7129 30.8609 51.3574 35.6087 51.3522H42.1448V54.8816ZM35.7028 47.6161C36.2362 47.6161 36.6894 47.4279 37.0623 47.0514C37.4353 46.6749 37.621 46.2192 37.6192 45.6841C37.6175 45.149 37.4292 44.6958 37.0545 44.3246C36.6798 43.9533 36.224 43.7668 35.6872 43.7651C35.1503 43.7633 34.6972 43.9524 34.3277 44.3324C33.9581 44.7124 33.7717 45.1682 33.7682 45.6998C33.7647 46.2314 33.9529 46.6845 34.3329 47.0593C34.7128 47.434 35.1695 47.6196 35.7028 47.6161ZM30.2727 28.3504C30.5759 28.4672 30.8783 28.4593 31.1799 28.3269C31.4814 28.1944 31.728 27.9809 31.9198 27.6863C32.2771 27.0972 32.7843 26.6266 33.4414 26.2745C34.0985 25.9259 34.8549 25.7517 35.7107 25.7517C36.9935 25.7517 38.0367 26.0872 38.8402 26.7582C39.6437 27.4292 40.0445 28.3373 40.0428 29.4824C40.0428 30.1901 39.8711 30.8524 39.5278 31.4694C39.1844 32.0847 38.5988 32.8063 37.7709 33.6342C36.6484 34.727 35.8423 35.6647 35.3525 36.4473C34.8627 37.2299 34.6187 37.9898 34.6205 38.7271C34.6205 39.0704 34.732 39.3633 34.9551 39.6055C35.1782 39.8478 35.4484 39.9698 35.7656 39.9715C36.0828 39.9733 36.3486 39.8513 36.563 39.6055C36.7774 39.365 36.9046 39.0678 36.9447 38.714C37.0301 38.1737 37.322 37.5732 37.8205 36.9127C38.319 36.2521 38.9256 35.5654 39.6402 34.8525C40.6232 33.8695 41.3265 32.9431 41.75 32.0733C42.1736 31.2019 42.3853 30.3313 42.3853 29.4615C42.3853 27.668 41.7666 26.2257 40.5291 25.1346C39.2916 24.0436 37.7186 23.498 35.81 23.498C34.5272 23.498 33.3455 23.8109 32.2649 24.4366C31.1842 25.0623 30.372 25.8083 29.8282 26.6745C29.6365 27.0284 29.5798 27.3665 29.6583 27.6889C29.7367 28.0114 29.9415 28.2319 30.2727 28.3504Z" fill="url(#paint0_linear_9149_2153)"/>
<defs>
<linearGradient id="paint0_linear_9149_2153" x1="55.217" y1="36.7501" x2="16.0005" y2="36.7501" gradientUnits="userSpaceOnUse">
<stop stop-color="#ED1C24"/>
<stop offset="1" stop-color="#871015"/>
</linearGradient>
</defs>
</svg>
