<svg width="33" height="33" viewBox="0 0 33 33" fill="none" xmlns="http://www.w3.org/2000/svg">
<g clip-path="url(#clip0_9149_3981)">
<path d="M11.7904 12.0987L11.7874 12.1012L11.7845 12.1039L11.7904 12.0987ZM25.0625 11.85C24.9698 11.7606 24.8669 11.6824 24.7559 11.6169C24.5988 11.5245 24.4244 11.4652 24.2435 11.4429C24.0626 11.4205 23.8791 11.4354 23.7042 11.4868C23.5293 11.5382 23.3668 11.6249 23.2268 11.7416C23.0867 11.8582 22.9721 12.0024 22.89 12.1651C22.4307 13.07 21.7973 13.8754 21.026 14.5349C21.1439 13.8704 21.2034 13.1968 21.2037 12.5219C21.2062 10.4687 20.6646 8.45149 19.6339 6.67569C18.6033 4.8999 17.1205 3.42893 15.3365 2.41254C15.14 2.30114 14.9184 2.24149 14.6925 2.23919C14.4666 2.23689 14.2439 2.29202 14.0451 2.3994C13.8464 2.50678 13.6782 2.66289 13.5563 2.85309C13.4344 3.04329 13.3628 3.26133 13.3483 3.48677C13.2737 4.751 12.9432 5.98693 12.3768 7.11966C11.8104 8.25239 11.02 9.25835 10.0534 10.0766L9.74608 10.3266C8.7353 11.0067 7.84061 11.8451 7.09635 12.8096C5.93943 14.2671 5.13801 15.9741 4.75562 17.7952C4.37324 19.6163 4.42041 21.5015 4.89341 23.3012C5.3664 25.1009 6.25221 26.7657 7.48057 28.1635C8.70894 29.5612 10.2461 30.6536 11.9701 31.3539C12.1725 31.4366 12.3922 31.4683 12.6097 31.446C12.8273 31.4238 13.036 31.3483 13.2175 31.2264C13.399 31.1044 13.5476 30.9396 13.6504 30.7466C13.7532 30.5536 13.8068 30.3382 13.8067 30.1196C13.8058 29.9781 13.7834 29.8376 13.7403 29.7029C13.442 28.5816 13.3561 27.4144 13.487 26.2615C14.7487 28.6411 16.7739 30.5273 19.237 31.6169C19.5377 31.7514 19.8776 31.7695 20.1908 31.6677C22.1369 31.0396 23.8901 29.9243 25.2837 28.4278C26.6773 26.9313 27.6652 25.1033 28.1533 23.1175C28.6415 21.1316 28.6138 19.054 28.0728 17.0819C27.5319 15.1098 26.4956 13.3088 25.0625 11.85ZM19.8562 28.9581C18.6939 28.3691 17.6687 27.542 16.847 26.5307C16.0254 25.5194 15.4258 24.3465 15.0873 23.0883C14.9839 22.6646 14.9039 22.2356 14.8477 21.8031C14.8096 21.5277 14.6864 21.2711 14.4953 21.0692C14.3042 20.8672 14.0548 20.7301 13.7819 20.6768C13.6979 20.6603 13.6124 20.652 13.5267 20.6521C13.2924 20.652 13.0621 20.7137 12.8593 20.831C12.6564 20.9483 12.488 21.117 12.3711 21.3201C11.2648 23.2283 10.7084 25.4055 10.7637 27.6105C9.79067 26.8539 8.97748 25.9118 8.37125 24.8387C7.76502 23.7656 7.3778 22.5828 7.23204 21.359C7.08628 20.1351 7.18488 18.8945 7.52211 17.709C7.85935 16.5236 8.42851 15.4168 9.19663 14.4529C9.77985 13.6954 10.4834 13.0386 11.2793 12.5089C11.3138 12.4867 11.3468 12.4623 11.3783 12.436C11.3783 12.436 11.7738 12.1087 11.7874 12.1012C13.687 10.4945 15.038 8.33521 15.6523 5.92428C17.1051 7.26725 18.0738 9.05232 18.408 11.0023C18.7422 12.9523 18.4233 14.958 17.5007 16.7081C17.3788 16.9417 17.3288 17.2061 17.357 17.468C17.3851 17.7299 17.4903 17.9776 17.6591 18.1798C17.8279 18.3821 18.0528 18.5298 18.3055 18.6044C18.5581 18.6789 18.8272 18.677 19.0788 18.5988C21.1212 17.9586 22.9184 16.708 24.2285 15.0155C25.0159 16.1785 25.5307 17.5043 25.7345 18.8939C25.9383 20.2836 25.8259 21.7013 25.4056 23.0415C24.9854 24.3817 24.2681 25.6098 23.3072 26.6342C22.3463 27.6586 21.1667 28.453 19.8561 28.9581L19.8562 28.9581Z" fill="#E1202E" stroke="white" stroke-width="0.8"/>
</g>
<defs>
<clipPath id="clip0_9149_3981">
<rect width="32" height="32" fill="white" transform="translate(0.5 0.906006)"/>
</clipPath>
</defs>
</svg>
