<svg width="361" height="110" viewBox="0 0 361 110" fill="none" xmlns="http://www.w3.org/2000/svg">
<g filter="url(#filter0_d_11012_1989)">
<rect x="12" y="11" width="331" height="80" rx="40" fill="white" shape-rendering="crispEdges"/>
<path d="M160.255 54.9H161.74V57H160.06C159.43 57 158.88 56.85 158.41 56.55C157.92 56.85 157.28 57 156.49 57H154.345C154.025 57 153.8 57.065 153.67 57.195C153.54 57.325 153.475 57.55 153.475 57.87V60.57L151.3 61.725V57.765C151.3 56.915 151.55 56.23 152.05 55.71C152.48 55.26 153.04 54.995 153.73 54.915C153.59 54.475 153.52 54 153.52 53.49C153.52 52.37 153.825 51.49 154.435 50.85C154.985 50.27 155.705 49.98 156.595 49.98C157.505 49.98 158.215 50.27 158.725 50.85C159.175 51.36 159.4 52.015 159.4 52.815V54.03C159.4 54.36 159.46 54.59 159.58 54.72C159.71 54.84 159.935 54.9 160.255 54.9ZM157.225 54.315V52.755C157.225 52.265 157.015 52.02 156.595 52.02C155.975 52.02 155.665 52.485 155.665 53.415C155.665 54.405 155.97 54.9 156.58 54.9C157.01 54.9 157.225 54.705 157.225 54.315ZM172.412 57H168.152C167.642 57 167.147 56.92 166.667 56.76C166.187 56.92 165.692 57 165.182 57H160.937V54.9H164.027C163.597 54.42 163.177 53.835 162.767 53.145V52.35C163.227 51.64 163.812 51.07 164.522 50.64C165.242 50.2 165.957 49.98 166.667 49.98C167.357 49.98 168.062 50.205 168.782 50.655C169.512 51.095 170.112 51.67 170.582 52.38V53.145C170.162 53.835 169.742 54.42 169.322 54.9H172.397L172.412 57ZM168.347 52.77C167.787 52.26 167.227 52.005 166.667 52.005C166.047 52.005 165.487 52.255 164.987 52.755C165.557 53.625 166.117 54.205 166.667 54.495C167.227 54.195 167.787 53.62 168.347 52.77ZM185.431 54.9V57H184.006C183.346 57 182.771 56.835 182.281 56.505C181.831 56.835 181.266 57 180.586 57H171.616V54.9H173.956V48.48L176.131 47.325V51.39C177.141 50.45 178.276 49.98 179.536 49.98C180.736 49.98 181.701 50.4 182.431 51.24C183.041 51.95 183.346 52.815 183.346 53.835V54.12C183.346 54.64 183.636 54.9 184.216 54.9H185.431ZM180.511 54.9C180.791 54.9 180.971 54.85 181.051 54.75C181.131 54.65 181.171 54.415 181.171 54.045V53.835C181.171 53.295 181.021 52.86 180.721 52.53C180.421 52.19 180.031 52.02 179.551 52.02C178.871 52.02 178.226 52.28 177.616 52.8C177.006 53.31 176.511 54.01 176.131 54.9H180.511ZM194.043 54.9H195.513V57H193.848C193.168 57 192.603 56.84 192.153 56.52C191.633 57.04 190.938 57.3 190.068 57.3C189.208 57.3 188.518 57.045 187.998 56.535C187.528 56.845 186.963 57 186.303 57H184.623V54.9H186.093C186.413 54.9 186.638 54.835 186.768 54.705C186.898 54.575 186.963 54.35 186.963 54.03V53.61C186.963 52.42 187.273 51.5 187.893 50.85C188.443 50.27 189.168 49.98 190.068 49.98C191.098 49.98 191.893 50.355 192.453 51.105C192.933 51.745 193.178 52.58 193.188 53.61V54.03C193.188 54.36 193.248 54.59 193.368 54.72C193.498 54.84 193.723 54.9 194.043 54.9ZM190.068 55.2C190.698 55.2 191.013 54.655 191.013 53.565C191.013 52.535 190.698 52.02 190.068 52.02C189.448 52.02 189.138 52.535 189.138 53.565C189.138 54.655 189.448 55.2 190.068 55.2ZM194.716 57V54.9H195.691C196.111 54.9 196.401 54.815 196.561 54.645C196.731 54.465 196.816 54.155 196.816 53.715V48.48L198.991 47.325V53.73C198.991 54.75 198.681 55.56 198.061 56.16C197.491 56.72 196.736 57 195.796 57H194.716ZM201.686 57V48.48L203.861 47.325V57H201.686ZM219.525 57C219.385 57.94 218.835 58.665 217.875 59.175C217.045 59.625 216.01 59.85 214.77 59.85C213.06 59.85 211.78 59.365 210.93 58.395C210.29 57.675 209.97 56.79 209.97 55.74C209.97 54.98 210.145 54.305 210.495 53.715L212.565 53.28C212.195 53.94 212.01 54.64 212.01 55.38C212.01 57.04 212.93 57.87 214.77 57.87C216.07 57.87 216.895 57.58 217.245 57H215.835L216.915 54.9H219.57V57H219.525ZM213.54 63.045C213.21 63.045 212.94 62.94 212.73 62.73C212.53 62.53 212.43 62.26 212.43 61.92C212.43 61.59 212.53 61.32 212.73 61.11C212.94 60.91 213.21 60.81 213.54 60.81C213.87 60.81 214.135 60.91 214.335 61.11C214.545 61.32 214.65 61.59 214.65 61.92C214.65 62.26 214.55 62.53 214.35 62.73C214.15 62.94 213.88 63.045 213.54 63.045ZM216.045 63.045C215.715 63.045 215.445 62.94 215.235 62.73C215.035 62.53 214.935 62.26 214.935 61.92C214.935 61.59 215.035 61.32 215.235 61.11C215.445 60.91 215.715 60.81 216.045 60.81C216.375 60.81 216.64 60.91 216.84 61.11C217.05 61.32 217.155 61.59 217.155 61.92C217.155 62.26 217.055 62.53 216.855 62.73C216.655 62.94 216.385 63.045 216.045 63.045ZM223.807 49.125C223.467 49.125 223.192 49.025 222.982 48.825C222.782 48.615 222.682 48.34 222.682 48C222.682 47.66 222.782 47.39 222.982 47.19C223.192 46.99 223.467 46.89 223.807 46.89C224.137 46.89 224.402 46.99 224.602 47.19C224.802 47.39 224.902 47.66 224.902 48C224.902 48.34 224.802 48.615 224.602 48.825C224.402 49.025 224.137 49.125 223.807 49.125ZM218.857 57V54.9H221.077C220.857 54.48 220.747 54.01 220.747 53.49C220.747 52.37 221.052 51.49 221.662 50.85C222.212 50.27 222.932 49.98 223.822 49.98C224.732 49.98 225.442 50.27 225.952 50.85C226.402 51.36 226.627 52.015 226.627 52.815V54.135C226.627 54.995 226.367 55.69 225.847 56.22C225.347 56.74 224.662 57 223.792 57H218.857ZM224.452 52.755C224.452 52.265 224.242 52.02 223.822 52.02C223.202 52.02 222.892 52.485 222.892 53.415C222.892 54.405 223.192 54.9 223.792 54.9C224.232 54.9 224.452 54.66 224.452 54.18V52.755ZM242.172 54.9H243.882V57H242.202C241.842 57 241.487 56.945 241.137 56.835C240.877 57.815 240.332 58.58 239.502 59.13C238.762 59.62 237.897 59.865 236.907 59.865C235.437 59.865 234.302 59.39 233.502 58.44C232.892 57.7 232.587 56.83 232.587 55.83C232.587 55.07 232.757 54.395 233.097 53.805L235.242 53.325C234.862 53.965 234.672 54.695 234.672 55.515C234.672 56.215 234.867 56.765 235.257 57.165C235.657 57.565 236.207 57.765 236.907 57.765C237.587 57.765 238.122 57.57 238.512 57.18C238.912 56.8 239.112 56.28 239.112 55.62V48.48L241.302 47.325V54.03C241.302 54.35 241.367 54.575 241.497 54.705C241.627 54.835 241.852 54.9 242.172 54.9ZM246.836 50.265C247.486 50.355 248.071 50.575 248.591 50.925C249.671 51.635 250.211 52.66 250.211 54V54.18C250.211 55.1 249.916 55.815 249.326 56.325C248.826 56.775 248.176 57 247.376 57H243.071V54.9H247.166C247.736 54.9 248.021 54.635 248.021 54.105V54.03C248.021 53.43 247.756 52.98 247.226 52.68C246.876 52.48 246.446 52.38 245.936 52.38C245.436 52.38 244.901 52.48 244.331 52.68V50.58L247.256 47.325H249.446L246.836 50.265ZM257.302 47.445L256.777 48.42H253.837L254.362 47.445H254.827C254.717 47.235 254.662 47.02 254.662 46.8C254.662 46.47 254.782 46.185 255.022 45.945C255.272 45.705 255.567 45.585 255.907 45.585C256.247 45.585 256.552 45.705 256.822 45.945V46.905C256.562 46.675 256.312 46.56 256.072 46.56C255.742 46.56 255.577 46.695 255.577 46.965C255.577 47.115 255.642 47.275 255.772 47.445H257.302ZM258.322 48.48L260.512 47.325V53.73C260.512 54.74 260.202 55.55 259.582 56.16C259.002 56.72 258.247 57 257.317 57H251.407L252.502 54.9H254.392V50.43L256.567 49.275V54.9H257.212C257.622 54.9 257.907 54.815 258.067 54.645C258.237 54.465 258.322 54.155 258.322 53.715V48.48ZM263.209 57V48.48L265.384 47.325V57H263.209Z" fill="#222222"/>
<rect width="48" height="48" transform="translate(271 27)" fill="white"/>
<path d="M307.02 30.6759C307.309 30.3643 307.791 30.3441 308.102 30.6319C308.414 30.9204 308.434 31.4019 308.146 31.7135L301.878 38.497L301.868 38.5104C301.101 39.4378 300.575 40.295 300.341 41.0785C300.133 41.7718 300.163 42.4009 300.472 42.9503C300.636 43.2447 300.582 43.6063 300.364 43.8441L297.388 47.0651C297.096 46.7476 296.865 46.4897 296.711 46.3219C296.641 46.2287 296.56 46.1378 296.477 46.0506L296.47 46.0573C296.43 46.0141 296.387 45.9738 296.343 45.9336L298.888 43.1784C298.59 42.3815 298.593 41.534 298.868 40.6335C299.162 39.6554 299.788 38.6141 300.689 37.5294C300.71 37.5026 300.726 37.4758 300.749 37.4527L307.014 30.6691L307.02 30.6759ZM293.557 48.8467C293.276 48.5322 293.303 48.0461 293.617 47.7651C293.932 47.4841 294.418 47.5109 294.699 47.8255C297.85 51.3544 307.59 61.798 310.288 65.7019C313.848 70.7411 308.337 72.3282 306.508 70.4936C301.941 66.0769 292.245 54.817 287.983 50.0424C286.449 50.6917 284.959 50.7923 283.462 50.3637C281.851 49.9045 280.275 48.8303 278.674 47.1792L278.654 47.1591C277.435 45.8732 276.481 44.6044 275.791 43.3491C275.085 42.0565 274.653 40.7773 274.499 39.5086C274.335 38.1422 274.462 36.8697 274.83 35.7419C275.262 34.4157 276.029 33.2938 277.034 32.4604C278.044 31.6233 279.287 31.0806 280.673 30.9136C281.825 30.7757 283.081 30.8935 284.38 31.3184C286.178 31.9043 288.273 33.3609 290.012 35.229C291.294 36.6051 292.392 38.216 293.045 39.8731C293.725 41.601 293.932 43.3894 293.386 45.0629C293.065 46.0543 292.482 46.9854 291.579 47.8255C291.267 48.1132 290.785 48.0931 290.497 47.7852C290.209 47.4736 290.229 46.9921 290.537 46.7036C291.237 46.0506 291.685 45.3379 291.93 44.5843C292.352 43.2887 292.174 41.8523 291.619 40.4389C291.036 38.9592 290.048 37.513 288.89 36.2704C287.323 34.5894 285.465 33.2871 283.898 32.775C282.823 32.4269 281.795 32.3263 280.854 32.4403C279.763 32.5737 278.785 32.9927 278.004 33.6457C277.221 34.2987 276.621 35.1791 276.277 36.2272C275.979 37.1411 275.875 38.1921 276.012 39.3274C276.143 40.3986 276.515 41.4937 277.124 42.6119C277.763 43.7606 278.641 44.9227 279.769 46.111L279.776 46.1214C281.189 47.578 282.545 48.515 283.887 48.8967C285.157 49.2582 286.449 49.1181 287.799 48.4449C288.106 48.2675 288.504 48.3279 288.749 48.6022C292.908 53.2598 303.023 64.9818 307.503 69.3248C309.448 70.1187 310.526 69.1406 309.595 67.4164C308.146 64.7247 295.69 51.2441 293.557 48.8467ZM289.519 55.5803L279.756 66.144C279.736 66.1641 279.719 66.1842 279.696 66.2044C278.269 67.7444 280.794 69.9875 282.361 68.4876L291.843 58.2251L292.861 59.3806L283.452 69.5626C283.432 69.5864 283.412 69.6058 283.385 69.6297C282.823 70.1015 282.257 70.4094 281.684 70.5369C281.095 70.671 280.516 70.6107 279.96 70.3498C279.866 70.3125 279.779 70.2655 279.702 70.1954L278.353 68.9468C278.333 68.9267 278.313 68.9096 278.293 68.8865C277.77 68.2834 277.523 67.6408 277.589 66.961C277.653 66.3184 277.994 65.6922 278.641 65.0892L288.498 54.4219L289.519 55.5803ZM299.752 49.6667L300.331 49.0406C300.619 48.7297 301.105 48.7096 301.413 48.9973C301.72 49.2851 301.743 49.7674 301.456 50.079L300.786 50.802L299.752 49.6667ZM309.401 32.9159C309.689 32.6043 310.171 32.5842 310.483 32.8719C310.794 33.1597 310.814 33.642 310.526 33.9536L305.032 39.9037C304.744 40.2145 304.262 40.2347 303.95 39.9469C303.639 39.6592 303.619 39.1769 303.907 38.8653L309.401 32.9159ZM311.779 35.1157C312.066 34.8041 312.549 34.784 312.86 35.0717C313.172 35.3602 313.192 35.8418 312.903 36.1534L307.413 42.0997C307.125 42.4113 306.643 42.4315 306.331 42.1437C306.019 41.8552 305.999 41.3737 306.288 41.0621L311.779 35.1157ZM314.243 37.402C314.531 37.0911 315.013 37.071 315.325 37.3587C315.636 37.6465 315.656 38.1325 315.368 38.4404L309.1 45.2269C309.076 45.2507 309.053 45.2709 309.029 45.294C307.603 46.6671 306.241 47.4602 304.938 47.6846C303.525 47.9291 302.23 47.5273 301.041 46.4897C300.722 46.2116 300.692 45.7263 300.967 45.4117C301.245 45.0934 301.73 45.0629 302.045 45.3379C302.865 46.0543 303.743 46.3353 304.67 46.1713C305.668 46.0006 306.766 45.3409 307.965 44.1862L307.972 44.1795L314.236 37.399L314.243 37.402Z" fill="#E11F25"/>
</g>
<defs>
<filter id="filter0_d_11012_1989" x="0" y="0" width="361" height="110" filterUnits="userSpaceOnUse" color-interpolation-filters="sRGB">
<feFlood flood-opacity="0" result="BackgroundImageFix"/>
<feColorMatrix in="SourceAlpha" type="matrix" values="0 0 0 0 0 0 0 0 0 0 0 0 0 0 0 0 0 0 127 0" result="hardAlpha"/>
<feOffset dx="3" dy="4"/>
<feGaussianBlur stdDeviation="7.5"/>
<feComposite in2="hardAlpha" operator="out"/>
<feColorMatrix type="matrix" values="0 0 0 0 0 0 0 0 0 0 0 0 0 0 0 0 0 0 0.1 0"/>
<feBlend mode="normal" in2="BackgroundImageFix" result="effect1_dropShadow_11012_1989"/>
<feBlend mode="normal" in="SourceGraphic" in2="effect1_dropShadow_11012_1989" result="shape"/>
</filter>
</defs>
</svg>
