<svg width="137" height="136" viewBox="0 0 137 136" fill="none" xmlns="http://www.w3.org/2000/svg">
<rect width="136" height="136" transform="translate(0.333328)" fill="white"/>
<path d="M20.2546 105.98C19.8056 105.659 19.4175 105.278 19.0924 104.834C18.765 104.39 18.5171 103.906 18.3464 103.382C18.1757 102.858 18.0915 102.32 18.0915 101.768C18.0939 101.216 18.1827 100.681 18.3558 100.157L21.2274 91.3268C21.2695 91.1959 21.2719 91.0673 21.2298 90.9363C21.1877 90.8077 21.1105 90.7025 20.9983 90.6229L13.4871 85.1369C13.0404 84.8118 12.6546 84.4283 12.3319 83.9817C12.0068 83.5373 11.7589 83.0509 11.5882 82.5271C11.4175 82.0033 11.3333 81.4655 11.3333 80.9136C11.3333 80.364 11.4175 79.8262 11.5882 79.3C11.7589 78.7762 12.0068 78.2921 12.3295 77.8455C12.6546 77.3988 13.0404 77.0153 13.4847 76.6903C13.9314 76.3676 14.4178 76.1197 14.9416 75.9513C15.4654 75.7806 16.0033 75.6964 16.5552 75.6964H25.8413C25.9792 75.6964 26.1032 75.6543 26.2131 75.5701C26.323 75.4883 26.3978 75.3807 26.4376 75.2474L29.3069 66.4173C29.4776 65.8935 29.7255 65.4094 30.0505 64.9628C30.3756 64.5185 30.7591 64.1326 31.2057 63.8099C31.6524 63.4872 32.1365 63.2393 32.6603 63.0686C33.1841 62.9002 33.722 62.8137 34.2738 62.8137C34.8234 62.8137 35.3612 62.9002 35.885 63.0686C36.4089 63.2393 36.8953 63.4872 37.3396 63.8099C37.7862 64.1326 38.1721 64.5185 38.4948 64.9628C38.8198 65.4094 39.0677 65.8935 39.2384 66.4173L42.1101 75.2474C42.1475 75.3807 42.2223 75.4883 42.3322 75.5701C42.4445 75.6543 42.5684 75.6964 42.7064 75.6964H51.9902C52.542 75.6964 53.0799 75.7806 53.6037 75.9513C54.1299 76.1197 54.6139 76.3676 55.0606 76.6903C55.5072 77.0153 55.8931 77.3988 56.2158 77.8455C56.5409 78.2921 56.7887 78.7762 56.9571 79.3C57.1278 79.8262 57.2143 80.364 57.2143 80.9136C57.2143 81.4655 57.1278 82.0033 56.9571 82.5271C56.7864 83.0509 56.5385 83.5373 56.2158 83.9817C55.8908 84.4283 55.5049 84.8118 55.0583 85.1369L47.5471 90.5902C47.4371 90.6697 47.36 90.7749 47.3179 90.9059C47.2758 91.0345 47.2758 91.1655 47.3202 91.2941L49.0039 96.4902C49.0601 96.6609 49.0951 96.834 49.1092 97.0117C49.1232 97.1917 49.1185 97.3695 49.0905 97.5472C49.0647 97.7226 49.018 97.8956 48.9501 98.0617C48.8823 98.2277 48.7958 98.3844 48.6929 98.5294C48.59 98.6743 48.4684 98.8076 48.3351 98.9246C48.1995 99.0438 48.0522 99.1444 47.8932 99.2262C47.7365 99.3104 47.5704 99.3735 47.3951 99.418C47.222 99.4624 47.0466 99.4881 46.8666 99.4905C46.6046 99.4975 46.3708 99.5793 46.1627 99.7383C45.9545 99.895 45.8119 100.098 45.7324 100.349C45.6552 100.597 45.6576 100.847 45.7394 101.095C45.8213 101.343 45.9662 101.544 46.1767 101.698L47.5213 102.661C47.8698 102.912 48.127 103.234 48.293 103.63C48.4591 104.025 48.5105 104.434 48.4474 104.86C48.3842 105.283 48.2159 105.659 47.9423 105.989C47.6663 106.319 47.3272 106.553 46.9203 106.691C46.5251 106.831 46.1182 106.922 45.6997 106.962C45.2811 107.002 44.8648 106.992 44.4486 106.929C44.0323 106.868 43.6324 106.756 43.2442 106.595C42.8561 106.433 42.4913 106.23 42.1545 105.98L34.6433 100.503C34.5334 100.421 34.4095 100.381 34.2738 100.381C34.1359 100.381 34.0143 100.421 33.9044 100.503L26.3885 105.98C25.9442 106.309 25.4601 106.562 24.9363 106.735C24.4125 106.908 23.8746 106.995 23.3204 106.995C22.7685 106.995 22.2307 106.908 21.7068 106.735C21.183 106.562 20.6989 106.309 20.2546 105.98ZM37.3396 96.8082L41.1911 99.6027C41.2332 99.3969 41.2846 99.1935 41.3477 98.9924C41.5535 98.3002 41.8786 97.6665 42.3229 97.0935C42.7649 96.5229 43.298 96.0506 43.9201 95.6787L42.9519 92.6972C42.7812 92.1734 42.697 91.6378 42.697 91.086C42.697 90.5364 42.7812 90.0009 42.9519 89.4771C43.1203 88.9533 43.3682 88.4692 43.6932 88.0249C44.0159 87.5806 44.4018 87.1971 44.8461 86.8744L52.362 81.414C52.4719 81.3345 52.5491 81.2293 52.5888 81.1006C52.6309 80.972 52.6309 80.8434 52.5888 80.7125C52.5467 80.5838 52.4696 80.4809 52.3596 80.4014C52.2497 80.3219 52.1258 80.2822 51.9902 80.2822H42.7064C42.1545 80.2845 41.619 80.2003 41.0952 80.032C40.5714 79.8636 40.0873 79.618 39.6406 79.2977C39.1963 78.975 38.8105 78.5915 38.4854 78.1495C38.1627 77.7052 37.9148 77.2211 37.7418 76.6996L34.8701 67.8672C34.8304 67.7362 34.7532 67.631 34.6433 67.5515C34.5334 67.4696 34.4095 67.4299 34.2738 67.4299C34.1359 67.4299 34.0119 67.4696 33.902 67.5515C33.7921 67.631 33.7173 67.7362 33.6752 67.8672L30.8035 76.6996C30.6328 77.2211 30.3849 77.7052 30.0599 78.1495C29.7348 78.5915 29.3513 78.975 28.9047 79.2977C28.458 79.618 27.974 79.8636 27.4501 80.032C26.9263 80.2003 26.3908 80.2845 25.8413 80.2822H16.5552C16.4195 80.2822 16.2956 80.3219 16.1857 80.4014C16.0758 80.4809 16.0009 80.5838 15.9588 80.7125C15.9144 80.8434 15.9144 80.972 15.9565 81.1006C15.9986 81.2293 16.0734 81.3345 16.1833 81.414L23.6992 86.8744C24.1459 87.1971 24.5294 87.5806 24.8544 88.0249C25.1771 88.4692 25.425 88.9533 25.5957 89.4771C25.7664 90.0009 25.8506 90.5364 25.8506 91.086C25.8506 91.6378 25.7641 92.1734 25.5934 92.6972L22.7241 101.546C22.6796 101.675 22.6796 101.806 22.7217 101.937C22.7615 102.065 22.8387 102.17 22.9486 102.252C23.0608 102.332 23.1848 102.371 23.3204 102.371C23.4584 102.371 23.58 102.329 23.6899 102.25L31.2081 96.7895C31.6524 96.4645 32.1365 96.2166 32.6603 96.0459C33.1841 95.8752 33.722 95.791 34.2738 95.791C34.8234 95.791 35.3612 95.8752 35.885 96.0459C36.4089 96.2166 36.8929 96.4645 37.3396 96.7895V96.8082Z" fill="#D9BE21"/>
<path d="M110.088 105.98L102.572 100.519C102.462 100.44 102.338 100.4 102.202 100.4C102.067 100.4 101.943 100.44 101.833 100.519L94.3215 105.98C93.9847 106.228 93.6246 106.433 93.2388 106.595C92.8529 106.756 92.453 106.868 92.0391 106.931C91.6252 106.995 91.2113 107.006 90.795 106.969C90.3765 106.929 89.9719 106.843 89.5767 106.705C89.1698 106.567 88.8307 106.333 88.5548 106.003C88.2812 105.673 88.1128 105.297 88.0497 104.871C87.9865 104.448 88.038 104.039 88.204 103.643C88.37 103.248 88.6296 102.926 88.9757 102.673L90.297 101.717C90.5098 101.562 90.6594 101.361 90.7413 101.111C90.8231 100.863 90.8254 100.613 90.7483 100.363C90.6688 100.112 90.5261 99.9066 90.3157 99.7499C90.1075 99.5909 89.8713 99.5091 89.6094 99.5044C89.4294 99.4997 89.2517 99.4763 89.0786 99.4319C88.9056 99.3875 88.7395 99.3243 88.5805 99.2401C88.4215 99.1559 88.2765 99.0554 88.1409 98.9385C88.0052 98.8215 87.886 98.6882 87.7831 98.5433C87.6779 98.3959 87.5937 98.2416 87.5259 98.0756C87.458 97.9095 87.4113 97.7365 87.3832 97.5588C87.3575 97.3834 87.3505 97.2057 87.3668 97.0256C87.3809 96.8479 87.4159 96.6725 87.4721 96.5018L89.1558 91.308C89.2002 91.1794 89.2002 91.0508 89.1581 90.9198C89.116 90.7912 89.0388 90.6883 88.9266 90.6088L81.4154 85.1508C80.9687 84.8257 80.5852 84.4422 80.2602 83.9956C79.9351 83.5489 79.6873 83.0649 79.5166 82.541C79.3458 82.0172 79.2617 81.4794 79.2617 80.9275C79.2617 80.3756 79.3458 79.8377 79.5166 79.3139C79.6873 78.7901 79.9351 78.306 80.2579 77.8594C80.5829 77.4127 80.9687 77.0292 81.4154 76.7042C81.8597 76.3815 82.3461 76.1336 82.8699 75.9629C83.3938 75.7945 83.9316 75.708 84.4835 75.7103H93.7696C93.9076 75.708 94.0315 75.6659 94.1438 75.5841C94.2537 75.5022 94.3285 75.3946 94.3706 75.2613L97.2376 66.4289C97.4083 65.9051 97.6538 65.421 97.9789 64.9767C98.3039 64.5301 98.6874 64.1465 99.1341 63.8238C99.5807 63.4988 100.065 63.2532 100.589 63.0825C101.112 62.9118 101.65 62.8276 102.202 62.8276C102.752 62.8276 103.29 62.9118 103.813 63.0825C104.337 63.2532 104.824 63.4988 105.27 63.8238C105.715 64.1465 106.1 64.5301 106.425 64.9767C106.748 65.421 106.996 65.9051 107.167 66.4289L110.038 75.2613C110.078 75.3946 110.151 75.5022 110.263 75.5841C110.373 75.6682 110.497 75.708 110.635 75.7103H119.921C120.47 75.708 121.008 75.7945 121.534 75.9629C122.058 76.1336 122.542 76.3815 122.989 76.7042C123.436 77.0292 123.821 77.4127 124.144 77.8594C124.469 78.306 124.717 78.7901 124.888 79.3139C125.056 79.8377 125.143 80.3756 125.143 80.9275C125.143 81.4794 125.056 82.0172 124.885 82.541C124.715 83.0649 124.469 83.5489 124.144 83.9956C123.819 84.4422 123.433 84.8257 122.989 85.1508L115.475 90.6088C115.365 90.6883 115.288 90.7912 115.246 90.9198C115.204 91.0508 115.204 91.1794 115.249 91.308L118.118 100.14C118.293 100.662 118.382 101.2 118.384 101.752C118.387 102.301 118.303 102.839 118.132 103.363C117.959 103.889 117.711 104.373 117.384 104.817C117.059 105.259 116.67 105.643 116.219 105.961C115.777 106.291 115.293 106.543 114.769 106.716C114.245 106.892 113.705 106.978 113.153 106.978C112.601 106.978 112.064 106.892 111.54 106.716C111.014 106.543 110.529 106.291 110.088 105.961V105.98ZM110.635 80.3031C110.083 80.3054 109.545 80.2213 109.019 80.0506C108.495 79.8798 108.009 79.6343 107.564 79.3093C107.118 78.9865 106.732 78.6007 106.407 78.154C106.084 77.7097 105.836 77.2233 105.665 76.6995L102.801 67.8671C102.759 67.7361 102.684 67.6309 102.572 67.5514C102.462 67.4695 102.338 67.4298 102.202 67.4298C102.064 67.4298 101.943 67.4695 101.83 67.5514C101.72 67.6309 101.646 67.7361 101.604 67.8671L98.7365 76.6995C98.5682 77.2233 98.3203 77.7097 97.9952 78.154C97.6725 78.6007 97.2867 78.9865 96.84 79.3093C96.3934 79.6343 95.9093 79.8798 95.3832 80.0506C94.8593 80.2213 94.3215 80.3054 93.7696 80.3031H84.4835C84.3479 80.3031 84.2263 80.3429 84.114 80.4224C84.0041 80.5019 83.9293 80.6071 83.8872 80.7357C83.8451 80.8643 83.8427 80.993 83.8848 81.1239C83.9269 81.2525 84.0018 81.3578 84.1117 81.4373L91.6275 86.8976C92.0742 87.218 92.4577 87.6038 92.7828 88.0482C93.1055 88.4925 93.3533 88.9765 93.5241 89.498C93.6948 90.0218 93.779 90.5597 93.779 91.1092C93.779 91.6588 93.6948 92.1966 93.5241 92.7181L92.5559 95.6786C93.1733 96.0458 93.7041 96.5135 94.1484 97.077C94.5904 97.6429 94.9178 98.2697 95.1259 98.9572C95.1891 99.1583 95.2428 99.3594 95.2826 99.5652L99.1364 96.7707C99.5807 96.4456 100.065 96.1978 100.589 96.0271C101.112 95.8563 101.65 95.7698 102.202 95.7698C102.754 95.7698 103.29 95.8563 103.813 96.0271C104.34 96.1978 104.824 96.4456 105.268 96.7707L112.784 102.231C112.894 102.313 113.018 102.353 113.153 102.353C113.291 102.355 113.415 102.315 113.525 102.233C113.637 102.154 113.712 102.049 113.754 101.918C113.796 101.787 113.794 101.658 113.752 101.527L110.88 92.6971C110.71 92.1732 110.625 91.6377 110.625 91.0858C110.625 90.5363 110.71 90.0008 110.88 89.477C111.051 88.9531 111.297 88.4691 111.622 88.0248C111.944 87.5805 112.33 87.197 112.774 86.8742L120.29 81.4139C120.4 81.3344 120.477 81.2291 120.517 81.1005C120.559 80.9719 120.559 80.8433 120.517 80.7123C120.475 80.5837 120.398 80.4808 120.288 80.4013C120.178 80.3218 120.056 80.2821 119.921 80.2821L110.635 80.3031Z" fill="#D9BE21"/>
<path d="M25.7291 58.5085C25.4532 58.5061 25.1866 58.457 24.9293 58.3611C24.6698 58.2653 24.4359 58.1273 24.2278 57.9449C24.0197 57.7648 23.849 57.5544 23.718 57.3135C23.5847 57.0703 23.4982 56.8131 23.4584 56.5418C23.1544 54.4021 23.0048 52.2507 23.0094 50.0876C23.0094 49.1756 23.0398 48.2659 23.096 47.3563C23.1521 46.4466 23.2363 45.5393 23.3485 44.6343C23.4608 43.7316 23.6011 42.8313 23.7671 41.9357C23.9355 41.04 24.1319 40.1491 24.3541 39.2651C24.5762 38.3812 24.8241 37.5042 25.1024 36.6367C25.3783 35.7691 25.68 34.9085 26.0097 34.0597C26.3394 33.2084 26.6949 32.3713 27.0761 31.5434C27.4572 30.7156 27.8618 29.8995 28.2944 29.0951C28.7247 28.293 29.1807 27.5049 29.6601 26.7285C30.1395 25.9545 30.6422 25.1945 31.1684 24.4508C31.6969 23.7072 32.2441 22.9799 32.817 22.269C33.3876 21.5581 33.9793 20.8683 34.5943 20.1925C35.207 19.519 35.8407 18.8642 36.4955 18.2305C37.1502 17.5967 37.8237 16.9817 38.5159 16.3877C39.2058 15.7961 39.9167 15.2232 40.6439 14.6736C41.3712 14.1241 42.1148 13.5979 42.8725 13.0928C43.6325 12.5901 44.4065 12.1107 45.197 11.6547C45.985 11.1963 46.7871 10.766 47.6033 10.3591C48.4194 9.95225 49.2472 9.57107 50.0867 9.21562C50.9262 8.85784 51.7751 8.52811 52.6333 8.22645C53.4939 7.92244 54.3615 7.64416 55.2384 7.39395C56.1153 7.14373 56.9969 6.92157 57.8879 6.72514C58.7789 6.52871 59.6745 6.36034 60.5748 6.22003C61.4751 6.07972 62.3801 5.96747 63.2874 5.88095C64.1948 5.79676 65.1044 5.7383 66.0141 5.71024C66.9261 5.68218 67.8381 5.67984 68.7478 5.7079C69.6598 5.73363 70.5695 5.78975 71.4768 5.8716C72.3841 5.95344 73.2891 6.06569 74.1894 6.20366C75.0898 6.34163 75.9854 6.50766 76.8764 6.70176C77.7673 6.89585 78.6513 7.11801 79.5282 7.36589C80.4051 7.61376 81.275 7.88737 82.1356 8.18903C82.9962 8.4907 83.845 8.81808 84.6846 9.17353C84.9652 9.29046 85.213 9.45883 85.4258 9.67631C85.641 9.89378 85.8047 10.144 85.9169 10.4246C86.0315 10.7076 86.0876 10.9999 86.0853 11.3039C86.083 11.6102 86.0222 11.9025 85.9029 12.1832C85.786 12.4614 85.6176 12.7093 85.4001 12.9221C85.1826 13.1373 84.9324 13.301 84.6518 13.4155C84.3689 13.5278 84.0765 13.5839 83.7702 13.5816C83.4662 13.5792 83.1739 13.5184 82.8933 13.3992C82.1403 13.0835 81.3779 12.7888 80.6062 12.5199C79.8345 12.2486 79.0558 12.0031 78.2701 11.7809C77.4844 11.5564 76.6916 11.36 75.8919 11.1846C75.0944 11.0116 74.29 10.8643 73.4832 10.738C72.6741 10.614 71.8627 10.5158 71.0489 10.441C70.2351 10.3662 69.4213 10.317 68.6028 10.2937C67.7867 10.2703 66.9682 10.2703 66.1521 10.296C65.336 10.3217 64.5198 10.3732 63.706 10.4503C62.8922 10.5275 62.0808 10.6281 61.274 10.7543C60.4672 10.8806 59.6628 11.0303 58.8654 11.2057C58.068 11.3834 57.2752 11.5822 56.4895 11.8067C55.7038 12.0312 54.925 12.279 54.1533 12.5503C53.384 12.8239 52.6216 13.1185 51.8686 13.4389C51.118 13.757 50.3744 14.0984 49.6447 14.4632C48.9128 14.828 48.1926 15.2162 47.484 15.6254C46.7778 16.0346 46.0832 16.4649 45.4027 16.9162C44.7199 17.3676 44.0534 17.8399 43.4033 18.3334C42.7509 18.8244 42.1148 19.3366 41.4928 19.8697C40.8731 20.4006 40.2698 20.9525 39.6828 21.5207C39.0959 22.089 38.5276 22.6759 37.9781 23.2816C37.4262 23.8849 36.8953 24.5046 36.3832 25.1407C35.8711 25.7791 35.3777 26.4315 34.9053 27.098C34.4329 27.7645 33.9816 28.445 33.5513 29.1395C33.121 29.834 32.7141 30.5426 32.326 31.2628C31.9401 31.9831 31.5753 32.7127 31.2339 33.4563C30.8925 34.1976 30.5721 34.9506 30.2774 35.713C29.9828 36.473 29.7115 37.2447 29.4613 38.0234C29.2134 38.8021 28.9913 39.5878 28.7902 40.3806C28.5914 41.171 28.416 41.9707 28.2664 42.7728C28.1143 43.5773 27.9881 44.384 27.8875 45.1955C27.787 46.0046 27.7121 46.8184 27.6607 47.6345C27.6092 48.4507 27.5835 49.2668 27.5835 50.0829C27.5835 52.0239 27.7238 53.9531 28.0044 55.873C28.0489 56.1747 28.0325 56.474 27.9577 56.7686C27.8828 57.0656 27.7542 57.3346 27.5718 57.5778C27.3894 57.8233 27.1673 58.0221 26.9054 58.1787C26.6434 58.3331 26.3628 58.4336 26.0612 58.4757C25.9513 58.4944 25.8413 58.5061 25.7291 58.5085Z" fill="#E11F25"/>
<mask id="mask0_11012_2039" style="mask-type:luminance" maskUnits="userSpaceOnUse" x="40" y="78" width="56" height="55">
<path d="M40.831 78.9189H95.9069V132H40.831V78.9189Z" fill="white"/>
</mask>
<g mask="url(#mask0_11012_2039)">
<path d="M78.0059 130.494L68.9583 123.921C68.7432 123.764 68.5047 123.685 68.2381 123.685C67.9715 123.685 67.7306 123.764 67.5155 123.921L58.4679 130.494C57.9721 130.854 57.4296 131.13 56.845 131.32C56.2627 131.509 55.6617 131.603 55.049 131.603C54.434 131.603 53.8354 131.507 53.2507 131.317C52.6685 131.128 52.1259 130.852 51.6302 130.492C51.1321 130.132 50.7041 129.701 50.3417 129.206C49.9816 128.71 49.7056 128.17 49.5162 127.585C49.3244 127.003 49.2286 126.404 49.2286 125.789C49.2262 125.176 49.3221 124.575 49.5092 123.991L52.9818 113.355C53.0613 113.103 53.0613 112.853 52.9795 112.6C52.8976 112.348 52.748 112.144 52.5328 111.99L43.4852 105.416C42.9895 105.054 42.5639 104.624 42.2038 104.128C41.846 103.63 41.5724 103.09 41.383 102.507C41.1959 101.923 41.1 101.326 41.1023 100.714C41.1023 100.099 41.1959 99.5023 41.3853 98.9177C41.5747 98.3354 41.8507 97.7952 42.2108 97.2994C42.5709 96.8037 42.9965 96.3757 43.4923 96.0133C43.988 95.6531 44.5259 95.3772 45.1105 95.1855C45.6928 94.9937 46.2891 94.8978 46.9018 94.8955H58.1008C58.3673 94.8955 58.6059 94.8183 58.821 94.6616C59.0362 94.5073 59.1835 94.3015 59.2653 94.0489L62.7239 83.4135C62.9157 82.8313 63.1916 82.2911 63.5541 81.7953C63.9142 81.3019 64.3445 80.8739 64.8403 80.5138C65.3384 80.156 65.8785 79.8801 66.4608 79.6907C67.0431 79.5036 67.6418 79.4077 68.2544 79.4077C68.8695 79.4077 69.4658 79.5036 70.0504 79.6907C70.6327 79.8801 71.1729 80.156 71.671 80.5138C72.1667 80.8739 72.597 81.3019 72.9571 81.7953C73.3196 82.2911 73.5955 82.8313 73.7873 83.4135L77.2459 94.0489C77.3254 94.3015 77.4751 94.5073 77.6902 94.6616C77.9054 94.8183 78.1439 94.8955 78.4105 94.8955H89.6095C90.2221 94.8978 90.8185 94.9937 91.4007 95.1855C91.983 95.3772 92.5232 95.6531 93.019 96.0133C93.5147 96.3757 93.9403 96.8037 94.3005 97.2994C94.6606 97.7952 94.9365 98.3354 95.1259 98.9177C95.3154 99.5023 95.4089 100.099 95.4089 100.714C95.4112 101.326 95.3154 101.923 95.1283 102.507C94.9389 103.09 94.6653 103.63 94.3075 104.128C93.9473 104.624 93.5217 105.054 93.026 105.416L83.9784 111.99C83.7609 112.144 83.6136 112.348 83.5294 112.6C83.4476 112.85 83.4476 113.103 83.5294 113.355L86.9833 123.991C87.0512 124.208 87.1073 124.431 87.1494 124.655C87.1938 124.877 87.2219 125.104 87.2382 125.331C87.2546 125.558 87.2593 125.787 87.2476 126.014C87.2382 126.24 87.2149 126.467 87.1774 126.692C87.1424 126.919 87.0909 127.141 87.0301 127.358C86.967 127.578 86.8921 127.793 86.8033 128.004C86.7168 128.214 86.6162 128.42 86.504 128.619C86.394 128.817 86.2701 129.007 86.1368 129.192C86.0035 129.376 85.8585 129.554 85.7042 129.72C85.5499 129.889 85.3862 130.045 85.2131 130.195C85.0401 130.342 84.8577 130.48 84.6682 130.609C84.4788 130.735 84.2847 130.852 84.0813 130.955C83.8778 131.06 83.6697 131.151 83.4569 131.233C83.2441 131.313 83.0266 131.38 82.8045 131.434C82.5823 131.49 82.3602 131.53 82.1333 131.561C81.9065 131.589 81.6797 131.603 81.4505 131.605C80.1807 131.612 79.0325 131.242 78.0059 130.494ZM78.3918 99.4859C77.7767 99.4859 77.1781 99.39 76.5935 99.1983C76.0089 99.0065 75.4687 98.7306 74.9706 98.3681C74.4748 98.008 74.0445 97.5777 73.6844 97.0796C73.3243 96.5815 73.0483 96.039 72.8613 95.4544L69.4026 84.819C69.3208 84.5664 69.1735 84.3606 68.9583 84.2039C68.7432 84.0473 68.5023 83.9678 68.2381 83.9678C67.9715 83.9678 67.7306 84.0473 67.5178 84.2039C67.3027 84.3606 67.153 84.5664 67.0735 84.819L63.6149 95.4544C63.4255 96.039 63.1519 96.5815 62.7894 97.0796C62.4293 97.5777 62.0013 98.008 61.5033 98.3681C61.0075 98.7306 60.4673 99.0065 59.8827 99.1983C59.2981 99.39 58.6971 99.4859 58.0821 99.4859H46.8854C46.6188 99.4859 46.3803 99.5654 46.1651 99.7221C45.9523 99.8764 45.805 100.082 45.7208 100.332C45.639 100.585 45.639 100.838 45.7208 101.09C45.8027 101.343 45.95 101.546 46.1628 101.703L55.2198 108.272C55.7178 108.634 56.1458 109.064 56.5059 109.56C56.866 110.058 57.142 110.598 57.3314 111.181C57.5208 111.765 57.6144 112.364 57.6144 112.979C57.6144 113.592 57.5208 114.19 57.3314 114.775L53.8775 125.413C53.7933 125.663 53.7933 125.915 53.8751 126.168C53.957 126.421 54.1043 126.626 54.3194 126.781C54.5322 126.937 54.7731 127.017 55.0373 127.017C55.3039 127.017 55.5448 126.937 55.7576 126.783L64.8099 120.207C65.308 119.845 65.8481 119.569 66.4304 119.379C67.0151 119.188 67.6137 119.094 68.2287 119.094C68.8437 119.094 69.4424 119.188 70.027 119.379C70.6093 119.569 71.1495 119.845 71.6452 120.207L80.6998 126.783C80.9126 126.937 81.1535 127.017 81.4178 127.017C81.6843 127.017 81.9252 126.937 82.138 126.781C82.3532 126.626 82.5005 126.421 82.5823 126.168C82.6642 125.915 82.6642 125.663 82.58 125.413L79.126 114.775C78.9366 114.19 78.8431 113.592 78.8431 112.979C78.8431 112.364 78.9366 111.765 79.126 111.181C79.3155 110.598 79.5914 110.058 79.9515 109.56C80.3117 109.064 80.7396 108.634 81.2354 108.272L90.29 101.703C90.5028 101.546 90.6501 101.343 90.7319 101.09C90.8138 100.838 90.8138 100.585 90.7319 100.332C90.6477 100.082 90.5004 99.8764 90.2876 99.7221C90.0725 99.5654 89.834 99.4859 89.5674 99.4859H78.3918Z" fill="#EED124"/>
</g>
<path d="M109.075 58.5085C108.963 58.5085 108.851 58.4991 108.738 58.4804C108.439 58.436 108.156 58.3378 107.894 58.1811C107.635 58.0268 107.412 57.8257 107.23 57.5825C107.048 57.3369 106.919 57.068 106.846 56.7733C106.772 56.4787 106.755 56.1794 106.8 55.8777C107.078 53.9578 107.216 52.0286 107.216 50.0876C107.218 46.0491 106.622 42.1041 105.425 38.2479C105.373 38.1006 105.336 37.9509 105.315 37.7989C105.294 37.6446 105.287 37.4902 105.296 37.3359C105.305 37.1816 105.331 37.0295 105.371 36.8799C105.411 36.7302 105.467 36.5876 105.535 36.4473C105.605 36.3093 105.689 36.1807 105.785 36.0591C105.881 35.9375 105.986 35.8252 106.105 35.7247C106.224 35.6265 106.351 35.5376 106.486 35.4651C106.622 35.3903 106.765 35.3295 106.912 35.285C107.062 35.2406 107.211 35.2102 107.366 35.1938C107.52 35.1798 107.674 35.1798 107.829 35.1962C107.983 35.2125 108.133 35.2453 108.28 35.2921C108.427 35.3388 108.57 35.3996 108.706 35.4768C108.841 35.5516 108.965 35.6405 109.084 35.741C109.201 35.8416 109.307 35.9538 109.402 36.0778C109.496 36.1994 109.578 36.3303 109.646 36.4707C109.713 36.6086 109.767 36.7536 109.805 36.9033C111.142 41.2037 111.806 45.6071 111.804 50.111C111.809 52.2718 111.659 54.4232 111.355 56.5629C111.313 56.8365 111.224 57.0914 111.091 57.3299C110.957 57.5708 110.784 57.7789 110.576 57.959C110.366 58.1367 110.132 58.2723 109.875 58.3682C109.618 58.4617 109.351 58.5085 109.075 58.5085Z" fill="#E11F25"/>
<path d="M67.4006 71.5572C66.3062 71.5595 65.2492 71.3608 64.2273 70.9632C63.2077 70.5657 62.2957 69.9974 61.4913 69.2561L37.9896 47.5129C37.564 47.1247 37.1828 46.7015 36.8437 46.2385C36.5046 45.7754 36.2123 45.2844 35.9715 44.7629C35.7282 44.2437 35.5388 43.7035 35.4032 43.147C35.2676 42.5881 35.1881 42.0222 35.1623 41.4492C35.139 40.8763 35.1717 40.3057 35.2606 39.7375C35.3494 39.1716 35.4921 38.6173 35.6908 38.0795C35.8873 37.5416 36.1375 37.0272 36.4368 36.5361C36.7361 36.0474 37.0822 35.5914 37.4704 35.1704C37.8609 34.7495 38.2889 34.3707 38.7519 34.0316C39.2173 33.6948 39.7107 33.4072 40.2322 33.1687C40.7536 32.9278 41.2938 32.7431 41.8527 32.6098C42.4116 32.4765 42.9775 32.3993 43.5505 32.3783C44.1257 32.3596 44.6963 32.3946 45.2622 32.4858C45.8282 32.577 46.38 32.7244 46.9179 32.9255C47.4557 33.1266 47.9702 33.3791 48.4566 33.6808C48.9453 33.9825 49.399 34.3309 49.8176 34.7214L66.3343 49.9987L99.4355 7.24662C99.7909 6.80698 100.184 6.40476 100.616 6.0423C101.049 5.6775 101.514 5.35946 102.008 5.08586C102.504 4.8146 103.018 4.5901 103.558 4.41705C104.096 4.24401 104.646 4.12474 105.207 4.05927C105.768 3.99379 106.329 3.9821 106.893 4.02653C107.456 4.07096 108.011 4.16684 108.556 4.31884C109.1 4.47084 109.624 4.67195 110.129 4.9245C110.634 5.1794 111.112 5.47872 111.558 5.82482C112.005 6.17092 112.414 6.55676 112.786 6.98237C113.158 7.40563 113.485 7.86398 113.768 8.35272C114.051 8.84146 114.285 9.35359 114.467 9.8891C114.652 10.4223 114.781 10.9695 114.858 11.5307C114.935 12.0896 114.958 12.6532 114.926 13.2168C114.893 13.7803 114.806 14.3369 114.666 14.8841C114.526 15.4313 114.332 15.9598 114.088 16.4696C113.845 16.9794 113.555 17.4611 113.219 17.9148L74.2898 68.1804C73.5392 69.1439 72.6295 69.9179 71.5561 70.5002C70.4828 71.0825 69.3369 71.4239 68.1209 71.5268C67.8824 71.5478 67.6415 71.5572 67.4006 71.5572ZM43.9059 37.0108H43.7399C43.3307 37.0248 42.9308 37.0973 42.5449 37.2306C42.1567 37.3639 41.7966 37.551 41.4645 37.7895C41.1325 38.0304 40.8425 38.3133 40.5946 38.6407C40.3467 38.9681 40.1527 39.3236 40.0123 39.7071C39.8697 40.0929 39.7879 40.4881 39.7645 40.8974C39.7411 41.3066 39.7785 41.7112 39.8767 42.1087C39.9749 42.5062 40.1269 42.8827 40.3374 43.2335C40.5479 43.5866 40.8028 43.9 41.1068 44.1759L64.6272 65.87C65.0505 66.2629 65.5345 66.5552 66.0794 66.7423C66.6266 66.9317 67.1878 67.0018 67.7631 66.9527C68.3384 66.9036 68.8809 66.7423 69.3884 66.4663C69.8958 66.1904 70.3284 65.8232 70.6839 65.3696L109.608 15.0969C109.779 14.8841 109.926 14.6549 110.05 14.4141C110.176 14.1709 110.274 13.9183 110.349 13.6541C110.424 13.3921 110.473 13.1256 110.494 12.852C110.515 12.5807 110.511 12.3094 110.478 12.0382C110.445 11.7669 110.387 11.5027 110.3 11.2431C110.216 10.9835 110.106 10.7333 109.97 10.4971C109.835 10.2586 109.678 10.0364 109.5 9.83064C109.32 9.62485 109.124 9.43777 108.909 9.27174C108.691 9.10337 108.462 8.96072 108.216 8.83912C107.973 8.71752 107.718 8.62164 107.454 8.54915C107.19 8.479 106.923 8.43457 106.65 8.4182C106.378 8.39949 106.105 8.40884 105.836 8.44626C105.565 8.48367 105.3 8.54447 105.043 8.63334C104.784 8.72454 104.538 8.83678 104.302 8.97475C104.066 9.11273 103.846 9.27408 103.642 9.45414C103.439 9.63654 103.254 9.83765 103.091 10.0551L68.453 54.7856C68.3547 54.9119 68.2448 55.0265 68.1232 55.1294C68.004 55.2323 67.873 55.3211 67.7327 55.3983C67.5924 55.4731 67.4474 55.5339 67.2954 55.5784C67.1411 55.6251 66.9867 55.6555 66.8277 55.6672C66.6687 55.6812 66.512 55.6789 66.353 55.6579C66.1963 55.6392 66.042 55.6041 65.89 55.5503C65.7403 55.4988 65.5977 55.4334 65.4597 55.3515C65.3241 55.2697 65.1955 55.1761 65.0785 55.0686L46.7098 38.0912C46.3286 37.7404 45.8936 37.4715 45.4096 37.2844C44.9255 37.0997 44.4251 37.0061 43.9059 37.0108Z" fill="#E11F25"/>
</svg>
