<svg width="71" height="73" viewBox="0 0 71 73" fill="none" xmlns="http://www.w3.org/2000/svg">
<path d="M46.8025 32.0634C46.8001 31.8946 46.765 31.7329 46.6993 31.5782C46.6314 31.4235 46.5376 31.2876 46.4181 31.1704C46.2962 31.0532 46.1579 30.9618 46.0009 30.8985C45.8439 30.8376 45.6822 30.8071 45.5134 30.8095L23.2267 31.1118C23.0579 31.1141 22.8962 31.1493 22.7415 31.2149C22.5868 31.2829 22.4509 31.3766 22.3337 31.4962C22.2142 31.618 22.1251 31.7563 22.0618 31.9134C22.0009 32.0704 21.9704 32.2345 21.9728 32.4009C21.9751 32.5696 22.0103 32.7337 22.0759 32.8884C22.1439 33.043 22.2376 33.179 22.3572 33.2962C22.479 33.4134 22.6173 33.5048 22.7743 33.5657C22.929 33.629 23.0931 33.6595 23.2618 33.6571L45.5486 33.3548C45.7173 33.3524 45.879 33.3173 46.0337 33.2493C46.1884 33.1837 46.3243 33.0899 46.4415 32.968C46.5587 32.8485 46.6501 32.7079 46.7111 32.5532C46.7743 32.3962 46.8048 32.2321 46.8025 32.0634Z" fill="url(#paint0_linear_9089_556)"/>
<path d="M45.6047 36.2916C45.5906 36.2916 38.4914 36.2119 38.4773 36.2119C38.3133 36.2143 38.1539 36.2494 38.0015 36.315C37.8492 36.3807 37.7156 36.4721 37.5984 36.5893C37.4812 36.7088 37.3922 36.8447 37.3289 36.9971C37.2656 37.1518 37.2328 37.3111 37.2328 37.4775C37.2304 37.6439 37.2609 37.8033 37.3242 37.958C37.3851 38.1104 37.4742 38.2486 37.589 38.3682C37.7039 38.4877 37.8375 38.5814 37.9898 38.6471C38.1398 38.715 38.2992 38.7502 38.4656 38.7549C38.4773 38.7549 45.5789 38.8369 45.5906 38.8346C45.757 38.8322 45.9164 38.7971 46.0687 38.7314C46.2211 38.6658 46.3547 38.5744 46.4719 38.4572C46.5867 38.3377 46.6781 38.2018 46.7414 38.0494C46.8047 37.8947 46.8351 37.7354 46.8375 37.5689C46.8375 37.4049 46.807 37.2432 46.7461 37.0908C46.6828 36.9361 46.5961 36.7979 46.4812 36.6783C46.3664 36.5611 46.2328 36.4674 46.0804 36.3994C45.9281 36.3314 45.7711 36.2963 45.6047 36.2916Z" fill="url(#paint1_linear_9089_556)"/>
<path d="M25.1186 36.6853L23.2975 36.6782C23.1311 36.6806 22.9718 36.7157 22.8194 36.7813C22.6671 36.847 22.5311 36.9407 22.4163 37.0579C22.2991 37.1774 22.21 37.3134 22.1468 37.4681C22.0835 37.6228 22.0507 37.7821 22.0507 37.9485C22.0507 38.1149 22.0811 38.2743 22.1444 38.429C22.2077 38.5837 22.2968 38.7196 22.4116 38.8392C22.5288 38.9587 22.6624 39.0501 22.8147 39.1181C22.9671 39.1837 23.1264 39.2188 23.2928 39.2235L25.1116 39.2306C25.278 39.2282 25.4374 39.1931 25.5897 39.1274C25.7444 39.0618 25.878 38.9681 25.9952 38.8509C26.11 38.7313 26.2014 38.5954 26.2647 38.4407C26.328 38.2884 26.3585 38.1267 26.3585 37.9603C26.3585 37.7938 26.328 37.6345 26.2647 37.4798C26.2038 37.3251 26.1147 37.1892 25.9975 37.0696C25.8827 36.9501 25.7468 36.8587 25.5944 36.7907C25.4421 36.7251 25.2827 36.6899 25.1186 36.6853Z" fill="url(#paint2_linear_9089_556)"/>
<path d="M42.8955 21.6266C47.2408 15.1391 41.7423 6.39923 34.1041 6.74377C33.7783 6.74377 33.4502 6.75783 33.1244 6.7883C32.7986 6.81877 32.4752 6.86564 32.1541 6.92658C31.833 6.98986 31.5142 7.0672 31.2025 7.16095C30.8884 7.2547 30.5791 7.36252 30.2767 7.48673C29.972 7.60861 29.6767 7.74689 29.3861 7.89923C29.0978 8.05158 28.8166 8.21798 28.5423 8.39845C28.2681 8.57892 28.0033 8.77111 27.7501 8.97736C27.4947 9.18127 27.2509 9.39923 27.0166 9.62892C26.7845 9.85861 26.5619 10.1 26.3509 10.3508C26.1423 10.6016 25.9455 10.8641 25.7603 11.1336C25.5751 11.4031 25.4041 11.682 25.247 11.9703C25.09 12.2586 24.947 12.5516 24.8181 12.8539C24.6892 13.1539 24.5767 13.461 24.4759 13.775C24.3775 14.0867 24.2955 14.4031 24.2275 14.7242C24.1595 15.043 24.1056 15.3664 24.0705 15.6922C24.033 16.018 24.0142 16.3461 24.0095 16.6719C24.1806 26.6586 37.8236 29.7664 42.8955 21.6266ZM34.8212 14.0328C37.2517 14.1711 38.4775 12.3875 38.5619 15.8399L34.8423 15.8891L34.8212 14.0328ZM34.8564 17.1617L38.5736 17.1102C38.508 17.8789 38.3673 18.6313 38.1494 19.3719C37.0666 19.1891 35.9767 19.0883 34.8775 19.0695L34.8564 17.1617ZM34.9384 24.4016L34.8916 20.3422C35.8384 20.3586 36.7783 20.4406 37.7134 20.5906C37.0853 22.0789 36.1595 23.3492 34.9384 24.4016ZM36.4103 24.7742C37.5377 23.6375 38.3931 22.325 38.9791 20.8344C39.8017 21.0195 40.6103 21.2563 41.4025 21.5445C40.7767 22.3485 40.0361 23.0281 39.1806 23.5836C38.3252 24.1367 37.4017 24.5328 36.4103 24.7742ZM42.1267 20.4524C41.2337 20.1172 40.322 19.843 39.3916 19.6297C39.6306 18.8 39.783 17.9539 39.8462 17.0938L43.1205 17.0492C43.0408 18.2563 42.7103 19.3906 42.1267 20.4524ZM42.04 12.4063C42.647 13.4516 43.0033 14.5742 43.1087 15.7766L39.8322 15.8211C39.7759 14.968 39.6236 14.1336 39.3728 13.318C40.2822 13.0742 41.1728 12.7719 42.04 12.4063ZM41.3017 11.3328C40.5236 11.6492 39.7267 11.9141 38.9134 12.1274C38.2384 10.6414 37.3103 9.33361 36.1291 8.20627C37.1462 8.40783 38.1002 8.77814 38.9884 9.31486C39.8791 9.85158 40.6478 10.5242 41.3017 11.3328ZM37.6548 12.4156C36.7127 12.6008 35.7634 12.7133 34.8072 12.7602L34.7627 8.67267C35.9861 9.71798 36.9517 10.9672 37.6548 12.4156ZM27.1314 21.7414C27.9189 21.432 28.7251 21.1719 29.5455 20.9656C30.1689 22.4492 31.0619 23.7453 32.2267 24.8563C31.2236 24.6477 30.2861 24.275 29.4095 23.7406C28.5353 23.2063 27.7759 22.5406 27.1314 21.7414ZM33.6681 24.4227C32.4189 23.4031 31.465 22.1563 30.8041 20.6867C31.7345 20.511 32.6744 20.4031 33.6212 20.3586L33.6681 24.4227ZM33.6072 19.086C32.508 19.1328 31.4205 19.2617 30.34 19.475C30.1056 18.7438 29.9486 17.9938 29.8689 17.2297L33.5861 17.1781L33.6072 19.086ZM33.572 15.9055L29.8525 15.957C29.89 15.2 30.0166 14.4547 30.2298 13.7281C31.3291 13.925 32.4353 14.0328 33.5509 14.0563L33.572 15.9055ZM33.49 8.69142L33.5369 12.7742C32.5783 12.7602 31.6244 12.6758 30.6798 12.5188C31.3502 11.0469 32.2877 9.76955 33.49 8.69142ZM32.0955 8.27423C30.947 9.4297 30.0517 10.7586 29.4119 12.2586C28.5986 12.0664 27.8017 11.825 27.0189 11.5297C27.6541 10.7117 28.4064 10.0227 29.2783 9.46486C30.1501 8.9047 31.09 8.50861 32.0955 8.27423ZM26.297 12.6219C27.1736 12.9617 28.0689 13.2406 28.983 13.461C28.7509 14.2836 28.6173 15.1203 28.5822 15.9735L25.308 16.018C25.3853 14.8133 25.7158 13.6813 26.297 12.6219ZM25.3197 17.2906L28.5962 17.2461C28.6783 18.1039 28.847 18.9453 29.1048 19.768C28.1791 20.007 27.2744 20.307 26.3908 20.6656C25.7837 19.6203 25.4251 18.4953 25.3197 17.2906Z" fill="url(#paint3_linear_9089_556)"/>
<mask id="mask0_9089_556" style="mask-type:luminance" maskUnits="userSpaceOnUse" x="0" y="0" width="71" height="73">
<path d="M0 0.5H70.35V72.5H0V0.5Z" fill="white"/>
</mask>
<g mask="url(#mask0_9089_556)">
<path d="M55.7215 37.7094C54.9387 37.7141 54.1582 37.7844 53.3847 37.9156V4.31563C53.3847 4.06484 53.3613 3.81875 53.3121 3.57266C53.2629 3.32656 53.1902 3.0875 53.0941 2.85547C52.998 2.62578 52.8808 2.40547 52.7426 2.19688C52.6019 1.98828 52.4449 1.79609 52.2691 1.61797C52.091 1.44219 51.8988 1.28281 51.6902 1.14453C51.4816 1.00391 51.2636 0.886719 51.0316 0.790625C50.8019 0.694531 50.5629 0.621875 50.3168 0.572656C50.0707 0.525781 49.8246 0.5 49.5738 0.5H18.9129C18.6621 0.5 18.416 0.525781 18.1699 0.572656C17.9238 0.621875 17.6871 0.694531 17.4551 0.790625C17.223 0.886719 17.0051 1.00391 16.7965 1.14453C16.5879 1.28281 16.3957 1.44219 16.2199 1.61797C16.0418 1.79609 15.8847 1.98828 15.7441 2.19688C15.6058 2.40547 15.4887 2.62578 15.3926 2.85547C15.2965 3.0875 15.2238 3.32656 15.1746 3.57266C15.1254 3.81875 15.1019 4.06484 15.1019 4.31563V30.7367C13.3113 32.8414 9.59178 35.7734 9.54256 38.8016L8.55349 48.2117C8.43162 49.3859 7.99568 50.4313 7.24568 51.3453L6.56834 52.1703C6.14412 52.0813 5.72459 52.1 5.30974 52.2313C4.8949 52.3602 4.53865 52.5828 4.24099 52.8992L0.814432 56.5578C0.701932 56.6797 0.603495 56.8086 0.516776 56.9469C0.430057 57.0875 0.357401 57.2328 0.301151 57.3875C0.242557 57.5422 0.20037 57.6992 0.174588 57.8609C0.146463 58.0227 0.137089 58.1867 0.141776 58.3508C0.146464 58.5148 0.167557 58.6766 0.205057 58.8359C0.242557 58.9953 0.29412 59.15 0.362088 59.3C0.430057 59.45 0.512089 59.5906 0.608182 59.7242C0.701932 59.8578 0.809745 59.982 0.929276 60.0945L13.1566 71.5695C13.2762 71.682 13.4051 71.7805 13.5433 71.8672C13.684 71.9539 13.8293 72.0266 13.984 72.0828C14.1363 72.1414 14.2933 72.1836 14.4551 72.2094C14.6168 72.2375 14.7808 72.2469 14.9449 72.2422C15.1066 72.2375 15.2683 72.2164 15.4277 72.1789C15.5894 72.1414 15.7418 72.0898 15.8918 72.0219C16.0418 71.9539 16.1824 71.8719 16.316 71.7758C16.4496 71.682 16.5715 71.5742 16.684 71.4547L20.1105 67.7938C20.4316 67.4539 20.6402 67.0555 20.734 66.5961C20.8277 66.1367 20.7926 65.6867 20.6308 65.2484C23.8816 62.1383 28.2855 59.8602 30.184 55.6063L33.7277 47.7055C33.7488 47.6703 33.7676 47.6352 33.784 47.5977H42.0058C41.4996 49.093 41.2441 50.6305 41.2418 52.2078C42.0316 71.4336 69.409 71.4453 70.2035 52.2078C70.2011 51.732 70.1777 51.2586 70.1308 50.7875C70.084 50.3141 70.0136 49.8453 69.9222 49.3813C69.8285 48.9148 69.7137 48.4555 69.5754 48.0008C69.4371 47.5461 69.2777 47.1008 69.0949 46.6625C68.9144 46.2242 68.7105 45.7953 68.4879 45.3758C68.2629 44.9586 68.0215 44.5508 67.7566 44.157C67.4941 43.7609 67.2105 43.3813 66.9105 43.0133C66.6105 42.6477 66.2918 42.2961 65.9566 41.9609C65.6215 41.6258 65.2699 41.307 64.9043 41.0047C64.5363 40.7047 64.1566 40.4211 63.7629 40.1586C63.3691 39.8938 62.9636 39.65 62.5441 39.4273C62.1269 39.2023 61.698 38.9984 61.2597 38.818C60.8238 38.6352 60.3762 38.4758 59.9238 38.3375C59.4691 38.1992 59.0097 38.0844 58.5457 37.9906C58.0816 37.8969 57.6129 37.8289 57.1418 37.782C56.6683 37.7328 56.1972 37.7094 55.7215 37.7094ZM14.891 69.7133L2.66834 58.2992L6.03396 54.6406L17.966 65.825C18.041 65.8953 18.1676 66.0148 18.2355 66.0781L14.891 69.7133ZM32.9988 43.1375C31.9887 45.4695 28.9183 52.1492 27.859 54.5797C26.0144 58.4047 21.934 60.4227 18.9855 63.3102L8.66599 53.6234C9.33631 52.9203 9.87771 52.1305 10.2902 51.2492C10.7027 50.3703 10.9652 49.4469 11.0801 48.4813L12.0715 39.0641C12.0972 37.2734 14.0168 35.7008 15.1019 34.4727V43.782C15.1019 44.0328 15.1254 44.2812 15.1746 44.525C15.2238 44.7711 15.2965 45.0102 15.3926 45.2422C15.4887 45.4719 15.6058 45.6922 15.7441 45.9008C15.8847 46.1094 16.0418 46.3016 16.2199 46.4797C16.3957 46.6555 16.5879 46.8148 16.7965 46.9531C17.0051 47.0938 17.223 47.2109 17.4551 47.307C17.6871 47.4031 17.9238 47.4758 18.1699 47.525C18.416 47.5742 18.6621 47.5977 18.9129 47.5977C18.0222 47.9023 16.6113 48.0688 16.8996 49.4586C16.9394 49.6227 17.0097 49.7727 17.1082 49.9086C17.2066 50.0445 17.3285 50.157 17.4715 50.2461C17.6144 50.3352 17.7691 50.3914 17.9355 50.4172C18.1019 50.4453 18.2683 50.4383 18.4324 50.4008C24.3597 48.9477 28.5855 43.6273 29.8582 37.7891C30.1605 35.9516 32.7035 36.6781 33.0902 36.9383C35.3801 38.1922 33.873 41.3844 32.9988 43.1375ZM34.9254 45.0547C35.9168 42.7484 37.323 40.4938 36.7301 37.8453C36.634 37.4984 36.5027 37.1656 36.3363 36.8445C36.1722 36.5234 35.9754 36.2234 35.7504 35.9445C35.523 35.6633 35.2699 35.4102 34.9933 35.1805C34.7144 34.9531 34.4168 34.7563 34.098 34.5875C33.7793 34.4211 33.4465 34.2875 33.0996 34.1891C32.7551 34.0883 32.4012 34.025 32.0426 33.9992C31.684 33.9711 31.3254 33.9805 30.9691 34.0273C30.6129 34.0742 30.2637 34.1562 29.9238 34.2734C29.598 34.3883 29.2933 34.5453 29.0097 34.7422C28.7238 34.9391 28.4707 35.1688 28.2457 35.4313C28.0207 35.6938 27.8355 35.982 27.6855 36.2938C27.5379 36.6078 27.4324 36.9336 27.3668 37.2734C27.0504 38.7641 26.5183 40.1727 25.773 41.4992C25.0254 42.8258 24.0972 44.0117 22.9887 45.0547H18.9129C18.7441 45.0547 18.5824 45.0219 18.4277 44.9563C18.2707 44.893 18.1347 44.7992 18.0152 44.682C17.8957 44.5625 17.8043 44.4242 17.7387 44.2672C17.6754 44.1125 17.6426 43.9508 17.6426 43.782V4.31563C17.6426 4.14688 17.6754 3.98516 17.7387 3.83047C17.8043 3.67344 17.8957 3.5375 18.0152 3.41797C18.1347 3.29844 18.2707 3.20703 18.4277 3.14141C18.5824 3.07578 18.7441 3.04531 18.9129 3.04531H49.5738C49.7426 3.04531 49.9043 3.07578 50.059 3.14141C50.216 3.20703 50.3519 3.29844 50.4715 3.41797C50.591 3.5375 50.6824 3.67344 50.748 3.83047C50.8113 3.98516 50.8441 4.14688 50.8441 4.31563V38.5742C49.2176 39.1602 47.741 40.0109 46.4168 41.1266C45.0926 42.2398 44.0027 43.55 43.1449 45.0547H34.9254ZM55.7215 64.1633C55.3301 64.1633 54.941 64.1422 54.5519 64.1047C54.1629 64.0648 53.7761 64.0063 53.3941 63.9313C53.0097 63.8539 52.6324 63.7578 52.2574 63.6453C51.8847 63.5305 51.5168 63.3992 51.1558 63.2492C50.7949 63.0992 50.441 62.9305 50.0965 62.7477C49.7519 62.5625 49.4168 62.3609 49.0933 62.143C48.7676 61.925 48.4535 61.693 48.1511 61.4445C47.8488 61.1961 47.5605 60.9336 47.284 60.657C47.0074 60.3805 46.7449 60.0898 46.4988 59.7875C46.2504 59.4852 46.016 59.1711 45.8004 58.8453C45.5824 58.5219 45.3808 58.1844 45.198 57.8398C45.0129 57.4953 44.8465 57.1414 44.6965 56.7805C44.5465 56.4195 44.4152 56.0516 44.3004 55.6766C44.1879 55.3016 44.0918 54.9219 44.0144 54.5398C43.9394 54.1555 43.8808 53.7688 43.8433 53.3797C43.8035 52.9906 43.7847 52.5992 43.7847 52.2078C44.4293 36.3547 67.0207 36.3594 67.6605 52.2078C67.6605 52.5992 67.6418 52.9906 67.6019 53.3797C67.5644 53.7688 67.5058 54.1555 67.4308 54.5398C67.3535 54.9219 67.2574 55.3016 67.1449 55.6766C67.0301 56.0516 66.8988 56.4195 66.7488 56.7805C66.5988 57.1414 66.4324 57.4953 66.2472 57.8398C66.0644 58.1867 65.8629 58.5219 65.6449 58.8477C65.4269 59.1711 65.1949 59.4852 64.9465 59.7875C64.7004 60.0898 64.4379 60.3805 64.1613 60.657C63.8847 60.9336 63.5941 61.1961 63.2918 61.4445C62.9918 61.693 62.6777 61.9273 62.3519 62.143C62.0261 62.3609 61.6933 62.5625 61.3488 62.7477C61.0019 62.9328 60.6504 63.0992 60.2894 63.2492C59.9285 63.3992 59.5605 63.5305 59.1855 63.6453C58.8129 63.7578 58.4332 63.8539 58.0512 63.9313C57.6668 64.0086 57.2801 64.0648 56.891 64.1047C56.5019 64.1422 56.1129 64.1633 55.7215 64.1633Z" fill="url(#paint4_linear_9089_556)"/>
</g>
<path d="M60.7419 46.5313L53.4271 53.8555L49.7357 50.1594C49.6161 50.0446 49.4779 49.9555 49.3232 49.8946C49.1685 49.8313 49.0091 49.8032 48.8427 49.8032C48.6763 49.8055 48.5169 49.8383 48.3622 49.9039C48.2099 49.9672 48.074 50.0586 47.9568 50.1758C47.8372 50.2953 47.7482 50.4289 47.6825 50.5836C47.6193 50.7383 47.5865 50.8977 47.5841 51.0641C47.5818 51.2305 47.6122 51.3922 47.6732 51.5469C47.7341 51.7016 47.8232 51.8375 47.938 51.9571L52.5294 56.5555C52.649 56.6727 52.7872 56.7641 52.9419 56.8297C53.099 56.893 53.2607 56.9258 53.4271 56.9258C53.5958 56.9258 53.7575 56.893 53.9146 56.8297C54.0693 56.7641 54.2076 56.6727 54.3271 56.5555L62.5372 48.3313C62.6544 48.2117 62.7411 48.0735 62.8044 47.9188C62.8654 47.7641 62.8935 47.6024 62.8935 47.436C62.8911 47.2696 62.8583 47.1102 62.7951 46.9555C62.7294 46.8032 62.638 46.6672 62.5208 46.55C62.4036 46.4328 62.2677 46.3414 62.1154 46.2758C61.9607 46.2125 61.8013 46.1797 61.6349 46.1774C61.4685 46.175 61.3068 46.2055 61.1521 46.2664C60.9997 46.3274 60.8615 46.4164 60.7419 46.5313Z" fill="url(#paint5_linear_9089_556)"/>
<defs>
<linearGradient id="paint0_linear_9089_556" x1="46.8026" y1="32.2333" x2="21.9727" y2="32.2333" gradientUnits="userSpaceOnUse">
<stop stop-color="#ED1C24"/>
<stop offset="1" stop-color="#871015"/>
</linearGradient>
<linearGradient id="paint1_linear_9089_556" x1="46.8375" y1="37.5233" x2="37.2327" y2="37.5233" gradientUnits="userSpaceOnUse">
<stop stop-color="#ED1C24"/>
<stop offset="1" stop-color="#871015"/>
</linearGradient>
<linearGradient id="paint2_linear_9089_556" x1="26.3585" y1="37.9544" x2="22.0507" y2="37.9544" gradientUnits="userSpaceOnUse">
<stop stop-color="#ED1C24"/>
<stop offset="1" stop-color="#871015"/>
</linearGradient>
<linearGradient id="paint3_linear_9089_556" x1="44.43" y1="16.5055" x2="24.0095" y2="16.5055" gradientUnits="userSpaceOnUse">
<stop stop-color="#ED1C24"/>
<stop offset="1" stop-color="#871015"/>
</linearGradient>
<linearGradient id="paint4_linear_9089_556" x1="70.2035" y1="36.3717" x2="0.140625" y2="36.3717" gradientUnits="userSpaceOnUse">
<stop stop-color="#ED1C24"/>
<stop offset="1" stop-color="#871015"/>
</linearGradient>
<linearGradient id="paint5_linear_9089_556" x1="62.8935" y1="51.5515" x2="47.584" y2="51.5515" gradientUnits="userSpaceOnUse">
<stop stop-color="#ED1C24"/>
<stop offset="1" stop-color="#871015"/>
</linearGradient>
</defs>
</svg>
