<svg width="195" height="91" viewBox="0 0 195 91" fill="none" xmlns="http://www.w3.org/2000/svg">
<path d="M44.2502 11.2956H51.5651V11.2825C52.5993 11.22 53.4223 10.3969 53.4802 9.35993H53.4914V2.04967C53.4914 0.918336 52.574 0 51.4418 0H44.2567C43.1244 0 42.207 0.917402 42.207 2.04967V9.35993H42.2192C42.279 10.4343 43.159 11.2919 44.2492 11.2956H44.2502Z" fill="#ED1C24"/>
<path d="M75.9028 15.4081H69.6361C69.2446 15.3875 68.9317 15.0699 68.9317 14.6728H68.9214V6.13128C68.9214 4.99994 68.004 4.0816 66.8717 4.0816H59.6867C58.5544 4.0816 57.637 4.99901 57.637 6.13128V14.6738C57.6361 15.0699 57.3231 15.3866 56.9326 15.4071H55.7657L55.2351 15.4193C54.4055 15.4193 53.5442 16.4861 53.547 17.312C53.4993 16.3591 52.7258 15.4071 51.4945 15.4071H44.3094C43.1772 15.4071 42.2598 16.3245 42.2598 17.4568V57.0162H42.2719C42.3317 58.0906 43.2117 58.9482 44.302 58.9519H51.6169V58.9389C52.6511 58.8763 53.4741 58.0532 53.532 57.0162H53.5432V28.1452H52.0205L55.5929 23.9879L59.1654 28.1452H57.637V43.7298C57.637 45.2096 57.8584 46.6371 58.2573 47.987C59.0374 50.6281 60.5275 52.9552 62.4996 54.7638C65.1416 57.1872 68.6439 58.6763 72.5013 58.6763H73.2291C74.3614 58.6763 75.2788 57.7589 75.2788 56.6267L75.4572 51.0223L75.2862 49.4416C75.2862 48.3103 74.3847 47.3377 73.2571 47.2041L72.9666 47.1303C71.3784 46.737 68.9223 44.9331 68.9223 41.7493V27.4249H68.9261C68.9261 27.0279 69.239 26.7112 69.6305 26.6897H75.9028C77.0351 26.6897 77.9525 25.7723 77.9525 24.64V17.4549C77.9525 16.3236 77.0351 15.4053 75.9028 15.4053V15.4081Z" fill="#ED1C24"/>
<path d="M34.9411 15.48C16.0615 16.9393 1.19437 32.1735 0.0742464 50.9672C0.0677068 51.0765 0.0592989 51.1849 0.0536936 51.2951C0.0480883 51.3979 0.0452856 51.5016 0.0406145 51.6053C0.0181933 52.1097 0.00324583 52.6161 0.000443173 53.1252C-0.038794 61.3277 2.52937 68.9341 6.92673 75.1578C11.3783 81.3433 17.7328 86.2489 25.4999 88.8852C44.671 95.3902 65.4284 85.6781 72.8554 67.1067C72.8732 67.0544 72.8862 67.003 72.8993 66.9507C73.0161 66.6564 73.1291 66.3594 73.2384 66.0604C73.571 64.9786 72.9647 63.8314 71.882 63.4988L65.1687 61.437C65.1575 61.4332 65.1481 61.4267 65.1369 61.4239C65.1257 61.4202 65.1145 61.4202 65.1033 61.4174L65.0379 61.3977L65.0332 61.4033C63.9822 61.138 62.8976 61.7331 62.5753 62.7804C62.5678 62.8037 62.5669 62.828 62.5613 62.8523C57.4679 75.7212 43.25 82.711 29.7917 78.5696C24.2686 76.8703 19.6919 73.5491 16.424 69.2891C13.2131 64.9917 11.2587 59.6919 11.1176 53.9212C11.1167 53.8698 11.1167 53.8184 11.1158 53.7671C11.1046 53.1794 11.112 52.5955 11.1391 52.0163C11.141 51.9855 11.141 51.9556 11.1429 51.9248C11.1475 51.822 11.155 51.7192 11.1615 51.6174C11.1699 51.4848 11.1774 51.3521 11.1877 51.2204C11.1877 51.2148 11.1886 51.2092 11.1896 51.2036C12.2125 38.0376 22.743 27.5688 35.894 26.5991C35.9183 26.6 35.9417 26.6065 35.9669 26.6065C37.0627 26.6121 38.0474 25.7536 38.1081 24.6718L38.1156 24.669V24.6008C38.1156 24.5886 38.1193 24.5784 38.1193 24.5662C38.1193 24.555 38.1165 24.5438 38.1156 24.5326L38.152 17.5101C38.1576 16.3778 37.1505 15.4567 36.0192 15.451L34.9402 15.4809L34.9411 15.48Z" fill="#ED1C24"/>
<path d="M101.628 54.2039V55.953H94.834V54.2039H101.628ZM95.458 43.1561V55.953H93.252V43.1561H95.458ZM100.74 48.4998V50.2225H94.834V48.4998H100.74ZM101.584 43.1561V44.9139H94.834V43.1561H101.584ZM107.481 49.6424V51.3299H102.832V49.6424H107.481ZM121.588 51.787H123.785C123.715 52.6248 123.48 53.3719 123.082 54.0282C122.684 54.6786 122.124 55.1913 121.403 55.5663C120.683 55.9413 119.807 56.1288 118.775 56.1288C117.984 56.1288 117.272 55.9881 116.64 55.7069C116.007 55.4198 115.465 55.0155 115.014 54.494C114.562 53.9666 114.217 53.3309 113.977 52.5868C113.742 51.8426 113.625 51.0106 113.625 50.0907V49.0272C113.625 48.1073 113.745 47.2752 113.985 46.5311C114.231 45.787 114.583 45.1512 115.04 44.6239C115.497 44.0907 116.045 43.6834 116.684 43.4022C117.328 43.1209 118.052 42.9803 118.854 42.9803C119.874 42.9803 120.735 43.1678 121.438 43.5428C122.142 43.9178 122.687 44.4364 123.073 45.0985C123.466 45.7606 123.706 46.5194 123.794 47.3748H121.597C121.538 46.8241 121.409 46.3524 121.21 45.9598C121.017 45.5672 120.729 45.2684 120.349 45.0633C119.968 44.8524 119.47 44.7469 118.854 44.7469C118.351 44.7469 117.911 44.8407 117.536 45.0282C117.161 45.2157 116.848 45.4911 116.596 45.8543C116.344 46.2176 116.153 46.6659 116.024 47.1991C115.901 47.7264 115.84 48.3299 115.84 49.0096V50.0907C115.84 50.7352 115.896 51.3211 116.007 51.8485C116.124 52.37 116.3 52.8182 116.534 53.1932C116.774 53.5682 117.079 53.8582 117.448 54.0633C117.817 54.2684 118.26 54.3709 118.775 54.3709C119.402 54.3709 119.909 54.2713 120.296 54.0721C120.688 53.8729 120.984 53.5829 121.184 53.202C121.389 52.8153 121.523 52.3436 121.588 51.787ZM130.939 54.0457V49.5106C130.939 49.1707 130.878 48.8778 130.755 48.6317C130.632 48.3856 130.444 48.1952 130.192 48.0604C129.946 47.9256 129.636 47.8582 129.261 47.8582C128.915 47.8582 128.616 47.9168 128.364 48.034C128.112 48.1512 127.916 48.3094 127.775 48.5086C127.635 48.7079 127.564 48.9334 127.564 49.1854H125.455C125.455 48.8104 125.546 48.4471 125.728 48.0956C125.909 47.744 126.173 47.4305 126.519 47.1551C126.864 46.8797 127.277 46.6629 127.758 46.5047C128.238 46.3465 128.777 46.2674 129.375 46.2674C130.09 46.2674 130.723 46.3875 131.273 46.6278C131.83 46.868 132.267 47.2313 132.583 47.7176C132.905 48.1981 133.066 48.8016 133.066 49.5282V53.7557C133.066 54.1893 133.096 54.5789 133.154 54.9247C133.219 55.2645 133.31 55.5604 133.427 55.8123V55.953H131.256C131.156 55.7245 131.077 55.4344 131.019 55.0829C130.966 54.7254 130.939 54.3797 130.939 54.0457ZM131.247 50.1698L131.265 51.4793H129.744C129.352 51.4793 129.006 51.5174 128.707 51.5936C128.408 51.6639 128.159 51.7694 127.96 51.91C127.761 52.0506 127.611 52.2206 127.512 52.4198C127.412 52.619 127.362 52.8446 127.362 53.0965C127.362 53.3485 127.421 53.5799 127.538 53.7909C127.655 53.9959 127.825 54.1571 128.048 54.2743C128.276 54.3914 128.552 54.45 128.874 54.45C129.308 54.45 129.686 54.3622 130.008 54.1864C130.336 54.0047 130.594 53.785 130.781 53.5272C130.969 53.2635 131.068 53.0145 131.08 52.7801L131.766 53.7206C131.695 53.9608 131.575 54.2186 131.405 54.494C131.235 54.7694 131.013 55.0331 130.737 55.285C130.468 55.5311 130.143 55.7332 129.762 55.8914C129.387 56.0497 128.953 56.1288 128.461 56.1288C127.84 56.1288 127.286 56.0057 126.8 55.7596C126.313 55.5077 125.933 55.1707 125.657 54.7489C125.382 54.3211 125.244 53.8377 125.244 53.2987C125.244 52.7948 125.338 52.3495 125.525 51.9627C125.719 51.5702 126 51.242 126.369 50.9784C126.744 50.7147 127.201 50.5155 127.74 50.3807C128.279 50.2401 128.895 50.1698 129.586 50.1698H131.247ZM139.641 46.4432V47.9901H134.279V46.4432H139.641ZM135.826 44.1141H137.944V53.325C137.944 53.618 137.985 53.8436 138.067 54.0018C138.155 54.1541 138.275 54.2567 138.428 54.3094C138.58 54.3622 138.759 54.3885 138.964 54.3885C139.11 54.3885 139.251 54.3797 139.386 54.3622C139.521 54.3446 139.629 54.327 139.711 54.3094L139.72 55.9266C139.544 55.9793 139.339 56.0262 139.104 56.0672C138.876 56.1082 138.612 56.1288 138.313 56.1288C137.827 56.1288 137.396 56.0438 137.021 55.8739C136.646 55.6981 136.354 55.4139 136.143 55.0213C135.932 54.6288 135.826 54.1073 135.826 53.4569V44.1141ZM146.637 54.0457V49.5106C146.637 49.1707 146.575 48.8778 146.452 48.6317C146.329 48.3856 146.142 48.1952 145.89 48.0604C145.644 47.9256 145.333 47.8582 144.958 47.8582C144.612 47.8582 144.313 47.9168 144.062 48.034C143.81 48.1512 143.613 48.3094 143.473 48.5086C143.332 48.7079 143.262 48.9334 143.262 49.1854H141.152C141.152 48.8104 141.243 48.4471 141.425 48.0956C141.606 47.744 141.87 47.4305 142.216 47.1551C142.562 46.8797 142.975 46.6629 143.455 46.5047C143.936 46.3465 144.475 46.2674 145.072 46.2674C145.787 46.2674 146.42 46.3875 146.971 46.6278C147.527 46.868 147.964 47.2313 148.28 47.7176C148.603 48.1981 148.764 48.8016 148.764 49.5282V53.7557C148.764 54.1893 148.793 54.5789 148.852 54.9247C148.916 55.2645 149.007 55.5604 149.124 55.8123V55.953H146.953C146.854 55.7245 146.774 55.4344 146.716 55.0829C146.663 54.7254 146.637 54.3797 146.637 54.0457ZM146.944 50.1698L146.962 51.4793H145.441C145.049 51.4793 144.703 51.5174 144.404 51.5936C144.105 51.6639 143.856 51.7694 143.657 51.91C143.458 52.0506 143.309 52.2206 143.209 52.4198C143.109 52.619 143.06 52.8446 143.06 53.0965C143.06 53.3485 143.118 53.5799 143.235 53.7909C143.353 53.9959 143.522 54.1571 143.745 54.2743C143.974 54.3914 144.249 54.45 144.571 54.45C145.005 54.45 145.383 54.3622 145.705 54.1864C146.033 54.0047 146.291 53.785 146.479 53.5272C146.666 53.2635 146.766 53.0145 146.777 52.7801L147.463 53.7206C147.393 53.9608 147.272 54.2186 147.103 54.494C146.933 54.7694 146.71 55.0331 146.435 55.285C146.165 55.5311 145.84 55.7332 145.459 55.8914C145.084 56.0497 144.65 56.1288 144.158 56.1288C143.537 56.1288 142.983 56.0057 142.497 55.7596C142.011 55.5077 141.63 55.1707 141.354 54.7489C141.079 54.3211 140.941 53.8377 140.941 53.2987C140.941 52.7948 141.035 52.3495 141.223 51.9627C141.416 51.5702 141.697 51.242 142.066 50.9784C142.441 50.7147 142.898 50.5155 143.438 50.3807C143.977 50.2401 144.592 50.1698 145.283 50.1698H146.944ZM153.246 42.453V55.953H151.119V42.453H153.246ZM155.162 51.3036V51.1014C155.162 50.4159 155.262 49.7801 155.461 49.1942C155.66 48.6024 155.947 48.0897 156.322 47.6561C156.703 47.2166 157.166 46.8768 157.711 46.6366C158.262 46.3905 158.883 46.2674 159.574 46.2674C160.271 46.2674 160.893 46.3905 161.438 46.6366C161.988 46.8768 162.454 47.2166 162.835 47.6561C163.216 48.0897 163.506 48.6024 163.705 49.1942C163.904 49.7801 164.004 50.4159 164.004 51.1014V51.3036C164.004 51.9891 163.904 52.6248 163.705 53.2108C163.506 53.7967 163.216 54.3094 162.835 54.7489C162.454 55.1825 161.991 55.5223 161.446 55.7684C160.901 56.0086 160.283 56.1288 159.592 56.1288C158.895 56.1288 158.271 56.0086 157.72 55.7684C157.175 55.5223 156.712 55.1825 156.331 54.7489C155.95 54.3094 155.66 53.7967 155.461 53.2108C155.262 52.6248 155.162 51.9891 155.162 51.3036ZM157.28 51.1014V51.3036C157.28 51.7313 157.324 52.1356 157.412 52.5164C157.5 52.8973 157.638 53.2313 157.825 53.5184C158.013 53.8055 158.253 54.0311 158.546 54.1952C158.839 54.3592 159.188 54.4413 159.592 54.4413C159.984 54.4413 160.324 54.3592 160.611 54.1952C160.904 54.0311 161.145 53.8055 161.332 53.5184C161.52 53.2313 161.657 52.8973 161.745 52.5164C161.839 52.1356 161.886 51.7313 161.886 51.3036V51.1014C161.886 50.6795 161.839 50.2811 161.745 49.9061C161.657 49.5252 161.517 49.1883 161.323 48.8954C161.136 48.6024 160.896 48.3739 160.603 48.2098C160.315 48.0399 159.973 47.9549 159.574 47.9549C159.176 47.9549 158.83 48.0399 158.537 48.2098C158.25 48.3739 158.013 48.6024 157.825 48.8954C157.638 49.1883 157.5 49.5252 157.412 49.9061C157.324 50.2811 157.28 50.6795 157.28 51.1014ZM171.87 46.4432H173.795V55.6893C173.795 56.5448 173.613 57.2713 173.25 57.869C172.887 58.4666 172.38 58.9207 171.729 59.2313C171.079 59.5477 170.326 59.7059 169.471 59.7059C169.107 59.7059 168.703 59.6532 168.258 59.5477C167.818 59.4422 167.391 59.2723 166.975 59.0379C166.564 58.8094 166.222 58.5077 165.946 58.1327L166.939 56.8846C167.279 57.2889 167.654 57.5848 168.064 57.7723C168.475 57.9598 168.905 58.0536 169.356 58.0536C169.843 58.0536 170.256 57.9627 170.596 57.7811C170.941 57.6053 171.208 57.3446 171.396 56.9989C171.583 56.6532 171.677 56.2313 171.677 55.7332V48.5965L171.87 46.4432ZM165.41 51.3036V51.119C165.41 50.3983 165.498 49.742 165.674 49.1502C165.85 48.5526 166.102 48.0399 166.43 47.6122C166.758 47.1786 167.156 46.8475 167.625 46.619C168.094 46.3846 168.624 46.2674 169.216 46.2674C169.831 46.2674 170.355 46.3788 170.789 46.6014C171.229 46.8241 171.595 47.1434 171.888 47.5594C172.181 47.9696 172.409 48.4618 172.573 49.036C172.743 49.6043 172.869 50.2372 172.951 50.9344V51.5233C172.875 52.203 172.746 52.8241 172.564 53.3866C172.383 53.9491 172.143 54.4354 171.844 54.8456C171.545 55.2557 171.176 55.5721 170.736 55.7948C170.303 56.0174 169.79 56.1288 169.198 56.1288C168.618 56.1288 168.094 56.0086 167.625 55.7684C167.162 55.5282 166.764 55.1913 166.43 54.7577C166.102 54.3241 165.85 53.8143 165.674 53.2284C165.498 52.6366 165.41 51.995 165.41 51.3036ZM167.528 51.119V51.3036C167.528 51.7372 167.569 52.1414 167.651 52.5164C167.739 52.8914 167.871 53.2225 168.047 53.5096C168.229 53.7909 168.457 54.0135 168.732 54.1776C169.014 54.3358 169.345 54.4149 169.726 54.4149C170.224 54.4149 170.631 54.3094 170.947 54.0985C171.27 53.8875 171.516 53.6034 171.686 53.2459C171.861 52.8827 171.984 52.4784 172.055 52.0331V50.4422C172.02 50.0965 171.946 49.7743 171.835 49.4754C171.729 49.1766 171.586 48.9159 171.404 48.6932C171.223 48.4647 170.994 48.2889 170.719 48.1659C170.443 48.037 170.118 47.9725 169.743 47.9725C169.362 47.9725 169.031 48.0545 168.75 48.2186C168.469 48.3827 168.237 48.6082 168.056 48.8954C167.88 49.1825 167.748 49.5164 167.66 49.8973C167.572 50.2782 167.528 50.6854 167.528 51.119ZM181.714 53.7118V46.4432H183.841V55.953H181.837L181.714 53.7118ZM182.013 51.7342L182.725 51.7166C182.725 52.3553 182.654 52.9442 182.514 53.4832C182.373 54.0164 182.156 54.4823 181.863 54.8807C181.57 55.2733 181.195 55.5809 180.738 55.8036C180.281 56.0204 179.733 56.1288 179.095 56.1288C178.632 56.1288 178.207 56.0614 177.82 55.9266C177.434 55.7918 177.1 55.5838 176.818 55.3026C176.543 55.0213 176.329 54.6551 176.177 54.2039C176.024 53.7528 175.948 53.2137 175.948 52.5868V46.4432H178.066V52.6043C178.066 52.95 178.107 53.2401 178.189 53.4745C178.271 53.703 178.383 53.8875 178.523 54.0282C178.664 54.1688 178.828 54.2684 179.016 54.327C179.203 54.3856 179.402 54.4149 179.613 54.4149C180.217 54.4149 180.691 54.2977 181.037 54.0633C181.389 53.8231 181.638 53.5008 181.784 53.0965C181.937 52.6922 182.013 52.2381 182.013 51.7342ZM190.204 56.1288C189.501 56.1288 188.865 56.0145 188.297 55.786C187.734 55.5516 187.254 55.2264 186.855 54.8104C186.463 54.3944 186.161 53.9051 185.95 53.3426C185.739 52.7801 185.634 52.1737 185.634 51.5233V51.1717C185.634 50.4276 185.742 49.7538 185.959 49.1502C186.176 48.5467 186.478 48.0311 186.864 47.6034C187.251 47.1698 187.708 46.8387 188.235 46.6102C188.763 46.3817 189.334 46.2674 189.949 46.2674C190.629 46.2674 191.224 46.3817 191.733 46.6102C192.243 46.8387 192.665 47.161 192.999 47.577C193.339 47.9872 193.591 48.4764 193.755 49.0448C193.925 49.6131 194.01 50.2401 194.01 50.9256V51.8309H186.662V50.3104H191.918V50.1434C191.906 49.7625 191.83 49.4051 191.689 49.0711C191.555 48.7372 191.347 48.4676 191.065 48.2625C190.784 48.0575 190.409 47.9549 189.94 47.9549C189.589 47.9549 189.275 48.0311 189 48.1834C188.73 48.3299 188.505 48.5438 188.323 48.825C188.142 49.1063 188.001 49.4461 187.901 49.8446C187.808 50.2372 187.761 50.6795 187.761 51.1717V51.5233C187.761 51.9393 187.816 52.326 187.928 52.6834C188.045 53.035 188.215 53.3426 188.438 53.6063C188.66 53.87 188.93 54.078 189.246 54.2303C189.562 54.3768 189.923 54.45 190.327 54.45C190.837 54.45 191.291 54.3475 191.689 54.1424C192.088 53.9373 192.434 53.6473 192.727 53.2723L193.843 54.3534C193.638 54.6522 193.371 54.9393 193.043 55.2147C192.715 55.4842 192.313 55.7039 191.839 55.8739C191.37 56.0438 190.825 56.1288 190.204 56.1288Z" fill="#6B7280"/>
</svg>
