<svg width="146" height="136" viewBox="0 0 146 136" fill="none" xmlns="http://www.w3.org/2000/svg">
<rect width="136" height="136" transform="translate(5)" fill="white"/>
<path d="M100.928 75.3239L119.935 56.7588C121.745 54.9462 122.424 52.3434 121.632 49.8518C120.841 47.3626 118.804 45.6636 116.201 45.3253L89.9538 41.4755L78.303 17.5888C77.1696 15.3268 74.9076 13.855 72.3048 13.855C69.7045 13.855 67.44 15.3268 66.309 17.5888L54.5447 41.4755L28.2972 45.3253C25.808 45.6636 23.6571 47.4762 22.8669 49.8518C22.0742 52.3434 22.7533 54.9462 24.5634 56.7588L43.5706 75.3239L39.0441 101.586C38.5922 104.078 39.6096 106.681 41.7605 108.152C43.7953 109.624 46.5117 109.851 48.7737 108.604L72.1937 96.2671L95.6112 108.604C96.6287 109.172 97.6485 109.397 98.7795 109.397C100.138 109.397 101.493 108.945 102.738 108.152C104.775 106.681 105.793 104.191 105.454 101.586L100.928 75.3239ZM100.138 104.303C99.4586 104.757 98.6659 104.871 97.8732 104.416L74.3421 92.079C73.663 91.7382 72.9839 91.511 72.3048 91.511C71.6257 91.511 70.8355 91.7382 70.27 92.079L46.7364 104.53C45.9462 104.871 45.1535 104.871 44.4744 104.416C43.7953 103.964 43.457 103.172 43.5706 102.265L48.0946 76.003C48.3218 74.5312 47.8699 73.0594 46.85 72.042L27.8428 53.4744C27.2773 52.9089 27.0526 52.0027 27.2773 51.2124C27.5045 50.4198 28.1836 49.8518 28.9763 49.7407L55.2213 45.8908C56.6931 45.6636 57.9377 44.7598 58.6168 43.3992L70.3836 19.6285C70.7219 18.8358 71.5146 18.3814 72.3048 18.3814C73.0975 18.3814 73.8902 18.8358 74.2285 19.6285L85.9953 43.5128C86.6744 44.871 87.919 45.7772 89.3883 46.0044L115.636 49.8518C116.428 49.9654 117.108 50.5334 117.332 51.3236C117.559 52.1163 117.446 52.9089 116.767 53.588L97.7621 72.042C96.7422 73.0594 96.1767 74.5312 96.5175 76.003L101.042 102.265C101.155 103.058 100.817 103.851 100.138 104.303Z" fill="#E11F25"/>
<path d="M72.305 102.606C71.0604 102.606 70.043 103.623 70.043 104.87V113.699C70.043 114.946 71.0604 115.963 72.305 115.963C73.5496 115.963 74.5695 114.946 74.5695 113.699V104.87C74.5695 103.512 73.5496 102.606 72.305 102.606Z" fill="#E11F25"/>
<path d="M66.1953 102.606C64.9507 102.265 63.7085 103.058 63.4814 104.302L59.0685 121.964C58.7302 123.208 59.5204 124.453 60.765 124.68C60.9922 124.68 61.1058 124.794 61.3305 124.794C62.3504 124.794 63.2542 124.115 63.4814 123.095L67.8942 105.322C68.1189 104.191 67.4398 102.944 66.1953 102.606Z" fill="#E11F25"/>
<path d="M83.8443 124.794C85.0889 124.453 85.768 123.208 85.5433 122.077L81.1304 104.302C80.7896 103.058 79.545 102.379 78.414 102.606C77.1694 102.944 76.3792 104.191 76.7175 105.322L81.1304 123.095C81.3551 124.115 82.2614 124.794 83.2788 124.794C83.506 124.794 83.6196 124.794 83.8443 124.794Z" fill="#E11F25"/>
<mask id="mask0_11012_2055" style="mask-type:luminance" maskUnits="userSpaceOnUse" x="55" y="126" width="7" height="10">
<path d="M55.2458 126.833H61.5676V136H55.2458V126.833Z" fill="white"/>
</mask>
<g mask="url(#mask0_11012_2055)">
<path d="M59.6342 127.058C58.3896 126.717 57.145 127.51 56.9203 128.755L55.7893 133.17C55.4485 134.415 56.2412 135.662 57.4858 135.886C57.7105 135.886 57.8241 136 58.0513 136C59.0687 136 59.975 135.321 60.1997 134.303L61.3307 129.888C61.5579 128.53 60.7652 127.283 59.6342 127.058Z" fill="#EED124"/>
</g>
<mask id="mask1_11012_2055" style="mask-type:luminance" maskUnits="userSpaceOnUse" x="83" y="126" width="7" height="10">
<path d="M83.062 126.833H89.3837V136H83.062V126.833Z" fill="white"/>
</mask>
<g mask="url(#mask1_11012_2055)">
<path d="M87.6918 128.643C87.3535 127.396 86.1089 126.717 84.9779 126.945C83.7333 127.283 83.0542 128.53 83.2789 129.661L84.4099 134.076C84.6371 135.096 85.5434 135.775 86.5608 135.775C86.788 135.775 86.8991 135.775 87.1263 135.662C88.3709 135.321 89.05 134.076 88.8228 132.945L87.6918 128.643Z" fill="#EED124"/>
</g>
<path d="M74.4554 120.378C74.4554 120.68 74.4011 120.968 74.2924 121.245C74.1813 121.522 74.0282 121.766 73.8257 121.978C73.6232 122.191 73.3911 122.356 73.1268 122.47C72.8651 122.586 72.591 122.643 72.3045 122.643C72.0205 122.643 71.7464 122.586 71.4822 122.47C71.2204 122.356 70.9859 122.191 70.7858 121.978C70.5833 121.766 70.4278 121.522 70.3191 121.245C70.2105 120.968 70.1561 120.68 70.1561 120.378C70.1561 120.077 70.2105 119.791 70.3191 119.511C70.4278 119.235 70.5833 118.99 70.7858 118.778C70.9859 118.566 71.2204 118.403 71.4822 118.287C71.7464 118.171 72.0205 118.114 72.3045 118.114C72.591 118.114 72.8651 118.171 73.1268 118.287C73.3911 118.403 73.6232 118.566 73.8257 118.778C74.0282 118.99 74.1813 119.235 74.2924 119.511C74.4011 119.791 74.4554 120.077 74.4554 120.378Z" fill="#EED124"/>
<path d="M111.788 77.1341C110.546 76.7958 109.302 77.3613 108.961 78.6059C108.622 79.8529 109.188 81.0975 110.433 81.4358L118.804 84.1547C119.031 84.2658 119.256 84.2658 119.483 84.2658C120.387 84.2658 121.293 83.7003 121.631 82.6829C121.972 81.5494 121.407 80.1912 120.162 79.8529L111.788 77.1341Z" fill="#E11F25"/>
<path d="M125.706 93.4369L110.319 83.6999C109.302 83.0208 107.83 83.3616 107.151 84.379C106.472 85.3989 106.813 86.8707 107.83 87.5498L123.217 97.2842C123.555 97.5114 124.007 97.625 124.462 97.625C125.252 97.625 125.931 97.2842 126.383 96.6051C127.062 95.4741 126.724 94.0024 125.706 93.4369Z" fill="#E11F25"/>
<path d="M131.248 76.4547C132.381 76.4547 133.399 75.5509 133.512 74.3038C133.626 73.0592 132.606 71.9282 131.361 71.9282L113.26 70.6812C112.016 70.57 110.885 71.5874 110.885 72.832C110.771 74.0791 111.789 75.2101 113.033 75.2101L131.137 76.4547H131.248Z" fill="#E11F25"/>
<path d="M135.095 100.001L131.248 97.6251C130.23 96.946 128.761 97.2843 128.082 98.3042C127.403 99.3216 127.741 100.793 128.761 101.472L132.606 103.851C132.947 104.078 133.399 104.191 133.85 104.191C134.643 104.191 135.322 103.851 135.774 103.171C136.567 102.04 136.226 100.682 135.095 100.001Z" fill="#EED124"/>
<mask id="mask2_11012_2055" style="mask-type:luminance" maskUnits="userSpaceOnUse" x="135" y="71" width="11" height="6">
<path d="M135.532 71.8345H145.289V76.8919H135.532V71.8345Z" fill="white"/>
</mask>
<g mask="url(#mask2_11012_2055)">
<path d="M142.901 72.2667L138.377 71.9284C137.132 71.8148 136.001 72.8322 136.001 74.0792C135.888 75.3238 136.905 76.4548 138.15 76.4548L142.676 76.7956H142.79C143.921 76.7956 144.938 75.8893 145.052 74.6447C145.165 73.4001 144.145 72.2667 142.901 72.2667Z" fill="#E11F25"/>
</g>
<path d="M126.449 81.8701C126.721 81.959 126.963 82.0973 127.178 82.2875C127.395 82.4776 127.565 82.7048 127.691 82.969C127.817 83.2333 127.891 83.5148 127.909 83.8136C127.928 84.1099 127.891 84.4013 127.798 84.6877C127.706 84.9717 127.565 85.231 127.375 85.4607C127.188 85.6903 126.963 85.8755 126.706 86.0163C126.449 86.157 126.178 86.241 125.891 86.2682C125.607 86.2978 125.328 86.2682 125.057 86.1793C124.785 86.0904 124.543 85.9521 124.326 85.7619C124.111 85.5718 123.94 85.3446 123.814 85.0804C123.688 84.8162 123.614 84.5346 123.597 84.2383C123.577 83.9395 123.614 83.6481 123.708 83.3641C123.8 83.0777 123.94 82.8184 124.13 82.5887C124.318 82.3591 124.543 82.1739 124.8 82.0331C125.057 81.8948 125.328 81.8109 125.615 81.7812C125.899 81.7541 126.178 81.7837 126.449 81.8701Z" fill="#EED124"/>
<path d="M102.966 25.0612C101.948 24.3821 100.59 24.6093 99.7973 25.5131L94.5942 32.6448C93.9151 33.6647 94.1398 35.0228 95.0461 35.8155C95.498 36.1563 95.9524 36.2674 96.4043 36.2674C97.0834 36.2674 97.7625 35.9291 98.2144 35.3636L103.417 28.2319C104.21 27.212 103.983 25.8539 102.966 25.0612Z" fill="#E11F25"/>
<path d="M101.834 40.2308C102.399 40.2308 102.851 40.0036 103.303 39.6653L117.221 27.8911C118.125 27.0984 118.352 25.6266 117.446 24.7228C116.653 23.8165 115.184 23.5894 114.277 24.4956L100.362 36.2674C99.4584 37.0601 99.2312 38.5318 100.138 39.4381C100.589 40.0036 101.155 40.2308 101.834 40.2308Z" fill="#E11F25"/>
<path d="M95.8385 12.3832L89.05 29.3629C88.5981 30.4939 89.1636 31.8546 90.2946 32.3065C90.5193 32.4201 90.8601 32.4201 91.0873 32.4201C91.9911 32.4201 92.7838 31.8546 93.2357 30.9483L100.024 13.9685C100.476 12.8351 99.9105 11.4769 98.7795 11.025C97.6485 10.6842 96.2904 11.2497 95.8385 12.3832Z" fill="#E11F25"/>
<path d="M123.442 17.4774L119.935 20.421C119.032 21.2112 118.804 22.683 119.708 23.5892C120.163 24.1547 120.842 24.3819 121.407 24.3819C121.973 24.3819 122.425 24.1547 122.876 23.8164L126.383 20.8729C127.289 20.0802 127.516 18.6084 126.61 17.7021C125.818 16.7983 124.462 16.6847 123.442 17.4774Z" fill="#EED124"/>
<path d="M102.513 0.156919C101.382 -0.297456 100.024 0.270512 99.5722 1.40151L97.9868 5.70325C97.5349 6.83425 98.1004 8.1949 99.2314 8.6468C99.4586 8.7604 99.7969 8.7604 100.024 8.7604C100.928 8.7604 101.721 8.1949 102.173 7.28862L103.869 3.10047C104.323 1.96701 103.758 0.722417 102.513 0.156919Z" fill="#EED124"/>
<path d="M106.813 19.7395C105.793 19.0604 104.437 19.2876 103.758 20.1939C103.079 21.2113 103.304 22.5719 104.21 23.251C105.228 23.9301 106.586 23.7029 107.265 22.7966C108.058 21.8904 107.83 20.4211 106.813 19.7395Z" fill="#E11F25"/>
<path d="M48.2083 36.7216C48.6602 36.7216 49.1146 36.608 49.5665 36.2672C50.5839 35.5882 50.8111 34.1164 50.0184 33.099L44.8153 25.9673C44.1362 24.9474 42.6645 24.7227 41.6471 25.5129C40.6272 26.192 40.4025 27.6638 41.1952 28.6836L46.3982 35.8153C46.8501 36.3808 47.5292 36.7216 48.2083 36.7216Z" fill="#E11F25"/>
<path d="M53.5248 32.7582C53.7519 32.7582 54.0903 32.7582 54.3174 32.6446C55.4484 32.1927 56.0139 30.8345 55.562 29.7035L48.7736 12.7213C48.3217 11.5903 46.9635 11.0248 45.8325 11.4767C44.7015 11.9286 44.136 13.2868 44.5879 14.4203L51.3764 31.4C51.8283 32.1927 52.6209 32.7582 53.5248 32.7582Z" fill="#E11F25"/>
<path d="M27.1663 25.0611C26.3736 25.9673 26.4872 27.4391 27.391 28.2318L41.3062 40.0035C41.7606 40.3443 42.2125 40.569 42.778 40.569C43.4571 40.569 44.0226 40.3443 44.4745 39.7788C45.2672 38.8725 45.1536 37.4008 44.2473 36.6081L30.3321 24.8339C29.4283 24.0412 27.9565 24.1548 27.1663 25.0611Z" fill="#E11F25"/>
<path d="M44.5879 9.09877C44.8151 9.09877 45.1534 9.09877 45.3806 8.98518C46.5116 8.53327 47.0771 7.17509 46.6252 6.04409L44.9262 1.85348C44.5879 0.608885 43.2297 0.0433867 42.0987 0.495292C40.9677 0.949666 40.4022 2.30785 40.8541 3.43885L42.5506 7.62699C42.8914 8.53327 43.6816 9.09877 44.5879 9.09877Z" fill="#EED124"/>
<path d="M24.9018 23.9301C25.6945 23.0238 25.5809 21.552 24.6771 20.7594L21.168 17.8158C20.2642 17.0231 18.7925 17.1367 18.0022 18.043C17.2096 18.9493 17.3232 20.421 18.227 21.2113L21.736 24.1548C22.1879 24.4956 22.6398 24.7228 23.2053 24.7228C23.8844 24.7228 24.4499 24.4956 24.9018 23.9301Z" fill="#EED124"/>
<path d="M37.7995 20.0803C36.7821 20.7594 36.5549 22.2312 37.3476 23.1374C38.1402 24.0412 39.496 24.382 40.4022 23.5893C41.3061 22.7967 41.6468 21.4385 40.8541 20.5322C40.1751 19.5148 38.8169 19.2876 37.7995 20.0803Z" fill="#EED124"/>
<path d="M25.129 79.285C23.8844 79.6258 23.3189 80.9839 23.6572 82.1149C23.998 83.0212 24.9018 83.7003 25.8081 83.7003C26.0328 83.7003 26.26 83.7003 26.4872 83.5867L34.8585 80.8704C36.1031 80.532 36.6686 79.1739 36.3303 78.0404C35.9895 76.9094 34.6314 76.2303 33.5004 76.5686L25.129 79.285Z" fill="#E11F25"/>
<path d="M32.0311 70.1156L13.8166 71.3602C12.572 71.4738 11.6657 72.4936 11.6657 73.7382C11.7793 74.9828 12.7967 75.8891 13.9277 75.8891H14.0413L32.1422 74.6445C33.3868 74.5309 34.2931 73.511 34.2931 72.2665C34.2931 71.0219 33.2757 70.002 32.0311 70.1156Z" fill="#E11F25"/>
<path d="M35.0855 83.1346L19.6985 92.8691C18.6811 93.5482 18.3403 94.9088 19.0194 96.0398C19.4713 96.7189 20.1504 97.0597 20.9431 97.0597C21.395 97.0597 21.7358 96.9461 22.1877 96.7189L37.5722 86.9844C38.592 86.3054 38.9304 84.9447 38.2513 83.8137C37.4611 82.7938 36.1029 82.4555 35.0855 83.1346Z" fill="#E11F25"/>
<mask id="mask3_11012_2055" style="mask-type:luminance" maskUnits="userSpaceOnUse" x="0" y="71" width="10" height="6">
<path d="M0 71.2024H9.72954V76.2598H0V71.2024Z" fill="white"/>
</mask>
<g mask="url(#mask3_11012_2055)">
<path d="M6.80095 71.3603L2.2745 71.7011C1.03238 71.8147 0.126099 72.8321 0.126099 74.0791C0.239692 75.3237 1.25709 76.23 2.38809 76.23H2.50169L7.02814 75.8892C8.38386 75.7756 9.29013 74.7582 9.29013 73.4001C9.17654 72.153 8.15914 71.2492 6.80095 71.3603Z" fill="#EED124"/>
</g>
<path d="M13.928 96.9461L10.0831 99.3217C9.06324 100.001 8.72493 101.361 9.40402 102.492C9.85592 103.172 10.535 103.512 11.3277 103.512C11.7796 103.512 12.1179 103.399 12.5723 103.172L16.4172 100.793C17.4371 100.114 17.7754 98.7562 17.0963 97.6252C16.4172 96.6054 15.059 96.267 13.928 96.9461Z" fill="#EED124"/>
<path d="M21.5137 82.8233C21.6051 83.1098 21.6421 83.4012 21.6249 83.7C21.6051 83.9963 21.5335 84.2778 21.4075 84.542C21.2791 84.8063 21.1087 85.0335 20.8939 85.2236C20.6791 85.4138 20.4346 85.552 20.1654 85.6409C19.8938 85.7274 19.6147 85.7595 19.3283 85.7298C19.0418 85.7027 18.7702 85.6187 18.5134 85.478C18.2566 85.3372 18.0343 85.152 17.8442 84.9223C17.6565 84.6927 17.5157 84.4334 17.4219 84.1494C17.3305 83.863 17.2935 83.5716 17.3108 83.2728C17.3305 82.9764 17.4021 82.6949 17.5305 82.4307C17.6565 82.1665 17.8269 81.9393 18.0417 81.7491C18.2566 81.559 18.501 81.4207 18.7727 81.3318C19.0418 81.2454 19.3209 81.2157 19.6073 81.2429C19.8938 81.2701 20.1654 81.3565 20.4222 81.4948C20.6791 81.6355 20.9013 81.8207 21.0915 82.0504C21.2791 82.2801 21.4199 82.5393 21.5137 82.8233Z" fill="#EED124"/>
<path d="M85.768 56.1934L66.988 74.9832L59.5204 67.5132C58.6166 66.6069 57.2584 66.6069 56.3546 67.5132C55.4484 68.4195 55.4484 69.7777 56.3546 70.6815L65.4051 79.7393C65.857 80.1913 66.4225 80.4184 66.988 80.4184C67.5535 80.4184 68.119 80.1913 68.5734 79.7393L88.9362 59.3617C89.8425 58.4554 89.8425 57.0972 88.9362 56.1934C88.0324 55.2871 86.6742 55.2871 85.768 56.1934Z" fill="#E11F25"/>
</svg>
