<svg width="82" height="57" viewBox="0 0 82 57" fill="none" xmlns="http://www.w3.org/2000/svg">
<mask id="mask0_9089_533" style="mask-type:luminance" maskUnits="userSpaceOnUse" x="0" y="10" width="82" height="47">
<path d="M0 10.272H81.8039V56.7499H0V10.272Z" fill="white"/>
</mask>
<g mask="url(#mask0_9089_533)">
<path d="M80.7623 52.289L73.0395 45.9195C72.913 45.8552 72.8487 45.7908 72.72 45.7265C72.72 45.6 72.7843 45.4734 72.7843 45.3447V12.8539C72.7843 11.5157 71.7635 10.497 70.4874 10.3062L67.9332 12.8539H70.1679V45.3447H11.5108V30.3111C11.0003 30.118 10.5543 29.865 10.0438 29.6098L8.95868 30.6928V45.3447C8.95868 45.4734 8.95868 45.6 9.02302 45.7265C8.89434 45.7908 8.83 45.8552 8.70347 45.9195L0.980741 52.289C0.150778 52.9903 -0.168769 54.0733 0.215116 55.092C0.596856 56.1128 1.5555 56.7498 2.64067 56.7498H79.231C80.3162 56.7498 81.2727 56.0485 81.6566 55.092C81.9118 54.1376 81.5922 52.9903 80.7623 52.289ZM2.57633 54.2642L10.2991 47.8947H71.4439L79.1667 54.2642H2.57633Z" fill="url(#paint0_linear_9089_533)"/>
</g>
<path d="M1.30275 34.1972C1.62015 34.1972 1.9397 34.0686 2.1949 33.8133L9.72676 26.2965C12.088 28.0808 14.8974 29.0995 17.8956 29.0995C21.4706 29.0995 24.8527 27.6991 27.3426 25.1491C32.5775 19.9249 32.5775 11.4515 27.3426 6.22727C24.7905 3.67948 21.4706 2.27905 17.8956 2.27905C14.3227 2.27905 10.9406 3.67948 8.45072 6.22727C3.40875 11.2607 3.21574 19.3523 7.87597 24.5765L0.408447 32.0312C-0.101969 32.5395 -0.101969 33.3051 0.408447 33.8133C0.663655 34.0686 0.983201 34.1972 1.30275 34.1972ZM10.2372 8.07592C12.3432 5.97421 15.1526 4.89118 17.8956 4.89118C20.705 4.89118 23.4501 5.97421 25.5561 8.07592C29.7681 12.2815 29.7681 19.1614 25.5561 23.367C23.4501 25.4687 20.6407 26.5517 17.8956 26.5517C15.0883 26.5517 12.3432 25.4687 10.2372 23.367C5.96083 19.1614 5.96083 12.2815 10.2372 8.07592Z" fill="url(#paint1_linear_9089_533)"/>
<mask id="mask1_9089_533" style="mask-type:luminance" maskUnits="userSpaceOnUse" x="14" y="0" width="62" height="44">
<path d="M14.8263 0.75H75.2184V43.2132H14.8263V0.75Z" fill="white"/>
</mask>
<g mask="url(#mask1_9089_533)">
<path d="M24.2805 31.9669C23.9609 31.9669 23.6414 32.0934 23.3862 32.3487L17.896 38.4651V31.6474C17.0038 31.6474 16.1738 31.5852 15.3439 31.4565V41.5233C15.3439 42.2246 15.9186 42.7972 16.6199 42.7972H66.4048C67.1061 42.7972 67.6809 42.2246 67.6809 41.5233C67.6809 40.822 67.1061 40.2494 66.4048 40.2494H65.7657V24.3214C65.7657 22.921 64.6184 21.7736 63.2137 21.7736H60.6594C59.2569 21.7736 58.1073 22.921 58.1073 24.3214V40.2494H55.5553V29.4191C55.5553 28.0165 54.4058 26.8692 53.001 26.8692H50.449C49.0442 26.8692 47.8947 28.0165 47.8947 29.4191V40.2494H45.3426V34.5147C45.3426 33.1143 44.1931 31.9669 42.7884 31.9669H40.2363C38.8316 31.9669 37.6821 33.1143 37.6821 34.5147V40.2494H19.6846L24.7909 34.5147H33.2149C33.5344 34.5147 33.854 34.3882 34.1092 34.133L47.1291 21.1366H55.5553C55.8727 21.1366 56.1922 21.008 56.4474 20.7549L72.1481 5.08211V6.48254C72.1481 7.18382 72.7228 7.75643 73.4263 7.75643C74.1276 7.75643 74.7023 7.18382 74.7023 6.48254V2.0239V1.95956V1.89522C74.7023 1.76869 74.638 1.70435 74.638 1.57782C74.5736 1.44914 74.5114 1.38695 74.4471 1.25827L74.3828 1.19608C74.3184 1.13174 74.2562 1.0674 74.1276 0.94087C74.0632 0.876532 73.9367 0.812194 73.808 0.812194H73.7437C73.6171 0.812194 73.5528 0.75 73.4263 0.75H68.32C67.6165 0.75 67.0439 1.32261 67.0439 2.0239C67.0439 2.72518 67.6165 3.29779 68.32 3.29779H70.3616L55.0427 18.5889H46.6187C46.2991 18.5889 45.9796 18.7154 45.7244 18.9706L32.7045 31.9669H24.2805ZM60.6594 24.3214H63.2137V40.2494H60.6594V24.3214ZM50.449 29.4191H53.001V40.2494H50.449V29.4191ZM40.2363 34.5147H42.7884V40.2494H40.2363V34.5147Z" fill="url(#paint2_linear_9089_533)"/>
</g>
<path d="M59.7013 10.3062H32.8937C33.2132 11.134 33.4041 11.9618 33.5971 12.8539H57.1492L59.7013 10.3062Z" fill="url(#paint3_linear_9089_533)"/>
<defs>
<linearGradient id="paint0_linear_9089_533" x1="81.7423" y1="33.528" x2="0.053833" y2="33.528" gradientUnits="userSpaceOnUse">
<stop stop-color="#ED1C24"/>
<stop offset="1" stop-color="#871015"/>
</linearGradient>
<linearGradient id="paint1_linear_9089_533" x1="31.2688" y1="18.2381" x2="0.0256348" y2="18.2381" gradientUnits="userSpaceOnUse">
<stop stop-color="#ED1C24"/>
<stop offset="1" stop-color="#871015"/>
</linearGradient>
<linearGradient id="paint2_linear_9089_533" x1="74.7023" y1="21.7736" x2="15.3439" y2="21.7736" gradientUnits="userSpaceOnUse">
<stop stop-color="#ED1C24"/>
<stop offset="1" stop-color="#871015"/>
</linearGradient>
<linearGradient id="paint3_linear_9089_533" x1="59.7013" y1="11.58" x2="32.8937" y2="11.58" gradientUnits="userSpaceOnUse">
<stop stop-color="#ED1C24"/>
<stop offset="1" stop-color="#871015"/>
</linearGradient>
</defs>
</svg>
