<svg width="361" height="110" viewBox="0 0 361 110" fill="none" xmlns="http://www.w3.org/2000/svg">
<rect x="40" y="16" width="312.5" height="80" rx="40" fill="#EED124"/>
<g filter="url(#filter0_d_11012_1994)">
<rect x="12" y="11" width="331" height="80" rx="40" fill="white" shape-rendering="crispEdges"/>
<path d="M51.2 54.9H52.67V57H50.99C50.1 57 49.395 56.725 48.875 56.175C48.475 56.435 47.985 56.565 47.405 56.565C46.465 56.565 45.715 56.215 45.155 55.515C44.685 54.935 44.45 54.25 44.45 53.46C44.45 52.46 44.785 51.645 45.455 51.015C45.995 50.495 46.625 50.235 47.345 50.235C47.615 50.235 47.885 50.275 48.155 50.355V50.055L50.33 48.915V54.03C50.33 54.35 50.395 54.575 50.525 54.705C50.655 54.835 50.88 54.9 51.2 54.9ZM48.155 52.47C47.965 52.35 47.75 52.29 47.51 52.29C47.23 52.29 47.005 52.4 46.835 52.62C46.675 52.84 46.595 53.135 46.595 53.505C46.595 54.315 46.91 54.72 47.54 54.72C47.82 54.72 48.03 54.64 48.17 54.48C48.16 54.4 48.155 54.28 48.155 54.12V52.47ZM54.1967 52.815C54.1967 51.895 54.4817 51.175 55.0517 50.655C55.5517 50.205 56.2017 49.98 57.0017 49.98C58.0117 49.98 58.7967 50.35 59.3567 51.09C59.8367 51.72 60.0767 52.52 60.0767 53.49C60.0767 54.6 59.7717 55.48 59.1617 56.13C58.6317 56.71 57.9467 57 57.1067 57C56.3167 57 55.6767 56.85 55.1867 56.55C54.7367 56.85 54.1867 57 53.5367 57H51.8567V54.9H53.3267C53.6467 54.9 53.8717 54.835 54.0017 54.705C54.1317 54.575 54.1967 54.35 54.1967 54.03V52.815ZM56.3717 54.315C56.3717 54.705 56.5817 54.9 57.0017 54.9C57.6217 54.9 57.9317 54.405 57.9317 53.415C57.9317 52.485 57.6217 52.02 57.0017 52.02C56.5817 52.02 56.3717 52.265 56.3717 52.755V54.315ZM71.4573 54.9H72.9273V57H71.2473C70.4973 57 69.8773 56.8 69.3873 56.4C68.8473 56.8 68.1873 57 67.4073 57H61.4973L62.5923 54.9H64.4823V50.43L66.6573 49.275V54.9H67.3023C67.7123 54.9 67.9973 54.815 68.1573 54.645C68.3273 54.465 68.4123 54.155 68.4123 53.715V48.48L70.6023 47.325V53.73C70.6023 53.89 70.5973 54.005 70.5873 54.075C70.5973 54.385 70.6623 54.6 70.7823 54.72C70.9123 54.84 71.1373 54.9 71.4573 54.9ZM73.3605 49.155C73.0205 49.155 72.7455 49.05 72.5355 48.84C72.3355 48.63 72.2355 48.355 72.2355 48.015C72.2355 47.685 72.3355 47.42 72.5355 47.22C72.7455 47.01 73.0205 46.905 73.3605 46.905C73.6905 46.905 73.9555 47.005 74.1555 47.205C74.3555 47.405 74.4555 47.675 74.4555 48.015C74.4555 48.365 74.3555 48.645 74.1555 48.855C73.9555 49.055 73.6905 49.155 73.3605 49.155ZM75.8655 49.155C75.5255 49.155 75.2505 49.05 75.0405 48.84C74.8405 48.63 74.7405 48.355 74.7405 48.015C74.7405 47.685 74.8405 47.42 75.0405 47.22C75.2505 47.01 75.5255 46.905 75.8655 46.905C76.1955 46.905 76.4605 47.005 76.6605 47.205C76.8605 47.405 76.9605 47.675 76.9605 48.015C76.9605 48.365 76.8605 48.645 76.6605 48.855C76.4605 49.055 76.1955 49.155 75.8655 49.155ZM77.5005 54.9H78.9555V57H77.2905C76.5905 57 76.0105 56.83 75.5505 56.49C75.0705 56.83 74.4855 57 73.7955 57H72.1155V54.9H73.5855C73.9055 54.9 74.1305 54.835 74.2605 54.705C74.3905 54.575 74.4555 54.35 74.4555 54.03V51.405L76.6305 50.25V54.03C76.6305 54.35 76.6905 54.575 76.8105 54.705C76.9405 54.835 77.1705 54.9 77.5005 54.9ZM78.1653 57V54.9H79.8453C80.1653 54.9 80.3853 54.84 80.5053 54.72C80.6353 54.59 80.7003 54.36 80.7003 54.03V52.11L82.8753 50.955V54.03C82.8753 54.35 82.9353 54.575 83.0553 54.705C83.1853 54.835 83.4153 54.9 83.7453 54.9H84.9003C85.2203 54.9 85.4453 54.835 85.5753 54.705C85.7053 54.575 85.7703 54.35 85.7703 54.03V51.75L87.9453 50.61V54.03C87.9453 54.36 88.0053 54.59 88.1253 54.72C88.2553 54.84 88.4803 54.9 88.8003 54.9H89.9853C90.3053 54.9 90.5253 54.84 90.6453 54.72C90.7753 54.59 90.8403 54.36 90.8403 54.03V51.405L93.0303 50.25V54.12C93.0303 55.03 92.7503 55.75 92.1903 56.28C91.7003 56.74 91.0703 56.98 90.3003 57H88.6053C87.9153 57 87.3303 56.815 86.8503 56.445C86.4103 56.785 85.8703 56.97 85.2303 57H83.5353C82.8453 57 82.2603 56.815 81.7803 56.445C81.3103 56.815 80.7303 57 80.0403 57H78.1653ZM101.591 48.48L103.781 47.325V53.73C103.781 54.74 103.471 55.55 102.851 56.16C102.271 56.72 101.516 57 100.586 57H94.676L95.771 54.9H97.661V50.43L99.836 49.275V54.9H100.481C100.891 54.9 101.176 54.815 101.336 54.645C101.506 54.465 101.591 54.155 101.591 53.715V48.48ZM113.139 55.995C113.139 56.855 112.964 57.6 112.614 58.23C112.264 58.87 111.769 59.335 111.129 59.625C110.709 59.825 110.254 59.925 109.764 59.925C109.104 59.925 108.459 59.75 107.829 59.4V57.51C108.349 57.8 108.854 57.945 109.344 57.945C109.594 57.945 109.824 57.905 110.034 57.825C110.644 57.615 110.949 57.055 110.949 56.145V51.42L113.139 50.25V55.995ZM119.063 56.55C118.843 56.58 118.603 56.595 118.343 56.595C117.403 56.595 116.653 56.245 116.093 55.545C115.623 54.975 115.388 54.285 115.388 53.475C115.388 52.365 115.693 51.485 116.303 50.835C116.853 50.265 117.573 49.98 118.463 49.98C119.373 49.98 120.088 50.27 120.608 50.85C121.048 51.36 121.268 52.015 121.268 52.815V55.995C121.268 57.305 120.908 58.305 120.188 58.995C119.628 59.525 118.918 59.805 118.058 59.835C118.018 59.835 117.978 59.835 117.938 59.835C117.258 59.835 116.603 59.65 115.973 59.28V57.375C116.563 57.715 117.133 57.885 117.683 57.885C117.773 57.885 117.853 57.88 117.923 57.87C118.583 57.8 118.963 57.36 119.063 56.55ZM119.093 54.555V52.755C119.093 52.265 118.883 52.02 118.463 52.02C117.843 52.02 117.533 52.48 117.533 53.4C117.533 54.3 117.848 54.75 118.478 54.75C118.758 54.75 118.963 54.685 119.093 54.555ZM128.613 54.9H130.083V57H128.403C128.173 57 127.933 56.975 127.683 56.925C127.453 58.235 126.808 59.135 125.748 59.625C125.328 59.825 124.873 59.925 124.383 59.925C123.723 59.925 123.078 59.75 122.448 59.4V57.51C122.968 57.8 123.473 57.945 123.963 57.945C124.213 57.945 124.443 57.905 124.653 57.825C125.263 57.615 125.568 57.055 125.568 56.145V51.405L127.743 50.25V50.265L127.758 50.25V54.285C127.808 54.695 128.093 54.9 128.613 54.9ZM138.694 54.9H140.164V57H138.499C137.819 57 137.254 56.84 136.804 56.52C136.284 57.04 135.589 57.3 134.719 57.3C133.859 57.3 133.169 57.045 132.649 56.535C132.179 56.845 131.614 57 130.954 57H129.274V54.9H130.744C131.064 54.9 131.289 54.835 131.419 54.705C131.549 54.575 131.614 54.35 131.614 54.03V53.61C131.614 52.42 131.924 51.5 132.544 50.85C133.094 50.27 133.819 49.98 134.719 49.98C135.749 49.98 136.544 50.355 137.104 51.105C137.584 51.745 137.829 52.58 137.839 53.61V54.03C137.839 54.36 137.899 54.59 138.019 54.72C138.149 54.84 138.374 54.9 138.694 54.9ZM134.719 55.2C135.349 55.2 135.664 54.655 135.664 53.565C135.664 52.535 135.349 52.02 134.719 52.02C134.099 52.02 133.789 52.535 133.789 53.565C133.789 54.655 134.099 55.2 134.719 55.2ZM139.366 57V54.9H140.341C140.761 54.9 141.051 54.815 141.211 54.645C141.381 54.465 141.466 54.155 141.466 53.715V48.48L143.641 47.325V53.73C143.641 54.75 143.331 55.56 142.711 56.16C142.141 56.72 141.386 57 140.446 57H139.366ZM146.336 57V48.48L148.511 47.325V57H146.336ZM154.439 56.55C154.219 56.58 153.979 56.595 153.719 56.595C152.779 56.595 152.029 56.245 151.469 55.545C150.999 54.975 150.764 54.285 150.764 53.475C150.764 52.365 151.069 51.485 151.679 50.835C152.229 50.265 152.949 49.98 153.839 49.98C154.749 49.98 155.464 50.27 155.984 50.85C156.424 51.36 156.644 52.015 156.644 52.815V55.995C156.644 57.305 156.284 58.305 155.564 58.995C155.004 59.525 154.294 59.805 153.434 59.835C153.394 59.835 153.354 59.835 153.314 59.835C152.634 59.835 151.979 59.65 151.349 59.28V57.375C151.939 57.715 152.509 57.885 153.059 57.885C153.149 57.885 153.229 57.88 153.299 57.87C153.959 57.8 154.339 57.36 154.439 56.55ZM154.469 54.555V52.755C154.469 52.265 154.259 52.02 153.839 52.02C153.219 52.02 152.909 52.48 152.909 53.4C152.909 54.3 153.224 54.75 153.854 54.75C154.134 54.75 154.339 54.685 154.469 54.555ZM167.974 49.155C167.634 49.155 167.359 49.05 167.149 48.84C166.949 48.63 166.849 48.355 166.849 48.015C166.849 47.685 166.949 47.42 167.149 47.22C167.359 47.02 167.634 46.92 167.974 46.92C168.304 46.92 168.569 47.02 168.769 47.22C168.969 47.42 169.069 47.685 169.069 48.015C169.069 48.365 168.969 48.645 168.769 48.855C168.569 49.055 168.304 49.155 167.974 49.155ZM170.464 49.155C170.134 49.155 169.864 49.05 169.654 48.84C169.454 48.63 169.354 48.355 169.354 48.015C169.354 47.685 169.454 47.42 169.654 47.22C169.864 47.02 170.134 46.92 170.464 46.92C170.794 46.92 171.059 47.02 171.259 47.22C171.469 47.42 171.574 47.685 171.574 48.015C171.574 48.365 171.474 48.645 171.274 48.855C171.074 49.055 170.804 49.155 170.464 49.155ZM172.144 57C171.914 57.95 171.359 58.675 170.479 59.175C169.679 59.625 168.654 59.85 167.404 59.85C165.694 59.85 164.414 59.365 163.564 58.395C162.924 57.675 162.604 56.79 162.604 55.74C162.604 54.98 162.779 54.305 163.129 53.715L165.199 53.28C164.829 53.94 164.644 54.64 164.644 55.38C164.644 56.14 164.879 56.725 165.349 57.135C165.829 57.545 166.514 57.75 167.404 57.75C168.664 57.75 169.459 57.47 169.789 56.91L169.564 56.865C168.514 56.735 167.699 56.32 167.119 55.62C166.629 55.03 166.384 54.32 166.384 53.49C166.384 52.37 166.689 51.49 167.299 50.85C167.849 50.27 168.569 49.98 169.459 49.98C170.369 49.98 171.079 50.27 171.589 50.85C172.039 51.36 172.264 52.015 172.264 52.815V54.9H174.034V57H172.144ZM170.089 54.84V52.755C170.089 52.265 169.879 52.02 169.459 52.02C168.839 52.02 168.529 52.485 168.529 53.415C168.529 54.215 168.919 54.67 169.699 54.78L170.089 54.84ZM178.604 54.9H180.059V57H178.394C177.694 57 177.114 56.83 176.654 56.49C176.174 56.83 175.589 57 174.899 57H173.219V54.9H174.689C175.009 54.9 175.234 54.835 175.364 54.705C175.494 54.575 175.559 54.35 175.559 54.03V51.405L177.734 50.25V54.03C177.734 54.35 177.794 54.575 177.914 54.705C178.044 54.835 178.274 54.9 178.604 54.9ZM176.834 58.29C177.164 58.29 177.429 58.39 177.629 58.59C177.829 58.79 177.929 59.06 177.929 59.4C177.929 59.74 177.829 60.01 177.629 60.21C177.429 60.42 177.164 60.525 176.834 60.525C176.494 60.525 176.219 60.42 176.009 60.21C175.809 60.01 175.709 59.74 175.709 59.4C175.709 59.06 175.809 58.79 176.009 58.59C176.219 58.39 176.494 58.29 176.834 58.29ZM179.269 57V54.9H180.949C181.269 54.9 181.489 54.84 181.609 54.72C181.739 54.59 181.804 54.36 181.804 54.03V52.11L183.979 50.955V54.03C183.979 54.35 184.039 54.575 184.159 54.705C184.289 54.835 184.519 54.9 184.849 54.9H186.004C186.324 54.9 186.549 54.835 186.679 54.705C186.809 54.575 186.874 54.35 186.874 54.03V51.75L189.049 50.61V54.03C189.049 54.36 189.109 54.59 189.229 54.72C189.359 54.84 189.584 54.9 189.904 54.9H191.089C191.409 54.9 191.629 54.84 191.749 54.72C191.879 54.59 191.944 54.36 191.944 54.03V51.405L194.134 50.25V53.715C194.134 54.155 194.214 54.465 194.374 54.645C194.534 54.815 194.824 54.9 195.244 54.9H196.654V57H195.139C194.349 57 193.689 56.79 193.159 56.37C192.709 56.76 192.124 56.97 191.404 57H189.709C189.019 57 188.434 56.815 187.954 56.445C187.514 56.785 186.974 56.97 186.334 57H184.639C183.949 57 183.364 56.815 182.884 56.445C182.414 56.815 181.834 57 181.144 57H179.269ZM205.286 54.9H206.756V57H205.091C204.411 57 203.846 56.84 203.396 56.52C202.876 57.04 202.181 57.3 201.311 57.3C200.451 57.3 199.761 57.045 199.241 56.535C198.771 56.845 198.206 57 197.546 57H195.866V54.9H197.336C197.656 54.9 197.881 54.835 198.011 54.705C198.141 54.575 198.206 54.35 198.206 54.03V53.61C198.206 52.42 198.516 51.5 199.136 50.85C199.686 50.27 200.411 49.98 201.311 49.98C202.341 49.98 203.136 50.355 203.696 51.105C204.176 51.745 204.421 52.58 204.431 53.61V54.03C204.431 54.36 204.491 54.59 204.611 54.72C204.741 54.84 204.966 54.9 205.286 54.9ZM201.311 55.2C201.941 55.2 202.256 54.655 202.256 53.565C202.256 52.535 201.941 52.02 201.311 52.02C200.691 52.02 200.381 52.535 200.381 53.565C200.381 54.655 200.691 55.2 201.311 55.2ZM205.958 57V54.9H206.933C207.353 54.9 207.643 54.815 207.803 54.645C207.973 54.465 208.058 54.155 208.058 53.715V48.48L210.233 47.325V53.73C210.233 54.75 209.923 55.56 209.303 56.16C208.733 56.72 207.978 57 207.038 57H205.958ZM212.928 57V48.48L215.103 47.325V57H212.928ZM233.287 54.9H234.502V57H233.077C232.377 57 231.797 56.83 231.337 56.49C230.857 56.83 230.272 57 229.582 57H224.227C223.357 57 222.672 56.705 222.172 56.115C221.732 55.605 221.512 54.945 221.512 54.135V52.755L223.687 51.6V54.015C223.687 54.345 223.747 54.575 223.867 54.705C223.997 54.835 224.222 54.9 224.542 54.9H229.387C229.707 54.9 229.927 54.835 230.047 54.705C230.177 54.575 230.242 54.345 230.242 54.015V51.405L232.417 50.25V54.03C232.417 54.35 232.482 54.575 232.612 54.705C232.742 54.835 232.967 54.9 233.287 54.9ZM226.762 58.29C227.092 58.29 227.357 58.39 227.557 58.59C227.757 58.79 227.857 59.06 227.857 59.4C227.857 59.74 227.757 60.01 227.557 60.21C227.357 60.42 227.092 60.525 226.762 60.525C226.422 60.525 226.147 60.42 225.937 60.21C225.737 60.01 225.637 59.74 225.637 59.4C225.637 59.06 225.737 58.79 225.937 58.59C226.147 58.39 226.422 58.29 226.762 58.29ZM238.789 54.9H240.244V57H238.579C237.809 57 237.189 56.8 236.719 56.4C236.169 56.8 235.504 57 234.724 57H233.644V54.9H234.619C235.039 54.9 235.329 54.815 235.489 54.645C235.659 54.465 235.744 54.155 235.744 53.715V48.48L237.919 47.325V54.03C237.919 54.35 237.979 54.575 238.099 54.705C238.229 54.835 238.459 54.9 238.789 54.9ZM253.26 54.9V57H251.835C251.175 57 250.6 56.835 250.11 56.505C249.66 56.835 249.095 57 248.415 57H239.445V54.9H241.785V48.48L243.96 47.325V51.39C244.97 50.45 246.105 49.98 247.365 49.98C248.565 49.98 249.53 50.4 250.26 51.24C250.87 51.95 251.175 52.815 251.175 53.835V54.12C251.175 54.64 251.465 54.9 252.045 54.9H253.26ZM248.34 54.9C248.62 54.9 248.8 54.85 248.88 54.75C248.96 54.65 249 54.415 249 54.045V53.835C249 53.295 248.85 52.86 248.55 52.53C248.25 52.19 247.86 52.02 247.38 52.02C246.7 52.02 246.055 52.28 245.445 52.8C244.835 53.31 244.34 54.01 243.96 54.9H248.34ZM252.452 57V54.9H253.427C253.847 54.9 254.137 54.815 254.297 54.645C254.467 54.465 254.552 54.155 254.552 53.715V48.48L256.727 47.325V53.73C256.727 54.75 256.417 55.56 255.797 56.16C255.227 56.72 254.472 57 253.532 57H252.452ZM259.422 57V48.48L261.597 47.325V57H259.422Z" fill="#222222"/>
<rect width="48" height="48" transform="translate(271 27)" fill="white"/>
<path d="M313.81 54.9842C313.679 52.0678 312.48 49.345 310.402 47.2708C308.862 45.7343 306.966 44.6819 304.9 44.1927C304.902 44.1575 304.904 44.1231 304.904 44.088C304.904 42.5934 303.689 41.3779 302.197 41.3779C300.705 41.3779 299.49 42.5942 299.49 44.088C299.49 44.1231 299.492 44.1575 299.494 44.1927C297.429 44.6826 295.533 45.7343 293.992 47.2708C291.914 49.345 290.715 52.0678 290.584 54.9842C289.659 55.1279 288.949 55.9312 288.949 56.8969C288.949 57.9643 289.816 58.8328 290.882 58.8328H313.513C314.579 58.8328 315.446 57.9643 315.446 56.8969C315.446 55.9305 314.735 55.1279 313.81 54.9842ZM302.196 42.4034C303.094 42.4034 303.827 43.1103 303.875 43.9967C303.323 43.9174 302.763 43.877 302.196 43.877C301.63 43.877 301.07 43.9182 300.518 43.9967C300.566 43.1103 301.299 42.4034 302.196 42.4034ZM302.196 44.9018C307.847 44.9018 312.492 49.3689 312.783 54.9611H291.609C291.9 49.3689 296.546 44.9018 302.196 44.9018ZM313.512 57.8072H290.88C290.38 57.8072 289.971 57.3988 289.971 56.8969C289.971 56.3957 290.38 55.9866 290.88 55.9866H313.511C314.012 55.9866 314.42 56.3957 314.42 56.8969C314.421 57.3988 314.013 57.8072 313.512 57.8072ZM301.61 35.1919C300.683 33.7841 299.529 32.033 301.95 29.9356C302.164 29.7501 302.486 29.7733 302.672 29.9872C302.857 30.2011 302.834 30.525 302.619 30.7105C300.88 32.2193 301.51 33.1775 302.465 34.6271C303.361 35.9885 304.478 37.6835 302.678 39.8385C302.576 39.9597 302.431 40.0218 302.285 40.0218C302.169 40.0218 302.053 39.9829 301.957 39.9021C301.74 39.7203 301.711 39.3972 301.892 39.1803C303.203 37.6117 302.499 36.5443 301.61 35.1919ZM295.372 41.1932C293.817 39.5737 294.76 38.1488 295.449 37.1083C296.199 35.9758 296.546 35.3422 295.613 34.4319C295.409 34.2344 295.406 33.9098 295.602 33.7071C295.8 33.5036 296.124 33.4999 296.326 33.6973C297.913 35.2427 296.982 36.6482 296.302 37.6753C295.549 38.8115 295.17 39.5027 296.11 40.4818C296.307 40.686 296.299 41.0107 296.096 41.2066C295.997 41.3024 295.869 41.3495 295.741 41.3495C295.607 41.3502 295.473 41.2979 295.372 41.1932ZM307.739 61.1942L303.793 62.7434C303.502 61.9213 302.719 61.3296 301.799 61.3296H297.756C293.69 59.859 291.832 60.4709 289.837 61.9146C289.825 61.4403 289.438 61.0581 288.962 61.0581H286.58C286.098 61.0581 285.705 61.4508 285.705 61.934V70.1315C285.705 70.6147 286.098 71.0081 286.58 71.0081H288.962C289.445 71.0081 289.837 70.6147 289.837 70.1315V69.1067C291.731 67.3743 292.74 67.1349 296.699 68.6975C296.709 68.7013 296.718 68.7043 296.727 68.708C298.789 69.3865 300.311 69.3618 301.661 68.6295C303.384 67.6945 305.132 66.7385 306.822 65.8147C307.685 65.3427 308.547 64.8707 309.411 64.4002C310.287 63.9222 310.61 62.8204 310.134 61.9437C309.687 61.1239 308.702 60.815 307.739 61.1942ZM288.813 69.9834H286.729V62.0836H288.813V69.9834ZM308.921 63.4996C308.057 63.9709 307.194 64.4429 306.331 64.9148C304.641 65.8386 302.894 66.7931 301.173 67.7274C300.094 68.3131 298.825 68.3161 297.061 67.7386C293.378 66.2867 291.82 66.2149 289.837 67.764V63.1989C291.881 61.5959 293.346 60.8075 297.49 62.3252C297.546 62.3462 297.605 62.3574 297.665 62.3574H301.797C302.399 62.3574 302.889 62.8466 302.889 63.4495C302.889 64.0524 302.399 64.5416 301.797 64.5416H296.648C296.365 64.5416 296.136 64.772 296.136 65.0547C296.136 65.3375 296.365 65.5679 296.648 65.5679H301.797C302.841 65.5679 303.709 64.8079 303.881 63.8123L308.111 62.1502C308.495 61.9998 309.009 62.0253 309.233 62.4367C309.441 62.8152 309.301 63.2932 308.921 63.4996ZM277.919 46.329C277.919 46.0463 278.148 45.8166 278.431 45.8166H289.422C289.705 45.8166 289.935 46.0463 289.935 46.329C289.935 46.6118 289.705 46.8421 289.422 46.8421H278.431C278.148 46.8421 277.919 46.6118 277.919 46.329ZM287.674 49.9726H281.991C281.709 49.9726 281.479 49.7429 281.479 49.4602C281.479 49.1774 281.709 48.9471 281.991 48.9471H287.674C287.957 48.9471 288.187 49.1774 288.187 49.4602C288.187 49.7429 287.957 49.9726 287.674 49.9726ZM286.649 52.0782C286.931 52.0782 287.16 52.3079 287.16 52.5906C287.16 52.8741 286.931 53.1037 286.649 53.1037H280.3C280.017 53.1037 279.789 52.8741 279.789 52.5906C279.789 52.3079 280.017 52.0782 280.3 52.0782H286.649ZM285.471 55.7225C285.471 56.0053 285.242 56.2357 284.959 56.2357H274.815C274.533 56.2357 274.303 56.0053 274.303 55.7225C274.303 55.4398 274.533 55.2101 274.815 55.2101H284.959C285.242 55.2101 285.471 55.439 285.471 55.7225ZM308.09 37.6753C307.41 36.6482 306.479 35.2427 308.066 33.6973C308.269 33.4999 308.593 33.5036 308.79 33.7071C308.987 33.9105 308.983 34.2344 308.78 34.4319C307.845 35.3422 308.194 35.9758 308.944 37.1083C309.633 38.1488 310.576 39.5737 309.021 41.1932C308.92 41.2979 308.786 41.3502 308.651 41.3502C308.523 41.3502 308.396 41.3024 308.296 41.2074C308.092 41.0107 308.086 40.6868 308.281 40.4826C309.223 39.5027 308.843 38.8115 308.09 37.6753Z" fill="#E11F25" stroke="#E11F25" stroke-width="0.428571"/>
</g>
<defs>
<filter id="filter0_d_11012_1994" x="0" y="0" width="361" height="110" filterUnits="userSpaceOnUse" color-interpolation-filters="sRGB">
<feFlood flood-opacity="0" result="BackgroundImageFix"/>
<feColorMatrix in="SourceAlpha" type="matrix" values="0 0 0 0 0 0 0 0 0 0 0 0 0 0 0 0 0 0 127 0" result="hardAlpha"/>
<feOffset dx="3" dy="4"/>
<feGaussianBlur stdDeviation="7.5"/>
<feComposite in2="hardAlpha" operator="out"/>
<feColorMatrix type="matrix" values="0 0 0 0 0 0 0 0 0 0 0 0 0 0 0 0 0 0 0.1 0"/>
<feBlend mode="normal" in2="BackgroundImageFix" result="effect1_dropShadow_11012_1994"/>
<feBlend mode="normal" in="SourceGraphic" in2="effect1_dropShadow_11012_1994" result="shape"/>
</filter>
</defs>
</svg>
