<svg width="72" height="73" viewBox="0 0 72 73" fill="none" xmlns="http://www.w3.org/2000/svg">
<rect y="0.5271" width="72" height="72" rx="10.6667" fill="white"/>
<path d="M33.25 37.8113L29.6887 34.25L27.75 36.1887L33.25 41.6887L44.25 30.6887L42.3113 28.75L33.25 37.8113Z" fill="url(#paint0_linear_9149_2135)"/>
<path d="M36 56.25L27.508 51.7221C25.0869 50.4344 23.0622 48.5116 21.6514 46.1601C20.2405 43.8086 19.4968 41.1173 19.5 38.375V20.5C19.5 19.7707 19.7897 19.0712 20.3055 18.5555C20.8212 18.0397 21.5207 17.75 22.25 17.75H49.75C50.4794 17.75 51.1788 18.0397 51.6945 18.5555C52.2103 19.0712 52.5 19.7707 52.5 20.5V38.375C52.5032 41.1173 51.7595 43.8086 50.3486 46.1601C48.9378 48.5116 46.9131 50.4344 44.492 51.7221L36 56.25ZM22.25 20.5V38.375C22.2485 40.6186 22.8576 42.8203 24.012 44.744C25.1665 46.6678 26.8228 48.2411 28.8033 49.2952L36 53.1329L43.1968 49.2966C45.1775 48.2424 46.8339 46.6688 47.9883 44.7448C49.1428 42.8208 49.7518 40.6188 49.75 38.375V20.5H22.25Z" fill="url(#paint1_linear_9149_2135)"/>
<defs>
<linearGradient id="paint0_linear_9149_2135" x1="44.25" y1="35.2194" x2="27.75" y2="35.2194" gradientUnits="userSpaceOnUse">
<stop stop-color="#ED1C24"/>
<stop offset="1" stop-color="#871015"/>
</linearGradient>
<linearGradient id="paint1_linear_9149_2135" x1="52.5" y1="37" x2="19.5" y2="37" gradientUnits="userSpaceOnUse">
<stop stop-color="#ED1C24"/>
<stop offset="1" stop-color="#871015"/>
</linearGradient>
</defs>
</svg>
