<svg width="137" height="136" viewBox="0 0 137 136" fill="none" xmlns="http://www.w3.org/2000/svg">
<rect width="136" height="136" transform="translate(0.666626)" fill="white"/>
<mask id="mask0_11012_2109" style="mask-type:luminance" maskUnits="userSpaceOnUse" x="16" y="4" width="117" height="117">
<path d="M16.2502 4H132.666V120.242H16.2502V4Z" fill="white"/>
</mask>
<g mask="url(#mask0_11012_2109)">
<path d="M130.162 4.07202C122.56 4.07202 113.715 5.7209 104.464 8.81689C104.457 8.8192 104.452 8.81689 104.445 8.8192C104.441 8.82152 104.438 8.82384 104.432 8.82848C103.682 9.07894 102.933 9.32013 102.18 9.59146C102.105 9.61929 102.029 9.64944 101.957 9.68655C100.09 10.3614 98.2535 11.0896 96.4446 11.8526C96.4353 11.8549 96.426 11.8619 96.4168 11.8642C85.2039 16.5858 75.2458 22.8775 68.532 29.5913L55.4523 42.6733H44.5387C39.2859 42.6733 34.3486 44.7188 30.6311 48.4339L17.5282 61.5368C16.8185 62.2465 16.6121 63.3179 17.0064 64.2409C17.3937 65.1453 18.2842 65.7297 19.2652 65.7297C19.2837 65.7297 19.3046 65.7297 19.3232 65.7297L40.1973 65.2265C39.1978 70.6972 39.8007 76.3813 42.143 81.4996C35.0373 88.7931 29.5735 98.415 34.0262 102.865C35.1417 103.985 36.5842 104.475 38.233 104.475C43.1681 104.475 49.9468 100.057 55.4152 94.723C58.9541 96.3371 62.7505 97.1743 66.5793 97.1743C68.2815 97.1743 69.9837 97.0004 71.6697 96.692L71.1642 117.571C71.141 118.575 71.73 119.491 72.653 119.888C72.9661 120.02 73.2954 120.087 73.6224 120.087C74.2601 120.087 74.8886 119.837 75.3594 119.366L88.46 106.265C92.1751 102.548 94.2229 97.608 94.2229 92.3552V81.437L107.203 68.4384C113.965 61.6968 120.276 51.676 124.993 40.3844C124.993 40.3821 124.997 40.3821 124.997 40.3797C125.786 38.4943 126.539 36.5811 127.233 34.633C127.49 33.9095 127.72 33.1906 127.961 32.4716C127.97 32.4531 127.987 32.4345 127.996 32.416C128.007 32.3858 128 32.3534 128.012 32.3209C131.103 23.0352 132.727 14.1531 132.687 6.51635C132.676 5.162 131.514 4.07202 130.162 4.07202ZM41.5679 60.2776L25.3435 60.6695L34.1027 51.908C36.8903 49.1204 40.5962 47.5852 44.5363 47.5852H50.5358L48.2399 49.8811C45.2228 52.9028 42.9965 56.4719 41.5679 60.2776ZM50.8396 74.3313C49.2325 75.3563 47.5999 76.5576 45.9811 77.9282C44.4621 73.7932 44.2418 69.2942 45.2437 64.9946C46.6931 68.5243 48.9403 71.8637 50.8396 74.3313ZM52.4514 90.762C44.7126 98.5032 38.3142 100.205 37.5002 99.3937C36.6885 98.5797 38.3931 92.1767 46.1319 84.4402C49.5502 81.0242 53.2097 78.3085 56.4356 76.7965C58.3373 75.9082 59.6406 75.6671 60.3781 75.6671C60.7723 75.6671 61.0065 75.7366 61.0831 75.8132C61.2987 76.0288 61.4657 77.5316 60.0974 80.4583C58.5831 83.6865 55.8674 87.3437 52.4514 90.762ZM58.9657 90.9128C60.3386 89.2894 61.5446 87.6521 62.5696 86.0404C65.0765 87.9629 68.4415 90.1915 72.0014 91.6247C67.6739 92.6521 63.1331 92.4364 58.9657 90.9128ZM89.3064 92.3529C89.3064 96.2954 87.7712 99.999 84.9836 102.789L76.2267 111.548L76.6187 95.3098C80.4289 93.8812 84.005 91.6618 87.0268 88.6401L89.3087 86.3534V92.3529H89.3064ZM103.727 64.9621L83.5504 85.1637C82.6599 86.052 81.7114 86.8544 80.7211 87.5826C80.7165 87.5849 80.7095 87.5849 80.7049 87.5895C77.7713 89.2848 71.5491 86.8752 64.9235 81.6248C67.057 76.4903 65.9532 73.7329 64.5547 72.3368C63.1586 70.9361 60.4012 69.8276 55.2575 71.9727C50.3016 65.7413 47.8202 59.7511 48.9867 56.625C49.7937 55.4747 50.6982 54.3731 51.7162 53.3551L58.2027 46.8686C58.2051 46.8662 58.2051 46.8662 58.2074 46.8639L72.006 33.0653C77.6576 27.4137 85.8394 22.0566 95.1668 17.7802C96.1501 22.5969 99.2878 27.954 104.093 32.7546C108.898 37.5528 114.258 40.6766 119.072 41.6552C114.798 51.0522 109.422 59.2827 103.727 64.9621ZM121.055 37.024C117.059 36.5625 111.966 33.6683 107.567 29.2782C103.168 24.8859 100.264 19.7769 99.7957 15.7904C100.99 15.308 102.194 14.8396 103.413 14.3966C103.411 14.4314 103.42 14.4639 103.418 14.4963C103.298 16.9731 105.355 21.8316 110.174 26.6507C115.021 31.4999 119.902 33.5407 122.393 33.4062C122.407 33.4062 122.423 33.4085 122.439 33.4085C121.999 34.6261 121.535 35.8297 121.055 37.024ZM124.012 28.5918C123.383 28.5153 122.748 28.4619 122.11 28.499C121.298 28.6011 117.75 27.2745 113.636 23.1605C109.566 19.0928 108.321 15.5539 108.328 14.763C108.367 14.1044 108.316 13.4504 108.235 12.8011C115.127 10.6675 121.848 9.33868 127.72 9.04879C127.453 14.9161 126.138 21.667 124.012 28.5918Z" fill="#E11F25"/>
</g>
<path d="M85.3667 35.127C80.9117 35.127 76.7257 36.8616 73.5787 40.0086C70.4294 43.1557 68.697 47.3416 68.697 51.7966C68.697 56.2516 70.4294 60.4375 73.5787 63.5845C76.7257 66.7339 80.9117 68.4662 85.3667 68.4662C89.8193 68.4662 94.0053 66.7315 97.1546 63.5845C100.304 60.4352 102.036 56.2516 102.036 51.7966C102.036 47.3416 100.304 43.1557 97.1546 40.0086C94.0053 36.8616 89.8193 35.127 85.3667 35.127ZM93.6806 60.1129C91.4612 62.3345 88.509 63.5544 85.3667 63.5544C82.2243 63.5544 79.2721 62.3322 77.0527 60.1129C74.831 57.8912 73.6089 54.9413 73.6089 51.7989C73.6089 48.6589 74.831 45.7067 77.0527 43.485C79.2698 41.2656 82.2243 40.0434 85.3667 40.0434C88.509 40.0434 91.4589 41.2679 93.6806 43.485C95.9 45.7067 97.1221 48.6565 97.1221 51.7989C97.1221 54.939 95.9 57.8912 93.6806 60.1129Z" fill="#E11F25"/>
<mask id="mask1_11012_2109" style="mask-type:luminance" maskUnits="userSpaceOnUse" x="4" y="67" width="17" height="17">
<path d="M4.66663 67.9978H20.4063V83.4337H4.66663V67.9978Z" fill="white"/>
</mask>
<g mask="url(#mask1_11012_2109)">
<path d="M9.08678 82.5314L19.3557 72.2624C20.3158 71.3023 20.3158 69.7485 19.3557 68.7884C18.3956 67.8283 16.8418 67.8283 15.8817 68.7884L5.61278 79.0574C4.65267 80.0175 4.65267 81.5713 5.61278 82.5314C6.09283 83.0114 6.7213 83.2503 7.34978 83.2503C7.97825 83.2503 8.60673 83.0114 9.08678 82.5314Z" fill="#EED124"/>
</g>
<path d="M31.9621 104.862C31.002 103.9 29.4482 103.9 28.4881 104.862L12.5953 120.752C11.6352 121.712 11.6352 123.266 12.5953 124.226C13.0731 124.704 13.7038 124.945 14.3323 124.945C14.9608 124.945 15.5893 124.704 16.0693 124.226L31.9621 108.336C32.9198 107.378 32.9198 105.822 31.9621 104.862Z" fill="#EED124"/>
<path d="M24.7756 86.6686C23.8154 85.7085 22.2617 85.7085 21.3016 86.6686L7.85082 100.119C6.89071 101.079 6.89071 102.633 7.85082 103.593C8.33087 104.073 8.95934 104.312 9.58782 104.312C10.2163 104.312 10.8448 104.073 11.3248 103.593L24.7756 90.1426C25.7357 89.1848 25.7357 87.6287 24.7756 86.6686Z" fill="#EED124"/>
<mask id="mask2_11012_2109" style="mask-type:luminance" maskUnits="userSpaceOnUse" x="53" y="116" width="17" height="16">
<path d="M53.0591 116.68H69.0886V132H53.0591V116.68Z" fill="white"/>
</mask>
<g mask="url(#mask2_11012_2109)">
<path d="M64.5617 117.466L54.2927 127.737C53.3303 128.698 53.3303 130.249 54.2927 131.211C54.7705 131.689 55.3989 131.93 56.0297 131.93C56.6582 131.93 57.2867 131.689 57.7667 131.211L68.0357 120.94C68.9958 119.98 68.9958 118.429 68.0357 117.466C67.0756 116.506 65.5218 116.506 64.5617 117.466Z" fill="#EED124"/>
</g>
<path d="M46.6817 112.046L33.2286 125.5C32.2685 126.46 32.2685 128.011 33.2286 128.971C33.7087 129.451 34.3371 129.692 34.9656 129.692C35.5964 129.692 36.2249 129.451 36.7026 128.971L50.1557 115.52C51.1158 114.56 51.1158 113.009 50.1557 112.046C49.1933 111.086 47.6418 111.086 46.6817 112.046Z" fill="#EED124"/>
</svg>
