<svg width="25" height="24" viewBox="0 0 25 24" fill="none" xmlns="http://www.w3.org/2000/svg">
<path d="M13.9704 3.22331C13.8704 3.20899 13.795 3.12407 13.795 3.02303V1.22261C13.795 1.10371 13.8986 1.01097 14.0166 1.02604C19.037 1.66756 22.9663 5.68309 23.53 10.735C24.1819 16.6998 19.951 22.0744 14.0172 22.8415C13.8992 22.8568 13.795 22.764 13.795 22.645V20.8448C13.795 20.7438 13.8707 20.6589 13.9706 20.6445C17.8907 20.0802 20.9524 16.9573 21.451 13.012C21.5935 11.8649 21.5084 10.7009 21.2007 9.58675C20.8929 8.47255 20.3685 7.42997 19.6574 6.51864C18.9463 5.60731 18.0625 4.84512 17.0566 4.27567C16.102 3.7353 15.0552 3.37856 13.9704 3.22331ZM5.87625 3.57535C5.79798 3.49105 5.80667 3.35812 5.8968 3.28664C7.47579 2.0344 9.3744 1.25 11.3767 1.02255C11.4937 1.00926 11.595 1.10169 11.595 1.21947V3.09203C11.595 3.19178 11.5214 3.27604 11.4229 3.29179C9.97537 3.52325 8.60811 4.10966 7.45139 4.99893C7.36822 5.06287 7.24969 5.05444 7.1783 4.97756L5.87625 3.57535ZM1.96987 10.9C1.85195 10.9 1.75947 10.7985 1.77299 10.6813C2.00392 8.68079 2.79015 6.78463 4.04261 5.20765C4.11591 5.11536 4.25302 5.10902 4.33636 5.19236L5.62865 6.48465C5.70019 6.55619 5.70682 6.66975 5.646 6.75059C4.76843 7.91706 4.19411 9.28322 3.97464 10.7264C3.95956 10.8256 3.87499 10.9 3.77463 10.9H1.96987ZM4.34846 18.8054C4.26482 18.8897 4.12652 18.883 4.05333 18.7896C2.81372 17.2068 2.02961 15.3156 1.78567 13.3201C1.77129 13.2025 1.86395 13.1 1.98243 13.1H3.78475C3.88548 13.1 3.97024 13.175 3.98497 13.2746C4.19773 14.7146 4.77505 16.0833 5.64721 17.25C5.70747 17.3307 5.70087 17.4435 5.62996 17.5149L4.34846 18.8054ZM5.9027 20.6535C5.81048 20.5797 5.80488 20.4422 5.88902 20.3592L7.24395 19.0238C7.25488 19.013 7.2696 19.007 7.28494 19.007C7.29794 19.007 7.31057 19.0113 7.32084 19.0193C8.51413 19.9443 9.92906 20.5557 11.4204 20.776C11.52 20.7908 11.595 20.8755 11.595 20.9762V22.7774C11.595 22.8963 11.4919 22.9891 11.3739 22.974C9.37236 22.7182 7.47446 21.9121 5.9027 20.6535ZM12.5127 17.1028C12.5841 17.2584 12.8053 17.2581 12.8764 17.1024L14.3801 13.8057C14.4 13.762 14.435 13.727 14.4786 13.7069L17.7968 12.1829C17.9526 12.1114 17.952 11.8898 17.7959 11.819L14.4795 10.3151C14.4353 10.295 14.4 10.2597 14.3799 10.2155L12.8766 6.90037C12.8057 6.74405 12.5837 6.74378 12.5125 6.89993L10.9991 10.216C10.979 10.2598 10.9438 10.295 10.8999 10.315L7.59274 11.8191C7.43689 11.89 7.43636 12.1112 7.59186 12.1828L10.9008 13.707C10.9442 13.727 10.979 13.7619 10.9989 13.8053L12.5127 17.1028Z" fill="url(#paint0_linear_9210_6789)"/>
<defs>
<linearGradient id="paint0_linear_9210_6789" x1="23.5963" y1="12" x2="1.75" y2="12" gradientUnits="userSpaceOnUse">
<stop stop-color="#ED1C24"/>
<stop offset="1" stop-color="#871015"/>
</linearGradient>
</defs>
</svg>
