<svg width="36" height="39" viewBox="0 0 36 39" fill="none" xmlns="http://www.w3.org/2000/svg">
<path d="M18.7946 20.5219C19.0226 21.3611 18.0527 22.0063 17.3668 21.4717L13.3424 18.3327C12.4573 17.6429 11.4238 17.1688 10.3237 16.9478C9.22358 16.7269 8.08718 16.7652 7.00453 17.0598L2.08201 18.3976C1.24287 18.6255 0.597631 17.6555 1.13216 16.9696L4.27058 12.9453C4.96023 12.0603 5.43425 11.0267 5.65507 9.92661C5.87588 8.82649 5.83742 7.69003 5.54274 6.60731L4.20455 1.68445C4.15385 1.5012 4.16232 1.30662 4.22875 1.12849C4.29518 0.950349 4.41616 0.797745 4.57445 0.692452C4.73275 0.587158 4.92025 0.534551 5.11022 0.542137C5.30019 0.549723 5.48292 0.617115 5.63233 0.734695L9.65681 3.87367C10.5415 4.56336 11.5746 5.03757 12.6743 5.25874C13.774 5.47991 14.9101 5.44197 15.9926 5.14792L20.9172 3.80879C21.1004 3.75811 21.295 3.7666 21.4731 3.83305C21.6512 3.8995 21.8038 4.02051 21.9092 4.17882C22.0145 4.33712 22.0671 4.52464 22.0595 4.71462C22.052 4.9046 21.9846 5.08732 21.867 5.23673L18.7286 9.26106C18.039 10.1457 17.5649 11.1789 17.3439 12.2786C17.1228 13.3783 17.1609 14.5144 17.4551 15.597L18.7946 20.5219ZM33.895 25.7875C33.9251 25.8975 33.9198 26.0142 33.8798 26.121C33.8398 26.2278 33.7672 26.3193 33.6723 26.3824C33.5773 26.4456 33.4649 26.4772 33.3509 26.4728C33.237 26.4684 33.1273 26.4282 33.0375 26.3579L30.6231 24.4749C29.5458 23.6362 28.1386 23.3532 26.8209 23.7102L23.8666 24.5134C23.7566 24.5436 23.6399 24.5382 23.5331 24.4982C23.4263 24.4582 23.3348 24.3856 23.2717 24.2906C23.2085 24.1957 23.1769 24.0832 23.1813 23.9693C23.1857 23.8553 23.2258 23.7457 23.2961 23.6558L25.1788 21.2415C25.5926 20.7107 25.8772 20.0907 26.0098 19.4307C26.1425 18.7707 26.1196 18.0889 25.943 17.4393L25.1396 14.4847C25.1094 14.3747 25.1148 14.2581 25.1547 14.1513C25.1947 14.0445 25.2673 13.953 25.3623 13.8898C25.4572 13.8267 25.5697 13.7951 25.6836 13.7994C25.7976 13.8038 25.9073 13.844 25.9971 13.9143L28.4115 15.7973C28.9424 16.2113 29.5624 16.4959 30.2223 16.6286C30.8823 16.7613 31.564 16.7385 32.2136 16.562L35.168 15.7588C35.2779 15.7287 35.3946 15.734 35.5014 15.774C35.6082 15.814 35.6997 15.8866 35.7629 15.9816C35.826 16.0766 35.8577 16.189 35.8533 16.303C35.8489 16.4169 35.8087 16.5266 35.7384 16.6164L33.8558 19.0307C33.4419 19.5616 33.1574 20.1816 33.0247 20.8415C32.8921 21.5015 32.9149 22.1833 33.0915 22.8329L33.895 25.7875ZM20.6346 37.7579C20.6535 37.8308 20.6492 37.9079 20.6223 37.9782C20.5954 38.0486 20.5472 38.1088 20.4845 38.1505C20.4218 38.1923 20.3476 38.2134 20.2723 38.211C20.197 38.2086 20.1243 38.1829 20.0644 38.1373L18.4557 36.8833C17.7372 36.3223 16.798 36.1334 15.9186 36.3731L13.9504 36.9076C13.8775 36.9265 13.8005 36.9222 13.7301 36.8953C13.6598 36.8683 13.5995 36.8202 13.5578 36.7574C13.5161 36.6947 13.4949 36.6205 13.4973 36.5452C13.4997 36.4699 13.5254 36.3972 13.571 36.3373L14.8247 34.7286C15.1011 34.3745 15.2911 33.9608 15.3796 33.5204C15.4681 33.08 15.4527 32.625 15.3347 32.1915L14.8 30.2232C14.7811 30.1503 14.7854 30.0733 14.8123 30.0029C14.8392 29.9325 14.8874 29.8723 14.9501 29.8306C15.0128 29.7888 15.087 29.7677 15.1623 29.7701C15.2376 29.7725 15.3103 29.7983 15.3703 29.8439L16.979 31.0978C17.3331 31.3742 17.7468 31.5642 18.1872 31.6528C18.6276 31.7414 19.0826 31.726 19.516 31.608L21.4821 31.0749C21.5551 31.056 21.6321 31.0603 21.7024 31.0872C21.7728 31.1142 21.833 31.1623 21.8747 31.2251C21.9165 31.2878 21.9376 31.362 21.9353 31.4373C21.9329 31.5126 21.9071 31.5853 21.8615 31.6452L20.6078 33.2538C20.0469 33.9723 19.8581 34.9115 20.0978 35.791L20.6346 37.7579Z" fill="#FFC107"/>
</svg>
