<svg width="64" height="65" viewBox="0 0 64 65" fill="none" xmlns="http://www.w3.org/2000/svg">
<path d="M36.5049 54.8721H31.4782C24.1996 54.8721 18.0226 52.3355 12.9471 47.2624C7.8716 42.1892 5.33386 36.0157 5.33386 28.7418C5.33386 21.4678 7.87044 15.2896 12.9436 10.2072C18.0168 5.12472 24.1926 2.5835 31.4712 2.5835C35.1105 2.5835 38.5151 3.26441 41.6849 4.62624C44.8548 5.98574 47.6237 7.84954 49.9918 10.2176C52.3599 12.5857 54.2237 15.3501 55.5832 18.5106C56.9427 21.6712 57.6225 25.0769 57.6225 28.7278C57.6225 35.3975 55.9097 41.5141 52.4843 47.0776C49.0588 52.6411 44.6979 57.2658 39.4016 60.9515C39.0902 61.1305 38.7765 61.2293 38.4605 61.2479C38.149 61.2641 37.8504 61.1944 37.5646 61.0387C37.2787 60.883 37.051 60.6843 36.8813 60.4426C36.7117 60.2009 36.6199 59.8953 36.6059 59.5258L36.5049 54.8721ZM40.193 56.0922C44.3179 52.6063 47.6737 48.5254 50.2603 43.8497C52.8468 39.1739 54.1389 34.1333 54.1366 28.7278C54.1366 22.3951 51.9428 17.0361 47.5552 12.6508C43.1676 8.26553 37.8086 6.07173 31.4782 6.0694C25.1478 6.06708 19.7888 8.26088 15.4012 12.6508C11.0136 17.0407 8.81977 22.3997 8.81977 28.7278C8.81977 35.0559 11.0136 40.4161 15.4012 44.8083C19.7888 49.2006 25.1478 51.3932 31.4782 51.3862H40.193V56.0922ZM31.6037 46.4049C32.3148 46.4049 32.919 46.1539 33.4163 45.6519C33.9137 45.1499 34.1612 44.5422 34.1588 43.8288C34.1565 43.1153 33.9055 42.5111 33.4059 42.0161C32.9062 41.5211 32.2985 41.2724 31.5828 41.2701C30.867 41.2678 30.2628 41.5199 29.7701 42.0266C29.2774 42.5332 29.0287 43.1409 29.0241 43.8497C29.0194 44.5585 29.2704 45.1627 29.7771 45.6624C30.2837 46.162 30.8925 46.4095 31.6037 46.4049ZM24.3634 20.7172C24.7678 20.8729 25.171 20.8624 25.573 20.6858C25.9751 20.5092 26.3039 20.2245 26.5596 19.8318C27.036 19.0463 27.7122 18.4188 28.5884 17.9494C29.4645 17.4846 30.4731 17.2522 31.6141 17.2522C33.3245 17.2522 34.7154 17.6996 35.7868 18.5943C36.8581 19.489 37.3926 20.6998 37.3903 22.2266C37.3903 23.1701 37.1614 24.0532 36.7036 24.8759C36.2457 25.6962 35.4649 26.6583 34.361 27.7622C32.8644 29.2193 31.7896 30.4696 31.1366 31.5131C30.4835 32.5565 30.1582 33.5697 30.1605 34.5528C30.1605 35.0106 30.3092 35.401 30.6067 35.724C30.9042 36.0471 31.2644 36.2097 31.6873 36.2121C32.1103 36.2144 32.4647 36.0517 32.7505 35.724C33.0364 35.4033 33.206 35.0071 33.2595 34.5353C33.3733 33.8149 33.7626 33.0143 34.4273 32.1335C35.0919 31.2528 35.9006 30.3371 36.8534 29.3866C38.1642 28.0759 39.1019 26.8408 39.6666 25.6811C40.2313 24.5192 40.5137 23.3583 40.5137 22.1987C40.5137 19.8074 39.6887 17.8843 38.0387 16.4295C36.3887 14.9747 34.2913 14.2473 31.7466 14.2473C30.0362 14.2473 28.4605 14.6645 27.0197 15.4988C25.5789 16.3331 24.4959 17.3277 23.7708 18.4827C23.5152 18.9545 23.4397 19.4053 23.5442 19.8353C23.6488 20.2652 23.9219 20.5592 24.3634 20.7172Z" fill="url(#paint0_linear_9089_550)"/>
<defs>
<linearGradient id="paint0_linear_9089_550" x1="57.6225" y1="31.9168" x2="5.33386" y2="31.9168" gradientUnits="userSpaceOnUse">
<stop stop-color="#ED1C24"/>
<stop offset="1" stop-color="#871015"/>
</linearGradient>
</defs>
</svg>
