<svg width="41" height="31" viewBox="0 0 41 31" fill="none" xmlns="http://www.w3.org/2000/svg">
<mask id="mask0_9149_4049" style="mask-type:luminance" maskUnits="userSpaceOnUse" x="0" y="0" width="41" height="31">
<rect x="0.5" y="0.906006" width="40" height="30" fill="white"/>
</mask>
<g mask="url(#mask0_9149_4049)">
<path fill-rule="evenodd" clip-rule="evenodd" d="M0.5 0.906006H40.5V30.906H0.5V0.906006Z" fill="#F7FCFF"/>
<path fill-rule="evenodd" clip-rule="evenodd" d="M0.5 19.2394V21.7394H40.5V19.2394H0.5Z" fill="#E31D1C"/>
<path fill-rule="evenodd" clip-rule="evenodd" d="M0.5 23.8226V26.3226H40.5V23.8226H0.5Z" fill="#E31D1C"/>
<path fill-rule="evenodd" clip-rule="evenodd" d="M0.5 10.0726V12.5726H40.5V10.0726H0.5Z" fill="#E31D1C"/>
<path fill-rule="evenodd" clip-rule="evenodd" d="M0.5 28.406V30.906H40.5V28.406H0.5Z" fill="#E31D1C"/>
<path fill-rule="evenodd" clip-rule="evenodd" d="M0.5 14.656V17.156H40.5V14.656H0.5Z" fill="#E31D1C"/>
<path fill-rule="evenodd" clip-rule="evenodd" d="M0.5 0.906006V3.40601H40.5V0.906006H0.5Z" fill="#E31D1C"/>
<path fill-rule="evenodd" clip-rule="evenodd" d="M0.5 5.48944V7.98944H40.5V5.48944H0.5Z" fill="#E31D1C"/>
<rect x="0.5" y="0.906006" width="25" height="16.25" fill="#2E42A5"/>
<path fill-rule="evenodd" clip-rule="evenodd" d="M2.65276 4.57939L1.74541 5.2155L2.05175 4.08348L1.24585 3.36609H2.29846L2.6515 2.44226L3.06546 3.36609H3.96278L3.25773 4.08348L3.53069 5.2155L2.65276 4.57939ZM7.65252 4.57951L6.74517 5.21562L7.0515 4.08361L6.24561 3.36622H7.29821L7.65125 2.44238L8.06522 3.36622H8.96254L8.25749 4.08361L8.53044 5.21562L7.65252 4.57951ZM11.7452 5.21562L12.6525 4.57951L13.5304 5.21562L13.2575 4.08361L13.9625 3.36622H13.0652L12.6513 2.44238L12.2982 3.36622H11.2456L12.0515 4.08361L11.7452 5.21562ZM17.6525 4.57951L16.7452 5.21562L17.0515 4.08361L16.2456 3.36622H17.2982L17.6513 2.44238L18.0652 3.36622H18.9625L18.2575 4.08361L18.5304 5.21562L17.6525 4.57951ZM1.74517 10.2156L2.65252 9.57951L3.53044 10.2156L3.25749 9.08361L3.96254 8.36622H3.06522L2.65125 7.44238L2.29821 8.36622H1.24561L2.0515 9.08361L1.74517 10.2156ZM7.65252 9.57951L6.74517 10.2156L7.0515 9.08361L6.24561 8.36622H7.29821L7.65125 7.44238L8.06522 8.36622H8.96254L8.25749 9.08361L8.53044 10.2156L7.65252 9.57951ZM11.7452 10.2156L12.6525 9.57951L13.5304 10.2156L13.2575 9.08361L13.9625 8.36622H13.0652L12.6513 7.44238L12.2982 8.36622H11.2456L12.0515 9.08361L11.7452 10.2156ZM17.6525 9.57951L16.7452 10.2156L17.0515 9.08361L16.2456 8.36622H17.2982L17.6513 7.44238L18.0652 8.36622H18.9625L18.2575 9.08361L18.5304 10.2156L17.6525 9.57951ZM1.74517 15.2156L2.65252 14.5795L3.53044 15.2156L3.25749 14.0836L3.96254 13.3662H3.06522L2.65125 12.4424L2.29821 13.3662H1.24561L2.0515 14.0836L1.74517 15.2156ZM7.65252 14.5795L6.74517 15.2156L7.0515 14.0836L6.24561 13.3662H7.29821L7.65125 12.4424L8.06522 13.3662H8.96254L8.25749 14.0836L8.53044 15.2156L7.65252 14.5795ZM11.7452 15.2156L12.6525 14.5795L13.5304 15.2156L13.2575 14.0836L13.9625 13.3662H13.0652L12.6513 12.4424L12.2982 13.3662H11.2456L12.0515 14.0836L11.7452 15.2156ZM17.6525 14.5795L16.7452 15.2156L17.0515 14.0836L16.2456 13.3662H17.2982L17.6513 12.4424L18.0652 13.3662H18.9625L18.2575 14.0836L18.5304 15.2156L17.6525 14.5795ZM21.7452 5.21562L22.6525 4.57951L23.5304 5.21562L23.2575 4.08361L23.9625 3.36622H23.0652L22.6513 2.44238L22.2982 3.36622H21.2456L22.0515 4.08361L21.7452 5.21562ZM22.6525 9.57951L21.7452 10.2156L22.0515 9.08361L21.2456 8.36622H22.2982L22.6513 7.44238L23.0652 8.36622H23.9625L23.2575 9.08361L23.5304 10.2156L22.6525 9.57951ZM21.7452 15.2156L22.6525 14.5795L23.5304 15.2156L23.2575 14.0836L23.9625 13.3662H23.0652L22.6513 12.4424L22.2982 13.3662H21.2456L22.0515 14.0836L21.7452 15.2156ZM5.15252 7.07951L4.24517 7.71562L4.5515 6.58361L3.74561 5.86622H4.79821L5.15125 4.94238L5.56522 5.86622H6.46254L5.75749 6.58361L6.03044 7.71562L5.15252 7.07951ZM9.24517 7.71562L10.1525 7.07951L11.0304 7.71562L10.7575 6.58361L11.4625 5.86622H10.5652L10.1513 4.94238L9.79821 5.86622H8.74561L9.5515 6.58361L9.24517 7.71562ZM15.1525 7.07951L14.2452 7.71562L14.5515 6.58361L13.7456 5.86622H14.7982L15.1513 4.94238L15.5652 5.86622H16.4625L15.7575 6.58361L16.0304 7.71562L15.1525 7.07951ZM4.24517 12.7156L5.15252 12.0795L6.03044 12.7156L5.75749 11.5836L6.46254 10.8662H5.56522L5.15125 9.94238L4.79821 10.8662H3.74561L4.5515 11.5836L4.24517 12.7156ZM10.1525 12.0795L9.24517 12.7156L9.5515 11.5836L8.74561 10.8662H9.79821L10.1513 9.94238L10.5652 10.8662H11.4625L10.7575 11.5836L11.0304 12.7156L10.1525 12.0795ZM14.2452 12.7156L15.1525 12.0795L16.0304 12.7156L15.7575 11.5836L16.4625 10.8662H15.5652L15.1513 9.94238L14.7982 10.8662H13.7456L14.5515 11.5836L14.2452 12.7156ZM20.1525 7.07951L19.2452 7.71562L19.5515 6.58361L18.7456 5.86622H19.7982L20.1513 4.94238L20.5652 5.86622H21.4625L20.7575 6.58361L21.0304 7.71562L20.1525 7.07951ZM19.2452 12.7156L20.1525 12.0795L21.0304 12.7156L20.7575 11.5836L21.4625 10.8662H20.5652L20.1513 9.94238L19.7982 10.8662H18.7456L19.5515 11.5836L19.2452 12.7156Z" fill="#F7FCFF"/>
</g>
</svg>
