<svg width="24" height="24" viewBox="0 0 24 24" fill="none" xmlns="http://www.w3.org/2000/svg">
<g clip-path="url(#clip0_9210_6735)">
<path opacity="0.2" d="M12.75 10.125C12.75 11.0892 12.4641 12.0317 11.9284 12.8334C11.3927 13.6351 10.6314 14.2599 9.74058 14.6289C8.84979 14.9979 7.86959 15.0944 6.92394 14.9063C5.97828 14.7182 5.10964 14.2539 4.42786 13.5721C3.74608 12.8904 3.28178 12.0217 3.09367 11.0761C2.90557 10.1304 3.00211 9.15021 3.37109 8.25942C3.74007 7.36863 4.36491 6.60726 5.1666 6.07159C5.96829 5.53591 6.91082 5.25 7.875 5.25C9.16793 5.25 10.4079 5.76361 11.3221 6.67785C12.2364 7.59209 12.75 8.83207 12.75 10.125Z" fill="url(#paint0_linear_9210_6735)"/>
<path d="M10.9776 16.3595C12.0004 15.557 12.7769 14.388 13.1923 13.0253C13.6076 11.6625 13.6399 10.1784 13.2842 8.79243C12.9285 7.40643 12.2038 6.19211 11.2172 5.32905C10.2307 4.46599 9.0346 4 7.80592 4C6.57724 4 5.38117 4.46599 4.39459 5.32905C3.40801 6.19211 2.6833 7.40643 2.32763 8.79243C1.97195 10.1784 2.00419 11.6625 2.41959 13.0253C2.83498 14.388 3.61147 15.557 4.63424 16.3595C2.78416 17.163 1.20415 18.6501 0.12997 20.5986C0.0735148 20.6975 0.034301 20.8087 0.0146079 20.9256C-0.00508526 21.0425 -0.00486478 21.1628 0.0152565 21.2796C0.0353778 21.3964 0.0749984 21.5073 0.131815 21.6059C0.188633 21.7045 0.261513 21.7888 0.346219 21.8539C0.430926 21.919 0.52577 21.9637 0.625237 21.9852C0.724705 22.0067 0.826813 22.0048 0.925625 21.9794C1.02444 21.954 1.11798 21.9057 1.20082 21.8374C1.28367 21.769 1.35415 21.6819 1.40818 21.5812C2.10108 20.3252 3.04921 19.2932 4.16648 18.5787C5.28376 17.8643 6.53477 17.4901 7.80592 17.4901C9.07707 17.4901 10.3281 17.8643 11.4454 18.5787C12.5626 19.2932 13.5108 20.3252 14.2037 21.5812C14.3156 21.7772 14.4885 21.9135 14.685 21.9605C14.8815 22.0075 15.0858 21.9615 15.2537 21.8324C15.4216 21.7033 15.5397 21.5015 15.5824 21.2706C15.6251 21.0398 15.589 20.7984 15.4819 20.5986C14.4077 18.6501 12.8277 17.163 10.9776 16.3595ZM3.60881 10.7477C3.60881 9.76939 3.85496 8.81307 4.31615 7.99966C4.77733 7.18625 5.43283 6.55227 6.19975 6.1779C6.96668 5.80353 7.81058 5.70557 8.62474 5.89643C9.4389 6.08728 10.1868 6.55837 10.7737 7.25012C11.3607 7.94187 11.7604 8.82321 11.9224 9.7827C12.0843 10.7422 12.0012 11.7367 11.6835 12.6405C11.3659 13.5443 10.8279 14.3168 10.1377 14.8604C9.4475 15.4039 8.63603 15.694 7.80592 15.694C6.69316 15.6925 5.62634 15.1709 4.83951 14.2436C4.05267 13.3163 3.61007 12.059 3.60881 10.7477ZM23.6538 21.8431C23.4843 21.9733 23.2779 22.0189 23.0798 21.9698C22.8818 21.9207 22.7085 21.7809 22.5979 21.5812C21.9058 20.3245 20.9578 19.292 19.8403 18.5778C18.7228 17.8637 17.4714 17.4906 16.2001 17.4926C15.9978 17.4926 15.8037 17.3979 15.6605 17.2292C15.5174 17.0605 15.437 16.8318 15.437 16.5933C15.437 16.3548 15.5174 16.126 15.6605 15.9574C15.8037 15.7887 15.9978 15.694 16.2001 15.694C16.8182 15.6933 17.4286 15.5317 17.9875 15.2208C18.5465 14.9099 19.0403 14.4574 19.4337 13.8955C19.827 13.3336 20.1102 12.6763 20.263 11.9705C20.4158 11.2647 20.4345 10.5278 20.3176 9.81254C20.2008 9.09726 19.9513 8.42122 19.587 7.83273C19.2228 7.24424 18.7527 6.75783 18.2105 6.40824C17.6682 6.05866 17.0671 5.85453 16.4502 5.81045C15.8332 5.76637 15.2156 5.88342 14.6415 6.15325C14.5479 6.20093 14.4471 6.22603 14.3451 6.22704C14.2432 6.22806 14.142 6.20498 14.0478 6.15916C13.9535 6.11334 13.868 6.04572 13.7962 5.96028C13.7245 5.87485 13.668 5.77334 13.6302 5.66175C13.5923 5.55017 13.5738 5.43076 13.5757 5.3106C13.5777 5.19044 13.6 5.07195 13.6415 4.96215C13.6829 4.85234 13.7427 4.75345 13.8171 4.6713C13.8915 4.58915 13.9792 4.52542 14.0749 4.48388C15.3888 3.86632 16.8503 3.8441 18.1773 4.42149C19.5043 4.99889 20.6029 6.13498 21.2611 7.61062C21.9193 9.08625 22.0905 10.7969 21.7416 12.4124C21.3927 14.028 20.5485 15.4341 19.3718 16.3595C21.2219 17.163 22.8019 18.6501 23.8761 20.5986C23.9866 20.7984 24.0253 21.0417 23.9836 21.2751C23.942 21.5085 23.8233 21.7128 23.6538 21.8431Z" fill="url(#paint1_linear_9210_6735)" stroke="url(#paint2_linear_9210_6735)"/>
</g>
<defs>
<linearGradient id="paint0_linear_9210_6735" x1="12.75" y1="10.125" x2="3" y2="10.125" gradientUnits="userSpaceOnUse">
<stop stop-color="#ED1C24"/>
<stop offset="1" stop-color="#871015"/>
</linearGradient>
<linearGradient id="paint1_linear_9210_6735" x1="24" y1="13" x2="0" y2="13" gradientUnits="userSpaceOnUse">
<stop stop-color="#ED1C24"/>
<stop offset="1" stop-color="#871015"/>
</linearGradient>
<linearGradient id="paint2_linear_9210_6735" x1="24" y1="13" x2="0" y2="13" gradientUnits="userSpaceOnUse">
<stop stop-color="#ED1C24"/>
<stop offset="1" stop-color="#871015"/>
</linearGradient>
<clipPath id="clip0_9210_6735">
<rect width="24" height="24" fill="white"/>
</clipPath>
</defs>
</svg>
