<svg width="72" height="73" viewBox="0 0 72 73" fill="none" xmlns="http://www.w3.org/2000/svg">
<rect y="0.5271" width="72" height="72" rx="10.6667" fill="white"/>
<path d="M30.331 24.0633C31.3826 20.9859 35.6347 20.8927 36.8815 23.7837L36.987 24.0651L38.4061 28.2151C38.7313 29.1669 39.2569 30.0379 39.9473 30.7692C40.6377 31.5006 41.477 32.0754 42.4085 32.4549L42.79 32.5973L46.9401 34.0147C50.0175 35.0663 50.1107 39.3183 47.2215 40.5651L46.9401 40.6706L42.79 42.0897C41.838 42.4148 40.9667 42.9402 40.235 43.6306C39.5033 44.3211 38.9282 45.1605 38.5485 46.0921L38.4061 46.4719L36.9887 50.6238C35.9372 53.7011 31.6851 53.7943 30.4401 50.9051L30.331 50.6238L28.9137 46.4737C28.5887 45.5216 28.0632 44.6503 27.3728 43.9186C26.6823 43.1869 25.843 42.6118 24.9113 42.2322L24.5315 42.0897L20.3814 40.6724C17.3023 39.6208 17.2091 35.3687 20.1001 34.1237L20.3814 34.0147L24.5315 32.5973C25.4833 32.2721 26.3542 31.7466 27.0856 31.0561C27.817 30.3657 28.3918 29.5264 28.7713 28.595L28.9137 28.2151L30.331 24.0633ZM33.6599 25.1993L32.2425 29.3494C31.7473 30.8007 30.9417 32.1266 29.8818 33.2348C28.8219 34.343 27.5332 35.2068 26.1054 35.7662L25.6657 35.9262L21.5157 37.3435L25.6657 38.7609C27.117 39.2561 28.443 40.0617 29.5511 41.1216C30.6593 42.1815 31.5232 43.4703 32.0825 44.8981L32.2425 45.3377L33.6599 49.4878L35.0773 45.3377C35.5725 43.8864 36.3781 42.5605 37.438 41.4523C38.4979 40.3441 39.7866 39.4803 41.2144 38.9209L41.6541 38.7627L45.8041 37.3435L41.6541 35.9262C40.2028 35.431 38.8768 34.6254 37.7686 33.5655C36.6605 32.5056 35.7966 31.2168 35.2373 29.789L35.079 29.3494L33.6599 25.1993ZM47.7279 18C48.0569 18 48.3793 18.0923 48.6584 18.2664C48.9376 18.4404 49.1623 18.6893 49.3071 18.9848L49.3915 19.1905L50.0069 20.9947L51.8129 21.6102C52.1426 21.7222 52.4316 21.9296 52.6433 22.206C52.8551 22.4825 52.9799 22.8155 53.0022 23.163C53.0244 23.5105 52.943 23.8568 52.7682 24.1579C52.5934 24.4591 52.3332 24.7016 52.0204 24.8546L51.8129 24.9391L50.0087 25.5545L49.3932 27.3605C49.281 27.6901 49.0735 27.979 48.797 28.1905C48.5204 28.4021 48.1873 28.5267 47.8398 28.5488C47.4924 28.5708 47.1462 28.4892 46.8451 28.3143C46.5441 28.1394 46.3017 27.879 46.1488 27.5663L46.0644 27.3605L45.4489 25.5563L43.6429 24.9408C43.3132 24.8288 43.0242 24.6214 42.8125 24.345C42.6008 24.0686 42.4759 23.7355 42.4537 23.388C42.4315 23.0405 42.5129 22.6943 42.6877 22.3931C42.8624 22.092 43.1227 21.8495 43.4354 21.6964L43.6429 21.612L45.4471 20.9965L46.0626 19.1905C46.1812 18.8431 46.4055 18.5415 46.7042 18.328C47.0028 18.1145 47.3608 17.9998 47.7279 18Z" fill="url(#paint0_linear_9149_2144)" stroke="white" stroke-width="0.5"/>
<defs>
<linearGradient id="paint0_linear_9149_2144" x1="53.0058" y1="35.5021" x2="17.9998" y2="35.5021" gradientUnits="userSpaceOnUse">
<stop stop-color="#ED1C24"/>
<stop offset="1" stop-color="#871015"/>
</linearGradient>
</defs>
</svg>
