<svg width="25" height="24" viewBox="0 0 25 24" fill="none" xmlns="http://www.w3.org/2000/svg">
<path d="M15.41 2.03918C15.7221 1.96745 16.0487 1.99467 16.3447 2.11707C16.6406 2.23947 16.891 2.45097 17.0613 2.7222L18.5938 5.16907C18.7174 5.36615 18.884 5.53271 19.081 5.65629L21.5279 7.18885C21.7997 7.35896 22.0117 7.60958 22.1344 7.90583C22.2571 8.20207 22.2844 8.5292 22.2125 8.84168L21.5649 11.654C21.5127 11.8812 21.5127 12.1174 21.5649 12.3447L22.2125 15.1585C22.2837 15.4705 22.2561 15.797 22.1334 16.0926C22.0108 16.3882 21.7991 16.6383 21.5279 16.8083L19.081 18.3424C18.884 18.4659 18.7174 18.6325 18.5938 18.8296L17.0613 21.2764C16.8912 21.548 16.6409 21.7598 16.345 21.8825C16.049 22.0051 15.7222 22.0326 15.41 21.961L12.5962 21.3135C12.3694 21.2614 12.1338 21.2614 11.907 21.3135L9.09315 21.961C8.78089 22.0326 8.4541 22.0051 8.15817 21.8825C7.86224 21.7598 7.61187 21.548 7.44186 21.2764L5.90929 18.8296C5.78528 18.6323 5.61817 18.4658 5.42053 18.3424L2.97521 16.8098C2.7037 16.6398 2.49188 16.3894 2.3692 16.0935C2.24652 15.7976 2.21906 15.4708 2.29064 15.1585L2.93666 12.3447C2.9889 12.1174 2.9889 11.8812 2.93666 11.654L2.2891 8.84168C2.21732 8.52904 2.24484 8.2018 2.36782 7.90554C2.4908 7.60927 2.70312 7.35875 2.97521 7.18885L5.42053 5.65629C5.61817 5.5329 5.78528 5.36632 5.90929 5.16907L7.44186 2.7222C7.61199 2.45126 7.8622 2.23996 8.1578 2.11758C8.45339 1.99519 8.77974 1.96779 9.0916 2.03918L11.907 2.6852C12.1338 2.7372 12.3694 2.7372 12.5962 2.6852L15.41 2.03918Z" stroke="url(#paint0_linear_9210_6753)" stroke-width="2.5"/>
<path d="M8.42188 12.8258L11.5595 15.8308L16.0847 8.16797" stroke="url(#paint1_linear_9210_6753)" stroke-width="2.5" stroke-linecap="round" stroke-linejoin="round"/>
<defs>
<linearGradient id="paint0_linear_9210_6753" x1="22.2518" y1="12" x2="2.25" y2="12" gradientUnits="userSpaceOnUse">
<stop stop-color="#ED1C24"/>
<stop offset="1" stop-color="#871015"/>
</linearGradient>
<linearGradient id="paint1_linear_9210_6753" x1="16.0847" y1="11.9994" x2="8.42188" y2="11.9994" gradientUnits="userSpaceOnUse">
<stop stop-color="#ED1C24"/>
<stop offset="1" stop-color="#871015"/>
</linearGradient>
</defs>
</svg>
