<svg width="72" height="73" viewBox="0 0 72 73" fill="none" xmlns="http://www.w3.org/2000/svg">
<rect y="0.5271" width="72" height="72" rx="10.6667" fill="white"/>
<g clip-path="url(#clip0_9149_2128)">
<path d="M55.6665 36.5842V36.5742C55.6665 30.6559 53.0898 25.3409 48.9982 21.6859L48.9782 21.6692C48.9277 21.6147 48.8712 21.5661 48.8098 21.5242L48.8065 21.5225C45.1725 18.3317 40.4992 16.5764 35.6632 16.5859C30.6098 16.5859 25.9965 18.4625 22.4798 21.5592L22.5015 21.5409C22.4591 21.573 22.42 21.6093 22.3848 21.6492C20.2707 23.5212 18.5785 25.8227 17.4203 28.398C16.262 30.9733 15.6643 33.7654 15.6665 36.5892C15.6665 42.5059 18.2398 47.8209 22.3282 51.4775L22.3482 51.4942C22.4011 51.5542 22.4603 51.6084 22.5248 51.6559L22.5282 51.6575C26.1612 54.8436 30.831 56.5963 35.6632 56.5875C40.518 56.595 45.2077 54.826 48.8482 51.6142L48.8265 51.6325C50.9773 49.7626 52.7013 47.4526 53.882 44.8586C55.0626 42.2647 55.6723 39.4475 55.6698 36.5975V36.5859L55.6665 36.5842ZM48.2298 49.5925C47.2391 48.7911 46.1737 48.0868 45.0482 47.4892L44.9398 47.4359C45.9615 44.4909 46.5765 41.0959 46.6348 37.5642V37.5375H53.7365C53.497 42.1065 51.5304 46.4138 48.2348 49.5875L48.2298 49.5925ZM36.6198 47.0842C38.7582 47.1992 40.7565 47.6692 42.5998 48.4342L42.4798 48.3909C41.0032 51.7575 38.9248 54.0709 36.6198 54.5792V47.0842ZM36.6198 45.1775V37.5375H44.7332C44.6688 40.7013 44.1202 43.8365 43.1065 46.8342L43.1715 46.6159C41.1023 45.7654 38.9015 45.2793 36.6665 45.1792L36.6215 45.1775H36.6198ZM36.6198 35.6309V27.9909C38.9151 27.8861 41.1748 27.3836 43.2982 26.5059L43.1665 26.5542C44.0915 29.2525 44.6598 32.3625 44.7332 35.5959V35.6309H36.6198ZM36.6198 26.0842V18.5925C38.9248 19.1009 41.0032 21.4042 42.4798 24.7809C40.7565 25.4975 38.7582 25.9659 36.6682 26.0825L36.6198 26.0842ZM41.3765 19.4175C43.3404 20.0726 45.1772 21.0603 46.8065 22.3375L46.7682 22.3075C46.0298 22.8875 45.2015 23.4342 44.3282 23.9092L44.2348 23.9559C43.5291 22.2904 42.5588 20.75 41.3615 19.3942L41.3765 19.4125V19.4175ZM34.7098 18.5975V26.0842C32.654 25.9793 30.6314 25.5227 28.7298 24.7342L28.8498 24.7775C30.3332 21.4109 32.4082 19.0992 34.7132 18.5909L34.7098 18.5975ZM27.0965 23.9509C26.1931 23.4648 25.3322 22.9033 24.5232 22.2725L24.5632 22.3025C26.1451 21.0628 27.9244 20.0982 29.8265 19.4492L29.9532 19.4109C28.7872 20.7299 27.8371 22.225 27.1382 23.8409L27.0965 23.9509ZM34.7132 27.9892V35.6292H26.5998C26.6732 32.3609 27.2415 29.2509 28.2315 26.3342L28.1665 26.5525C30.2349 27.4016 32.4345 27.8871 34.6682 27.9875L34.7132 27.9892ZM34.7132 37.5359V45.1759C32.4179 45.2806 30.1582 45.7831 28.0348 46.6609L28.1665 46.6125C27.2415 43.9159 26.6732 40.8042 26.5998 37.5709V37.5359H34.7132ZM34.7132 47.0825V54.5742C32.4082 54.0659 30.3298 51.7625 28.8532 48.3859C30.5765 47.6692 32.5748 47.2025 34.6648 47.0859L34.7132 47.0825ZM29.9632 53.7492C27.9998 53.096 26.1631 52.1106 24.5332 50.8359L24.5732 50.8659C25.3115 50.2859 26.1398 49.7392 27.0132 49.2642L27.1065 49.2175C27.8063 50.8837 28.7766 52.4227 29.9782 53.7725L29.9632 53.7559V53.7492ZM44.2365 49.2159C45.2032 49.7409 46.0315 50.2859 46.8098 50.8942L46.7698 50.8642C45.188 52.1039 43.4086 53.0685 41.5065 53.7175L41.3798 53.7559C42.5458 52.4374 43.4959 50.9428 44.1948 49.3275L44.2365 49.2192V49.2159ZM53.7365 35.6309H46.6348C46.5838 32.1824 45.9887 28.7637 44.8715 25.5009L44.9398 25.7309C46.1172 25.111 47.2318 24.3787 48.2682 23.5442L48.2282 23.5742C51.517 26.7359 53.4842 31.0272 53.7332 35.5825L53.7365 35.6309ZM23.1032 23.5759C24.0632 24.3559 25.1415 25.0709 26.2848 25.6792L26.3932 25.7325C25.3715 28.6775 24.7565 32.0725 24.6982 35.6042V35.6309H17.5948C17.8343 31.0619 19.8009 26.7545 23.0965 23.5809L23.1032 23.5759ZM17.5965 37.5375H24.6982C24.7493 40.9859 25.3444 44.4047 26.4615 47.6675L26.3932 47.4375C25.1415 48.1025 24.0648 48.8175 23.0648 49.6242L23.1048 49.5942C19.8161 46.4325 17.8488 42.1411 17.5998 37.5859L17.5982 37.5392L17.5965 37.5375Z" fill="url(#paint0_linear_9149_2128)" stroke="url(#paint1_linear_9149_2128)" stroke-width="0.5"/>
</g>
<defs>
<linearGradient id="paint0_linear_9149_2128" x1="55.6699" y1="36.5867" x2="15.6665" y2="36.5867" gradientUnits="userSpaceOnUse">
<stop stop-color="#ED1C24"/>
<stop offset="1" stop-color="#871015"/>
</linearGradient>
<linearGradient id="paint1_linear_9149_2128" x1="55.6699" y1="36.5867" x2="15.6665" y2="36.5867" gradientUnits="userSpaceOnUse">
<stop stop-color="#ED1C24"/>
<stop offset="1" stop-color="#871015"/>
</linearGradient>
<clipPath id="clip0_9149_2128">
<rect width="40" height="40" fill="white" transform="translate(15.6665 16.5842)"/>
</clipPath>
</defs>
</svg>
