<svg width="223" height="189" viewBox="0 0 223 189" fill="none" xmlns="http://www.w3.org/2000/svg">
<mask id="mask0_9149_3317" style="mask-type:luminance" maskUnits="userSpaceOnUse" x="0" y="0" width="223" height="189">
<path d="M0 0.208496H223V188.623H0V0.208496Z" fill="white"/>
</mask>
<g mask="url(#mask0_9149_3317)">
<path d="M168.441 0.208496C139.972 0.208496 116.7 22.0235 114.224 49.7909H19.8983C9.00425 49.7909 0.0916748 58.717 0.0916748 69.6245V168.789C0.0916748 179.697 9.00425 188.623 19.8983 188.623H183.296C194.19 188.623 203.102 179.697 203.102 168.789V96.8945C215.233 86.9791 222.909 71.8559 222.909 54.7486C222.909 24.7524 198.397 0.208496 168.441 0.208496ZM19.8983 59.7063H114.224C115.708 76.8137 125.118 91.4394 138.733 100.365L104.816 129.62C102.835 131.354 100.112 131.354 98.3774 129.62L17.9168 59.9564C18.4115 59.7063 19.1536 59.7063 19.8983 59.7063ZM9.99364 168.789V69.6245C9.99364 68.6324 10.241 67.6403 10.491 66.6482L71.145 119.207L10.491 171.766C10.241 170.773 9.99364 169.781 9.99364 168.789ZM183.296 178.705H19.8983C19.1536 178.705 18.4115 178.705 17.9168 178.457L78.8208 125.651L91.941 137.056C94.6645 139.535 98.13 140.775 101.598 140.775C105.064 140.775 108.529 139.535 111.253 137.056L124.373 125.651L185.277 178.457C184.782 178.705 184.04 178.705 183.296 178.705ZM193.2 168.789C193.2 169.781 192.953 170.773 192.703 171.766L132.049 119.207L148.14 105.323C154.329 107.802 161.263 109.291 168.441 109.291C177.354 109.291 185.772 107.06 193.2 103.339V168.789ZM168.441 99.3734C143.932 99.3734 123.878 79.2925 123.878 54.7486C123.878 30.2048 143.932 10.1239 168.441 10.1239C192.953 10.1239 213.004 30.2048 213.004 54.7486C213.004 79.2925 192.953 99.3734 168.441 99.3734Z" fill="url(#paint0_linear_9149_3317)"/>
<path d="M192.953 42.3545C194.932 40.3704 194.932 37.3941 192.953 35.4127C190.972 33.4285 187.753 33.4285 186.019 35.66L158.045 63.6748L151.111 56.733C149.38 54.7488 146.161 54.7488 144.18 56.733C142.198 58.7171 142.198 61.6907 144.18 63.6748L154.579 74.0876C155.569 75.077 156.805 75.5744 158.045 75.5744C159.282 75.5744 160.521 75.077 161.51 74.0876L192.953 42.3545Z" fill="url(#paint1_linear_9149_3317)"/>
</g>
<defs>
<linearGradient id="paint0_linear_9149_3317" x1="222.909" y1="94.4157" x2="0.0916748" y2="94.4157" gradientUnits="userSpaceOnUse">
<stop stop-color="#ED1C24"/>
<stop offset="1" stop-color="#871015"/>
</linearGradient>
<linearGradient id="paint1_linear_9149_3317" x1="194.437" y1="54.7642" x2="142.694" y2="54.7642" gradientUnits="userSpaceOnUse">
<stop stop-color="#ED1C24"/>
<stop offset="1" stop-color="#871015"/>
</linearGradient>
</defs>
</svg>
