<svg width="41" height="40" viewBox="0 0 41 40" fill="none" xmlns="http://www.w3.org/2000/svg">
<g clip-path="url(#clip0_9149_3296)">
<path d="M28.4553 0.0200175C28.3703 -0.0749824 25.3078 0.0575176 22.6428 2.95002C19.9778 5.84002 20.3878 9.15501 20.4478 9.24002C20.5078 9.32502 24.2478 9.45751 26.6353 6.09502C29.0228 2.73252 28.5403 0.117518 28.4553 0.0200175ZM36.7403 29.3525C36.6203 29.1125 30.9278 26.2675 31.4578 20.7975C31.9878 15.325 35.6453 13.825 35.7028 13.6625C35.7603 13.5 34.2103 11.6875 32.5678 10.77C31.3618 10.1231 30.0271 9.75253 28.6603 9.68501C28.3903 9.67752 27.4528 9.44751 25.5253 9.97501C24.2553 10.3225 21.3928 11.4475 20.6053 11.4925C19.8153 11.5375 17.4653 10.1875 14.9378 9.83001C13.3203 9.51751 11.6053 10.1575 10.3778 10.65C9.1528 11.14 6.8228 12.535 5.1928 16.2425C3.5628 19.9475 4.4153 25.8175 5.0253 27.6425C5.6353 29.465 6.5878 32.4525 8.2078 34.6325C9.6478 37.0925 11.5578 38.8 12.3553 39.38C13.1528 39.96 15.4028 40.345 16.9628 39.5475C18.2178 38.7775 20.4828 38.335 21.3778 38.3675C22.2703 38.4 24.0303 38.7525 25.8328 39.715C27.2603 40.2075 28.6103 40.0025 29.9628 39.4525C31.3153 38.9 33.2728 36.805 35.5578 32.5575C36.4253 30.5825 36.8203 29.515 36.7403 29.3525Z" fill="black"/>
<path d="M28.4553 0.0200175C28.3703 -0.0749824 25.3078 0.0575176 22.6428 2.95002C19.9778 5.84002 20.3878 9.15501 20.4478 9.24002C20.5078 9.32502 24.2478 9.45751 26.6353 6.09502C29.0228 2.73252 28.5403 0.117518 28.4553 0.0200175ZM36.7403 29.3525C36.6203 29.1125 30.9278 26.2675 31.4578 20.7975C31.9878 15.325 35.6453 13.825 35.7028 13.6625C35.7603 13.5 34.2103 11.6875 32.5678 10.77C31.3618 10.1231 30.0271 9.75253 28.6603 9.68501C28.3903 9.67752 27.4528 9.44751 25.5253 9.97501C24.2553 10.3225 21.3928 11.4475 20.6053 11.4925C19.8153 11.5375 17.4653 10.1875 14.9378 9.83001C13.3203 9.51751 11.6053 10.1575 10.3778 10.65C9.1528 11.14 6.8228 12.535 5.1928 16.2425C3.5628 19.9475 4.4153 25.8175 5.0253 27.6425C5.6353 29.465 6.5878 32.4525 8.2078 34.6325C9.6478 37.0925 11.5578 38.8 12.3553 39.38C13.1528 39.96 15.4028 40.345 16.9628 39.5475C18.2178 38.7775 20.4828 38.335 21.3778 38.3675C22.2703 38.4 24.0303 38.7525 25.8328 39.715C27.2603 40.2075 28.6103 40.0025 29.9628 39.4525C31.3153 38.9 33.2728 36.805 35.5578 32.5575C36.4253 30.5825 36.8203 29.515 36.7403 29.3525Z" fill="black"/>
</g>
<defs>
<clipPath id="clip0_9149_3296">
<rect width="40" height="40" fill="white" transform="translate(0.500488)"/>
</clipPath>
</defs>
</svg>