<svg width="285" height="265" viewBox="0 0 285 265" fill="none" xmlns="http://www.w3.org/2000/svg">
<g clip-path="url(#clip0_11094_16567)">
<path d="M284.999 191.651L272.322 194.275C260.731 196.673 251.675 205.73 249.276 217.32L246.654 229.997L244.031 217.32C241.632 205.73 232.576 196.673 220.985 194.275L208.308 191.651L220.985 189.028C232.576 186.63 241.632 177.574 244.031 165.985L246.654 153.308L249.276 165.985C251.675 177.574 260.731 186.63 272.322 189.028L284.999 191.651Z" fill="#EED124"/>
<path d="M95.6386 227.983L86.5429 230.491C78.227 232.788 71.7309 241.45 70.0109 252.538L68.1277 264.667L66.2445 252.538C64.5245 241.45 58.0253 232.788 49.7095 230.491L40.6138 227.983L49.7095 225.474C58.0253 223.18 64.5245 214.515 66.2445 203.427L68.1277 191.301L70.0109 203.427C71.7309 214.515 78.227 223.18 86.5429 225.474L95.6386 227.983Z" fill="#EED124"/>
<path d="M281.675 86.5127L277.383 87.7102C273.458 88.8048 270.392 92.9406 269.579 98.2304L268.691 104.019L267.803 98.2304C266.991 92.9406 263.925 88.8048 260 87.7102L255.708 86.5127L260 85.3152C263.925 84.2206 266.991 80.0864 267.803 74.795L268.691 69.0068L269.579 74.795C270.392 80.0864 273.458 84.2206 277.383 85.3152L281.675 86.5127Z" fill="#EED124"/>
<path d="M21.2613 131.173L17.7465 132.155C14.534 133.05 12.0229 136.435 11.3586 140.769L10.6299 145.507L9.90277 140.769C9.2384 136.435 6.72732 133.05 3.51487 132.155L0 131.173L3.51487 130.192C6.72732 129.297 9.2384 125.91 9.90277 121.578L10.6299 116.84L11.3586 121.578C12.0229 125.91 14.534 129.297 17.7465 130.192L21.2613 131.173Z" fill="#EED124"/>
<path d="M97.8509 19.7655L93.0105 21.1157C88.5851 22.3518 85.1282 27.0131 84.2128 32.9797L83.2107 39.5072L82.2085 32.9797C81.2932 27.0131 77.8346 22.3518 73.4092 21.1157L68.5688 19.7655L73.4092 18.4153C77.8346 17.1809 81.2932 12.5179 82.2085 6.55131L83.2107 0.0253906L84.2128 6.55131C85.1282 12.5179 88.5851 17.1809 93.0105 18.4153L97.8509 19.7655Z" fill="#EED124"/>
<path d="M230.301 29.3755L227.944 30.0313C225.79 30.6324 224.108 32.902 223.662 35.8065L223.175 38.9827L222.687 35.8065C222.242 32.902 220.559 30.6324 218.405 30.0313L216.048 29.3755L218.405 28.718C220.559 28.1169 222.242 25.8473 222.687 22.9428L223.175 19.7666L223.662 22.9428C224.108 25.8473 225.79 28.1169 227.944 28.718L230.301 29.3755Z" fill="#EED124"/>
<path d="M219.324 129.732L209.98 115.017L215.523 98.5025C216.273 96.2487 215.339 93.7734 213.278 92.594L198.158 83.8915L195.378 66.695C194.991 64.3492 193.01 62.5992 190.636 62.5011L173.198 61.8193L162.734 47.878C161.307 45.9742 158.724 45.341 156.589 46.3667L140.836 53.8472L125.078 46.3606C122.937 45.3471 120.366 45.9803 118.932 47.878L108.47 61.8193L91.0316 62.5011C88.6629 62.5931 86.6761 64.3431 86.2952 66.6889L83.5142 83.8854L68.3952 92.5879C66.3345 93.7674 65.3933 96.2427 66.144 98.4964L71.6859 115.011L62.3488 129.732C61.0753 131.74 61.4016 134.363 63.1178 136.009L75.709 148.065L74.2937 165.42C74.1032 167.797 75.6046 169.965 77.8862 170.629L94.6485 175.45L101.47 191.485C102.405 193.666 104.748 194.93 107.074 194.427L124.173 190.927L137.669 201.963C138.585 202.706 139.711 203.093 140.836 203.093C141.962 203.093 143.081 202.706 144.004 201.963L157.5 190.927L174.6 194.427C176.919 194.918 179.274 193.672 180.203 191.485L187.025 175.45L203.787 170.629C206.069 169.971 207.569 167.797 207.379 165.42L205.964 148.065L218.555 136.009C220.272 134.363 220.598 131.74 219.324 129.732ZM176.987 105.713L141.981 158.075C140.658 160.029 138.61 161.337 136.574 161.337C134.544 161.337 132.274 160.201 130.828 158.751L105.129 132.68C103.377 130.899 103.377 128.013 105.129 126.231L111.472 119.783C113.224 118.027 116.072 118.027 117.813 119.783L134.537 136.746L162.119 95.487C163.503 93.4052 166.314 92.8772 168.357 94.2833L175.793 99.3866C177.842 100.8 178.371 103.643 176.987 105.713Z" fill="#E11F25"/>
</g>
<defs>
<clipPath id="clip0_11094_16567">
<rect width="285" height="264.643" fill="white" transform="translate(0 0.0244141)"/>
</clipPath>
</defs>
</svg>
