<svg width="442" height="378" viewBox="0 0 442 378" fill="none" xmlns="http://www.w3.org/2000/svg">
<path d="M137.633 120.745L165.836 292.127H363.593L376.924 146.432L137.633 120.745Z" fill="#F5F5F5"/>
<path d="M333.792 174.831C334.48 174.892 335.157 175.018 335.819 175.212C336.481 175.407 337.118 175.666 337.73 175.986C338.342 176.306 338.918 176.684 339.454 177.12C339.99 177.555 340.476 178.041 340.919 178.574C341.358 179.103 341.743 179.675 342.071 180.283C342.394 180.892 342.661 181.525 342.859 182.187C343.06 182.846 343.193 183.523 343.262 184.21C343.327 184.898 343.327 185.585 343.258 186.269L336.139 256.791C336.092 257.219 336.006 257.641 335.88 258.051C335.754 258.461 335.592 258.857 335.39 259.239C335.189 259.617 334.955 259.976 334.689 260.311C334.419 260.646 334.12 260.955 333.792 261.233C333.468 261.513 333.116 261.758 332.741 261.97C332.371 262.183 331.978 262.359 331.572 262.499C331.165 262.636 330.748 262.737 330.323 262.798C329.898 262.856 329.47 262.877 329.038 262.856C328.61 262.834 328.185 262.773 327.767 262.669C327.35 262.568 326.947 262.427 326.554 262.251C326.162 262.071 325.791 261.859 325.442 261.61C325.09 261.362 324.766 261.081 324.467 260.772C324.172 260.462 323.905 260.128 323.672 259.768C323.434 259.408 323.236 259.026 323.074 258.63C322.912 258.231 322.79 257.821 322.707 257.399C322.621 256.978 322.577 256.554 322.574 256.122L322.426 185.247C322.423 184.52 322.498 183.803 322.646 183.094C322.793 182.382 323.013 181.698 323.304 181.032C323.596 180.37 323.952 179.74 324.373 179.153C324.798 178.563 325.277 178.023 325.809 177.534C326.346 177.041 326.925 176.612 327.548 176.245C328.174 175.874 328.829 175.572 329.517 175.342C330.204 175.108 330.906 174.949 331.629 174.863C332.349 174.777 333.069 174.766 333.792 174.831Z" fill="#A9AFC4"/>
<path d="M296.121 357.319C296.121 357.899 296.093 358.478 296.035 359.054C295.977 359.634 295.891 360.206 295.78 360.775C295.664 361.343 295.524 361.905 295.355 362.463C295.189 363.017 294.991 363.56 294.772 364.097C294.549 364.633 294.3 365.158 294.027 365.669C293.753 366.181 293.454 366.677 293.134 367.159C292.81 367.645 292.465 368.11 292.098 368.556C291.727 369.006 291.338 369.434 290.928 369.844C290.518 370.255 290.089 370.647 289.639 371.014C289.189 371.381 288.725 371.727 288.243 372.051C287.761 372.371 287.26 372.67 286.749 372.943C286.238 373.217 285.713 373.465 285.176 373.685C284.64 373.908 284.097 374.102 283.539 374.271C282.984 374.441 282.423 374.581 281.851 374.696C281.282 374.808 280.71 374.894 280.13 374.948C279.554 375.006 278.975 375.034 278.396 375.034C277.812 375.034 277.233 375.006 276.657 374.948C276.078 374.894 275.505 374.808 274.937 374.696C274.364 374.581 273.803 374.441 273.249 374.271C272.694 374.102 272.147 373.908 271.611 373.685C271.075 373.465 270.549 373.217 270.038 372.943C269.527 372.67 269.027 372.371 268.545 372.051C268.062 371.727 267.598 371.381 267.148 371.014C266.698 370.647 266.27 370.255 265.86 369.844C265.449 369.434 265.061 369.006 264.69 368.556C264.323 368.11 263.977 367.645 263.653 367.159C263.333 366.677 263.034 366.181 262.761 365.669C262.487 365.158 262.239 364.633 262.016 364.097C261.796 363.56 261.598 363.017 261.433 362.463C261.263 361.905 261.123 361.343 261.008 360.775C260.896 360.206 260.81 359.634 260.752 359.054C260.695 358.478 260.666 357.899 260.666 357.319C260.666 356.736 260.695 356.16 260.752 355.581C260.81 355.005 260.896 354.429 261.008 353.861C261.123 353.292 261.263 352.73 261.433 352.176C261.598 351.622 261.796 351.075 262.016 350.538C262.239 350.002 262.487 349.477 262.761 348.966C263.034 348.455 263.333 347.958 263.653 347.476C263.977 346.993 264.323 346.529 264.69 346.079C265.061 345.629 265.449 345.201 265.86 344.791C266.27 344.38 266.698 343.992 267.148 343.624C267.598 343.254 268.062 342.908 268.545 342.588C269.027 342.264 269.527 341.965 270.038 341.692C270.549 341.422 271.075 341.173 271.611 340.95C272.147 340.727 272.694 340.533 273.249 340.364C273.803 340.194 274.364 340.054 274.937 339.943C275.505 339.827 276.078 339.745 276.657 339.687C277.233 339.629 277.812 339.601 278.396 339.601C278.975 339.601 279.554 339.629 280.13 339.687C280.71 339.745 281.282 339.827 281.851 339.943C282.423 340.054 282.984 340.194 283.539 340.364C284.097 340.533 284.64 340.727 285.176 340.95C285.713 341.173 286.238 341.418 286.749 341.692C287.26 341.965 287.761 342.264 288.243 342.588C288.725 342.908 289.189 343.254 289.639 343.624C290.089 343.992 290.518 344.38 290.928 344.791C291.338 345.201 291.727 345.629 292.098 346.079C292.465 346.529 292.81 346.993 293.134 347.476C293.454 347.958 293.753 348.455 294.027 348.966C294.3 349.477 294.549 350.002 294.772 350.538C294.991 351.075 295.189 351.622 295.355 352.176C295.524 352.73 295.664 353.292 295.78 353.861C295.891 354.433 295.977 355.005 296.035 355.581C296.093 356.16 296.121 356.736 296.121 357.319Z" fill="#5E6175"/>
<path d="M121.593 357.319C121.593 357.899 121.564 358.478 121.506 359.054C121.449 359.634 121.366 360.206 121.251 360.775C121.139 361.343 120.999 361.905 120.83 362.463C120.661 363.017 120.466 363.56 120.243 364.097C120.02 364.633 119.775 365.158 119.498 365.669C119.225 366.181 118.929 366.677 118.606 367.159C118.282 367.645 117.936 368.11 117.569 368.556C117.202 369.006 116.813 369.434 116.403 369.844C115.989 370.255 115.561 370.647 115.111 371.014C114.664 371.381 114.197 371.727 113.714 372.051C113.232 372.371 112.735 372.67 112.224 372.943C111.709 373.217 111.188 373.465 110.651 373.685C110.115 373.908 109.568 374.102 109.014 374.271C108.456 374.441 107.894 374.581 107.326 374.696C106.757 374.808 106.181 374.894 105.605 374.948C105.026 375.006 104.446 375.034 103.867 375.034C103.287 375.034 102.708 375.006 102.128 374.948C101.553 374.894 100.977 374.808 100.408 374.696C99.8394 374.581 99.2779 374.441 98.7201 374.271C98.1658 374.102 97.6187 373.908 97.0824 373.685C96.5462 373.465 96.0243 373.217 95.5096 372.943C94.9985 372.67 94.5018 372.371 94.0195 372.051C93.5372 371.727 93.0693 371.381 92.623 371.014C92.1732 370.647 91.7449 370.255 91.3309 369.844C90.9206 369.434 90.5319 369.006 90.1648 368.556C89.7977 368.11 89.4522 367.645 89.1282 367.159C88.8043 366.677 88.5092 366.181 88.2321 365.669C87.9585 365.158 87.7138 364.633 87.4906 364.097C87.2675 363.56 87.0731 363.017 86.904 362.463C86.7348 361.905 86.5944 361.343 86.4829 360.775C86.3677 360.206 86.2813 359.634 86.2273 359.054C86.1697 358.478 86.1409 357.899 86.1409 357.319C86.1409 356.736 86.1697 356.16 86.2273 355.581C86.2813 355.005 86.3677 354.429 86.4829 353.861C86.5944 353.292 86.7348 352.73 86.904 352.176C87.0731 351.622 87.2675 351.075 87.4906 350.538C87.7138 350.002 87.9585 349.477 88.2321 348.966C88.5092 348.455 88.8043 347.958 89.1282 347.476C89.4522 346.993 89.7977 346.529 90.1648 346.079C90.5319 345.629 90.9206 345.201 91.3309 344.791C91.7449 344.38 92.1732 343.992 92.623 343.624C93.0693 343.254 93.5372 342.908 94.0195 342.588C94.5018 342.264 94.9985 341.965 95.5096 341.692C96.0243 341.422 96.5462 341.173 97.0824 340.95C97.6187 340.727 98.1658 340.533 98.7201 340.364C99.2779 340.194 99.8394 340.054 100.408 339.943C100.977 339.827 101.553 339.745 102.128 339.687C102.708 339.629 103.287 339.601 103.867 339.601C104.446 339.601 105.026 339.629 105.605 339.687C106.181 339.745 106.757 339.827 107.326 339.943C107.894 340.054 108.456 340.194 109.014 340.364C109.568 340.533 110.115 340.727 110.651 340.95C111.188 341.173 111.709 341.418 112.224 341.692C112.735 341.965 113.232 342.264 113.714 342.588C114.197 342.908 114.664 343.254 115.111 343.624C115.561 343.992 115.989 344.38 116.403 344.791C116.813 345.201 117.202 345.629 117.569 346.079C117.936 346.529 118.282 346.993 118.606 347.476C118.929 347.958 119.225 348.455 119.498 348.966C119.775 349.477 120.02 350.002 120.243 350.538C120.466 351.075 120.661 351.622 120.83 352.176C120.999 352.73 121.139 353.292 121.251 353.861C121.366 354.433 121.449 355.005 121.506 355.581C121.564 356.16 121.593 356.736 121.593 357.319Z" fill="#5E6175"/>
<mask id="mask0_11094_16231" style="mask-type:luminance" maskUnits="userSpaceOnUse" x="82" y="335" width="44" height="43">
<path d="M82.8472 335.89H125.231V378H82.8472V335.89Z" fill="white"/>
</mask>
<g mask="url(#mask0_11094_16231)">
<path d="M103.866 378.001C103.189 378.001 102.513 377.968 101.836 377.903C101.163 377.835 100.494 377.734 99.8278 377.605C99.1619 377.471 98.5033 377.306 97.8554 377.112C97.2076 376.914 96.5705 376.687 95.9443 376.428C95.318 376.169 94.7061 375.877 94.1051 375.557C93.5076 375.24 92.9281 374.891 92.3631 374.513C91.8016 374.139 91.2545 373.736 90.7326 373.304C90.2072 372.875 89.7069 372.418 89.2282 371.94C88.7459 371.461 88.2924 370.961 87.8605 370.435C87.4322 369.913 87.0291 369.37 86.6512 368.805C86.2733 368.243 85.9277 367.66 85.6074 367.063C85.2871 366.465 84.9992 365.853 84.74 365.227C84.4773 364.601 84.2505 363.964 84.0526 363.316C83.8582 362.668 83.6927 362.009 83.5595 361.347C83.4263 360.681 83.3291 360.012 83.2608 359.335C83.196 358.662 83.1636 357.986 83.1636 357.309C83.1636 356.632 83.196 355.956 83.2608 355.279C83.3291 354.606 83.4263 353.936 83.5595 353.271C83.6927 352.608 83.8582 351.95 84.0526 351.302C84.2505 350.654 84.4773 350.017 84.74 349.391C84.9992 348.764 85.2871 348.153 85.6074 347.555C85.9277 346.958 86.2733 346.375 86.6512 345.813C87.0291 345.248 87.4322 344.705 87.8605 344.183C88.2924 343.657 88.7459 343.157 89.2282 342.678C89.7069 342.2 90.2072 341.742 90.7326 341.314C91.2545 340.882 91.8016 340.479 92.3631 340.105C92.9281 339.727 93.5076 339.378 94.1051 339.061C94.7061 338.741 95.318 338.449 95.9443 338.19C96.5705 337.931 97.2076 337.704 97.8554 337.506C98.5033 337.312 99.1619 337.146 99.8278 337.013C100.494 336.88 101.163 336.783 101.836 336.714C102.513 336.65 103.189 336.617 103.866 336.617C104.543 336.617 105.219 336.65 105.896 336.714C106.569 336.783 107.238 336.88 107.904 337.013C108.57 337.146 109.225 337.312 109.877 337.506C110.525 337.704 111.162 337.931 111.788 338.19C112.414 338.449 113.026 338.741 113.627 339.061C114.224 339.378 114.804 339.727 115.369 340.105C115.93 340.479 116.478 340.882 116.999 341.314C117.525 341.742 118.025 342.2 118.504 342.678C118.986 343.157 119.44 343.657 119.872 344.183C120.3 344.705 120.703 345.248 121.081 345.813C121.455 346.375 121.804 346.958 122.125 347.555C122.445 348.153 122.733 348.764 122.992 349.391C123.251 350.017 123.482 350.654 123.68 351.302C123.874 351.95 124.039 352.608 124.173 353.271C124.302 353.936 124.403 354.606 124.471 355.279C124.536 355.956 124.569 356.632 124.569 357.309C124.569 357.986 124.536 358.662 124.471 359.335C124.403 360.012 124.302 360.681 124.173 361.347C124.039 362.009 123.874 362.668 123.68 363.316C123.482 363.964 123.251 364.601 122.992 365.227C122.733 365.853 122.445 366.465 122.125 367.063C121.804 367.66 121.455 368.243 121.081 368.805C120.703 369.37 120.3 369.913 119.872 370.435C119.44 370.961 118.986 371.461 118.504 371.94C118.025 372.418 117.525 372.875 116.999 373.304C116.478 373.736 115.93 374.139 115.369 374.513C114.804 374.891 114.224 375.24 113.627 375.557C113.026 375.877 112.414 376.169 111.788 376.428C111.162 376.687 110.525 376.914 109.877 377.112C109.225 377.306 108.57 377.471 107.904 377.605C107.238 377.734 106.569 377.835 105.896 377.903C105.219 377.968 104.543 378.001 103.866 378.001ZM103.866 342.527C103.38 342.527 102.898 342.552 102.416 342.599C101.933 342.646 101.455 342.718 100.98 342.811C100.504 342.909 100.037 343.024 99.5722 343.164C99.1079 343.304 98.6544 343.47 98.2081 343.654C97.7582 343.837 97.3227 344.046 96.8944 344.273C96.4661 344.503 96.0522 344.751 95.6491 345.018C95.246 345.288 94.8573 345.576 94.483 345.885C94.1087 346.191 93.7524 346.515 93.4104 346.857C93.0649 347.199 92.741 347.559 92.4351 347.933C92.1291 348.307 91.8376 348.696 91.5713 349.096C91.3013 349.499 91.053 349.916 90.8226 350.341C90.5959 350.769 90.3871 351.205 90.2036 351.651C90.0164 352.101 89.8544 352.554 89.7141 353.019C89.5737 353.483 89.4549 353.951 89.3614 354.426C89.2678 354.901 89.1958 355.38 89.149 355.858C89.1022 356.341 89.077 356.823 89.077 357.309C89.077 357.791 89.1022 358.277 89.149 358.756C89.1958 359.238 89.2678 359.717 89.3614 360.192C89.4549 360.667 89.5737 361.135 89.7141 361.599C89.8544 362.063 90.0164 362.517 90.2036 362.963C90.3871 363.413 90.5959 363.849 90.8226 364.277C91.053 364.702 91.3013 365.119 91.5713 365.519C91.8376 365.922 92.1291 366.31 92.4351 366.685C92.741 367.059 93.0649 367.419 93.4104 367.761C93.7524 368.103 94.1087 368.427 94.483 368.733C94.8573 369.042 95.246 369.33 95.6491 369.596C96.0522 369.866 96.4661 370.115 96.8944 370.345C97.3227 370.572 97.7582 370.777 98.2081 370.964C98.6544 371.148 99.1079 371.313 99.5722 371.454C100.037 371.594 100.504 371.709 100.98 371.806C101.455 371.9 101.933 371.972 102.416 372.019C102.898 372.065 103.38 372.091 103.866 372.091C104.352 372.091 104.834 372.065 105.317 372.019C105.799 371.972 106.277 371.9 106.753 371.806C107.228 371.709 107.696 371.594 108.16 371.454C108.621 371.313 109.078 371.148 109.524 370.964C109.974 370.777 110.409 370.572 110.838 370.345C111.266 370.115 111.68 369.866 112.083 369.596C112.486 369.33 112.875 369.042 113.249 368.733C113.623 368.427 113.98 368.103 114.322 367.761C114.664 367.419 114.991 367.059 115.297 366.685C115.603 366.31 115.894 365.922 116.161 365.519C116.431 365.119 116.679 364.702 116.909 364.277C117.136 363.849 117.341 363.413 117.529 362.963C117.712 362.517 117.878 362.063 118.018 361.599C118.158 361.135 118.277 360.667 118.371 360.192C118.464 359.717 118.536 359.238 118.583 358.756C118.63 358.277 118.655 357.791 118.655 357.309C118.651 356.827 118.63 356.344 118.579 355.862C118.533 355.38 118.461 354.905 118.364 354.43C118.27 353.954 118.151 353.487 118.011 353.026C117.87 352.562 117.705 352.108 117.521 351.662C117.334 351.215 117.125 350.78 116.899 350.352C116.668 349.927 116.42 349.513 116.15 349.11C115.884 348.71 115.596 348.322 115.286 347.947C114.98 347.577 114.656 347.217 114.311 346.875C113.969 346.537 113.613 346.213 113.238 345.903C112.864 345.597 112.475 345.313 112.072 345.043C111.669 344.773 111.255 344.528 110.83 344.298C110.402 344.071 109.967 343.866 109.517 343.679C109.07 343.495 108.617 343.333 108.153 343.193C107.692 343.053 107.22 342.934 106.749 342.84C106.274 342.747 105.795 342.675 105.313 342.628C104.831 342.581 104.348 342.559 103.866 342.559V342.527Z" fill="#5E6175"/>
</g>
<mask id="mask1_11094_16231" style="mask-type:luminance" maskUnits="userSpaceOnUse" x="256" y="335" width="44" height="43">
<path d="M256.99 335.89H299.374V378H256.99V335.89Z" fill="white"/>
</mask>
<g mask="url(#mask1_11094_16231)">
<path d="M278.428 378.001C277.748 378.001 277.071 377.968 276.398 377.903C275.722 377.835 275.052 377.734 274.39 377.605C273.724 377.471 273.065 377.306 272.418 377.112C271.77 376.914 271.129 376.687 270.503 376.428C269.877 376.169 269.265 375.877 268.667 375.557C268.07 375.24 267.49 374.891 266.925 374.513C266.36 374.139 265.817 373.736 265.295 373.304C264.769 372.875 264.265 372.418 263.787 371.94C263.308 371.461 262.855 370.961 262.423 370.435C261.994 369.913 261.591 369.37 261.213 368.805C260.835 368.243 260.49 367.66 260.17 367.063C259.849 366.465 259.558 365.853 259.299 365.227C259.039 364.601 258.813 363.964 258.615 363.316C258.417 362.668 258.255 362.009 258.122 361.347C257.989 360.681 257.891 360.012 257.823 359.335C257.758 358.662 257.722 357.986 257.722 357.309C257.722 356.632 257.758 355.956 257.823 355.279C257.891 354.606 257.989 353.936 258.122 353.271C258.255 352.608 258.417 351.95 258.615 351.302C258.813 350.654 259.039 350.017 259.299 349.391C259.558 348.764 259.849 348.153 260.17 347.555C260.49 346.958 260.835 346.375 261.213 345.813C261.591 345.248 261.994 344.705 262.423 344.183C262.855 343.657 263.308 343.157 263.787 342.678C264.265 342.2 264.769 341.742 265.295 341.314C265.817 340.882 266.36 340.479 266.925 340.105C267.49 339.727 268.07 339.378 268.667 339.061C269.265 338.741 269.877 338.449 270.503 338.19C271.129 337.931 271.77 337.704 272.418 337.506C273.065 337.312 273.724 337.146 274.39 337.013C275.052 336.88 275.722 336.783 276.398 336.714C277.071 336.65 277.748 336.617 278.428 336.617C279.105 336.617 279.782 336.65 280.458 336.714C281.131 336.783 281.801 336.88 282.467 337.013C283.132 337.146 283.787 337.312 284.439 337.506C285.087 337.704 285.724 337.931 286.35 338.19C286.976 338.449 287.588 338.741 288.186 339.061C288.783 339.378 289.366 339.727 289.931 340.105C290.493 340.479 291.036 340.882 291.562 341.314C292.087 341.742 292.587 342.2 293.066 342.678C293.545 343.157 294.002 343.657 294.43 344.183C294.862 344.705 295.265 345.248 295.643 345.813C296.017 346.375 296.367 346.958 296.687 347.555C297.007 348.153 297.295 348.764 297.554 349.391C297.813 350.017 298.044 350.654 298.238 351.302C298.436 351.95 298.602 352.608 298.731 353.271C298.864 353.936 298.965 354.606 299.03 355.279C299.098 355.956 299.131 356.632 299.131 357.309C299.131 357.986 299.098 358.662 299.03 359.335C298.965 360.012 298.864 360.681 298.731 361.347C298.602 362.009 298.436 362.668 298.238 363.316C298.044 363.964 297.813 364.601 297.554 365.227C297.295 365.853 297.007 366.465 296.687 367.063C296.367 367.66 296.017 368.243 295.643 368.805C295.265 369.37 294.862 369.913 294.43 370.435C294.002 370.961 293.545 371.461 293.066 371.94C292.587 372.418 292.087 372.875 291.562 373.304C291.036 373.736 290.493 374.139 289.931 374.513C289.366 374.891 288.783 375.24 288.186 375.557C287.588 375.877 286.976 376.169 286.35 376.428C285.724 376.687 285.087 376.914 284.439 377.112C283.787 377.306 283.132 377.471 282.467 377.605C281.801 377.734 281.131 377.835 280.458 377.903C279.782 377.968 279.105 378.001 278.428 378.001ZM278.428 342.527C277.942 342.527 277.46 342.552 276.978 342.599C276.495 342.646 276.017 342.718 275.542 342.811C275.067 342.909 274.599 343.024 274.134 343.164C273.67 343.304 273.217 343.47 272.767 343.654C272.32 343.837 271.885 344.046 271.457 344.273C271.028 344.503 270.614 344.751 270.211 345.018C269.808 345.288 269.419 345.576 269.045 345.885C268.671 346.191 268.315 346.515 267.969 346.857C267.627 347.199 267.303 347.559 266.997 347.933C266.688 348.307 266.4 348.696 266.13 349.096C265.864 349.499 265.615 349.916 265.385 350.341C265.158 350.769 264.949 351.205 264.766 351.651C264.579 352.101 264.417 352.554 264.276 353.019C264.136 353.483 264.017 353.951 263.924 354.426C263.83 354.901 263.758 355.38 263.711 355.858C263.664 356.341 263.639 356.823 263.639 357.309C263.639 357.791 263.664 358.277 263.711 358.756C263.758 359.238 263.83 359.717 263.924 360.192C264.017 360.667 264.136 361.135 264.276 361.599C264.417 362.063 264.579 362.517 264.766 362.963C264.949 363.413 265.158 363.849 265.385 364.277C265.615 364.702 265.864 365.119 266.13 365.519C266.4 365.922 266.688 366.31 266.997 366.685C267.303 367.059 267.627 367.419 267.969 367.761C268.315 368.103 268.671 368.427 269.045 368.733C269.419 369.042 269.808 369.33 270.211 369.596C270.614 369.866 271.028 370.115 271.457 370.345C271.885 370.572 272.32 370.777 272.767 370.964C273.217 371.148 273.67 371.313 274.134 371.454C274.599 371.594 275.067 371.709 275.542 371.806C276.017 371.9 276.495 371.972 276.978 372.019C277.46 372.065 277.942 372.091 278.428 372.091C278.911 372.091 279.396 372.065 279.875 372.019C280.357 371.972 280.836 371.9 281.311 371.806C281.786 371.709 282.258 371.594 282.718 371.454C283.183 371.313 283.64 371.148 284.086 370.964C284.532 370.777 284.972 370.572 285.4 370.345C285.825 370.115 286.242 369.866 286.642 369.596C287.045 369.33 287.433 369.042 287.808 368.733C288.182 368.427 288.542 368.103 288.884 367.761C289.226 367.419 289.55 367.059 289.859 366.685C290.165 366.31 290.453 365.922 290.723 365.519C290.993 365.119 291.241 364.702 291.468 364.277C291.698 363.849 291.904 363.413 292.091 362.963C292.274 362.517 292.44 362.063 292.58 361.599C292.721 361.135 292.836 360.667 292.933 360.192C293.026 359.717 293.098 359.238 293.145 358.756C293.192 358.277 293.217 357.791 293.217 357.309C293.214 356.827 293.188 356.344 293.142 355.862C293.095 355.38 293.023 354.905 292.926 354.43C292.832 353.954 292.713 353.487 292.573 353.026C292.429 352.562 292.267 352.108 292.08 351.662C291.896 351.215 291.688 350.78 291.461 350.352C291.231 349.927 290.982 349.513 290.712 349.11C290.442 348.71 290.154 348.322 289.848 347.947C289.542 347.577 289.215 347.217 288.873 346.875C288.531 346.537 288.175 346.213 287.8 345.903C287.426 345.597 287.037 345.313 286.634 345.043C286.231 344.773 285.817 344.528 285.389 344.298C284.964 344.071 284.525 343.866 284.079 343.679C283.633 343.495 283.179 343.333 282.715 343.193C282.251 343.053 281.783 342.934 281.308 342.84C280.836 342.747 280.357 342.675 279.875 342.628C279.393 342.581 278.911 342.559 278.428 342.559V342.527Z" fill="#5E6175"/>
</g>
<path d="M112.649 64.6844L125.206 52.1377L129.389 56.3163L116.835 68.8667L112.649 64.6844Z" fill="#5E6175"/>
<path d="M97.1566 39.7393H103.07V57.4832H97.1566V39.7393Z" fill="#5E6175"/>
<path d="M124.527 77.3789H142.285V83.2888H124.527V77.3789Z" fill="#5E6175"/>
<path d="M137.636 120.745H60.5097L106.788 292.127H165.84L137.636 120.745Z" fill="#F5F5F5"/>
<path d="M366.296 295.082H163.324L134.085 117.395L380.139 143.802L366.296 295.082ZM168.352 289.172H360.894L373.711 149.064L141.182 124.103L168.352 289.172Z" fill="#5E6175"/>
<path d="M169.318 295.083H104.519L56.6027 117.787H140.107L169.318 295.083ZM109.053 289.173H162.357L135.119 123.701H64.3733L109.053 289.173Z" fill="#5E6175"/>
<path d="M144.481 123.7H59.2413L21.7019 84.6025H107.571L144.481 123.7ZM61.7679 117.787H130.779L105.016 90.5124H35.5731L61.7679 117.787Z" fill="#5E6175"/>
<mask id="mask2_11094_16231" style="mask-type:luminance" maskUnits="userSpaceOnUse" x="0" y="76" width="110" height="23">
<path d="M0.903442 76.9785H109.57V98.1705H0.903442V76.9785Z" fill="white"/>
</mask>
<g mask="url(#mask2_11094_16231)">
<path d="M99.0773 97.6557H11.5417C10.8759 97.6557 10.2136 97.5909 9.56216 97.4613C8.90711 97.3318 8.27366 97.1374 7.6582 96.8855C7.04274 96.6299 6.45967 96.3168 5.9054 95.9461C5.35113 95.5754 4.83644 95.1579 4.36855 94.6864C3.89706 94.2149 3.47595 93.7038 3.10524 93.1495C2.73452 92.5953 2.4214 92.0122 2.16945 91.3967C1.91391 90.7813 1.71956 90.1478 1.58999 89.4928C1.46042 88.8413 1.39563 88.1827 1.39563 87.5168C1.39563 86.851 1.46042 86.1923 1.58999 85.5373C1.71956 84.8858 1.91391 84.2524 2.16945 83.6369C2.4214 83.0214 2.73452 82.4384 3.10524 81.8841C3.47595 81.3298 3.89706 80.8187 4.36855 80.3473C4.83644 79.8758 5.35113 79.4547 5.9054 79.0875C6.45967 78.7168 7.04274 78.4037 7.6582 78.1482C8.27366 77.8926 8.90711 77.7019 9.56216 77.5723C10.2136 77.4427 10.8759 77.3779 11.5417 77.3779H99.0773C99.7431 77.3779 100.402 77.4427 101.057 77.5723C101.708 77.7019 102.342 77.8926 102.957 78.1482C103.573 78.4037 104.159 78.7168 104.714 79.0875C105.268 79.4547 105.779 79.8758 106.25 80.3473C106.722 80.8187 107.143 81.3298 107.51 81.8841C107.881 82.4384 108.194 83.0214 108.45 83.6369C108.705 84.2524 108.896 84.8858 109.025 85.5373C109.155 86.1923 109.22 86.851 109.22 87.5168C109.22 88.1827 109.155 88.8413 109.025 89.4928C108.896 90.1478 108.705 90.7813 108.45 91.3967C108.194 92.0122 107.881 92.5953 107.51 93.1495C107.143 93.7038 106.722 94.2149 106.25 94.6864C105.779 95.1579 105.268 95.5754 104.714 95.9461C104.159 96.3168 103.573 96.6299 102.957 96.8855C102.342 97.1374 101.708 97.3318 101.057 97.4613C100.402 97.5909 99.7431 97.6557 99.0773 97.6557ZM11.5417 83.2878C11.261 83.2878 10.9874 83.3166 10.7139 83.3706C10.444 83.4245 10.1776 83.5037 9.92208 83.6117C9.66654 83.7161 9.42179 83.8457 9.19145 84.0004C8.9611 84.1552 8.74515 84.3315 8.55079 84.5259C8.35284 84.7239 8.17648 84.9362 8.02531 85.1665C7.87055 85.3969 7.74098 85.6416 7.633 85.8972C7.52503 86.1563 7.44585 86.4191 7.39186 86.6926C7.33787 86.9625 7.31268 87.2397 7.31268 87.5168C7.31268 87.7939 7.33787 88.0675 7.39186 88.341C7.44585 88.6146 7.52503 88.8773 7.633 89.1328C7.74098 89.392 7.87055 89.6331 8.02531 89.8635C8.17648 90.0974 8.35284 90.3098 8.55079 90.5041C8.74515 90.7021 8.9611 90.8784 9.19145 91.0296C9.42179 91.1844 9.66654 91.3139 9.92208 91.4219C10.1776 91.5263 10.444 91.6091 10.7139 91.6631C10.9874 91.7171 11.261 91.7422 11.5417 91.7422H99.0773C99.3544 91.7422 99.628 91.7171 99.9015 91.6631C100.175 91.6091 100.438 91.5263 100.693 91.4219C100.952 91.3139 101.194 91.1844 101.428 91.0296C101.658 90.8784 101.87 90.7021 102.068 90.5041C102.263 90.3098 102.439 90.0974 102.594 89.8635C102.748 89.6331 102.878 89.392 102.982 89.1328C103.09 88.8773 103.17 88.6146 103.224 88.341C103.278 88.0675 103.306 87.7939 103.306 87.5168C103.306 87.2397 103.278 86.9625 103.224 86.6926C103.17 86.4191 103.09 86.1563 102.982 85.8972C102.878 85.6416 102.748 85.3969 102.594 85.1665C102.439 84.9362 102.263 84.7239 102.068 84.5259C101.87 84.3315 101.658 84.1552 101.428 84.0004C101.194 83.8457 100.952 83.7161 100.693 83.6117C100.438 83.5037 100.175 83.4245 99.9015 83.3706C99.628 83.3166 99.3544 83.2878 99.0773 83.2878H11.5417Z" fill="#5E6175"/>
</g>
<path d="M99.0766 80.333H11.541C11.0695 80.333 10.6016 80.3798 10.1373 80.4698C9.67304 80.5634 9.22674 80.7001 8.78764 80.8801C8.35214 81.06 7.93824 81.2832 7.54592 81.5423C7.15361 81.8051 6.7901 82.1038 6.45897 82.4385C6.12425 82.7697 5.82552 83.1332 5.56278 83.5255C5.30004 83.9178 5.08049 84.3317 4.90053 84.7672C4.72057 85.2027 4.5838 85.6526 4.49022 86.1169C4.40024 86.5776 4.35345 87.0455 4.35345 87.517C4.35345 87.9885 4.40024 88.4564 4.49022 88.917C4.5838 89.3813 4.72057 89.8312 4.90053 90.2667C5.08049 90.7022 5.30004 91.1161 5.56278 91.5085C5.82552 91.9008 6.12425 92.2607 6.45897 92.5954C6.7901 92.9301 7.15361 93.2289 7.54592 93.488C7.93824 93.7507 8.35214 93.9739 8.78764 94.1539C9.22674 94.3338 9.67304 94.4706 10.1373 94.5606C10.6016 94.6541 11.0695 94.7009 11.541 94.7009H99.0766C99.5481 94.7009 100.016 94.6541 100.477 94.5606C100.941 94.4706 101.391 94.3338 101.826 94.1539C102.262 93.9739 102.676 93.7507 103.068 93.488C103.46 93.2289 103.824 92.9301 104.159 92.5954C104.49 92.2607 104.788 91.9008 105.051 91.5085C105.314 91.1161 105.534 90.7022 105.717 90.2667C105.897 89.8312 106.034 89.3813 106.124 88.917C106.217 88.4564 106.264 87.9885 106.264 87.517C106.264 87.0455 106.217 86.5776 106.124 86.1169C106.034 85.6526 105.897 85.2027 105.717 84.7672C105.534 84.3317 105.314 83.9178 105.051 83.5255C104.788 83.1332 104.49 82.7697 104.159 82.4385C103.824 82.1038 103.46 81.8051 103.068 81.5423C102.676 81.2832 102.262 81.06 101.826 80.8801C101.391 80.7001 100.941 80.5634 100.477 80.4698C100.016 80.3798 99.5481 80.333 99.0766 80.333Z" fill="#5E6175"/>
<path d="M168.796 360.274H103.827V292.127H109.744V354.36H162.882V292.127H168.796V360.274Z" fill="#5E6175"/>
<path d="M338.586 360.274H162.885V292.127H168.798V354.36H338.586V360.274Z" fill="#5E6175"/>
<path d="M183.562 357.319C183.562 357.899 183.536 358.478 183.479 359.054C183.421 359.634 183.335 360.206 183.223 360.775C183.108 361.343 182.968 361.905 182.799 362.463C182.633 363.017 182.435 363.56 182.215 364.097C181.992 364.633 181.744 365.158 181.47 365.669C181.197 366.181 180.898 366.677 180.574 367.159C180.254 367.645 179.908 368.11 179.541 368.556C179.171 369.006 178.782 369.434 178.372 369.844C177.961 370.255 177.533 370.647 177.083 371.014C176.633 371.381 176.169 371.727 175.687 372.051C175.201 372.371 174.704 372.67 174.193 372.943C173.682 373.217 173.156 373.465 172.62 373.685C172.084 373.908 171.537 374.102 170.982 374.271C170.428 374.441 169.863 374.581 169.294 374.696C168.726 374.808 168.154 374.894 167.574 374.948C166.998 375.006 166.419 375.034 165.836 375.034C165.256 375.034 164.677 375.006 164.101 374.948C163.521 374.894 162.949 374.808 162.38 374.696C161.808 374.581 161.247 374.441 160.692 374.271C160.135 374.102 159.591 373.908 159.055 373.685C158.519 373.465 157.993 373.217 157.482 372.943C156.971 372.67 156.471 372.371 155.988 372.051C155.506 371.727 155.042 371.381 154.592 371.014C154.142 370.647 153.714 370.255 153.303 369.844C152.893 369.434 152.504 369.006 152.134 368.556C151.766 368.11 151.421 367.645 151.097 367.159C150.777 366.677 150.478 366.181 150.204 365.669C149.931 365.158 149.683 364.633 149.459 364.097C149.24 363.56 149.042 363.017 148.873 362.463C148.707 361.905 148.563 361.343 148.452 360.775C148.34 360.206 148.254 359.634 148.196 359.054C148.138 358.478 148.11 357.899 148.11 357.319C148.11 356.736 148.138 356.16 148.196 355.581C148.254 355.005 148.34 354.429 148.452 353.861C148.563 353.292 148.707 352.73 148.873 352.176C149.042 351.622 149.24 351.075 149.459 350.538C149.683 350.002 149.931 349.477 150.204 348.966C150.478 348.455 150.777 347.958 151.097 347.476C151.421 346.993 151.766 346.529 152.134 346.079C152.504 345.629 152.893 345.201 153.303 344.791C153.714 344.38 154.142 343.992 154.592 343.624C155.042 343.254 155.506 342.908 155.988 342.588C156.471 342.264 156.971 341.965 157.482 341.692C157.993 341.422 158.519 341.173 159.055 340.95C159.591 340.727 160.135 340.533 160.692 340.364C161.247 340.194 161.808 340.054 162.38 339.943C162.949 339.827 163.521 339.745 164.101 339.687C164.677 339.629 165.256 339.601 165.836 339.601C166.419 339.601 166.998 339.629 167.574 339.687C168.154 339.745 168.726 339.827 169.294 339.943C169.863 340.054 170.428 340.194 170.982 340.364C171.537 340.533 172.084 340.727 172.62 340.95C173.156 341.173 173.682 341.418 174.193 341.692C174.704 341.965 175.201 342.264 175.687 342.588C176.169 342.908 176.633 343.254 177.083 343.624C177.529 343.992 177.961 344.38 178.372 344.791C178.782 345.201 179.171 345.629 179.541 346.079C179.908 346.529 180.254 346.993 180.574 347.476C180.898 347.958 181.197 348.455 181.47 348.966C181.744 349.477 181.992 350.002 182.215 350.538C182.435 351.075 182.633 351.622 182.799 352.176C182.968 352.73 183.108 353.292 183.223 353.861C183.335 354.433 183.421 355.005 183.479 355.581C183.536 356.16 183.562 356.736 183.562 357.319Z" fill="#5E6175"/>
<path d="M356.319 357.319C356.319 357.899 356.291 358.478 356.233 359.054C356.175 359.634 356.093 360.206 355.977 360.775C355.866 361.343 355.726 361.905 355.556 362.463C355.387 363.017 355.193 363.56 354.97 364.097C354.747 364.633 354.498 365.158 354.225 365.669C353.951 366.181 353.656 366.677 353.332 367.159C353.008 367.645 352.663 368.11 352.296 368.556C351.928 369.006 351.536 369.434 351.126 369.844C350.715 370.255 350.287 370.647 349.837 371.014C349.391 371.381 348.923 371.727 348.441 372.051C347.959 372.371 347.462 372.67 346.951 372.943C346.436 373.217 345.914 373.465 345.378 373.685C344.842 373.908 344.295 374.102 343.74 374.271C343.182 374.441 342.621 374.581 342.052 374.696C341.484 374.808 340.908 374.894 340.332 374.948C339.752 375.006 339.173 375.034 338.593 375.034C338.014 375.034 337.435 375.006 336.855 374.948C336.279 374.894 335.703 374.808 335.135 374.696C334.566 374.581 334.004 374.441 333.447 374.271C332.892 374.102 332.345 373.908 331.809 373.685C331.273 373.465 330.751 373.217 330.236 372.943C329.725 372.67 329.228 372.371 328.746 372.051C328.264 371.727 327.796 371.381 327.346 371.014C326.9 370.647 326.468 370.255 326.058 369.844C325.647 369.434 325.258 369.006 324.891 368.556C324.521 368.11 324.175 367.645 323.855 367.159C323.531 366.677 323.232 366.181 322.959 365.669C322.685 365.158 322.437 364.633 322.217 364.097C321.994 363.56 321.8 363.017 321.631 362.463C321.461 361.905 321.321 361.343 321.209 360.775C321.094 360.206 321.008 359.634 320.954 359.054C320.896 358.478 320.867 357.899 320.867 357.319C320.867 356.736 320.896 356.16 320.954 355.581C321.008 355.005 321.094 354.429 321.209 353.861C321.321 353.292 321.461 352.73 321.631 352.176C321.8 351.622 321.994 351.075 322.217 350.538C322.437 350.002 322.685 349.477 322.959 348.966C323.232 348.455 323.531 347.958 323.855 347.476C324.175 346.993 324.521 346.529 324.891 346.079C325.258 345.629 325.647 345.201 326.058 344.791C326.468 344.38 326.9 343.992 327.346 343.624C327.796 343.254 328.264 342.908 328.746 342.588C329.228 342.264 329.725 341.965 330.236 341.692C330.751 341.422 331.273 341.173 331.809 340.95C332.345 340.727 332.892 340.533 333.447 340.364C334.004 340.194 334.566 340.054 335.135 339.943C335.703 339.827 336.279 339.745 336.855 339.687C337.435 339.629 338.014 339.601 338.593 339.601C339.173 339.601 339.752 339.629 340.332 339.687C340.908 339.745 341.484 339.827 342.052 339.943C342.621 340.054 343.182 340.194 343.74 340.364C344.295 340.533 344.842 340.727 345.378 340.95C345.914 341.173 346.436 341.418 346.951 341.692C347.462 341.965 347.959 342.264 348.441 342.588C348.923 342.908 349.391 343.254 349.837 343.624C350.287 343.992 350.715 344.38 351.126 344.791C351.536 345.201 351.928 345.629 352.296 346.079C352.663 346.529 353.008 346.993 353.332 347.476C353.656 347.958 353.951 348.455 354.225 348.966C354.498 349.477 354.747 350.002 354.97 350.538C355.193 351.075 355.387 351.622 355.556 352.176C355.726 352.73 355.866 353.292 355.977 353.861C356.093 354.433 356.175 355.005 356.233 355.581C356.291 356.16 356.319 356.736 356.319 357.319Z" fill="#5E6175"/>
<mask id="mask3_11094_16231" style="mask-type:luminance" maskUnits="userSpaceOnUse" x="144" y="335" width="43" height="43">
<path d="M144.582 335.89H186.965V378H144.582V335.89Z" fill="white"/>
</mask>
<g mask="url(#mask3_11094_16231)">
<path d="M165.838 378.001C165.162 378.001 164.485 377.968 163.812 377.903C163.135 377.835 162.466 377.734 161.8 377.605C161.134 377.471 160.479 377.306 159.831 377.112C159.18 376.914 158.543 376.687 157.917 376.428C157.29 376.169 156.678 375.877 156.081 375.557C155.483 375.24 154.9 374.891 154.339 374.513C153.774 374.139 153.23 373.736 152.705 373.304C152.183 372.875 151.679 372.418 151.2 371.94C150.722 371.461 150.265 370.961 149.836 370.435C149.404 369.913 149.001 369.37 148.627 368.805C148.249 368.243 147.9 367.66 147.58 367.063C147.263 366.465 146.971 365.853 146.712 365.227C146.453 364.601 146.226 363.964 146.028 363.316C145.831 362.668 145.665 362.009 145.535 361.347C145.402 360.681 145.301 360.012 145.237 359.335C145.168 358.662 145.136 357.986 145.136 357.309C145.136 356.632 145.168 355.956 145.237 355.279C145.301 354.606 145.402 353.936 145.535 353.271C145.665 352.608 145.831 351.95 146.028 351.302C146.226 350.654 146.453 350.017 146.712 349.391C146.971 348.764 147.263 348.153 147.58 347.555C147.9 346.958 148.249 346.375 148.627 345.813C149.001 345.248 149.404 344.705 149.836 344.183C150.265 343.657 150.722 343.157 151.2 342.678C151.679 342.2 152.183 341.742 152.705 341.314C153.23 340.882 153.774 340.479 154.339 340.105C154.9 339.727 155.483 339.378 156.081 339.061C156.678 338.741 157.29 338.449 157.917 338.19C158.543 337.931 159.18 337.704 159.831 337.506C160.479 337.312 161.134 337.146 161.8 337.013C162.466 336.88 163.135 336.783 163.812 336.714C164.485 336.65 165.162 336.617 165.838 336.617C166.519 336.617 167.195 336.65 167.868 336.714C168.545 336.783 169.214 336.88 169.88 337.013C170.542 337.146 171.201 337.312 171.849 337.506C172.497 337.704 173.137 337.931 173.764 338.19C174.39 338.449 175.002 338.741 175.599 339.061C176.197 339.378 176.78 339.727 177.341 340.105C177.906 340.479 178.45 340.882 178.975 341.314C179.497 341.742 180.001 342.2 180.48 342.678C180.958 343.157 181.412 343.657 181.844 344.183C182.272 344.705 182.679 345.248 183.053 345.813C183.431 346.375 183.78 346.958 184.097 347.555C184.417 348.153 184.709 348.764 184.968 349.391C185.227 350.017 185.454 350.654 185.652 351.302C185.85 351.95 186.012 352.608 186.145 353.271C186.278 353.936 186.379 354.606 186.444 355.279C186.508 355.956 186.544 356.632 186.544 357.309C186.544 357.986 186.508 358.662 186.444 359.335C186.379 360.012 186.278 360.681 186.145 361.347C186.012 362.009 185.85 362.668 185.652 363.316C185.454 363.964 185.227 364.601 184.968 365.227C184.709 365.853 184.417 366.465 184.097 367.063C183.78 367.66 183.431 368.243 183.053 368.805C182.679 369.37 182.272 369.913 181.844 370.435C181.412 370.961 180.958 371.461 180.48 371.94C180.001 372.418 179.497 372.875 178.975 373.304C178.45 373.736 177.906 374.139 177.341 374.513C176.78 374.891 176.197 375.24 175.599 375.557C175.002 375.877 174.39 376.169 173.764 376.428C173.137 376.687 172.497 376.914 171.849 377.112C171.201 377.306 170.542 377.471 169.88 377.605C169.214 377.734 168.545 377.835 167.868 377.903C167.195 377.968 166.519 378.001 165.838 378.001ZM165.838 342.527C165.356 342.527 164.874 342.552 164.391 342.599C163.909 342.646 163.43 342.718 162.955 342.811C162.48 342.909 162.009 343.024 161.548 343.164C161.084 343.304 160.627 343.47 160.18 343.654C159.734 343.837 159.295 344.046 158.87 344.273C158.442 344.503 158.028 344.751 157.625 345.018C157.222 345.288 156.833 345.576 156.459 345.885C156.085 346.191 155.725 346.515 155.383 346.857C155.041 347.199 154.717 347.559 154.407 347.933C154.101 348.307 153.813 348.696 153.544 349.096C153.274 349.499 153.025 349.916 152.799 350.341C152.568 350.769 152.363 351.205 152.176 351.651C151.992 352.101 151.83 352.554 151.69 353.019C151.55 353.483 151.431 353.951 151.337 354.426C151.24 354.901 151.172 355.38 151.121 355.858C151.075 356.341 151.053 356.823 151.053 357.309C151.053 357.791 151.075 358.277 151.121 358.756C151.172 359.238 151.24 359.717 151.337 360.192C151.431 360.667 151.55 361.135 151.69 361.599C151.83 362.063 151.992 362.517 152.176 362.963C152.363 363.413 152.568 363.849 152.799 364.277C153.025 364.702 153.274 365.119 153.544 365.519C153.813 365.922 154.101 366.31 154.407 366.685C154.717 367.059 155.041 367.419 155.383 367.761C155.725 368.103 156.085 368.427 156.459 368.733C156.833 369.042 157.222 369.33 157.625 369.596C158.028 369.866 158.442 370.115 158.87 370.345C159.295 370.572 159.734 370.777 160.18 370.964C160.627 371.148 161.084 371.313 161.548 371.454C162.009 371.594 162.48 371.709 162.955 371.806C163.43 371.9 163.909 371.972 164.391 372.019C164.874 372.065 165.356 372.091 165.838 372.091C166.324 372.091 166.807 372.065 167.289 372.019C167.771 371.972 168.25 371.9 168.725 371.806C169.2 371.709 169.668 371.594 170.132 371.454C170.596 371.313 171.05 371.148 171.5 370.964C171.946 370.777 172.385 370.572 172.81 370.345C173.238 370.115 173.652 369.866 174.055 369.596C174.458 369.33 174.847 369.042 175.221 368.733C175.596 368.427 175.956 368.103 176.298 367.761C176.639 367.419 176.963 367.059 177.273 366.685C177.579 366.31 177.867 365.922 178.137 365.519C178.403 365.119 178.655 364.702 178.882 364.277C179.108 363.849 179.317 363.413 179.501 362.963C179.688 362.517 179.85 362.063 179.99 361.599C180.131 361.135 180.249 360.667 180.343 360.192C180.437 359.717 180.509 359.238 180.555 358.756C180.606 358.277 180.627 357.791 180.627 357.309C180.627 356.827 180.602 356.344 180.555 355.862C180.505 355.38 180.433 354.905 180.339 354.43C180.242 353.954 180.127 353.487 179.983 353.026C179.843 352.562 179.681 352.108 179.494 351.662C179.306 351.215 179.101 350.78 178.871 350.352C178.644 349.927 178.396 349.513 178.126 349.11C177.856 348.71 177.568 348.322 177.262 347.947C176.953 347.577 176.629 347.217 176.287 346.875C175.945 346.537 175.585 346.213 175.211 345.903C174.836 345.597 174.448 345.313 174.048 345.043C173.645 344.773 173.231 344.528 172.803 344.298C172.374 344.071 171.939 343.866 171.493 343.679C171.046 343.495 170.589 343.333 170.129 343.193C169.664 343.053 169.196 342.934 168.721 342.84C168.246 342.747 167.767 342.675 167.289 342.628C166.807 342.581 166.324 342.559 165.838 342.559V342.527Z" fill="#5E6175"/>
</g>
<mask id="mask4_11094_16231" style="mask-type:luminance" maskUnits="userSpaceOnUse" x="317" y="335" width="44" height="43">
<path d="M317.802 335.89H360.186V378H317.802V335.89Z" fill="white"/>
</mask>
<g mask="url(#mask4_11094_16231)">
<path d="M338.564 378.001C337.884 378.001 337.207 377.968 336.534 377.903C335.857 377.835 335.188 377.734 334.522 377.605C333.86 377.471 333.201 377.306 332.553 377.112C331.905 376.914 331.265 376.687 330.638 376.428C330.012 376.169 329.4 375.877 328.803 375.557C328.205 375.24 327.626 374.891 327.061 374.513C326.496 374.139 325.952 373.736 325.427 373.304C324.905 372.875 324.401 372.418 323.922 371.94C323.444 371.461 322.99 370.961 322.558 370.435C322.13 369.913 321.727 369.37 321.349 368.805C320.971 368.243 320.622 367.66 320.305 367.063C319.985 366.465 319.693 365.853 319.434 365.227C319.175 364.601 318.948 363.964 318.75 363.316C318.552 362.668 318.39 362.009 318.257 361.347C318.124 360.681 318.027 360.012 317.959 359.335C317.894 358.662 317.858 357.986 317.858 357.309C317.858 356.632 317.894 355.956 317.959 355.279C318.027 354.606 318.124 353.936 318.257 353.271C318.39 352.608 318.552 351.95 318.75 351.302C318.948 350.654 319.175 350.017 319.434 349.391C319.693 348.764 319.985 348.153 320.305 347.555C320.622 346.958 320.971 346.375 321.349 345.813C321.727 345.248 322.13 344.705 322.558 344.183C322.99 343.657 323.444 343.157 323.922 342.678C324.401 342.2 324.905 341.742 325.427 341.314C325.952 340.882 326.496 340.479 327.061 340.105C327.626 339.727 328.205 339.378 328.803 339.061C329.4 338.741 330.012 338.449 330.638 338.19C331.265 337.931 331.905 337.704 332.553 337.506C333.201 337.312 333.86 337.146 334.522 337.013C335.188 336.88 335.857 336.783 336.534 336.714C337.207 336.65 337.884 336.617 338.564 336.617C339.24 336.617 339.917 336.65 340.594 336.714C341.267 336.783 341.936 336.88 342.602 337.013C343.268 337.146 343.923 337.312 344.571 337.506C345.222 337.704 345.859 337.931 346.486 338.19C347.112 338.449 347.724 338.741 348.321 339.061C348.919 339.378 349.502 339.727 350.063 340.105C350.628 340.479 351.172 340.882 351.697 341.314C352.223 341.742 352.723 342.2 353.202 342.678C353.68 343.157 354.137 343.657 354.566 344.183C354.998 344.705 355.401 345.248 355.779 345.813C356.153 346.375 356.502 346.958 356.822 347.555C357.143 348.153 357.431 348.764 357.69 349.391C357.949 350.017 358.179 350.654 358.374 351.302C358.572 351.95 358.737 352.608 358.867 353.271C359 353.936 359.101 354.606 359.165 355.279C359.234 355.956 359.266 356.632 359.266 357.309C359.266 357.986 359.234 358.662 359.165 359.335C359.101 360.012 359 360.681 358.867 361.347C358.737 362.009 358.572 362.668 358.374 363.316C358.179 363.964 357.949 364.601 357.69 365.227C357.431 365.853 357.143 366.465 356.822 367.063C356.502 367.66 356.153 368.243 355.779 368.805C355.401 369.37 354.998 369.913 354.566 370.435C354.137 370.961 353.68 371.461 353.202 371.94C352.723 372.418 352.223 372.875 351.697 373.304C351.172 373.736 350.628 374.139 350.063 374.513C349.502 374.891 348.919 375.24 348.321 375.557C347.724 375.877 347.112 376.169 346.486 376.428C345.859 376.687 345.222 376.914 344.571 377.112C343.923 377.306 343.268 377.471 342.602 377.605C341.936 377.734 341.267 377.835 340.594 377.903C339.917 377.968 339.24 378.001 338.564 378.001ZM338.564 342.527C338.078 342.527 337.596 342.552 337.113 342.599C336.631 342.646 336.152 342.718 335.677 342.811C335.202 342.909 334.734 343.024 334.27 343.164C333.806 343.304 333.352 343.47 332.902 343.654C332.456 343.837 332.02 344.046 331.592 344.273C331.164 344.503 330.75 344.751 330.347 345.018C329.944 345.288 329.555 345.576 329.181 345.885C328.806 346.191 328.45 346.515 328.105 346.857C327.763 347.199 327.439 347.559 327.133 347.933C326.823 348.307 326.535 348.696 326.265 349.096C325.999 349.499 325.751 349.916 325.52 350.341C325.294 350.769 325.085 351.205 324.901 351.651C324.714 352.101 324.552 352.554 324.412 353.019C324.271 353.483 324.153 353.951 324.059 354.426C323.966 354.901 323.894 355.38 323.847 355.858C323.8 356.341 323.775 356.823 323.775 357.309C323.775 357.791 323.8 358.277 323.847 358.756C323.894 359.238 323.966 359.717 324.059 360.192C324.153 360.667 324.271 361.135 324.412 361.599C324.552 362.063 324.714 362.517 324.901 362.963C325.085 363.413 325.294 363.849 325.52 364.277C325.751 364.702 325.999 365.119 326.265 365.519C326.535 365.922 326.823 366.31 327.133 366.685C327.439 367.059 327.763 367.419 328.105 367.761C328.45 368.103 328.806 368.427 329.181 368.733C329.555 369.042 329.944 369.33 330.347 369.596C330.75 369.866 331.164 370.115 331.592 370.345C332.02 370.572 332.456 370.777 332.902 370.964C333.352 371.148 333.806 371.313 334.27 371.454C334.734 371.594 335.202 371.709 335.677 371.806C336.152 371.9 336.631 371.972 337.113 372.019C337.596 372.065 338.078 372.091 338.564 372.091C339.046 372.091 339.532 372.065 340.011 372.019C340.493 371.972 340.972 371.9 341.447 371.806C341.922 371.709 342.393 371.594 342.854 371.454C343.318 371.313 343.775 371.148 344.222 370.964C344.668 370.777 345.107 370.572 345.535 370.345C345.96 370.115 346.378 369.866 346.777 369.596C347.18 369.33 347.569 369.042 347.943 368.733C348.318 368.427 348.677 368.103 349.019 367.761C349.361 367.419 349.685 367.059 349.995 366.685C350.301 366.31 350.589 365.922 350.859 365.519C351.129 365.119 351.377 364.702 351.604 364.277C351.834 363.849 352.039 363.413 352.226 362.963C352.41 362.517 352.572 362.063 352.716 361.599C352.856 361.135 352.971 360.667 353.065 360.192C353.162 359.717 353.23 359.238 353.281 358.756C353.328 358.277 353.349 357.791 353.349 357.309C353.349 356.827 353.324 356.344 353.277 355.862C353.227 355.38 353.158 354.905 353.061 354.43C352.968 353.954 352.849 353.487 352.709 353.026C352.565 352.562 352.403 352.108 352.215 351.662C352.032 351.215 351.823 350.78 351.596 350.352C351.366 349.927 351.118 349.513 350.848 349.11C350.578 348.71 350.29 348.322 349.984 347.947C349.678 347.577 349.351 347.217 349.009 346.875C348.667 346.537 348.307 346.213 347.932 345.903C347.562 345.597 347.173 345.313 346.77 345.043C346.367 344.773 345.953 344.528 345.525 344.298C345.1 344.071 344.661 343.866 344.214 343.679C343.768 343.495 343.315 343.333 342.85 343.193C342.386 343.053 341.918 342.934 341.443 342.84C340.968 342.747 340.493 342.675 340.011 342.628C339.528 342.581 339.046 342.559 338.564 342.559V342.527Z" fill="#5E6175"/>
</g>
<path d="M172.17 357.32C172.17 357.737 172.13 358.155 172.047 358.565C171.964 358.975 171.842 359.375 171.684 359.763C171.522 360.148 171.327 360.516 171.093 360.865C170.859 361.214 170.593 361.538 170.298 361.833C170.003 362.132 169.679 362.394 169.33 362.628C168.981 362.859 168.614 363.057 168.225 363.219C167.84 363.377 167.44 363.499 167.026 363.582C166.616 363.661 166.202 363.704 165.781 363.704C165.36 363.704 164.946 363.661 164.536 363.582C164.122 363.499 163.722 363.377 163.337 363.219C162.949 363.057 162.581 362.859 162.232 362.628C161.883 362.394 161.559 362.128 161.264 361.833C160.965 361.538 160.703 361.214 160.469 360.865C160.235 360.516 160.04 360.148 159.878 359.763C159.72 359.375 159.598 358.975 159.515 358.565C159.432 358.155 159.393 357.737 159.393 357.32C159.393 356.898 159.432 356.485 159.515 356.074C159.598 355.66 159.72 355.261 159.878 354.876C160.04 354.487 160.235 354.12 160.469 353.771C160.703 353.422 160.965 353.101 161.264 352.803C161.559 352.507 161.883 352.241 162.232 352.011C162.581 351.777 162.949 351.579 163.337 351.42C163.722 351.258 164.122 351.136 164.536 351.057C164.946 350.974 165.36 350.935 165.781 350.935C166.202 350.935 166.616 350.974 167.026 351.057C167.44 351.136 167.84 351.258 168.225 351.42C168.614 351.579 168.981 351.777 169.33 352.011C169.679 352.241 170.003 352.507 170.298 352.803C170.593 353.101 170.859 353.422 171.093 353.771C171.327 354.12 171.522 354.487 171.684 354.876C171.842 355.261 171.964 355.66 172.047 356.074C172.13 356.485 172.17 356.898 172.17 357.32Z" fill="#F5F5F5"/>
<path d="M344.984 357.32C344.984 357.737 344.944 358.155 344.861 358.565C344.778 358.975 344.656 359.375 344.498 359.763C344.336 360.148 344.138 360.516 343.907 360.865C343.674 361.214 343.407 361.538 343.112 361.833C342.817 362.132 342.493 362.394 342.144 362.628C341.795 362.859 341.428 363.057 341.039 363.219C340.65 363.377 340.251 363.499 339.84 363.582C339.43 363.661 339.013 363.704 338.595 363.704C338.174 363.704 337.76 363.661 337.35 363.582C336.936 363.499 336.536 363.377 336.151 363.219C335.763 363.057 335.395 362.859 335.046 362.628C334.697 362.394 334.373 362.128 334.078 361.833C333.779 361.538 333.517 361.214 333.283 360.865C333.049 360.516 332.854 360.148 332.692 359.763C332.53 359.375 332.412 358.975 332.329 358.565C332.246 358.155 332.207 357.737 332.207 357.32C332.207 356.898 332.246 356.485 332.329 356.074C332.412 355.66 332.53 355.261 332.692 354.876C332.854 354.487 333.049 354.12 333.283 353.771C333.517 353.422 333.779 353.101 334.078 352.803C334.373 352.507 334.697 352.241 335.046 352.011C335.395 351.777 335.763 351.579 336.151 351.42C336.536 351.258 336.936 351.136 337.35 351.057C337.76 350.974 338.174 350.935 338.595 350.935C339.013 350.935 339.43 350.974 339.84 351.057C340.251 351.136 340.65 351.258 341.039 351.42C341.428 351.579 341.795 351.777 342.144 352.011C342.493 352.241 342.817 352.507 343.112 352.803C343.407 353.101 343.674 353.422 343.907 353.771C344.138 354.12 344.336 354.487 344.498 354.876C344.656 355.261 344.778 355.66 344.861 356.074C344.944 356.485 344.984 356.898 344.984 357.32Z" fill="#F5F5F5"/>
<path d="M200.817 161.97C201.559 162.035 202.289 162.168 203.009 162.37C203.725 162.572 204.42 162.838 205.089 163.169C205.755 163.497 206.389 163.885 206.986 164.335C207.58 164.781 208.131 165.278 208.634 165.829C209.138 166.379 209.585 166.97 209.981 167.603C210.373 168.237 210.704 168.903 210.974 169.597C211.244 170.292 211.449 171.004 211.586 171.735C211.723 172.469 211.791 173.207 211.791 173.952V256.053C211.769 256.474 211.715 256.892 211.618 257.302C211.525 257.712 211.391 258.108 211.222 258.497C211.053 258.882 210.852 259.249 210.618 259.598C210.38 259.951 210.114 260.275 209.819 260.574C209.523 260.876 209.203 261.146 208.858 261.391C208.512 261.632 208.149 261.84 207.767 262.013C207.382 262.19 206.986 262.33 206.576 262.431C206.169 262.535 205.752 262.6 205.33 262.625C204.913 262.654 204.492 262.639 204.074 262.589C203.653 262.539 203.243 262.452 202.84 262.326C202.437 262.2 202.052 262.042 201.677 261.844C201.303 261.646 200.954 261.419 200.623 261.157C200.292 260.897 199.986 260.606 199.709 260.289C199.431 259.972 199.183 259.634 198.967 259.271C198.751 258.911 198.571 258.533 198.424 258.137C198.276 257.741 198.168 257.334 198.096 256.92L187.802 175.482C187.745 175.036 187.716 174.589 187.709 174.139C187.702 173.693 187.72 173.243 187.763 172.797C187.806 172.351 187.874 171.908 187.964 171.472C188.058 171.033 188.177 170.601 188.317 170.173C188.458 169.748 188.619 169.331 188.81 168.924C188.997 168.517 189.206 168.121 189.436 167.736C189.67 167.355 189.922 166.984 190.196 166.628C190.469 166.272 190.761 165.933 191.071 165.609C191.384 165.285 191.711 164.983 192.057 164.695C192.402 164.411 192.762 164.144 193.136 163.896C193.511 163.651 193.899 163.428 194.299 163.223C194.702 163.021 195.112 162.841 195.53 162.683C195.951 162.528 196.379 162.395 196.815 162.284C197.25 162.176 197.689 162.093 198.136 162.032C198.578 161.97 199.025 161.938 199.475 161.927C199.921 161.917 200.371 161.931 200.817 161.97Z" fill="#A9AFC4"/>
<path d="M270.756 169.136C271.548 169.205 272.325 169.352 273.084 169.576C273.847 169.799 274.582 170.097 275.287 170.465C275.989 170.832 276.651 171.267 277.27 171.764C277.889 172.264 278.454 172.818 278.962 173.43C279.473 174.039 279.916 174.694 280.297 175.392C280.675 176.09 280.985 176.817 281.222 177.577C281.456 178.332 281.618 179.106 281.701 179.898C281.784 180.686 281.791 181.478 281.719 182.27L274.934 256.604C274.924 257.057 274.87 257.507 274.772 257.946C274.675 258.389 274.535 258.817 274.351 259.235C274.171 259.649 273.948 260.041 273.689 260.412C273.43 260.782 273.135 261.124 272.807 261.437C272.48 261.754 272.127 262.031 271.746 262.276C271.364 262.517 270.961 262.722 270.536 262.888C270.115 263.05 269.68 263.172 269.233 263.251C268.787 263.331 268.337 263.363 267.887 263.356C267.434 263.345 266.984 263.291 266.541 263.194C266.098 263.097 265.67 262.956 265.256 262.773C264.842 262.589 264.446 262.37 264.076 262.11C263.705 261.851 263.363 261.556 263.05 261.229C262.737 260.901 262.456 260.548 262.215 260.167C261.97 259.785 261.765 259.382 261.599 258.961C261.438 258.536 261.315 258.105 261.236 257.658C261.157 257.212 261.124 256.762 261.132 256.309L257.612 181.737C257.594 181.309 257.597 180.881 257.622 180.449C257.648 180.02 257.698 179.596 257.766 179.171C257.838 178.746 257.932 178.329 258.051 177.915C258.166 177.501 258.303 177.094 258.461 176.695C258.623 176.295 258.803 175.907 259.004 175.525C259.206 175.147 259.426 174.78 259.667 174.424C259.904 174.067 260.163 173.722 260.441 173.394C260.718 173.067 261.013 172.754 261.322 172.455C261.632 172.156 261.956 171.875 262.298 171.613C262.636 171.35 262.992 171.109 263.356 170.882C263.723 170.655 264.101 170.45 264.49 170.267C264.875 170.083 265.274 169.917 265.677 169.774C266.084 169.633 266.498 169.511 266.915 169.414C267.333 169.313 267.754 169.237 268.182 169.183C268.611 169.129 269.039 169.1 269.467 169.09C269.896 169.082 270.327 169.097 270.756 169.136Z" fill="#A9AFC4"/>
<mask id="mask5_11094_16231" style="mask-type:luminance" maskUnits="userSpaceOnUse" x="12" y="371" width="327" height="7">
<path d="M12.8245 371.824H338.996V378H12.8245V371.824Z" fill="white"/>
</mask>
<g mask="url(#mask5_11094_16231)">
<path d="M13.6718 372.091H338.598V378.001H13.6718V372.091Z" fill="#5E6175"/>
</g>
<path d="M215.526 110.732V104.818C217.258 104.944 218.978 104.833 220.68 104.494L222.131 110.221C219.953 110.699 217.751 110.872 215.526 110.732ZM205.668 110.732H199.751V104.818H205.668V110.732ZM231.755 103.537L226.893 100.179C227.792 98.8869 228.375 97.4688 228.649 95.9212L234.476 96.9074C234.062 99.3188 233.155 101.532 231.755 103.537ZM227.256 88.5429C226.443 87.1932 225.385 86.0774 224.082 85.192L227.414 80.2648C229.43 81.6325 231.075 83.3601 232.345 85.4368L227.256 88.5429ZM216.412 83.3385H210.498V77.425H216.412V83.3385ZM200.64 83.3385C198.488 83.45 196.343 83.3457 194.212 83.0325L195.267 77.2091C197.052 77.4502 198.841 77.5258 200.64 77.425V83.3385ZM184.066 77.5942C182.421 75.8954 181.143 73.9518 180.233 71.7707L185.682 69.496C186.312 70.9717 187.19 72.2854 188.317 73.4371L184.066 77.5942ZM185.052 61.6318L179.286 60.3217C179.808 58.0111 180.737 55.8803 182.076 53.926L187.003 57.2552C186.053 58.5689 185.376 60.0122 184.973 61.5814L185.052 61.6318ZM193.186 52.3999L191.146 46.85C193.348 46.0438 195.623 45.6587 197.966 45.6983V51.6117C196.3 51.5433 194.68 51.7881 193.107 52.3496L193.186 52.3999ZM255.15 51.6117V45.6983C256.921 45.8134 258.684 45.7379 260.444 45.4715L261.646 51.2662C259.465 51.6117 257.273 51.7125 255.071 51.5613L255.15 51.6117ZM245.288 51.6117H239.375V45.6983H245.288V51.6117ZM229.516 51.6117H223.599V45.6983H229.516V51.6117ZM213.741 51.6117H207.828V45.6983H213.741V51.6117ZM271.522 44.9388L266.8 41.3721C267.768 40.1303 268.423 38.7411 268.773 37.2042L274.549 38.4639C274.017 40.8466 273.009 43.0025 271.522 44.9388ZM268.981 28.0011C268.981 27.9039 268.517 27.9435 274.895 27.9435L268.981 28.0011Z" fill="#A9AFC4"/>
<path d="M271.888 24.5714C271.888 23.6608 271.981 22.7574 272.161 21.8648C272.341 20.9686 272.608 20.1012 272.957 19.259C273.309 18.4168 273.738 17.6178 274.245 16.862C274.753 16.1026 275.332 15.4043 275.976 14.7601C276.624 14.1158 277.326 13.5399 278.086 13.0361C278.845 12.5286 279.648 12.1039 280.49 11.7548C281.332 11.4056 282.203 11.1429 283.096 10.9665C283.992 10.7866 284.895 10.7002 285.806 10.7002H296.524C296.524 11.6108 296.434 12.5178 296.254 13.414C296.078 14.3102 295.812 15.1812 295.462 16.0234C295.113 16.8692 294.685 17.6718 294.174 18.4312C293.666 19.1907 293.091 19.8925 292.443 20.5403C291.795 21.1846 291.093 21.7641 290.334 22.2716C289.571 22.779 288.768 23.2073 287.922 23.5565C287.08 23.9056 286.209 24.1683 285.309 24.3447C284.413 24.5246 283.506 24.611 282.592 24.611L271.888 24.5714Z" fill="#A7ADC2"/>
<path d="M271.89 24.5714C271.887 23.6608 271.797 22.7574 271.613 21.8648C271.433 20.9686 271.17 20.1012 270.818 19.259C270.469 18.4168 270.037 17.6178 269.529 16.862C269.022 16.1026 268.442 15.4043 267.798 14.7601C267.15 14.1158 266.448 13.5399 265.689 13.0361C264.929 12.5286 264.13 12.1039 263.288 11.7548C262.442 11.4056 261.575 11.1429 260.679 10.9665C259.786 10.7866 258.879 10.7002 257.969 10.7002H247.25C247.25 11.6108 247.34 12.5178 247.52 13.414C247.697 14.3102 247.963 15.1812 248.312 16.0234C248.661 16.8692 249.093 17.6718 249.601 18.4312C250.108 19.1907 250.688 19.8925 251.332 20.5403C251.98 21.1846 252.685 21.7641 253.444 22.2716C254.204 22.779 255.007 23.2073 255.852 23.5565C256.698 23.9056 257.569 24.1683 258.465 24.3447C259.362 24.5246 260.269 24.611 261.183 24.611L271.89 24.5714Z" fill="#A7ADC2"/>
<path d="M282.595 27.5305H268.932V24.5719C268.932 24.0213 268.961 23.4706 269.019 22.9235C269.076 22.3728 269.156 21.8294 269.267 21.2895C269.375 20.7496 269.512 20.2133 269.674 19.6879C269.836 19.1588 270.019 18.6405 270.232 18.133C270.444 17.6219 270.682 17.1252 270.944 16.6394C271.203 16.1535 271.488 15.682 271.797 15.2249C272.103 14.7678 272.434 14.3251 272.783 13.9004C273.133 13.4721 273.503 13.0654 273.896 12.6767C274.284 12.2879 274.695 11.9172 275.123 11.5681C275.548 11.219 275.99 10.8915 276.451 10.5855C276.908 10.276 277.383 9.99527 277.869 9.73613C278.355 9.47339 278.855 9.23945 279.363 9.02709C279.874 8.81834 280.392 8.63118 280.921 8.47282C281.447 8.31086 281.983 8.17769 282.523 8.06971C283.066 7.96174 283.61 7.87896 284.16 7.82497C284.708 7.77098 285.258 7.74219 285.809 7.74219H299.486V10.7007C299.482 11.2514 299.453 11.8021 299.399 12.3491C299.342 12.8998 299.259 13.4433 299.151 13.9832C299.039 14.5266 298.906 15.0593 298.744 15.5884C298.582 16.1139 298.395 16.6322 298.183 17.1432C297.971 17.6507 297.733 18.1474 297.47 18.6333C297.211 19.1192 296.927 19.5907 296.617 20.0514C296.311 20.5085 295.98 20.9512 295.631 21.3759C295.278 21.8042 294.908 22.2109 294.519 22.5996C294.127 22.9883 293.716 23.359 293.292 23.7081C292.863 24.0573 292.421 24.3848 291.96 24.6907C291.503 24.9966 291.028 25.281 290.542 25.5401C290.056 25.7993 289.556 26.0368 289.045 26.2456C288.537 26.4579 288.015 26.6415 287.49 26.8034C286.961 26.9618 286.424 27.095 285.884 27.2029C285.345 27.3109 284.798 27.3937 284.247 27.4477C283.7 27.5017 283.149 27.5269 282.595 27.5305ZM275.253 21.617H282.595C283.192 21.6206 283.783 21.5738 284.369 21.4802C284.96 21.3867 285.535 21.2463 286.1 21.0591C286.666 20.8756 287.213 20.6416 287.738 20.3681C288.267 20.091 288.767 19.7742 289.243 19.4179C289.718 19.0616 290.164 18.6693 290.574 18.241C290.988 17.8091 291.362 17.352 291.701 16.8625C292.039 16.373 292.334 15.8583 292.586 15.3185C292.842 14.7822 293.05 14.2279 293.216 13.6556H285.859C285.265 13.652 284.675 13.6988 284.085 13.7924C283.498 13.886 282.922 14.0264 282.357 14.2135C281.792 14.3971 281.249 14.631 280.72 14.9046C280.194 15.1817 279.694 15.4984 279.215 15.8547C278.74 16.2111 278.297 16.6034 277.887 17.0317C277.473 17.4636 277.099 17.9207 276.764 18.4101C276.426 18.8996 276.131 19.4143 275.875 19.9542C275.623 20.4905 275.414 21.0447 275.253 21.617Z" fill="#5E6175"/>
<path d="M274.845 27.5305H261.182C260.632 27.5269 260.081 27.5017 259.53 27.4477C258.98 27.3937 258.436 27.3109 257.893 27.2029C257.353 27.095 256.816 26.9618 256.291 26.8034C255.762 26.6415 255.244 26.4579 254.732 26.2456C254.221 26.0368 253.725 25.7993 253.235 25.5401C252.749 25.281 252.278 24.9966 251.817 24.6907C251.356 24.3848 250.914 24.0573 250.489 23.7081C250.061 23.359 249.65 22.9883 249.262 22.5996C248.869 22.2109 248.499 21.8042 248.15 21.3759C247.797 20.9512 247.469 20.5085 247.16 20.0514C246.854 19.5943 246.57 19.1192 246.307 18.6333C246.044 18.1474 245.81 17.6507 245.598 17.1432C245.385 16.6322 245.198 16.1139 245.036 15.5884C244.874 15.0593 244.738 14.5266 244.63 13.9832C244.518 13.4433 244.435 12.8998 244.381 12.3491C244.324 11.8021 244.295 11.2514 244.295 10.7007V7.74219H257.968C258.522 7.74219 259.073 7.77098 259.62 7.82497C260.171 7.87896 260.718 7.96174 261.258 8.06971C261.801 8.17769 262.338 8.31446 262.867 8.47282C263.396 8.63478 263.914 8.82194 264.425 9.03069C264.936 9.24304 265.433 9.48059 265.919 9.73973C266.408 10.0025 266.88 10.2868 267.34 10.5927C267.801 10.8987 268.244 11.2262 268.668 11.5789C269.097 11.928 269.507 12.2987 269.896 12.6911C270.288 13.0798 270.659 13.4901 271.008 13.9148C271.361 14.3431 271.688 14.7858 271.994 15.2465C272.304 15.7036 272.588 16.1787 272.847 16.6645C273.11 17.1504 273.344 17.6507 273.556 18.1582C273.769 18.6693 273.956 19.1876 274.114 19.7167C274.276 20.2457 274.409 20.782 274.517 21.3219C274.625 21.8654 274.708 22.4088 274.762 22.9595C274.819 23.5102 274.845 24.0609 274.845 24.6115V27.5305ZM250.615 13.6556C250.773 14.2279 250.982 14.7822 251.234 15.3185C251.486 15.8583 251.778 16.373 252.112 16.8625C252.447 17.352 252.821 17.8127 253.228 18.2446C253.638 18.6729 254.081 19.0688 254.556 19.4287C255.028 19.785 255.528 20.1054 256.053 20.3825C256.579 20.6596 257.122 20.8936 257.687 21.0807C258.249 21.2715 258.825 21.4155 259.411 21.5126C259.998 21.6062 260.588 21.6566 261.182 21.6566H268.568C268.406 21.0843 268.197 20.5265 267.945 19.9866C267.693 19.4467 267.402 18.932 267.063 18.4425C266.729 17.9495 266.354 17.4888 265.944 17.0569C265.534 16.625 265.091 16.2326 264.616 15.8727C264.141 15.5128 263.637 15.1961 263.111 14.9189C262.582 14.6418 262.039 14.4079 261.474 14.2207C260.909 14.03 260.333 13.8896 259.743 13.796C259.156 13.6988 258.562 13.652 257.968 13.6556H250.615Z" fill="#5E6175"/>
<path d="M345.464 31.5285C344.816 30.8807 344.237 30.1788 343.729 29.4194C343.218 28.6564 342.79 27.8538 342.437 27.008C342.088 26.1622 341.822 25.2912 341.645 24.395C341.465 23.4952 341.375 22.5918 341.375 21.674C341.375 20.7598 341.465 19.8528 341.645 18.9566C341.822 18.0568 342.088 17.1858 342.437 16.34C342.79 15.4978 343.218 14.6916 343.729 13.9321C344.237 13.1727 344.816 12.4673 345.464 11.823L353.047 4.24316C353.692 4.89102 354.271 5.59646 354.779 6.35588C355.29 7.11531 355.718 7.91792 356.067 8.76373C356.42 9.60954 356.683 10.4805 356.863 11.3803C357.043 12.2765 357.129 13.1835 357.129 14.0977C357.129 15.0119 357.043 15.9189 356.863 16.8151C356.683 17.7149 356.42 18.5859 356.067 19.4317C355.718 20.2775 355.29 21.0801 354.779 21.8395C354.271 22.599 353.692 23.3044 353.047 23.9523L345.464 31.5285Z" fill="#A7ADC2"/>
<path d="M345.466 31.5291C344.818 30.8812 344.116 30.3018 343.357 29.7943C342.594 29.2832 341.791 28.8513 340.945 28.5022C340.099 28.1495 339.228 27.8867 338.329 27.7068C337.429 27.5268 336.522 27.4404 335.608 27.4404C334.69 27.4404 333.783 27.5268 332.887 27.7068C331.987 27.8867 331.116 28.1495 330.27 28.5022C329.424 28.8549 328.622 29.2832 327.859 29.7943C327.099 30.3018 326.394 30.8812 325.75 31.5291L318.177 39.0982C318.825 39.746 319.527 40.3255 320.29 40.8366C321.049 41.3441 321.852 41.776 322.697 42.1287C323.543 42.4778 324.414 42.7441 325.314 42.9241C326.214 43.1005 327.121 43.1904 328.035 43.1904C328.953 43.1904 329.86 43.1005 330.756 42.9241C331.656 42.7441 332.527 42.4778 333.373 42.1287C334.218 41.776 335.025 41.3441 335.784 40.8366C336.543 40.3255 337.249 39.746 337.893 39.0982L345.466 31.5291Z" fill="#A7ADC2"/>
<mask id="mask6_11094_16231" style="mask-type:luminance" maskUnits="userSpaceOnUse" x="338" y="0" width="23" height="37">
<path d="M338.07 0H360.183V36.4381H338.07V0Z" fill="white"/>
</mask>
<g mask="url(#mask6_11094_16231)">
<path d="M345.461 35.7079L343.37 33.6168C342.981 33.2281 342.611 32.8178 342.258 32.3931C341.909 31.9648 341.578 31.5221 341.272 31.0614C340.962 30.6043 340.682 30.1292 340.419 29.6433C340.16 29.1574 339.922 28.6571 339.71 28.146C339.497 27.635 339.314 27.1167 339.152 26.5876C338.99 26.0585 338.857 25.5222 338.749 24.9824C338.641 24.4389 338.562 23.8954 338.508 23.3447C338.45 22.7941 338.425 22.2434 338.425 21.6891C338.425 21.1384 338.45 20.5878 338.508 20.0371C338.562 19.4864 338.641 18.9429 338.749 18.3995C338.857 17.856 338.99 17.3233 339.152 16.7942C339.314 16.2652 339.497 15.7469 339.71 15.2358C339.922 14.7247 340.16 14.2244 340.419 13.7385C340.682 13.2527 340.962 12.7776 341.272 12.3169C341.578 11.8598 341.909 11.4171 342.258 10.9888C342.611 10.5641 342.981 10.1538 343.37 9.76145L353.045 0.0976562L355.132 2.18518C355.525 2.57749 355.895 2.9842 356.248 3.4125C356.597 3.8408 356.928 4.2835 357.234 4.74419C357.54 5.20129 357.824 5.67638 358.087 6.16227C358.346 6.65176 358.584 7.14845 358.796 7.65953C359.005 8.17061 359.192 8.68889 359.354 9.21797C359.513 9.74705 359.649 10.2833 359.757 10.8268C359.865 11.3667 359.944 11.9138 359.998 12.4644C360.052 13.0151 360.081 13.5658 360.081 14.1201C360.081 14.6707 360.052 15.2214 359.998 15.7721C359.944 16.3227 359.865 16.8698 359.757 17.4097C359.649 17.9532 359.513 18.4895 359.354 19.0185C359.192 19.5476 359.005 20.0659 358.796 20.577C358.584 21.0881 358.346 21.5847 358.087 22.0742C357.824 22.5601 357.54 23.0352 357.234 23.4959C356.928 23.953 356.597 24.3957 356.248 24.824C355.895 25.2523 355.525 25.659 355.132 26.0513L345.461 35.7079ZM352.778 8.72848L347.581 13.9221C347.16 14.3396 346.779 14.7931 346.429 15.2754C346.084 15.7577 345.778 16.2652 345.512 16.7978C345.249 17.3269 345.029 17.8776 344.853 18.4463C344.68 19.0149 344.551 19.5908 344.472 20.1811C344.389 20.7677 344.356 21.3616 344.371 21.9555C344.385 22.5493 344.45 23.136 344.562 23.7191C344.673 24.3021 344.831 24.8744 345.033 25.4323C345.238 25.9901 345.487 26.53 345.778 27.0447L350.972 21.8547C351.393 21.4336 351.778 20.9837 352.123 20.4978C352.469 20.0155 352.775 19.5116 353.041 18.9789C353.304 18.4463 353.523 17.8956 353.7 17.3269C353.873 16.7618 354.002 16.1824 354.081 15.5957C354.164 15.0054 354.197 14.4152 354.182 13.8213C354.164 13.2275 354.103 12.6372 353.991 12.0541C353.88 11.4711 353.721 10.8988 353.52 10.3409C353.315 9.78304 353.066 9.24677 352.778 8.72848Z" fill="#5E6175"/>
</g>
<path d="M316.136 41.1855L314.045 39.098L323.709 29.4414C324.097 29.0491 324.508 28.6783 324.936 28.3292C325.364 27.9765 325.807 27.649 326.268 27.3394C326.725 27.0335 327.2 26.7492 327.686 26.49C328.175 26.2273 328.676 25.9934 329.187 25.781C329.698 25.5686 330.216 25.3815 330.745 25.2231C331.274 25.0612 331.81 24.928 332.354 24.82C332.894 24.712 333.441 24.6293 333.992 24.5753C334.542 24.5213 335.093 24.4961 335.647 24.4961C336.201 24.4961 336.752 24.5213 337.303 24.5753C337.853 24.6293 338.397 24.712 338.94 24.82C339.484 24.928 340.02 25.0612 340.549 25.2231C341.078 25.3815 341.597 25.5686 342.108 25.781C342.619 25.9934 343.119 26.2273 343.605 26.49C344.094 26.7492 344.569 27.0335 345.027 27.3394C345.487 27.649 345.93 27.9765 346.358 28.3292C346.787 28.6783 347.193 29.0491 347.586 29.4414L349.677 31.5289L340.006 41.1855C339.613 41.5778 339.207 41.9485 338.778 42.3012C338.35 42.6503 337.907 42.9815 337.45 43.2874C336.99 43.5969 336.515 43.8813 336.029 44.1404C335.543 44.4031 335.042 44.6407 334.531 44.8494C334.02 45.0618 333.502 45.249 332.973 45.4109C332.444 45.5693 331.908 45.706 331.364 45.814C330.821 45.922 330.277 46.0012 329.726 46.0552C329.176 46.1128 328.622 46.1379 328.071 46.1379C327.517 46.1379 326.966 46.1128 326.415 46.0552C325.865 46.0012 325.317 45.922 324.778 45.814C324.234 45.706 323.698 45.5693 323.169 45.4109C322.64 45.249 322.121 45.0618 321.61 44.8494C321.099 44.6407 320.599 44.4031 320.113 44.1404C319.624 43.8813 319.152 43.5969 318.691 43.2874C318.231 42.9815 317.788 42.6503 317.363 42.3012C316.935 41.9485 316.528 41.5778 316.136 41.1855ZM322.694 38.8208C323.212 39.1124 323.748 39.3607 324.306 39.5623C324.864 39.7674 325.436 39.9258 326.023 40.0373C326.606 40.1453 327.196 40.2101 327.79 40.2245C328.384 40.2389 328.974 40.2065 329.565 40.1237C330.151 40.0445 330.731 39.915 331.299 39.7386C331.868 39.5658 332.419 39.3463 332.951 39.08C333.48 38.8136 333.988 38.5077 334.47 38.1622C334.952 37.8131 335.406 37.4279 335.823 37.0068L341.021 31.8132C340.502 31.5253 339.963 31.2769 339.405 31.0718C338.847 30.8702 338.275 30.7119 337.691 30.6003C337.108 30.4923 336.518 30.4275 335.924 30.4131C335.33 30.3987 334.74 30.4311 334.15 30.5103C333.563 30.5931 332.984 30.7191 332.415 30.8954C331.846 31.0682 331.296 31.2877 330.767 31.5541C330.234 31.8168 329.726 32.1228 329.244 32.4683C328.758 32.8138 328.308 33.1989 327.887 33.6164L322.694 38.8208Z" fill="#5E6175"/>
<path d="M380.157 123.7L380.032 117.787C381.64 117.758 383.188 117.43 384.674 116.8L387.01 122.232C384.822 123.164 382.537 123.653 380.157 123.7ZM287.734 120.745H281.817V114.832H287.734V120.745ZM369.126 120.32C367.186 118.946 365.574 117.261 364.285 115.264L369.216 112.064C370.094 113.417 371.192 114.565 372.509 115.501L369.126 120.32ZM395.656 114.576L390.548 111.618C391.362 110.228 391.88 108.738 392.107 107.144L397.963 107.982C397.624 110.329 396.854 112.528 395.656 114.576ZM287.734 104.977H281.817C281.68 102.756 281.868 100.565 282.368 98.3942L288.098 99.8627C287.734 101.551 287.612 103.257 287.734 104.977ZM367.272 104.279H361.359C361.467 102.587 361.287 100.932 360.826 99.3012L366.484 97.5772C367.128 99.7763 367.391 102.019 367.272 104.308V104.279ZM398.15 97.6852H392.236V91.7753H398.15V97.6852ZM292.356 93.251L288.63 88.6584C290.477 87.1612 292.536 86.067 294.81 85.3688L296.545 91.0159C295.005 91.491 293.608 92.236 292.356 93.251ZM356.291 92.9055C354.999 91.9445 353.57 91.2642 352.012 90.8683L353.491 85.142C355.795 85.7323 357.904 86.7365 359.811 88.1582L356.291 92.9055ZM342.931 90.512H337.018V84.6022H342.931V90.512ZM327.156 90.512H321.243V84.6022H327.156V90.512ZM311.384 90.512H305.467V84.6022H311.384V90.512ZM398.143 81.9604H392.226V76.0469H398.143V81.9604ZM398.143 66.1924H392.226V60.2825H398.143V66.1924ZM391.635 51.4142C391.146 49.8809 390.386 48.4952 389.357 47.2571L393.903 43.4816C395.425 45.31 396.548 47.3543 397.272 49.6218L391.635 51.4142ZM382.76 43.0965C381.05 42.7437 379.319 42.625 377.577 42.7437V36.8303C379.794 36.7007 381.989 36.8771 384.16 37.3522L382.76 43.0965ZM367.715 42.7437H361.802V36.8303H367.715V42.7437Z" fill="#A9AFC4"/>
<path d="M74.1397 286.361C73.7725 286.361 73.4054 286.34 73.0419 286.297C72.6748 286.25 72.3149 286.185 71.9586 286.095C71.6022 286.005 71.2495 285.894 70.9076 285.764C70.5621 285.631 70.231 285.476 69.9034 285.303C69.5795 285.13 69.2664 284.94 68.964 284.727C68.6653 284.515 68.3774 284.288 68.1038 284.04C67.8303 283.795 67.5748 283.532 67.3336 283.252C67.0925 282.975 66.8693 282.683 66.6642 282.377C66.459 282.071 66.2755 281.754 66.1063 281.427C65.9407 281.099 65.7968 280.761 65.6708 280.416C65.5484 280.07 65.4441 279.717 65.3613 279.357C65.2821 279.001 65.2209 278.638 65.1849 278.27C65.1489 277.907 65.1309 277.54 65.1417 277.173C65.1489 276.802 65.1777 276.438 65.2317 276.075C65.2857 275.708 65.3613 275.352 65.4585 274.995C65.552 274.639 65.6708 274.293 65.8112 273.951C65.9515 273.613 66.1099 273.282 66.2899 272.962C66.4734 272.641 66.6714 272.332 66.8873 272.037C67.1069 271.738 67.3408 271.457 67.5964 271.191C67.8483 270.921 68.1146 270.673 68.399 270.435C68.6833 270.201 68.9784 269.985 69.288 269.787C69.6011 269.589 69.9214 269.409 70.2526 269.251C70.5837 269.093 70.9256 268.956 71.2747 268.837C71.6238 268.722 71.9766 268.625 72.3365 268.553C72.7 268.477 73.0635 268.427 73.4306 268.398C73.7941 268.369 74.1649 268.362 74.532 268.38C74.8991 268.394 75.2626 268.434 75.6261 268.495C75.9896 268.553 76.346 268.635 76.7023 268.743C77.055 268.848 77.3969 268.974 77.7352 269.118C78.0736 269.265 78.4011 269.434 78.7178 269.622C79.0345 269.809 79.3369 270.014 79.6284 270.237C79.9199 270.46 80.1971 270.701 80.4598 270.961C81.0969 271.587 81.6296 272.292 82.0579 273.077C82.4862 273.861 82.7921 274.689 82.972 275.564C83.152 276.442 83.1988 277.324 83.116 278.213C83.0332 279.102 82.8209 279.958 82.4826 280.786C82.1442 281.614 81.6907 282.37 81.1257 283.065C80.5606 283.756 79.9055 284.349 79.1641 284.846C78.4191 285.343 77.6201 285.721 76.7635 285.98C75.9105 286.235 75.0359 286.365 74.1397 286.361ZM74.1397 274.293C73.7294 274.293 73.337 274.369 72.9591 274.527C72.5776 274.686 72.2465 274.909 71.955 275.2C71.667 275.488 71.4439 275.823 71.2891 276.205C71.1308 276.582 71.0552 276.975 71.0552 277.385C71.0552 277.795 71.138 278.191 71.2963 278.569C71.4547 278.947 71.6778 279.278 71.9694 279.566C72.2609 279.854 72.5956 280.077 72.9771 280.232C73.355 280.387 73.751 280.462 74.1613 280.459C74.5716 280.459 74.9639 280.376 75.3418 280.218C75.7197 280.056 76.0544 279.833 76.3388 279.541C76.6267 279.246 76.8498 278.911 77.001 278.53C77.1558 278.152 77.2314 277.756 77.2278 277.345C77.2242 276.939 77.145 276.55 76.9866 276.172C76.8283 275.798 76.6051 275.467 76.3172 275.182C76.0256 274.894 75.6945 274.675 75.3166 274.52C74.9387 274.365 74.5464 274.29 74.1397 274.293Z" fill="#5E6175"/>
<path d="M42.8496 333.089C42.0469 333.086 41.2479 333.01 40.4597 332.852C39.6715 332.694 38.9049 332.463 38.1634 332.154C37.4184 331.848 36.713 331.47 36.0435 331.024C35.3741 330.577 34.755 330.07 34.1863 329.501C33.6177 328.932 33.1102 328.313 32.6603 327.647C32.214 326.978 31.8361 326.273 31.5265 325.531C31.217 324.79 30.9867 324.023 30.8283 323.235C30.6699 322.447 30.5872 321.651 30.5872 320.845C30.5836 320.042 30.6627 319.247 30.8175 318.459C30.9723 317.667 31.2026 316.9 31.5085 316.159C31.8145 315.414 32.1888 314.708 32.6315 314.039C33.0778 313.37 33.5853 312.747 34.1503 312.178C34.7154 311.606 35.3345 311.095 36.0003 310.649C36.6698 310.199 37.3716 309.817 38.113 309.508C38.8581 309.194 39.6211 308.961 40.4093 308.799C41.1975 308.64 41.9929 308.557 42.7992 308.554C43.6018 308.55 44.4008 308.622 45.189 308.777C45.9808 308.928 46.7475 309.155 47.4925 309.461C48.2375 309.763 48.9466 310.134 49.616 310.577C50.2891 311.019 50.9117 311.523 51.484 312.088C52.0562 312.653 52.5673 313.269 53.0172 313.935C53.4707 314.6 53.8522 315.302 54.1654 316.044C54.4785 316.785 54.716 317.548 54.8816 318.336C55.0436 319.121 55.1263 319.916 55.1335 320.723C55.1407 321.532 55.0652 322.335 54.9104 323.131C54.7592 323.922 54.5289 324.696 54.223 325.445C53.917 326.197 53.5391 326.91 53.0928 327.583C52.6465 328.259 52.1354 328.882 51.5668 329.458C50.9945 330.034 50.3718 330.545 49.6988 330.998C49.0293 331.448 48.3167 331.83 47.5717 332.143C46.823 332.452 46.0528 332.69 45.2574 332.848C44.462 333.007 43.6594 333.086 42.8496 333.089ZM42.8496 314.464C42.432 314.467 42.0181 314.507 41.6078 314.59C41.1975 314.672 40.8016 314.791 40.4165 314.953C40.0278 315.115 39.6607 315.309 39.3152 315.543C38.9696 315.777 38.6457 316.04 38.3506 316.339C38.059 316.634 37.7927 316.958 37.5624 317.303C37.332 317.653 37.1377 318.02 36.9793 318.405C36.8209 318.793 36.6986 319.193 36.6194 319.603C36.5402 320.01 36.5006 320.424 36.5006 320.845C36.5042 321.263 36.5438 321.676 36.6302 322.083C36.713 322.493 36.8353 322.893 36.9973 323.278C37.1557 323.663 37.3536 324.027 37.5876 324.376C37.8215 324.721 38.0878 325.042 38.3866 325.337C38.6817 325.628 39.0056 325.891 39.3548 326.121C39.7039 326.352 40.071 326.546 40.4561 326.704C40.8448 326.863 41.2443 326.982 41.6546 327.061C42.0649 327.14 42.4788 327.18 42.8963 327.176C43.3138 327.172 43.7278 327.129 44.1381 327.046C44.5484 326.964 44.9443 326.838 45.3294 326.676C45.7145 326.514 46.0816 326.316 46.4271 326.082C46.7727 325.848 47.093 325.582 47.3881 325.283C47.6796 324.988 47.9424 324.664 48.1727 324.315C48.4031 323.966 48.5938 323.598 48.7522 323.21C48.9106 322.825 49.0293 322.425 49.1049 322.015C49.1841 321.604 49.2237 321.191 49.2201 320.769C49.2165 320.356 49.1697 319.945 49.0869 319.539C49.0041 319.132 48.8782 318.736 48.7162 318.354C48.5542 317.969 48.3599 317.606 48.1259 317.264C47.892 316.918 47.6293 316.602 47.3341 316.31C47.039 316.015 46.7187 315.756 46.3695 315.525C46.024 315.295 45.6569 315.101 45.2754 314.942C44.8903 314.784 44.4944 314.665 44.0841 314.586C43.6774 314.507 43.2671 314.464 42.8496 314.464Z" fill="#5E6175"/>
<path d="M438.136 266.015C438.136 267.908 438.046 269.798 437.859 271.684C437.672 273.566 437.394 275.438 437.024 277.295C436.657 279.152 436.196 280.988 435.645 282.798C435.095 284.612 434.458 286.394 433.734 288.143C433.007 289.892 432.201 291.602 431.305 293.272C430.412 294.942 429.44 296.565 428.386 298.138C427.335 299.714 426.208 301.233 425.006 302.694C423.804 304.159 422.533 305.563 421.195 306.902C419.852 308.241 418.452 309.511 416.987 310.71C415.522 311.912 414.003 313.038 412.427 314.089C410.851 315.144 409.227 316.116 407.557 317.008C405.887 317.901 404.174 318.711 402.425 319.434C400.676 320.158 398.89 320.795 397.08 321.345C395.266 321.896 393.43 322.357 391.573 322.724C389.713 323.094 387.841 323.372 385.955 323.559C384.069 323.742 382.179 323.836 380.286 323.836C378.39 323.836 376.5 323.742 374.614 323.559C372.732 323.372 370.856 323.094 368.999 322.724C367.142 322.357 365.307 321.896 363.493 321.345C361.679 320.795 359.897 320.158 358.148 319.434C356.395 318.711 354.685 317.901 353.015 317.008C351.345 316.116 349.722 315.144 348.146 314.089C346.569 313.038 345.05 311.912 343.585 310.71C342.121 309.511 340.717 308.241 339.378 306.902C338.039 305.563 336.769 304.159 335.567 302.694C334.364 301.233 333.238 299.714 332.183 298.138C331.132 296.565 330.157 294.942 329.264 293.272C328.372 291.602 327.562 289.892 326.838 288.143C326.111 286.394 325.474 284.612 324.927 282.798C324.377 280.988 323.916 279.152 323.545 277.295C323.178 275.438 322.897 273.566 322.714 271.684C322.527 269.798 322.433 267.908 322.433 266.015C322.433 264.122 322.527 262.232 322.714 260.346C322.897 258.464 323.178 256.592 323.545 254.735C323.916 252.878 324.377 251.043 324.927 249.229C325.474 247.418 326.111 245.637 326.838 243.887C327.562 242.138 328.372 240.429 329.264 238.759C330.157 237.089 331.132 235.465 332.183 233.892C333.238 232.316 334.364 230.797 335.567 229.332C336.769 227.871 338.039 226.467 339.378 225.128C340.717 223.79 342.121 222.519 343.585 221.317C345.05 220.118 346.569 218.992 348.146 217.937C349.722 216.886 351.345 215.915 353.015 215.022C354.685 214.129 356.395 213.32 358.148 212.596C359.897 211.869 361.679 211.232 363.493 210.685C365.307 210.134 367.142 209.674 368.999 209.306C370.856 208.936 372.732 208.659 374.614 208.471C376.5 208.288 378.39 208.194 380.286 208.194C382.179 208.194 384.069 208.288 385.955 208.471C387.841 208.659 389.713 208.936 391.573 209.306C393.43 209.674 395.266 210.134 397.08 210.685C398.89 211.232 400.676 211.869 402.425 212.596C404.174 213.32 405.887 214.129 407.557 215.022C409.227 215.915 410.851 216.886 412.427 217.937C414.003 218.992 415.522 220.118 416.987 221.317C418.452 222.519 419.852 223.79 421.195 225.128C422.533 226.467 423.804 227.871 425.006 229.332C426.208 230.797 427.335 232.316 428.386 233.892C429.44 235.465 430.412 237.089 431.305 238.759C432.201 240.429 433.007 242.138 433.734 243.887C434.458 245.637 435.095 247.418 435.645 249.229C436.196 251.043 436.657 252.878 437.024 254.735C437.394 256.592 437.672 258.464 437.859 260.346C438.046 262.232 438.136 264.122 438.136 266.015Z" fill="#F5F5F5"/>
<mask id="mask7_11094_16231" style="mask-type:luminance" maskUnits="userSpaceOnUse" x="318" y="205" width="124" height="123">
<path d="M318.724 205.053H441.097V327.598H318.724V205.053Z" fill="white"/>
</mask>
<g mask="url(#mask7_11094_16231)">
<path d="M380.29 326.803C379.293 326.803 378.299 326.777 377.306 326.731C376.309 326.68 375.319 326.608 374.326 326.511C373.336 326.414 372.35 326.291 371.364 326.147C370.381 326 369.399 325.831 368.423 325.636C367.448 325.442 366.476 325.226 365.511 324.981C364.543 324.74 363.586 324.477 362.632 324.186C361.682 323.898 360.735 323.588 359.8 323.25C358.86 322.915 357.932 322.559 357.014 322.178C356.092 321.796 355.182 321.397 354.282 320.968C353.382 320.544 352.493 320.097 351.615 319.629C350.737 319.158 349.873 318.668 349.02 318.157C348.163 317.646 347.325 317.114 346.497 316.563C345.669 316.009 344.856 315.436 344.057 314.846C343.254 314.252 342.473 313.64 341.703 313.01C340.933 312.377 340.177 311.729 339.443 311.06C338.705 310.394 337.981 309.706 337.28 309.005C336.574 308.299 335.89 307.579 335.221 306.841C334.551 306.104 333.9 305.351 333.27 304.585C332.637 303.815 332.025 303.03 331.434 302.231C330.841 301.432 330.268 300.618 329.714 299.791C329.16 298.963 328.627 298.124 328.116 297.271C327.605 296.418 327.115 295.551 326.644 294.676C326.176 293.798 325.726 292.909 325.301 292.009C324.877 291.109 324.474 290.202 324.092 289.281C323.711 288.363 323.354 287.435 323.016 286.499C322.681 285.563 322.368 284.617 322.08 283.666C321.792 282.713 321.526 281.755 321.285 280.791C321.044 279.826 320.824 278.854 320.63 277.879C320.435 276.904 320.266 275.925 320.119 274.938C319.975 273.956 319.852 272.966 319.755 271.976C319.658 270.986 319.582 269.997 319.536 269.003C319.485 268.006 319.46 267.013 319.46 266.02C319.46 265.023 319.485 264.029 319.532 263.036C319.582 262.043 319.654 261.049 319.752 260.059C319.852 259.07 319.971 258.083 320.119 257.097C320.266 256.115 320.435 255.136 320.63 254.16C320.824 253.185 321.04 252.213 321.281 251.249C321.526 250.284 321.789 249.323 322.08 248.373C322.368 247.419 322.681 246.476 323.016 245.54C323.351 244.601 323.707 243.676 324.089 242.755C324.47 241.837 324.873 240.926 325.298 240.026C325.726 239.127 326.172 238.241 326.64 237.363C327.112 236.485 327.601 235.621 328.112 234.764C328.624 233.911 329.156 233.073 329.71 232.245C330.265 231.417 330.837 230.604 331.427 229.805C332.021 229.006 332.633 228.221 333.266 227.454C333.896 226.684 334.548 225.932 335.217 225.194C335.883 224.456 336.571 223.736 337.272 223.035C337.978 222.329 338.698 221.645 339.435 220.976C340.173 220.306 340.926 219.659 341.696 219.025C342.466 218.395 343.251 217.783 344.05 217.19C344.849 216.599 345.662 216.027 346.49 215.473C347.318 214.918 348.16 214.389 349.013 213.878C349.866 213.364 350.733 212.874 351.611 212.406C352.49 211.938 353.379 211.488 354.278 211.064C355.178 210.639 356.085 210.236 357.007 209.854C357.928 209.473 358.853 209.117 359.792 208.782C360.728 208.447 361.675 208.134 362.625 207.846C363.579 207.558 364.54 207.292 365.504 207.051C366.469 206.81 367.441 206.59 368.416 206.396C369.391 206.201 370.374 206.032 371.357 205.888C372.343 205.741 373.329 205.618 374.322 205.521C375.312 205.424 376.305 205.352 377.299 205.301C378.292 205.255 379.286 205.229 380.283 205.229C381.279 205.229 382.273 205.255 383.266 205.301C384.26 205.352 385.253 205.424 386.243 205.521C387.236 205.618 388.222 205.741 389.208 205.888C390.191 206.032 391.174 206.205 392.149 206.399C393.124 206.594 394.096 206.81 395.061 207.051C396.025 207.292 396.986 207.558 397.94 207.846C398.89 208.138 399.837 208.447 400.773 208.785C401.712 209.12 402.637 209.477 403.558 209.858C404.476 210.24 405.387 210.643 406.287 211.067C407.186 211.492 408.075 211.938 408.954 212.41C409.832 212.878 410.699 213.367 411.552 213.878C412.405 214.393 413.247 214.922 414.072 215.476C414.899 216.031 415.713 216.603 416.515 217.193C417.314 217.787 418.099 218.399 418.866 219.032C419.636 219.662 420.392 220.31 421.126 220.979C421.864 221.649 422.587 222.333 423.289 223.038C423.995 223.74 424.678 224.46 425.348 225.198C426.017 225.936 426.665 226.688 427.299 227.458C427.928 228.228 428.54 229.013 429.134 229.812C429.728 230.611 430.3 231.424 430.851 232.252C431.405 233.076 431.938 233.919 432.449 234.772C432.96 235.625 433.45 236.492 433.921 237.367C434.389 238.245 434.835 239.134 435.264 240.034C435.688 240.933 436.091 241.84 436.473 242.762C436.851 243.68 437.211 244.608 437.545 245.544C437.88 246.483 438.193 247.426 438.481 248.38C438.769 249.33 439.035 250.288 439.277 251.256C439.518 252.22 439.737 253.189 439.932 254.164C440.126 255.143 440.295 256.122 440.443 257.104C440.587 258.091 440.709 259.077 440.806 260.067C440.903 261.056 440.975 262.05 441.026 263.043C441.073 264.036 441.098 265.03 441.098 266.027C441.098 267.02 441.073 268.014 441.022 269.007C440.972 270 440.896 270.99 440.799 271.98C440.702 272.97 440.58 273.956 440.432 274.938C440.284 275.925 440.112 276.904 439.917 277.879C439.723 278.854 439.503 279.822 439.262 280.787C439.021 281.752 438.755 282.709 438.463 283.659C438.175 284.613 437.862 285.556 437.527 286.492C437.189 287.428 436.833 288.356 436.451 289.274C436.07 290.192 435.667 291.099 435.242 291.998C434.814 292.898 434.367 293.784 433.896 294.662C433.428 295.54 432.938 296.404 432.427 297.257C431.913 298.11 431.38 298.948 430.829 299.776C430.275 300.601 429.703 301.414 429.109 302.213C428.519 303.012 427.907 303.797 427.273 304.563C426.644 305.333 425.992 306.086 425.326 306.82C424.657 307.558 423.969 308.278 423.268 308.979C422.566 309.685 421.842 310.369 421.108 311.038C420.37 311.704 419.618 312.355 418.848 312.985C418.077 313.615 417.293 314.227 416.494 314.821C415.695 315.415 414.885 315.987 414.057 316.538C413.229 317.092 412.391 317.625 411.538 318.136C410.685 318.647 409.817 319.136 408.939 319.604C408.065 320.076 407.176 320.522 406.276 320.947C405.376 321.375 404.469 321.778 403.548 322.156C402.63 322.537 401.701 322.897 400.765 323.232C399.83 323.567 398.887 323.88 397.933 324.172C396.983 324.459 396.022 324.726 395.057 324.967C394.093 325.208 393.124 325.428 392.149 325.622C391.174 325.816 390.191 325.989 389.208 326.137C388.226 326.281 387.236 326.407 386.246 326.504C385.257 326.601 384.267 326.677 383.273 326.727C382.28 326.777 381.283 326.803 380.29 326.803ZM380.29 211.15C378.49 211.15 376.698 211.237 374.909 211.413C373.117 211.589 371.342 211.852 369.579 212.205C367.815 212.554 366.073 212.989 364.349 213.511C362.629 214.033 360.937 214.638 359.278 215.325C357.615 216.013 355.992 216.779 354.404 217.625C352.821 218.474 351.28 219.396 349.783 220.393C348.289 221.393 346.846 222.462 345.457 223.603C344.064 224.741 342.736 225.946 341.462 227.217C340.191 228.487 338.986 229.819 337.845 231.208C336.704 232.598 335.631 234.037 334.634 235.531C333.634 237.028 332.709 238.565 331.863 240.152C331.013 241.736 330.247 243.359 329.559 245.018C328.868 246.678 328.264 248.369 327.742 250.09C327.22 251.81 326.784 253.552 326.432 255.312C326.083 257.076 325.816 258.85 325.64 260.639C325.463 262.428 325.377 264.22 325.377 266.02C325.377 267.816 325.463 269.608 325.64 271.397C325.816 273.186 326.079 274.964 326.428 276.724C326.781 278.487 327.216 280.229 327.738 281.95C328.26 283.67 328.865 285.358 329.552 287.021C330.24 288.68 331.01 290.303 331.856 291.887C332.705 293.474 333.626 295.015 334.627 296.508C335.624 298.002 336.693 299.445 337.834 300.834C338.975 302.224 340.18 303.552 341.455 304.826C342.725 306.096 344.057 307.302 345.446 308.44C346.835 309.58 348.279 310.649 349.772 311.65C351.27 312.647 352.81 313.572 354.394 314.418C355.981 315.267 357.604 316.034 359.263 316.721C360.926 317.409 362.618 318.013 364.338 318.535C366.059 319.057 367.801 319.493 369.564 319.845C371.328 320.194 373.106 320.461 374.895 320.637C376.683 320.813 378.479 320.9 380.275 320.9C382.075 320.9 383.867 320.813 385.656 320.637C387.448 320.461 389.223 320.198 390.986 319.845C392.75 319.496 394.492 319.061 396.216 318.539C397.936 318.017 399.628 317.412 401.287 316.725C402.95 316.037 404.573 315.267 406.157 314.421C407.744 313.576 409.285 312.651 410.782 311.654C412.276 310.653 413.719 309.584 415.108 308.447C416.497 307.306 417.829 306.1 419.1 304.83C420.374 303.559 421.579 302.227 422.72 300.838C423.861 299.449 424.93 298.009 425.931 296.512C426.928 295.018 427.853 293.478 428.699 291.894C429.548 290.31 430.315 288.687 431.002 287.024C431.693 285.365 432.298 283.674 432.82 281.957C433.342 280.236 433.777 278.494 434.126 276.731C434.479 274.967 434.742 273.193 434.918 271.404C435.094 269.615 435.184 267.823 435.184 266.027C435.181 264.227 435.091 262.438 434.914 260.65C434.734 258.861 434.472 257.086 434.119 255.326C433.766 253.563 433.327 251.824 432.805 250.104C432.283 248.387 431.679 246.696 430.988 245.036C430.3 243.377 429.53 241.758 428.684 240.174C427.835 238.587 426.913 237.05 425.913 235.556C424.916 234.063 423.847 232.623 422.706 231.234C421.565 229.844 420.359 228.516 419.089 227.246C417.818 225.975 416.487 224.769 415.097 223.628C413.708 222.488 412.268 221.419 410.775 220.422C409.277 219.421 407.741 218.5 406.153 217.65C404.57 216.804 402.947 216.034 401.287 215.347C399.628 214.659 397.936 214.051 396.22 213.529C394.499 213.007 392.757 212.568 390.994 212.215C389.234 211.863 387.456 211.6 385.667 211.42C383.878 211.244 382.086 211.154 380.29 211.15Z" fill="#5E6175"/>
</g>
<path d="M351.819 283.48C350.412 282.074 350.412 279.794 351.819 278.388L392.735 237.491C394.14 236.086 396.419 236.086 397.825 237.491L408.313 247.975C409.72 249.381 409.72 251.661 408.313 253.067L367.397 293.964C365.992 295.369 363.713 295.369 362.307 293.964L351.819 283.48Z" fill="#EED124"/>
<path d="M351.826 253.067C350.419 251.661 350.419 249.381 351.826 247.975L362.314 237.491C363.72 236.086 365.999 236.086 367.404 237.491L408.32 278.388C409.727 279.794 409.727 282.074 408.32 283.48L397.832 293.964C396.426 295.369 394.147 295.369 392.742 293.964L351.826 253.067Z" fill="#EED124"/>
<path d="M110.257 357.32C110.257 357.737 110.217 358.155 110.135 358.565C110.052 358.975 109.93 359.375 109.771 359.763C109.609 360.148 109.415 360.516 109.181 360.865C108.947 361.214 108.681 361.538 108.385 361.833C108.09 362.132 107.766 362.394 107.417 362.628C107.068 362.859 106.701 363.057 106.312 363.219C105.927 363.377 105.528 363.499 105.114 363.582C104.704 363.661 104.29 363.704 103.869 363.704C103.447 363.704 103.034 363.661 102.623 363.582C102.209 363.499 101.81 363.377 101.425 363.219C101.036 363.057 100.669 362.859 100.32 362.628C99.9706 362.394 99.6467 362.128 99.3516 361.833C99.0528 361.538 98.7901 361.214 98.5561 360.865C98.3222 360.516 98.1278 360.148 97.9659 359.763C97.8075 359.375 97.6851 358.975 97.6024 358.565C97.5196 358.155 97.48 357.737 97.48 357.32C97.48 356.898 97.5196 356.485 97.6024 356.074C97.6851 355.66 97.8075 355.261 97.9659 354.876C98.1278 354.487 98.3222 354.12 98.5561 353.771C98.7901 353.422 99.0528 353.101 99.3516 352.803C99.6467 352.507 99.9706 352.241 100.32 352.011C100.669 351.777 101.036 351.579 101.425 351.42C101.81 351.258 102.209 351.136 102.623 351.057C103.034 350.974 103.447 350.935 103.869 350.935C104.29 350.935 104.704 350.974 105.114 351.057C105.528 351.136 105.927 351.258 106.312 351.42C106.701 351.579 107.068 351.777 107.417 352.011C107.766 352.241 108.09 352.507 108.385 352.803C108.681 353.101 108.947 353.422 109.181 353.771C109.415 354.12 109.609 354.487 109.771 354.876C109.93 355.261 110.052 355.66 110.135 356.074C110.217 356.485 110.257 356.898 110.257 357.32Z" fill="#F5F5F5"/>
<path d="M284.787 357.32C284.787 357.737 284.744 358.155 284.661 358.565C284.582 358.975 284.459 359.375 284.297 359.763C284.139 360.148 283.941 360.516 283.707 360.865C283.477 361.214 283.21 361.538 282.915 361.833C282.616 362.132 282.296 362.394 281.947 362.628C281.598 362.859 281.227 363.057 280.842 363.219C280.453 363.377 280.054 363.499 279.644 363.582C279.23 363.661 278.816 363.704 278.398 363.704C277.977 363.704 277.563 363.661 277.149 363.582C276.739 363.499 276.34 363.377 275.951 363.219C275.566 363.057 275.195 362.859 274.846 362.628C274.497 362.394 274.176 362.128 273.878 361.833C273.583 361.538 273.316 361.214 273.086 360.865C272.852 360.516 272.654 360.148 272.496 359.763C272.334 359.375 272.211 358.975 272.132 358.565C272.049 358.155 272.01 357.737 272.01 357.32C272.01 356.898 272.049 356.485 272.132 356.074C272.211 355.66 272.334 355.261 272.496 354.876C272.654 354.487 272.852 354.12 273.086 353.771C273.316 353.422 273.583 353.101 273.878 352.803C274.176 352.507 274.497 352.241 274.846 352.011C275.195 351.777 275.566 351.579 275.951 351.42C276.34 351.258 276.739 351.136 277.149 351.057C277.563 350.974 277.977 350.935 278.398 350.935C278.816 350.935 279.23 350.974 279.644 351.057C280.054 351.136 280.453 351.258 280.842 351.42C281.227 351.579 281.598 351.777 281.947 352.011C282.296 352.241 282.616 352.507 282.915 352.803C283.21 353.101 283.477 353.422 283.707 353.771C283.941 354.12 284.139 354.487 284.297 354.876C284.459 355.261 284.582 355.66 284.661 356.074C284.744 356.485 284.787 356.898 284.787 357.32Z" fill="#F5F5F5"/>
</svg>
