<svg width="33" height="32" viewBox="0 0 33 32" fill="none" xmlns="http://www.w3.org/2000/svg">
<path d="M32.5001 16C32.5001 7.16351 25.3366 0 16.5 0C7.66352 0 0.5 7.16339 0.5 16C0.5 23.986 6.35101 30.6054 14 31.8057V20.625H9.93752V16H14V12.475C14 8.46502 16.3888 6.25001 20.0434 6.25001C21.794 6.25001 23.625 6.56251 23.625 6.56251V10.5H21.6075C19.6198 10.5 19 11.7334 19 12.9988V16H23.4375L22.7282 20.625H19V31.8057C26.6491 30.6054 32.5001 23.9862 32.5001 16Z" fill="#1877F2"/>
<path d="M22.7282 20.625L23.4375 16H19V12.9988C19 11.7333 19.6199 10.5 21.6075 10.5H23.625V6.5625C23.625 6.5625 21.794 6.25 20.0434 6.25C16.3888 6.25 14 8.465 14 12.475V16H9.9375V20.625H14V31.8057C14.827 31.9353 15.6629 32.0003 16.5 32.0001C17.3371 32.0003 18.173 31.9353 19 31.8057V20.625H22.7282Z" fill="white"/>
</svg>
