<svg width="38" height="37" viewBox="0 0 38 37" fill="none" xmlns="http://www.w3.org/2000/svg">
<rect width="38" height="37" fill="#AEAEAE"/>
<path d="M-300 -701C-300 -709.284 -293.284 -716 -285 -716H1125C1133.28 -716 1140 -709.284 1140 -701V175C1140 183.284 1133.28 190 1125 190H-285C-293.284 190 -300 183.284 -300 175V-701Z" fill="white"/>
<path d="M36.7154 15.133H35.2425V15.0571H18.7856V22.3714H29.1196C27.612 26.6292 23.5608 29.6856 18.7856 29.6856C12.7266 29.6856 7.81422 24.7732 7.81422 18.7143C7.81422 12.6553 12.7266 7.74293 18.7856 7.74293C21.5823 7.74293 24.1268 8.79801 26.0641 10.5214L31.2362 5.34935C27.9704 2.30572 23.602 0.428711 18.7856 0.428711C8.68736 0.428711 0.5 8.61607 0.5 18.7143C0.5 28.8125 8.68736 36.9998 18.7856 36.9998C28.8837 36.9998 37.0711 28.8125 37.0711 18.7143C37.0711 17.4882 36.9449 16.2914 36.7154 15.133Z" fill="#FFC107"/>
<path d="M2.6084 10.2033L8.61612 14.6092C10.2417 10.5845 14.1786 7.74293 18.7856 7.74293C21.5824 7.74293 24.1268 8.79801 26.0642 10.5214L31.2363 5.34935C27.9705 2.30572 23.602 0.428711 18.7856 0.428711C11.7621 0.428711 5.67123 4.39393 2.6084 10.2033Z" fill="#FF3D00"/>
<path d="M18.7856 37.0005C23.5087 37.0005 27.8003 35.1929 31.0451 32.2535L25.3857 27.4645C23.4882 28.9076 21.1695 29.6881 18.7856 29.6862C14.0295 29.6862 9.99111 26.6536 8.46976 22.4214L2.50684 27.0156C5.5331 32.9374 11.6789 37.0005 18.7856 37.0005Z" fill="#4CAF50"/>
<path d="M36.716 15.1335H35.2431V15.0576H18.7861V22.3718H29.1202C28.399 24.3983 27.1 26.169 25.3836 27.4653L25.3863 27.4634L31.0457 32.2524C30.6452 32.6163 37.0717 27.8575 37.0717 18.7147C37.0717 17.4887 36.9455 16.2919 36.716 15.1335Z" fill="#1976D2"/>
</svg>