<svg width="28" height="28" viewBox="0 0 28 28" fill="none" xmlns="http://www.w3.org/2000/svg">
<g clip-path="url(#clip0_11012_2286)">
<path d="M25.9976 0.4375H2.87735C2.3463 0.4375 1.83699 0.648462 1.46148 1.02398C1.08596 1.39949 0.875 1.9088 0.875 2.43985V25.5601C0.875 26.0912 1.08596 26.6005 1.46148 26.976C1.83699 27.3515 2.3463 27.5625 2.87735 27.5625H25.9976C26.5287 27.5625 27.038 27.3515 27.4135 26.976C27.789 26.6005 28 26.0912 28 25.5601V2.43985C28 1.9088 27.789 1.39949 27.4135 1.02398C27.038 0.648462 26.5287 0.4375 25.9976 0.4375ZM8.95976 23.5446H4.88159V10.5905H8.95976V23.5446ZM6.91785 8.79539C6.45525 8.79279 6.00379 8.65321 5.62044 8.39427C5.2371 8.13533 4.93905 7.76863 4.76391 7.34046C4.58877 6.91229 4.54439 6.44184 4.63637 5.98847C4.72835 5.5351 4.95257 5.11914 5.28073 4.79308C5.60889 4.46702 6.02628 4.24547 6.48023 4.15641C6.93418 4.06734 7.40434 4.11474 7.83138 4.29262C8.25842 4.47051 8.62319 4.77091 8.87966 5.15591C9.13614 5.54091 9.27281 5.99326 9.27245 6.45586C9.27681 6.76557 9.21878 7.073 9.1018 7.35981C8.98482 7.64661 8.8113 7.90693 8.59158 8.12525C8.37185 8.34357 8.11042 8.51542 7.82287 8.63055C7.53532 8.74568 7.22753 8.80174 6.91785 8.79539ZM23.9915 23.5559H19.9152V16.4789C19.9152 14.3918 19.028 13.7476 17.8828 13.7476C16.6734 13.7476 15.4867 14.6593 15.4867 16.5317V23.5559H11.4085V10.6H15.3304V12.3951H15.3831C15.7768 11.5983 17.1557 10.2364 19.2597 10.2364C21.5352 10.2364 23.9934 11.587 23.9934 15.5427L23.9915 23.5559Z" fill="#E11F25"/>
</g>
<defs>
<clipPath id="clip0_11012_2286">
<rect width="27.125" height="27.125" fill="white" transform="translate(0.875 0.4375)"/>
</clipPath>
</defs>
</svg>
