<svg width="128" height="120" viewBox="0 0 128 120" fill="none" xmlns="http://www.w3.org/2000/svg">
<g clip-path="url(#clip0_11012_1845)">
<path d="M0.901367 60.1672C0.99675 48.547 4.14767 38.0253 10.4166 28.4574C15.2614 21.0636 21.4646 15.0413 28.9077 10.2853C36.1503 5.66088 44.0111 2.61849 52.4607 1.08908C58.335 0.0267094 64.252 -0.272596 70.1986 0.253655C82.4537 1.33247 93.6233 5.39117 103.537 12.7028C113.338 19.9288 120.459 29.2336 124.642 40.7058C126.609 46.0966 127.675 51.6782 127.938 57.4209C128.33 65.9856 126.866 74.2247 123.551 82.1152C119.794 91.0581 114.111 98.6065 106.684 104.836C98.7839 111.467 89.7784 115.897 79.7468 118.252C73.5074 119.716 67.1891 120.245 60.7886 119.897C49.8722 119.301 39.6959 116.259 30.3319 110.621C20.8068 104.889 13.2748 97.1824 7.92352 87.4138C4.72655 81.5757 2.61497 75.3561 1.60194 68.7648C1.15462 65.854 0.957281 62.93 0.901367 60.1705V60.1672ZM64.548 6.02596C62.9232 6.00294 61.3083 6.11805 59.6868 6.23646C55.832 6.52261 52.0562 7.19358 48.3264 8.20003C44.7906 9.15386 41.3832 10.4333 38.0941 12.0252C32.552 14.7058 27.5526 18.1889 23.1289 22.4713C20.1457 25.3591 17.521 28.5495 15.2581 32.0359C13.1235 35.3282 11.3737 38.8212 10.0318 42.5082C9.00562 45.3336 8.24584 48.2312 7.72288 51.198C7.25255 53.8555 7.00258 56.5229 6.95653 59.2101C6.9072 61.9795 7.09467 64.7423 7.5091 67.492C7.87747 69.9456 8.38727 72.3664 9.09771 74.7312C9.74566 76.8954 10.5548 79.0103 11.4954 81.0725C13.6958 85.9107 16.554 90.3181 20.0634 94.3011C22.9282 97.5507 26.1153 100.448 29.6445 102.961C31.687 104.415 33.8084 105.744 36.022 106.918C38.8144 108.398 41.7055 109.645 44.6952 110.687C47.6192 111.707 50.6057 112.457 53.6382 113.032C56.5227 113.578 59.4467 113.815 62.3805 113.943C66.209 114.108 70.0144 113.835 73.7936 113.272C76.5663 112.861 79.2929 112.223 81.9866 111.411C85.0191 110.496 87.9629 109.375 90.8079 107.99C95.0508 105.925 98.9779 103.382 102.619 100.363C105.947 97.6033 108.904 94.5083 111.499 91.0713C114.361 87.279 116.67 83.1676 118.41 78.7373C119.225 76.6619 119.913 74.547 120.459 72.3927C120.814 70.9883 121.084 69.5575 121.311 68.1169C121.689 65.6994 121.945 63.2754 121.978 60.8316C122.041 56.1743 121.478 51.5926 120.304 47.0768C119.485 43.9226 118.383 40.8736 116.982 37.9463C114.963 33.7265 112.417 29.8355 109.368 26.2767C106.632 23.0798 103.583 20.2117 100.205 17.7087C97.1426 15.4425 93.893 13.4757 90.4395 11.8476C87.9234 10.6603 85.3546 9.61433 82.7069 8.79535C79.7172 7.87112 76.6715 7.16727 73.5633 6.72324C70.5703 6.29567 67.5707 6.0457 64.5513 6.02596H64.548Z" fill="#070604"/>
<path d="M64.5481 6.02597C67.5675 6.0457 70.5671 6.29567 73.5601 6.72325C76.6683 7.16727 79.714 7.87113 82.7037 8.79536C85.3514 9.61433 87.9235 10.6603 90.4363 11.8476C93.8898 13.4757 97.1427 15.4426 100.202 17.7087C103.579 20.2084 106.628 23.0798 109.365 26.2767C112.414 29.8355 114.96 33.7297 116.979 37.9463C118.38 40.8736 119.482 43.9226 120.301 47.0768C121.475 51.5926 122.038 56.1743 121.975 60.8316C121.942 63.2754 121.686 65.6994 121.307 68.1169C121.081 69.5575 120.814 70.9883 120.456 72.3927C119.91 74.547 119.222 76.6619 118.407 78.7373C116.667 83.1676 114.354 87.279 111.496 91.0713C108.901 94.5083 105.944 97.6033 102.616 100.363C98.9747 103.382 95.0476 105.921 90.8047 107.99C87.9629 109.375 85.0159 110.496 81.9834 111.411C79.2897 112.223 76.563 112.861 73.7904 113.272C70.0112 113.835 66.2025 114.108 62.3773 113.943C59.4435 113.818 56.5195 113.582 53.635 113.032C50.6025 112.457 47.6193 111.707 44.692 110.687C41.7023 109.645 38.8145 108.398 36.0188 106.918C33.8019 105.744 31.6838 104.415 29.6413 102.961C26.1088 100.448 22.9217 97.5507 20.0602 94.3011C16.5508 90.3181 13.6893 85.9107 11.4922 81.0725C10.5548 79.0103 9.74573 76.8954 9.0945 74.7312C8.38406 72.3631 7.87426 69.9423 7.50588 67.492C7.09146 64.7423 6.90727 61.9828 6.95332 59.2101C6.99937 56.5229 7.24933 53.8522 7.71967 51.198C8.24592 48.2312 9.0024 45.3336 10.0286 42.5083C11.3705 38.8212 13.1203 35.3282 15.2549 32.0359C17.5145 28.5495 20.1425 25.3591 23.1256 22.4713C27.5527 18.1889 32.5488 14.7091 38.0909 12.0252C41.3799 10.4333 44.7874 9.15386 48.3232 8.20004C52.053 7.19358 55.8288 6.52261 59.6836 6.23646C61.3018 6.11806 62.92 6.00294 64.5448 6.02597H64.5481ZM64.16 109.638C66.1334 109.638 67.8931 109.559 69.6593 109.411C72.7346 109.158 75.7572 108.605 78.7305 107.826C81.8453 107.01 84.8646 105.902 87.7787 104.524C92.1203 102.471 96.1297 99.9123 99.7773 96.7811C105.74 91.6633 110.306 85.5193 113.364 78.2768C114.45 75.7081 115.285 73.0538 115.89 70.3239C116.394 68.0577 116.732 65.7685 116.917 63.4596C117.127 60.8744 117.061 58.2958 116.834 55.7106C116.555 52.5103 115.956 49.3725 115.022 46.3137C113.526 41.3998 111.282 36.8346 108.322 32.6246C105.612 28.7764 102.438 25.3624 98.7905 22.3956C94.6299 19.0112 90.0548 16.324 85.0719 14.321C81.5197 12.8935 77.8688 11.841 74.0962 11.1931C71.7084 10.782 69.3074 10.5484 66.8866 10.4169C63.7785 10.2491 60.6867 10.407 57.6082 10.7622C54.8388 11.0813 52.1121 11.6568 49.4217 12.4166C44.6591 13.7586 40.1564 15.6958 35.9431 18.2777C30.6872 21.4977 26.1154 25.4972 22.2935 30.3552C19.2972 34.1639 16.9027 38.3048 15.1233 42.8207C13.4295 47.1294 12.4296 51.5894 12.0119 56.1809C11.7093 59.5028 11.831 62.8314 12.2619 66.1369C12.6927 69.4555 13.4722 72.7051 14.607 75.8561C16.0805 79.9411 18.0605 83.7663 20.5536 87.325C24.2801 92.6467 28.8749 97.0705 34.2756 100.665C39.7979 104.343 45.8202 106.869 52.2766 108.326C56.2465 109.224 60.2789 109.707 64.1567 109.635L64.16 109.638Z" fill="#E11F25"/>
<path d="M64.1604 109.638C60.2859 109.71 56.2535 109.227 52.2803 108.329C45.8239 106.869 39.8016 104.343 34.2793 100.669C28.8786 97.0738 24.2838 92.65 20.5573 87.3283C18.0642 83.7663 16.0842 79.9444 14.6107 75.8594C13.476 72.7084 12.6965 69.4588 12.2656 66.1402C11.838 62.8347 11.713 59.5061 12.0156 56.1842C12.4333 51.5927 13.4332 47.1327 15.1271 42.824C16.9032 38.3081 19.2976 34.1672 22.2972 30.3585C26.1158 25.5038 30.6909 21.501 35.9468 18.281C40.1634 15.6991 44.6629 13.7618 49.4254 12.4199C52.1159 11.6634 54.8425 11.0878 57.6119 10.7655C60.6905 10.4103 63.7822 10.2524 66.8904 10.4202C69.3111 10.5484 71.7121 10.7852 74.1 11.1964C77.8692 11.8443 81.5234 12.8968 85.0756 14.3243C90.0552 16.3273 94.6336 19.0145 98.7943 22.3989C102.442 25.3657 105.616 28.7797 108.326 32.6279C111.286 36.8379 113.529 41.4031 115.026 46.317C115.96 49.3791 116.558 52.5136 116.838 55.7138C117.065 58.299 117.128 60.8777 116.92 63.4629C116.733 65.7718 116.397 68.061 115.894 70.3272C115.286 73.0571 114.453 75.7113 113.368 78.2801C110.309 85.5226 105.744 91.6666 99.781 96.7844C96.1334 99.9156 92.124 102.474 87.7825 104.527C84.8651 105.905 81.8457 107.013 78.7343 107.829C75.761 108.609 72.7383 109.161 69.663 109.414C67.9001 109.559 66.1404 109.638 64.1637 109.641L64.1604 109.638ZM112.901 60.256C112.95 56.5361 112.516 53.1418 111.678 49.7837C110.987 47.0274 110.049 44.3699 108.832 41.8143C106.639 37.2162 103.702 33.1246 100.113 29.5132C97.3865 26.7701 94.3705 24.3691 91.0584 22.3759C86.6839 19.7447 82.0233 17.7778 77.0404 16.5773C75.113 16.1135 73.179 15.6827 71.222 15.4557C68.3079 15.1169 65.384 14.9624 62.4403 15.0972C59.2235 15.2419 56.0562 15.6333 52.9118 16.3405C51.2607 16.7121 49.6261 17.1364 48.0341 17.6791C44.8898 18.7448 41.8639 20.0834 38.9794 21.751C35.9172 23.5205 33.0821 25.586 30.464 27.9574C27.3525 30.7762 24.7048 33.9797 22.465 37.5319C20.5573 40.5578 19.0871 43.7877 17.9688 47.1721C17.3702 48.9844 16.9426 50.8526 16.6302 52.7504C16.1105 55.9211 15.8309 59.0851 16.048 62.3018C16.2782 65.7422 16.8374 69.1102 17.8669 72.4058C18.5247 74.5108 19.3173 76.5534 20.281 78.5301C21.7973 81.6415 23.6688 84.5195 25.856 87.2033C28.5925 90.5615 31.7632 93.4427 35.2989 95.9259C38.4564 98.1428 41.8376 99.955 45.4292 101.376C47.281 102.109 49.1656 102.724 51.0897 103.228C52.6684 103.642 54.2604 103.984 55.872 104.257C57.7303 104.573 59.6018 104.826 61.4766 104.895C64.838 105.02 68.1961 104.991 71.5444 104.484C73.4882 104.191 75.4222 103.866 77.32 103.389C79.5006 102.843 81.6286 102.116 83.7205 101.277C86.8352 100.031 89.7987 98.4947 92.5911 96.6495C96.2979 94.2025 99.6099 91.2884 102.491 87.9039C104.613 85.4141 106.451 82.7302 107.981 79.8325C109.309 77.3131 110.372 74.6983 111.204 71.975C111.826 69.9357 112.27 67.8604 112.579 65.7619C112.862 63.8576 112.987 61.9236 112.904 60.2528L112.901 60.256Z" fill="#EED124"/>
<path d="M55.7042 20.2841C53.1585 21.7773 51.7573 24.1421 50.5239 26.6352C50.3233 27.0398 50.218 27.4805 50.1654 27.9344C50.07 28.7797 50.3233 29.2566 51.0239 29.4868C51.8198 29.75 52.5401 29.4868 52.8986 28.7567C53.2407 28.0561 53.5795 27.3555 53.9972 26.6977C55.8127 23.8461 58.3881 21.8727 61.3384 20.3137C62.825 19.5276 64.3774 18.9914 66.0516 18.8073C66.2752 18.7809 66.568 18.702 66.6666 18.929C66.7489 19.1164 66.4792 19.2579 66.341 19.4059C64.8609 20.9978 63.4039 22.6127 62.1508 24.3954C61.6212 25.1486 61.312 25.9906 61.2792 26.9181C61.2528 27.7502 62.0093 28.2107 62.7592 27.8423C63.0816 27.6812 63.2986 27.4115 63.5256 27.1417C65.1635 25.2078 67.0186 23.5534 69.4656 22.7114C70.9358 22.2082 72.462 22.0174 74.0144 22.0667C74.3203 22.0766 74.715 22.0601 74.8038 22.3956C74.886 22.7114 74.5111 22.8495 74.2841 23.0107C72.0081 24.6157 70.061 26.5234 68.7848 29.0395C68.5743 29.454 68.4394 29.9046 68.8769 30.2762C69.3176 30.6479 69.788 30.5953 70.2386 30.2927C70.4951 30.1216 70.7319 29.9276 70.9687 29.7302C71.9489 28.9146 72.9751 28.1712 74.0868 27.5463C76.4549 26.2142 78.9875 26.0169 81.6056 26.4313C82.2502 26.5333 82.8883 26.6977 83.5264 26.849C83.7237 26.8951 83.9605 26.9641 83.9967 27.1911C84.0428 27.4641 83.7599 27.4904 83.5922 27.5825C82.7107 28.0693 81.7766 28.4442 80.8261 28.7731C78.6191 29.5428 76.7937 30.9439 74.9419 32.3023C73.6526 33.2495 72.337 34.1606 70.8997 34.8743C68.2586 36.1834 65.4892 36.2294 62.6606 35.7229C60.9634 35.417 59.3386 34.7987 57.6217 34.5849C54.5892 34.2067 51.9185 34.8382 49.9056 37.3543C48.4715 39.1468 48.2479 41.1893 48.5571 43.3535C48.886 45.6658 49.8661 47.7905 50.5667 49.9942C51.3593 52.4873 52.0007 55.01 51.9185 57.6511C51.8428 60.0159 51.4021 62.2788 49.626 64.0286C47.4355 66.1895 44.7713 66.8769 41.7651 66.5118C39.1602 66.1961 37.4104 64.8114 36.7263 62.3018C35.6902 58.5095 36.3316 55.6645 39.7292 53.1319C40.8639 52.2866 42.0677 51.5334 43.186 50.6684C44.4918 49.6554 45.4292 48.3825 45.5213 46.6525C45.6133 44.906 44.8569 43.939 43.1465 43.5213C41.6369 43.1529 40.0844 42.9325 38.6438 42.301C38.2458 42.1267 37.8742 41.9195 37.5716 41.5972C36.9434 40.9262 37.0289 40.3013 37.8709 39.9527C38.8741 39.5382 39.9134 39.2126 40.933 38.8377C41.8572 38.4989 42.7913 38.1766 43.6169 37.624C44.6891 36.907 45.0476 35.9959 44.7056 34.7559C44.5247 34.1047 44.2714 33.4765 44.0543 32.8351C43.3998 30.9077 43.7484 29.0494 44.551 27.27C45.8107 24.4677 47.7545 22.2706 50.5667 20.9386C51.9941 20.261 53.5071 19.9255 55.1023 20.067C55.3062 20.0867 55.5134 20.1097 55.7042 20.2873V20.2841Z" fill="#E11F25"/>
<path d="M36.0283 87.4599C35.9856 84.9109 36.2882 82.5756 37.5907 80.4673C38.8372 78.4511 40.4785 76.8 42.317 75.3298C45.7442 72.59 49.5431 70.4324 53.3321 68.2616C55.5029 67.0184 57.7493 65.8836 59.7162 64.3279C64.6037 60.4665 67.0738 55.4014 66.9357 49.1522C66.883 46.7479 66.1792 44.4685 65.1662 42.2846C64.857 41.6136 64.6004 40.9163 64.5314 40.173C64.4327 39.137 64.7419 38.9199 65.6825 39.3508C69.0144 40.8802 71.3858 43.3733 72.8987 46.6821C76.1319 53.7536 73.7868 60.8086 68.1592 65.5218C65.5411 67.7123 62.5185 69.2385 59.43 70.6363C55.4009 72.4618 51.2633 74.0668 47.5466 76.5172C44.5733 78.4774 41.9092 80.7568 40.0311 83.8353C38.7089 86.0061 38.038 88.3216 38.5215 90.8838C38.5642 91.1042 38.5938 91.3377 38.5576 91.5548C38.4886 91.956 38.3175 92.3014 37.8604 92.3935C37.4295 92.4823 37.0874 92.331 36.844 91.9823C36.4362 91.3969 36.2586 90.7193 36.1698 90.0221C36.0547 89.1241 35.9889 88.2229 36.0283 87.45V87.4599Z" fill="#E11F25"/>
<path d="M56.9306 87.7066C59.0685 88.7295 59.7657 89.9925 59.5881 92.4099C59.4368 94.459 58.1738 96.018 56.128 96.6594C55.3419 96.9061 54.5295 97.0409 53.704 97.0442C51.053 97.0541 48.402 97.0409 45.751 97.0639C45.3235 97.0672 45.2577 96.9225 45.2577 96.541C45.2675 91.0943 45.2708 85.6476 45.2511 80.2009C45.2511 79.724 45.3827 79.6352 45.83 79.6385C48.5007 79.6615 51.1747 79.6418 53.8454 79.6549C54.8354 79.6582 55.8057 79.8161 56.7102 80.2502C58.2067 80.9673 58.9599 82.1776 59.0323 83.8156C59.1013 85.3582 58.585 86.6343 57.2364 87.4961C57.1542 87.5487 57.072 87.6046 56.9273 87.7033L56.9306 87.7066ZM51.4872 89.3971C50.6781 89.3971 50.017 89.43 49.3624 89.3873C48.8724 89.3544 48.6849 89.4596 48.7145 90.0023C48.7671 90.943 48.7276 91.8902 48.7276 92.8342C48.7276 94.0512 48.7276 94.0643 49.9314 94.0446C51.3063 94.0216 52.6844 94.1531 54.0526 93.9525C55.2827 93.7716 55.9701 92.9395 55.9965 91.6501C56.0228 90.4595 55.4011 89.7425 54.1579 89.4991C53.2205 89.3149 52.2732 89.4399 51.4839 89.3971H51.4872ZM51.2964 86.4633C51.2964 86.4633 51.2964 86.4436 51.2964 86.4337C52.0562 86.4337 52.8192 86.4699 53.5757 86.4238C54.6085 86.3613 55.309 85.8449 55.513 85.0852C55.855 83.8057 55.2268 82.9177 53.8191 82.7368C52.2436 82.5361 50.6583 82.6809 49.0796 82.6381C48.8099 82.6315 48.7211 82.7236 48.7243 82.9867C48.7342 84.0327 48.7375 85.0819 48.7243 86.1278C48.7211 86.4041 48.8197 86.4732 49.0796 86.4666C49.8196 86.4534 50.5596 86.46 51.2964 86.46V86.4633Z" fill="#070604"/>
<path d="M90.4526 85.4075C90.3507 85.4075 90.2454 85.3976 90.1435 85.4075C89.2456 85.5127 88.6996 85.3746 88.2753 84.3155C87.328 81.9639 83.6542 81.6152 81.9241 83.5886C80.9111 84.7431 80.6118 86.1607 80.5197 87.6375C80.4243 89.1702 80.5427 90.6733 81.2038 92.0909C82.6707 95.2451 86.7064 94.7945 87.9398 92.9066C88.249 92.4362 88.4924 91.9396 88.568 91.387C88.6173 91.0384 88.7752 90.9627 89.0976 90.9693C90.002 90.989 90.9065 91.0022 91.8077 90.966C92.2649 90.9463 92.3044 91.1173 92.2386 91.4956C91.6203 94.982 89.0548 97.2876 85.5256 97.5178C80.6808 97.8336 77.1879 94.755 76.8359 89.9004C76.6879 87.825 76.7965 85.7956 77.6023 83.8551C78.9738 80.5627 82.0557 78.8129 85.6736 79.2109C88.2391 79.4938 90.2915 80.5627 91.5512 82.9078C91.8965 83.5459 92.0742 84.2366 92.2386 84.9372C92.3143 85.2595 92.2682 85.4371 91.867 85.4108C91.3966 85.3779 90.923 85.4042 90.4494 85.4042L90.4526 85.4075Z" fill="#070604"/>
<path d="M80.8554 56.5164C80.7041 62.2229 78.3195 66.6894 73.4385 69.7516C70.5573 71.5573 67.4459 72.7709 64.0812 73.3037C63.2227 73.4386 62.361 73.4156 61.5091 73.2215C61.3315 73.182 61.1243 73.1294 61.0717 72.9255C61.0157 72.7084 61.1999 72.5966 61.3446 72.4881C61.7887 72.1493 62.3051 71.9519 62.8214 71.7513C66.4427 70.337 69.6791 68.2978 72.3564 65.4791C74.6818 63.0287 75.902 59.9896 76.448 56.6874C76.9644 53.5661 76.7967 50.4711 75.8626 47.432C75.5205 46.317 74.9087 45.3007 74.7015 44.1396C74.6752 43.9982 74.6621 43.8568 74.6522 43.712C74.6423 43.5213 74.6752 43.3206 74.843 43.2187C75.0304 43.1036 75.2015 43.2483 75.3462 43.3503C75.6981 43.6035 76.0204 43.8995 76.2474 44.2712C77.4643 46.2644 78.7076 48.2477 79.6253 50.4053C80.4541 52.3557 80.8587 54.3949 80.8554 56.5229V56.5164Z" fill="#070604"/>
<path d="M62.7688 88.3216C62.7688 85.6081 62.7786 82.898 62.7589 80.1845C62.7589 79.7668 62.8477 79.6385 63.2884 79.6385C67.0676 79.6582 70.85 79.6549 74.6291 79.6418C75.0107 79.6418 75.1718 79.7076 75.1455 80.1351C75.106 80.8094 75.0962 81.4935 75.1455 82.1678C75.1883 82.6907 74.9679 82.7499 74.5272 82.7466C72.0012 82.7269 69.4719 82.7499 66.9459 82.7269C66.4887 82.7236 66.3473 82.8289 66.367 83.2992C66.4065 84.2629 66.3999 85.2299 66.367 86.1936C66.3538 86.6047 66.4821 86.7067 66.8801 86.7034C69.0772 86.6837 71.2776 86.7034 73.4747 86.6837C73.899 86.6804 74.0503 86.7692 74.0207 87.2165C73.9779 87.871 73.9746 88.5321 74.0207 89.1866C74.0535 89.6603 73.8562 89.703 73.4615 89.6997C71.3236 89.6833 69.189 89.7063 67.0511 89.68C66.5413 89.6734 66.3473 89.7589 66.3604 90.3378C66.4032 92.3902 66.3604 94.4458 66.39 96.5015C66.3966 96.9817 66.2519 97.0771 65.8079 97.0607C64.9461 97.0245 64.0811 97.0278 63.2194 97.0607C62.8247 97.0771 62.7523 96.9455 62.7523 96.5772C62.7688 93.8242 62.7622 91.0713 62.7589 88.3183L62.7688 88.3216Z" fill="#070604"/>
<path d="M51.316 39.8836C51.316 38.6995 52.3028 37.7161 53.4737 37.7358C54.6314 37.7556 55.5721 38.716 55.5754 39.8803C55.5787 41.0611 54.5854 42.0445 53.4178 42.0248C52.2567 42.005 51.3193 41.0479 51.3193 39.8836H51.316Z" fill="#070604"/>
</g>
<defs>
<clipPath id="clip0_11012_1845">
<rect width="127.099" height="120" fill="white" transform="translate(0.901367)"/>
</clipPath>
</defs>
</svg>
