<svg width="115" height="160" viewBox="0 0 115 160" fill="none" xmlns="http://www.w3.org/2000/svg">
<path d="M39.9909 3.07054C34.8198 6.10374 31.9736 10.9074 29.4682 15.9716C29.0607 16.7934 28.8469 17.6887 28.74 18.6107C28.5463 20.3277 29.0607 21.2964 30.4838 21.7641C32.1006 22.2986 33.5637 21.7641 34.292 20.2809C34.9868 18.8579 35.6749 17.4348 36.5234 16.0986C40.2114 10.3061 45.4426 6.29749 51.4355 3.13067C54.4554 1.5339 57.6088 0.444887 61.0095 0.0707479C61.4638 0.0172996 62.0584 -0.143039 62.2588 0.317954C62.4258 0.698773 61.878 0.986057 61.5974 1.2867C58.5909 4.52033 55.6312 7.80073 53.0858 11.4219C52.0101 12.9518 51.3821 14.6622 51.3153 16.5462C51.2618 18.2365 52.7985 19.1719 54.3218 18.4236C54.9765 18.0962 55.4174 17.5484 55.8784 17.0005C59.2056 13.0721 62.9737 9.71151 67.9444 8.00116C70.9308 6.97896 74.0308 6.59145 77.1843 6.69167C77.8056 6.71171 78.6074 6.67831 78.7878 7.35977C78.9548 8.00115 78.1931 8.28176 77.7321 8.60913C73.1088 11.8695 69.1537 15.7445 66.5614 20.8555C66.1338 21.6973 65.8599 22.6126 66.7485 23.3676C67.6438 24.1225 68.5992 24.0156 69.5145 23.401C70.0356 23.0536 70.5166 22.6594 70.9976 22.2585C72.9886 20.6016 75.0731 19.0917 77.3313 17.8223C82.1416 15.1165 87.286 14.7156 92.6042 15.5574C93.9136 15.7645 95.2098 16.0986 96.5059 16.4059C96.9067 16.4995 97.3878 16.6398 97.4613 17.1007C97.5548 17.6553 96.9802 17.7087 96.6395 17.8958C94.849 18.8846 92.9516 19.6462 91.0208 20.3143C86.5378 21.8777 82.8298 24.7238 79.0683 27.4831C76.4494 29.4072 73.777 31.2579 70.8574 32.7077C65.4925 35.3667 59.867 35.4603 54.1213 34.4314C50.6739 33.8101 47.3734 32.554 43.8859 32.1197C37.726 31.3514 32.301 32.6342 28.2122 37.7452C25.2993 41.3864 24.845 45.5353 25.473 49.9314C26.1411 54.6282 28.132 58.9442 29.5551 63.4205C31.1652 68.4847 32.468 73.6091 32.301 78.9739C32.1473 83.7776 31.2521 88.3742 27.6443 91.9285C23.1947 96.3179 17.7831 97.7143 11.6766 96.9727C6.38522 96.3313 2.83091 93.5186 1.44125 88.4209C-0.663278 80.7177 0.639519 74.9386 7.54104 69.7942C9.846 68.0772 12.2913 66.5472 14.5628 64.7901C17.2152 62.7323 19.1193 60.1467 19.3064 56.6325C19.4934 53.0849 17.9568 51.1206 14.4827 50.2722C11.416 49.5239 8.2626 49.0762 5.3363 47.7935C4.5279 47.4394 3.77293 47.0185 3.15828 46.3637C1.8822 45.0008 2.05591 43.7314 3.76625 43.0232C5.80397 42.1814 7.91518 41.52 9.98631 40.7583C11.8637 40.0702 13.7611 39.4154 15.438 38.293C17.6161 36.8366 18.3443 34.9859 17.6495 32.4672C17.282 31.1443 16.7676 29.8682 16.3266 28.5654C14.9971 24.6503 15.7053 20.8755 17.3355 17.2611C19.8943 11.5688 23.8428 7.1059 29.5551 4.40007C32.4547 3.02378 35.5279 2.34231 38.7683 2.62959C39.1825 2.66968 39.6034 2.71644 39.9909 3.07722V3.07054Z" fill="white" fill-opacity="0.5"/>
<path d="M0.0233589 139.524C-0.0634947 134.346 0.551162 129.603 3.19686 125.32C5.72897 121.225 9.06282 117.871 12.7975 114.884C19.7592 109.319 27.4758 104.936 35.1724 100.527C39.5818 98.0015 44.145 95.6965 48.1403 92.5364C58.0683 84.6928 63.0858 74.404 62.8052 61.71C62.6983 56.8262 61.2685 52.1962 59.2108 47.76C58.5827 46.397 58.0616 44.9807 57.9213 43.4707C57.7209 41.3662 58.3489 40.9253 60.2597 41.8005C67.0276 44.9072 71.8446 49.9714 74.9179 56.6925C81.4854 71.0568 76.7218 85.3876 65.2905 94.9616C59.9724 99.4112 53.8325 102.511 47.559 105.351C39.3747 109.059 30.97 112.319 23.4204 117.296C17.3807 121.278 11.9691 125.908 8.15419 132.162C5.46841 136.571 4.10548 141.275 5.08759 146.479C5.17445 146.927 5.23458 147.401 5.16109 147.842C5.02078 148.657 4.67337 149.359 3.74471 149.546C2.86949 149.726 2.17466 149.419 1.68027 148.711C0.851816 147.521 0.491038 146.145 0.310649 144.729C0.0768126 142.905 -0.0568137 141.074 0.0233589 139.504V139.524Z" fill="white" fill-opacity="0.5"/>
<path d="M42.4819 140.025C46.8246 142.103 48.241 144.669 47.8802 149.579C47.5729 153.741 45.0074 156.908 40.8517 158.211C39.255 158.712 37.6047 158.986 35.9278 158.993C30.5429 159.013 25.1579 158.986 19.773 159.033C18.9045 159.04 18.7709 158.746 18.7709 157.971C18.7909 146.907 18.7976 135.843 18.7575 124.779C18.7575 123.81 19.0247 123.63 19.9334 123.637C25.3584 123.683 30.7901 123.643 36.2151 123.67C38.2261 123.677 40.197 123.997 42.0343 124.879C45.0742 126.336 46.6041 128.794 46.7511 132.122C46.8914 135.255 45.8425 137.847 43.1032 139.598C42.9362 139.705 42.7692 139.818 42.4752 140.019L42.4819 140.025ZM31.4248 143.459C29.7812 143.459 28.4383 143.526 27.1088 143.439C26.1133 143.372 25.7325 143.586 25.7927 144.689C25.8995 146.599 25.8194 148.524 25.8194 150.441C25.8194 152.913 25.8194 152.94 28.2646 152.9C31.0573 152.853 33.8567 153.12 36.636 152.713C39.1347 152.345 40.531 150.655 40.5845 148.036C40.6379 145.617 39.3752 144.161 36.8498 143.666C34.9457 143.292 33.0215 143.546 31.4181 143.459H31.4248ZM31.0373 137.5C31.0373 137.5 31.0373 137.46 31.0373 137.44C32.5806 137.44 34.1306 137.513 35.6672 137.42C37.7651 137.293 39.1881 136.244 39.6024 134.7C40.2972 132.102 39.0211 130.298 36.1616 129.93C32.9614 129.523 29.7412 129.817 26.5342 129.73C25.9864 129.716 25.806 129.903 25.8127 130.438C25.8327 132.563 25.8394 134.694 25.8127 136.818C25.806 137.38 26.0064 137.52 26.5342 137.506C28.0375 137.48 29.5407 137.493 31.0373 137.493V137.5Z" fill="white" fill-opacity="0.5"/>
<path d="M110.575 135.355C110.368 135.355 110.154 135.335 109.947 135.355C108.123 135.569 107.014 135.288 106.152 133.137C104.228 128.36 96.7653 127.652 93.2511 131.661C91.1933 134.006 90.5853 136.885 90.3983 139.885C90.2045 142.998 90.445 146.052 91.7879 148.931C94.7677 155.338 102.965 154.423 105.471 150.588C106.099 149.633 106.593 148.624 106.747 147.501C106.847 146.793 107.168 146.64 107.822 146.653C109.66 146.693 111.497 146.72 113.328 146.646C114.256 146.606 114.336 146.954 114.203 147.722C112.947 154.804 107.736 159.487 100.567 159.955C90.7256 160.596 83.6304 154.343 82.9155 144.482C82.6148 140.266 82.8353 136.144 84.4722 132.202C87.2582 125.514 93.5183 121.96 100.867 122.768C106.079 123.343 110.248 125.514 112.806 130.278C113.508 131.574 113.869 132.977 114.203 134.4C114.356 135.055 114.263 135.415 113.448 135.362C112.492 135.295 111.53 135.349 110.568 135.349L110.575 135.355Z" fill="white" fill-opacity="0.5"/>
<path d="M91.0803 76.6689C90.773 88.2605 85.9292 97.3334 76.0145 103.553C70.162 107.221 63.8417 109.687 57.007 110.769C55.2632 111.043 53.5128 110.996 51.7824 110.602C51.4216 110.522 51.0007 110.415 50.8938 110.001C50.7802 109.56 51.1544 109.333 51.4483 109.112C52.3503 108.424 53.3992 108.023 54.4481 107.616C61.804 104.743 68.3781 100.6 73.8165 94.8748C78.54 89.8974 81.0187 83.7241 82.1277 77.0163C83.1766 70.676 82.8359 64.3892 80.9385 58.2159C80.2437 55.951 79.001 53.8866 78.5801 51.5281C78.5266 51.2409 78.4999 50.9536 78.4799 50.6596C78.4598 50.2721 78.5266 49.8646 78.8674 49.6574C79.2482 49.4236 79.5956 49.7176 79.8896 49.9247C80.6044 50.4391 81.2592 51.0404 81.7202 51.7954C84.1922 55.8441 86.7176 59.8728 88.5816 64.2555C90.2652 68.2174 91.087 72.3597 91.0803 76.6823V76.6689Z" fill="white" fill-opacity="0.5"/>
<path d="M54.341 141.275C54.341 135.763 54.361 130.258 54.321 124.746C54.321 123.897 54.5013 123.637 55.3966 123.637C63.0731 123.677 70.7563 123.67 78.4329 123.643C79.2079 123.643 79.5352 123.777 79.4818 124.646C79.4016 126.015 79.3816 127.405 79.4818 128.774C79.5686 129.837 79.121 129.957 78.2257 129.95C73.0947 129.91 67.957 129.957 62.8259 129.91C61.8973 129.904 61.61 130.117 61.6501 131.073C61.7302 133.03 61.7169 134.994 61.6501 136.952C61.6233 137.787 61.8839 137.994 62.6923 137.988C67.1553 137.948 71.6249 137.988 76.0878 137.948C76.9497 137.941 77.257 138.121 77.1969 139.03C77.11 140.359 77.1033 141.702 77.1969 143.032C77.2637 143.994 76.8628 144.081 76.0611 144.074C71.7184 144.041 67.3824 144.087 63.0397 144.034C62.0042 144.021 61.61 144.194 61.6367 145.37C61.7236 149.539 61.6367 153.715 61.6968 157.89C61.7102 158.866 61.4162 159.06 60.5143 159.026C58.7639 158.953 57.0067 158.959 55.2563 159.026C54.4546 159.06 54.3076 158.792 54.3076 158.044C54.341 152.452 54.3276 146.86 54.321 141.268L54.341 141.275Z" fill="white" fill-opacity="0.5"/>
<path d="M31.0772 42.8828C31.0772 40.4777 33.0815 38.48 35.46 38.5201C37.8117 38.5602 39.7225 40.5111 39.7292 42.8762C39.7359 45.2747 37.7182 47.2723 35.3464 47.2322C32.988 47.1921 31.0839 45.2479 31.0839 42.8828H31.0772Z" fill="white" fill-opacity="0.5"/>
</svg>
