<svg width="281" height="229" viewBox="0 0 281 229" fill="none" xmlns="http://www.w3.org/2000/svg">
<path d="M268.59 76.6114H59.3672L150.747 4.75735C158.504 -1.33998 169.465 -1.33998 177.222 4.76888L268.59 76.6114Z" fill="#F33039"/>
<path d="M268.59 76.6116C261.755 81.8214 254.194 87.7113 246.333 93.8778C228.975 107.525 210.233 122.555 195.007 134.842C177.026 149.342 163.99 160.015 163.99 160.015C163.99 160.015 150.942 149.342 132.962 134.842C117.736 122.555 98.9826 107.525 81.6242 93.8778C73.7634 87.7113 66.2022 81.8214 59.3672 76.6116H268.59Z" fill="#811F26"/>
<mask id="mask0_11067_845" style="mask-type:luminance" maskUnits="userSpaceOnUse" x="52" y="145" width="224" height="84">
<path d="M52.7168 145.734H275.298V228.814H52.7168V145.734Z" fill="white"/>
</mask>
<g mask="url(#mask0_11067_845)">
<path d="M275.16 217.162C269.858 224.227 261.386 228.815 251.854 228.815H76.0919C66.5713 228.815 58.0996 224.227 52.8091 217.162L133.089 146.333L133.734 145.757L136.731 148.108L163.979 169.536L191.227 148.108H191.238L194.235 145.746L194.88 146.322L275.16 217.162Z" fill="#F33039"/>
</g>
<mask id="mask1_11067_845" style="mask-type:luminance" maskUnits="userSpaceOnUse" x="194" y="81" width="87" height="137">
<path d="M194.027 81.8213H280.9V217.242H194.027V81.8213Z" fill="white"/>
</mask>
<g mask="url(#mask1_11067_845)">
<path d="M280.9 98.8803V199.942C280.9 206.396 278.756 212.355 275.16 217.162L202.995 153.48L194.88 146.322L194.223 145.746L272.705 84.0576C272.728 84.0346 272.751 84.0115 272.785 83.9885L275.333 81.9829C275.333 81.9829 276.105 83.0087 276.405 83.4813C276.508 83.6427 276.612 83.7925 276.704 83.9539C279.367 88.3108 280.9 93.4169 280.9 98.8803Z" fill="#F33039"/>
</g>
<path d="M133.734 145.757L133.088 146.333L124.974 153.491L52.8084 217.162C49.2007 212.355 47.0684 206.396 47.0684 199.942V98.8802C47.0684 93.2209 48.7051 87.9419 51.5405 83.4813C51.7249 83.2047 52.3473 82.4324 52.9467 81.7063C52.9928 81.6486 53.0274 81.6025 53.0735 81.5564L54.4566 80.4614L133.734 145.757Z" fill="#F33039"/>
<path d="M267.518 89.3134C263.749 93.117 259.818 97.0705 255.842 101.059C232.617 124.33 207.72 148.834 202.994 153.479V153.491C202.476 153.998 202.199 154.263 202.199 154.263C202.199 154.263 204.965 157.03 209.253 161.34C224.26 176.451 257.905 210.638 256.51 211.929C254.228 214.026 187.204 165.167 187.204 165.167L170.421 177.35C169.073 178.33 167.448 178.964 165.73 179.183C165.189 179.252 164.612 179.275 163.99 179.252C163.344 179.275 162.768 179.252 162.226 179.183C160.509 178.964 158.895 178.33 157.535 177.35L140.765 165.167C140.765 165.167 73.279 213.623 71.4579 211.94C70.0517 210.638 103.708 176.451 118.715 161.34C122.991 157.03 125.758 154.263 125.758 154.263C125.758 154.263 125.481 153.998 124.974 153.491C120.271 148.869 95.3516 124.341 72.1033 101.035C68.1268 97.059 64.2079 93.1055 60.4389 89.3019C58.6639 87.5153 56.9349 85.7518 55.2406 84.0344H55.2291C54.4683 83.2391 53.7076 82.4784 52.9469 81.7061C52.9354 81.6946 52.9354 81.6831 52.9238 81.6716L53.0737 81.5563L54.4568 80.4613L55.2636 79.8274L59.3669 76.6116C63.3896 79.6775 67.6658 82.9855 72.1033 86.4319C75.2039 88.8523 78.3966 91.342 81.624 93.8778C119.499 123.638 163.99 160.015 163.99 160.015C163.99 160.015 208.469 123.638 246.333 93.8778C249.56 91.342 252.741 88.8523 255.842 86.4434C260.291 82.9855 264.567 79.6775 268.59 76.6116L272.716 79.8504H272.728L275.332 81.9828C275.332 81.9828 269.281 87.5268 267.518 89.3134Z" fill="#E11F25"/>
<path d="M255.841 37.9067V86.4434C252.741 88.8523 249.56 91.342 246.332 93.8777C208.469 123.638 163.99 160.015 163.99 160.015C163.99 160.015 119.499 123.638 81.6236 93.8777C78.3963 91.342 75.2036 88.8523 72.103 86.4318V12.5261H230.311L255.841 37.9067Z" fill="#F5F5F7"/>
<path d="M255.841 37.9067H230.311V12.5261L255.841 37.9067Z" fill="#EED124"/>
<path d="M148.879 82.778C148.879 91.9067 152.717 96.6785 159.01 96.6785C166.698 96.6785 172.45 91.7914 175.435 78.4326C178.213 66.2379 174.697 59.449 165.096 59.449C154.849 59.449 148.879 70.2721 148.879 82.778ZM188.874 116.181C183.549 120.111 175.009 123.292 162.318 123.292C138.424 123.292 121.896 107.167 121.896 81.0836C121.896 55.2074 139.07 34.322 167.332 34.322C188.667 34.322 206.048 47.8998 206.048 71.0098C206.048 90.3161 195.917 101.865 183.549 101.865C177.579 101.865 173.522 99.2143 173.948 92.5406C170.433 98.3729 165.73 101.865 158.157 101.865C149.847 101.865 143.231 95.8256 143.231 83.3082C143.231 66.9871 152.717 54.366 165.2 54.366C174.905 54.366 178.005 60.1982 178.858 63.9097L180.875 55.4264H186.004L179.388 86.2819C177.683 94.235 180.138 96.6785 184.299 96.6785C193.681 96.6785 200.182 86.8121 200.182 71.4362C200.182 52.0262 186.857 39.5203 166.906 39.5203C142.804 39.5203 127.97 57.4435 127.867 81.0836C127.763 102.292 141.306 117.875 162.641 117.875C171.286 117.875 179.919 116.077 187.065 111.409L188.874 116.181Z" fill="#EED124"/>
<mask id="mask2_11067_845" style="mask-type:luminance" maskUnits="userSpaceOnUse" x="0" y="55" width="100" height="99">
<path d="M0.0996094 55.0344H99.19V153.537H0.0996094V55.0344Z" fill="white"/>
</mask>
<g mask="url(#mask2_11067_845)">
<mask id="mask3_11067_845" style="mask-type:luminance" maskUnits="userSpaceOnUse" x="0" y="55" width="100" height="99">
<path d="M99.0055 104.24C99.0055 131.384 76.8638 153.399 49.5468 153.399C22.2413 153.399 0.0996094 131.384 0.0996094 104.24C0.0996094 77.084 22.2413 55.0691 49.5468 55.0691C76.8638 55.0691 99.0055 77.084 99.0055 104.24Z" fill="white"/>
</mask>
<g mask="url(#mask3_11067_845)">
<mask id="mask4_11067_845" style="mask-type:luminance" maskUnits="userSpaceOnUse" x="0" y="55" width="100" height="99">
<path d="M99.0055 104.24C99.0055 131.384 76.8638 153.399 49.5468 153.399C22.2413 153.399 0.0996094 131.384 0.0996094 104.24C0.0996094 77.084 22.2413 55.0691 49.5468 55.0691C76.8638 55.0691 99.0055 77.084 99.0055 104.24Z" fill="white"/>
</mask>
<g mask="url(#mask4_11067_845)">
<mask id="mask5_11067_845" style="mask-type:luminance" maskUnits="userSpaceOnUse" x="-50" y="5" width="199" height="198">
<path d="M48.3365 202.546L148.441 105.438L50.757 5.92163L-49.3477 103.029L48.3365 202.546Z" fill="white"/>
</mask>
<g mask="url(#mask5_11067_845)">
<path d="M48.3365 202.546L148.441 105.438L50.757 5.92163L-49.3477 103.029L48.3365 202.546Z" fill="url(#paint0_linear_11067_845)"/>
</g>
</g>
</g>
</g>
<path d="M38.4238 79.2163H55.7246V129.263H44.8324V89.7051H38.4238V79.2163Z" fill="white"/>
<defs>
<linearGradient id="paint0_linear_11067_845" x1="97.6957" y1="2.18264" x2="89.1501" y2="253.975" gradientUnits="userSpaceOnUse">
<stop stop-color="#F64952"/>
<stop offset="1" stop-color="#902B30"/>
</linearGradient>
</defs>
</svg>
