<svg width="301" height="262" viewBox="0 0 301 262" fill="none" xmlns="http://www.w3.org/2000/svg">
<mask id="mask0_11067_952" style="mask-type:luminance" maskUnits="userSpaceOnUse" x="0" y="0" width="301" height="262">
<path d="M0.5 0.708008H300.5V261.292H0.5V0.708008Z" fill="white"/>
</mask>
<g mask="url(#mask0_11067_952)">
<path d="M271.702 137.524L300.5 118.01L269.41 102.453L284.43 70.9749L249.781 73.3814L246.885 38.5844L221.736 55.8745L206.408 29.4147L188.935 59.5812L158.666 42.4621L158.792 77.3732L141.558 77.6925L141.741 0.708008H0.5V174.351H37.042C37.213 174.385 37.3613 174.431 37.5324 174.453C38 174.522 38.479 174.568 38.9466 174.602C39.0721 174.613 39.1975 174.613 39.3116 174.625C39.6766 174.647 40.0415 174.659 40.4065 174.659C40.5319 174.659 40.6574 174.659 40.7828 174.659C41.1592 174.647 41.5356 174.625 41.9234 174.59C42.0146 174.59 42.1172 174.579 42.2085 174.568C42.6761 174.522 43.1551 174.453 43.6113 174.362H49.599C48.2988 175.035 47.0785 175.765 45.9836 176.552C45.9037 176.609 45.8353 176.655 45.7555 176.712C45.2537 177.077 44.786 177.453 44.3412 177.841C44.2614 177.898 44.2044 177.955 44.1359 178.023C43.6797 178.422 43.2578 178.833 42.8814 179.266C32.4571 191.014 22.8084 224.111 22.8084 233.897C22.8084 240.136 27.6099 243.694 30.427 243.74H28.7162C27.6213 243.74 26.7203 244.641 26.7203 245.747C26.7203 246.865 27.6213 247.754 28.7162 247.754H0.5V261.281H211.164V247.754H149.131C150.694 247.754 152.097 246.75 152.599 245.256L165.908 205.703L191.752 189.554L210.525 218.933L226.675 188.014L257.651 203.799L256.009 168.922L290.669 166.766L271.702 137.524ZM52.2222 227.202C52.1994 227.191 52.1651 227.179 52.1651 227.168C52.1651 227.156 52.1766 227.099 52.188 227.042C52.1994 227.008 52.2108 226.963 52.2222 226.917V227.202ZM107.252 194.173C107.252 194.173 107.286 194.139 107.343 194.082C107.354 194.07 107.377 194.047 107.389 194.025C107.457 193.968 107.526 193.888 107.628 193.797C107.651 193.762 107.685 193.728 107.719 193.705C107.845 193.568 108.005 193.409 108.198 193.226C110.833 190.569 118.589 182.688 126.025 174.305L129.081 173.986L130.119 173.883L160.867 173.096L161.711 194.173H107.252Z" fill="#FBEEEC"/>
</g>
<mask id="mask1_11067_952" style="mask-type:luminance" maskUnits="userSpaceOnUse" x="111" y="28" width="190" height="194">
<path d="M111.905 28.9473H300.5V221.648H111.905V28.9473Z" fill="white"/>
</mask>
<g mask="url(#mask1_11067_952)">
<path d="M271.703 137.524L300.501 118.01L269.41 102.453L284.431 70.975L249.782 73.3815L246.885 38.5845L221.737 55.8747L206.408 29.4148L188.936 59.5813L158.667 42.4622L158.792 77.3733L141.559 77.6926L124.075 78.012L140.099 105.236L138.457 97.2638C137.932 94.7661 139.05 92.2113 141.228 90.8997L143.908 89.2916L145.847 85.1858C146.805 83.1671 149.28 82.3915 151.208 83.5206L158.838 87.9914L159.705 88.5047C161.883 89.782 163.126 92.2227 162.875 94.7547L162.75 96.0435L162.613 97.4349C162.419 99.4764 161.826 101.461 160.879 103.274L157.366 109.98C157.366 109.98 155.257 117.074 152.28 125.925C150.261 131.97 147.843 138.813 145.437 144.812C143.6 149.362 141.776 153.423 140.122 156.251C137.339 161.03 131.944 167.622 126.31 173.986L130.12 173.883L160.868 173.096L161.712 194.173H166.97C168.361 194.173 169.33 195.542 168.886 196.853L165.909 205.704L191.753 189.554L210.526 218.922L226.675 188.014L257.652 203.799L256.009 168.922L290.681 166.767L271.703 137.524ZM201.664 73.9289C203.055 70.1082 207.663 68.6142 211.016 70.9066C213.388 72.5261 214.974 74.9782 215.578 77.704C215.863 78.9928 215.943 80.3386 215.749 81.6958L212.647 103.309L243.988 107.574C247.923 108.11 250.854 111.475 250.854 115.466V119.378C250.854 122.971 248.47 126.119 245.026 127.065L241.285 150.902C240.487 156.012 236.404 159.981 231.294 160.596L222.376 161.691C218.806 162.125 215.202 162.056 211.666 161.486L171.463 155.008V113.664L191.582 101.621L200.295 77.704L201.664 73.9289ZM140.225 109.011L124.999 133.441L112.134 126.278L140.225 109.011Z" fill="#EED124"/>
</g>
<path d="M29.5486 50.1148C29.5486 49.7499 29.8451 49.4533 30.2101 49.4533H88.1253C88.4902 49.4533 88.7867 49.7499 88.7867 50.1148C88.7867 50.4912 88.4902 50.7877 88.1253 50.7877H30.2101C29.8451 50.7877 29.5486 50.4912 29.5486 50.1148ZM93.2005 59.4556V40.7854C93.2005 40.4205 93.4971 40.1239 93.862 40.1239H112.43C112.795 40.1239 113.091 40.4205 113.091 40.7854V43.785L116.535 40.3178C116.798 40.0555 117.22 40.0555 117.471 40.3178C117.733 40.5801 117.733 41.0021 117.471 41.253L113.091 45.6668V59.4556C113.091 59.8206 112.795 60.1171 112.43 60.1171H93.862C93.4971 60.1171 93.2005 59.8206 93.2005 59.4556ZM94.5235 58.7827H111.768V47.0012L104.161 54.6426C104.035 54.7681 103.864 54.8365 103.693 54.8365C103.522 54.8365 103.351 54.7681 103.226 54.6426L96.565 47.9478C96.3027 47.6855 96.3027 47.2635 96.565 47.0126C96.8273 46.7503 97.2379 46.7503 97.5003 47.0126L103.693 53.2284L111.768 45.108V41.4469H94.5235V58.7827ZM30.2101 82.5966H88.1253C88.4902 82.5966 88.7867 82.3 88.7867 81.9351C88.7867 81.5701 88.4902 81.2736 88.1253 81.2736H30.2101C29.8451 81.2736 29.5486 81.5701 29.5486 81.9351C29.5486 82.3 29.8451 82.5966 30.2101 82.5966ZM30.2101 114.417H88.1253C88.4902 114.417 88.7867 114.12 88.7867 113.755C88.7867 113.379 88.4902 113.082 88.1253 113.082H30.2101C29.8451 113.082 29.5486 113.379 29.5486 113.755C29.5486 114.12 29.8451 114.417 30.2101 114.417ZM117.471 72.1267C117.733 72.389 117.733 72.811 117.471 73.0733L113.091 77.4757V91.2645C113.091 91.6408 112.795 91.9374 112.43 91.9374H93.862C93.4971 91.9374 93.2005 91.6408 93.2005 91.2645V72.5943C93.2005 72.2293 93.4971 71.9328 93.862 71.9328H112.43C112.795 71.9328 113.091 72.2293 113.091 72.5943V75.5938L116.535 72.1267C116.798 71.8644 117.22 71.8644 117.471 72.1267ZM111.768 73.2672H94.5235V90.603H111.768V78.8101L104.161 86.4629C104.035 86.5884 103.864 86.6568 103.693 86.6568C103.511 86.6568 103.351 86.5884 103.226 86.4629L96.565 79.7681C96.3027 79.5058 96.3027 79.0838 96.565 78.8215C96.8273 78.5592 97.2379 78.5592 97.5003 78.8215L103.693 85.0487L111.768 76.9282V73.2672ZM117.471 103.947C117.733 104.209 117.733 104.631 117.471 104.882L113.091 109.296V123.085C113.091 123.45 112.795 123.746 112.43 123.746H93.862C93.4971 123.746 93.2005 123.45 93.2005 123.085V104.415C93.2005 104.05 93.4971 103.753 93.862 103.753H112.43C112.795 103.753 113.091 104.05 113.091 104.415V107.414L116.535 103.947C116.798 103.685 117.22 103.685 117.471 103.947ZM111.768 105.076H94.5235V122.412H111.768V110.63L104.161 118.272C104.035 118.409 103.864 118.466 103.693 118.466C103.522 118.466 103.351 118.397 103.226 118.272L96.565 111.577C96.3027 111.315 96.3027 110.893 96.565 110.642C96.8273 110.379 97.2379 110.379 97.5003 110.642L103.693 116.858L111.768 108.737V105.076ZM95.3561 129.392C95.2991 129.301 95.242 129.209 95.185 129.118C95.0824 128.97 94.9911 128.821 94.8885 128.685C94.7972 128.559 94.7174 128.445 94.6262 128.331C94.5463 128.217 94.4551 128.103 94.3753 128C94.2042 127.784 94.0217 127.59 93.8506 127.407C93.7822 127.339 93.7252 127.282 93.6567 127.213C93.5199 127.077 93.383 126.951 93.2461 126.826C93.1891 126.78 93.1207 126.723 93.0637 126.677C92.8698 126.518 92.6873 126.381 92.4934 126.255C88.5586 123.849 84.487 123.096 80.7804 123.495C80.2101 123.564 79.6513 123.644 79.1038 123.758C78.5906 123.86 78.0773 123.997 77.5869 124.145C76.8114 124.373 76.0815 124.67 75.3629 125.001C72.8652 126.141 70.7439 127.818 69.2498 129.802C68.4514 130.874 67.8584 132.004 67.4478 133.155C66.6152 135.459 66.4784 137.832 66.638 139.953C66.7293 141.059 66.9003 142.097 67.0942 143.032C64.5167 142.257 58.8027 141.093 54.1038 143.99C49.097 147.081 47.8994 153 44.3867 155.224C40.8625 157.448 37.669 156.502 33.2553 159.33C27.0395 163.299 28.8187 172.857 37.0418 174.351C37.2128 174.385 37.3611 174.431 37.5322 174.453C37.9998 174.522 38.4788 174.567 38.9464 174.602C39.0719 174.613 39.1973 174.613 39.3114 174.624C39.6763 174.647 40.0413 174.659 40.4063 174.659C40.5317 174.659 40.6572 174.659 40.7826 174.659C41.159 174.647 41.5354 174.624 41.9117 174.59C42.0144 174.59 42.117 174.579 42.2083 174.567C42.6759 174.522 43.1549 174.453 43.6111 174.351C48.1389 173.427 52.222 170.211 54.3091 162.318C57.2516 151.107 58.2211 144.424 67.2197 143.591C67.2311 143.66 67.2425 143.728 67.2539 143.785C67.4478 144.618 67.6645 145.325 67.8356 145.895C69.8999 152.727 74.0513 160.87 74.0513 160.87L76.8912 151.894C75.8534 151.358 74.8269 150.537 73.9487 149.259C72.2151 146.728 72.7284 142.28 77.1763 141.812C79.7881 141.538 81.7384 142.644 82.9131 143.603C87.0646 142.086 93.5199 138.516 96.0062 130.555V130.544C95.8123 130.144 95.5842 129.757 95.3561 129.392Z" fill="#E11F25"/>
<path d="M73.9488 149.26C74.827 150.537 75.8534 151.358 76.8913 151.894L74.0514 160.87L74.0172 166.926H91.3758L91.4556 164.497C91.5126 162.763 92.7444 161.304 94.4324 160.973L98.6751 160.129C100.34 159.718 101.435 158.144 101.253 156.434L100.694 151.062C100.58 150.035 100.899 149.009 101.583 148.233L102.781 146.842C103.682 145.884 103.625 144.207 102.473 143.591C100.454 142.508 97.9565 140.763 97.7512 139.075C97.5574 137.535 97.4433 135.243 96.8046 132.665C96.6335 131.97 96.3484 131.251 96.0063 130.555C93.5199 138.516 87.0761 142.086 82.9246 143.603C81.7385 142.645 79.7882 141.539 77.1764 141.812C72.7284 142.28 72.2152 146.728 73.9488 149.26ZM168.885 196.853L165.908 205.704L152.598 245.257C152.097 246.751 150.694 247.754 149.131 247.754H28.7161C27.6212 247.754 26.7202 246.865 26.7202 245.747C26.7202 244.641 27.6212 243.74 28.7161 243.74H71.9757L77.4045 227.601L87.8174 196.671C88.3192 195.177 89.7106 194.173 91.2845 194.173H166.969C168.36 194.173 169.33 195.542 168.885 196.853ZM127.541 220.964C127.541 217.919 125.078 215.444 122.044 215.444C119.022 215.444 116.558 217.919 116.558 220.964C116.558 224.02 119.022 226.484 122.044 226.484C125.078 226.484 127.541 224.02 127.541 220.964ZM140.098 105.236L140.714 108.213L157.366 109.981L160.879 103.274C161.825 101.461 162.418 99.4765 162.612 97.435L162.749 96.0435L162.874 94.7548C163.125 92.2228 161.882 89.7821 159.704 88.5048L158.826 87.9915L151.207 83.5207C149.28 82.3916 146.805 83.1672 145.847 85.1859L143.908 89.2803L141.228 90.8998C139.049 92.2114 137.931 94.7662 138.456 97.2639L140.098 105.236Z" fill="#F4A07F"/>
<path d="M157.366 109.98L140.715 108.213L140.224 109.011L124.998 133.441L122.193 137.957C119.649 142.04 116.49 145.701 112.818 148.803L91.3761 166.926H74.0175C74.0175 166.926 59.5559 169.15 49.5992 174.351C48.299 175.035 47.0787 175.765 45.9838 176.552C45.9039 176.609 45.8355 176.655 45.7557 176.712C45.2538 177.077 44.7862 177.453 44.3414 177.841C44.2616 177.898 44.2046 177.955 44.1361 178.023C43.6799 178.423 43.258 178.833 42.8816 179.255C32.4573 191.014 22.8086 224.111 22.8086 233.897C22.8086 240.124 27.6101 243.694 30.4272 243.74H71.976L77.4049 227.601L87.8177 196.671C88.3195 195.177 89.711 194.173 91.2849 194.173H107.252C107.252 194.173 107.286 194.139 107.343 194.082C107.355 194.07 107.377 194.048 107.389 194.025C107.457 193.968 107.526 193.888 107.628 193.785C107.651 193.762 107.685 193.728 107.72 193.705C107.845 193.568 108.005 193.409 108.199 193.226C108.199 193.226 108.199 193.226 108.199 193.215C110.833 190.569 118.589 182.688 126.025 174.305C126.116 174.191 126.219 174.089 126.31 173.975C131.944 167.622 137.339 161.018 140.122 156.251C141.775 153.423 143.6 149.362 145.436 144.812C147.843 138.813 150.261 131.969 152.279 125.925C155.245 117.074 157.366 109.98 157.366 109.98ZM52.1653 227.168C52.1653 227.157 52.1768 227.1 52.1882 227.042C52.1996 227.008 52.211 226.963 52.2224 226.917V227.202C52.1996 227.191 52.1653 227.179 52.1653 227.168Z" fill="#F9E1E2"/>
</svg>
